<?xml version="1.0"?>
<svg version="1.1" xmlns="http://www.w3.org/2000/svg" xmlns:xlink="http://www.w3.org/1999/xlink" width="780" height="220">
    <desc iVinci="yes" version="4.6" gridStep="20" showGrid="no" snapToGrid="no" codePlatform="0"/>
    <g id="Layer1" name="Layer 1" opacity="1">
        <g id="Shape1">
            <desc shapeID="1" type="0" basicInfo-basicType="0" basicInfo-roundedRectRadius="12" basicInfo-polygonSides="6" basicInfo-starPoints="5" bounding="rect(-121,-62,242,124)" text="" font-familyName="Latin Modern Math" font-pixelSize="10" font-bold="0" font-underline="0" font-alignment="1" strokeStyle="0" markerStart="0" markerEnd="0" shadowEnabled="0" shadowOffsetX="0" shadowOffsetY="2" shadowBlur="4" shadowOpacity="160" blurEnabled="0" blurRadius="4" transform="matrix(1,0,0,1,180.877,101.066)" pers-center="0,0" pers-size="0,0" pers-start="0,0" pers-end="0,0" locked="0" mesh="" flag=""/>
            <path id="shapePath1" d="M59.8772,148.066 C59.8772,148.066 133.877,39.0658 133.877,39.0658 C133.877,39.0658 264.877,57.0658 264.877,57.0658 C264.877,57.0658 301.877,163.066 301.877,163.066 " style="stroke:#8a8a8a;stroke-opacity:1;stroke-width:1.5;stroke-linejoin:miter;stroke-miterlimit:2;stroke-linecap:round;fill:none;"/>
        </g>
        <g id="Shape2">
            <desc shapeID="2" type="0" basicInfo-basicType="0" basicInfo-roundedRectRadius="12" basicInfo-polygonSides="6" basicInfo-starPoints="5" bounding="rect(-120.79,-63.2712,241.581,126.542)" text="" font-familyName="Latin Modern Math" font-pixelSize="20" font-bold="0" font-underline="0" font-alignment="1" strokeStyle="0" markerStart="0" markerEnd="0" shadowEnabled="0" shadowOffsetX="0" shadowOffsetY="2" shadowBlur="4" shadowOpacity="160" blurEnabled="0" blurRadius="4" transform="matrix(1,0,0,1,577.205,116.248)" pers-center="0,0" pers-size="0,0" pers-start="0,0" pers-end="0,0" locked="0" mesh="" flag=""/>
            <path id="shapePath2" d="M456.415,161.113 C456.415,161.113 531.573,52.977 531.573,52.977 C531.573,52.977 697.995,179.519 697.995,179.519 C697.995,179.519 661.95,68.3155 661.95,68.3155 " style="stroke:#929292;stroke-opacity:1;stroke-width:2.5;stroke-linejoin:miter;stroke-miterlimit:2;stroke-linecap:round;fill:none;"/>
        </g>
    </g>
    <g id="Layer2" name="Layer 3" opacity="1">
        <g id="Shape3">
            <desc shapeID="3" type="0" basicInfo-basicType="0" basicInfo-roundedRectRadius="12" basicInfo-polygonSides="6" basicInfo-starPoints="5" bounding="rect(-120.807,-45.013,241.614,90.026)" text="" font-familyName="Latin Modern Math" font-pixelSize="10" font-bold="0" font-underline="0" font-alignment="1" strokeStyle="0" markerStart="0" markerEnd="0" shadowEnabled="0" shadowOffsetX="0" shadowOffsetY="2" shadowBlur="4" shadowOpacity="160" blurEnabled="0" blurRadius="4" transform="matrix(1,0,0,1,180.57,119.553)" pers-center="0,0" pers-size="0,0" pers-start="0,0" pers-end="0,0" locked="0" mesh="" flag=""/>
            <path id="shapePath3" d="M59.7634,148.49 C133.615,39.2746 265.324,56.4096 301.377,164.566 " style="stroke:#004aff;stroke-opacity:1;stroke-width:2.5;stroke-linejoin:miter;stroke-miterlimit:2;stroke-linecap:round;fill:none;"/>
        </g>
        <g id="Shape4">
            <desc shapeID="4" type="0" basicInfo-basicType="0" basicInfo-roundedRectRadius="12" basicInfo-polygonSides="6" basicInfo-starPoints="5" bounding="rect(-105.705,-46.1437,211.411,92.2875)" text="" font-familyName="Latin Modern Math" font-pixelSize="20" font-bold="0" font-underline="0" font-alignment="1" strokeStyle="0" markerStart="0" markerEnd="0" shadowEnabled="0" shadowOffsetX="0" shadowOffsetY="2" shadowBlur="4" shadowOpacity="160" blurEnabled="0" blurRadius="4" transform="matrix(1,0,0,1,562.016,115.993)" pers-center="0,0" pers-size="0,0" pers-start="0,0" pers-end="0,0" locked="0" mesh="" flag=""/>
            <path id="shapePath4" d="M456.311,162.137 C528.977,53.4254 698.954,179.136 662.717,69.8493 " style="stroke:#1e68ff;stroke-opacity:1;stroke-width:2.5;stroke-linejoin:miter;stroke-miterlimit:2;stroke-linecap:round;fill:none;"/>
        </g>
    </g>
    <g id="Layer3" name="Layer 2" opacity="1">
        <g id="Shape5">
            <desc shapeID="5" type="0" basicInfo-basicType="1" basicInfo-roundedRectRadius="12" basicInfo-polygonSides="6" basicInfo-starPoints="5" bounding="rect(-3.5,-3.5,7,7)" text="" font-familyName="Helvetica" font-pixelSize="20" font-bold="0" font-underline="0" font-alignment="1" strokeStyle="0" markerStart="0" markerEnd="0" shadowEnabled="0" shadowOffsetX="0" shadowOffsetY="2" shadowBlur="4" shadowOpacity="160" blurEnabled="0" blurRadius="4" transform="matrix(1,0,0,1,59.8772,149.066)" pers-center="0,0" pers-size="0,0" pers-start="0,0" pers-end="0,0" locked="0" mesh="" flag=""/>
            <path id="shapePath5" d="M56.3772,145.566 L63.3772,145.566 L63.3772,152.566 L56.3772,152.566 L56.3772,145.566 Z" style="stroke:none;fill-rule:evenodd;fill:#000000;fill-opacity:1;"/>
        </g>
        <g id="Shape6">
            <desc shapeID="6" type="0" basicInfo-basicType="1" basicInfo-roundedRectRadius="12" basicInfo-polygonSides="6" basicInfo-starPoints="5" bounding="rect(-3.5,-3.5,7,7)" text="" font-familyName="Helvetica" font-pixelSize="20" font-bold="0" font-underline="0" font-alignment="1" strokeStyle="0" markerStart="0" markerEnd="0" shadowEnabled="0" shadowOffsetX="0" shadowOffsetY="2" shadowBlur="4" shadowOpacity="160" blurEnabled="0" blurRadius="4" transform="matrix(1,0,0,1,133.877,40.0658)" pers-center="0,0" pers-size="0,0" pers-start="0,0" pers-end="0,0" locked="0" mesh="" flag=""/>
            <path id="shapePath6" d="M130.377,36.5658 L137.377,36.5658 L137.377,43.5658 L130.377,43.5658 L130.377,36.5658 Z" style="stroke:none;fill-rule:evenodd;fill:#000000;fill-opacity:1;"/>
        </g>
        <g id="Shape7">
            <desc shapeID="7" type="0" basicInfo-basicType="1" basicInfo-roundedRectRadius="12" basicInfo-polygonSides="6" basicInfo-starPoints="5" bounding="rect(-3.5,-3.5,7,7)" text="" font-familyName="Helvetica" font-pixelSize="20" font-bold="0" font-underline="0" font-alignment="1" strokeStyle="0" markerStart="0" markerEnd="0" shadowEnabled="0" shadowOffsetX="0" shadowOffsetY="2" shadowBlur="4" shadowOpacity="160" blurEnabled="0" blurRadius="4" transform="matrix(1,0,0,1,265.877,56.5658)" pers-center="0,0" pers-size="0,0" pers-start="0,0" pers-end="0,0" locked="0" mesh="" flag=""/>
            <path id="shapePath7" d="M262.377,53.0658 L269.377,53.0658 L269.377,60.0658 L262.377,60.0658 L262.377,53.0658 Z" style="stroke:none;fill-rule:evenodd;fill:#000000;fill-opacity:1;"/>
        </g>
        <g id="Shape8">
            <desc shapeID="8" type="0" basicInfo-basicType="1" basicInfo-roundedRectRadius="12" basicInfo-polygonSides="6" basicInfo-starPoints="5" bounding="rect(-3.5,-3.5,7,7)" text="" font-familyName="Helvetica" font-pixelSize="20" font-bold="0" font-underline="0" font-alignment="1" strokeStyle="0" markerStart="0" markerEnd="0" shadowEnabled="0" shadowOffsetX="0" shadowOffsetY="2" shadowBlur="4" shadowOpacity="160" blurEnabled="0" blurRadius="4" transform="matrix(1,0,0,1,301.877,166.066)" pers-center="0,0" pers-size="0,0" pers-start="0,0" pers-end="0,0" locked="0" mesh="" flag=""/>
            <path id="shapePath8" d="M298.377,162.566 L305.377,162.566 L305.377,169.566 L298.377,169.566 L298.377,162.566 Z" style="stroke:none;fill-rule:evenodd;fill:#000000;fill-opacity:1;"/>
        </g>
        <g id="Shape9">
            <desc shapeID="9" type="2" basicInfo-basicType="0" basicInfo-roundedRectRadius="12" basicInfo-polygonSides="6" basicInfo-starPoints="5" bounding="rect(-37,-31.5,74,63)" text="P&#10;" font-familyName="Latin Modern Math" font-pixelSize="20" font-bold="0" font-underline="0" font-alignment="1" strokeStyle="0" markerStart="0" markerEnd="0" shadowEnabled="0" shadowOffsetX="0" shadowOffsetY="2" shadowBlur="4" shadowOpacity="160" blurEnabled="0" blurRadius="4" transform="matrix(1,0,0,1,78.3772,199.066)" pers-center="0,0" pers-size="0,0" pers-start="0,0" pers-end="0,0" locked="0" mesh="" flag=""/>
            <path id="shapePath9" d="M84.0603,163.016 C84.0603,161.056 82.0803,159.296 79.3403,159.296 L72.2803,159.296 L72.2803,159.916 L72.7603,159.916 C74.3003,159.916 74.3403,160.136 74.3403,160.856 L74.3403,171.396 C74.3403,172.116 74.3003,172.336 72.7603,172.336 L72.2803,172.336 L72.2803,172.956 C72.9803,172.896 74.4603,172.896 75.2203,172.896 C75.9803,172.896 77.4803,172.896 78.1803,172.956 L78.1803,172.336 L77.7003,172.336 C76.1603,172.336 76.1203,172.116 76.1203,171.396 L76.1203,166.636 L79.5003,166.636 C81.9003,166.636 84.0603,165.016 84.0603,163.016 M82.0003,163.016 C82.0003,163.956 82.0003,166.116 78.8203,166.116 L76.0603,166.116 L76.0603,160.716 C76.0603,160.056 76.1003,159.916 77.0403,159.916 L78.8203,159.916 C82.0003,159.916 82.0003,162.036 82.0003,163.016 Z" style="stroke:none;fill-rule:nonzero;fill:#000000;fill-opacity:1;"/>
        </g>
        <g id="Shape10">
            <desc shapeID="10" type="2" basicInfo-basicType="0" basicInfo-roundedRectRadius="12" basicInfo-polygonSides="6" basicInfo-starPoints="5" bounding="rect(-37,-44.5,74,89)" text="P&#10;" font-familyName="Latin Modern Math" font-pixelSize="20" font-bold="0" font-underline="0" font-alignment="1" strokeStyle="0" markerStart="0" markerEnd="0" shadowEnabled="0" shadowOffsetX="0" shadowOffsetY="2" shadowBlur="4" shadowOpacity="160" blurEnabled="0" blurRadius="4" transform="matrix(1,0,0,1,316.084,212.726)" pers-center="0,0" pers-size="0,0" pers-start="0,0" pers-end="0,0" locked="0" mesh="" flag=""/>
            <path id="shapePath10" d="M321.767,176.676 C321.767,174.716 319.787,172.956 317.047,172.956 L309.987,172.956 L309.987,173.576 L310.467,173.576 C312.007,173.576 312.047,173.796 312.047,174.516 L312.047,185.056 C312.047,185.776 312.007,185.996 310.467,185.996 L309.987,185.996 L309.987,186.616 C310.687,186.556 312.167,186.556 312.927,186.556 C313.687,186.556 315.187,186.556 315.887,186.616 L315.887,185.996 L315.407,185.996 C313.867,185.996 313.827,185.776 313.827,185.056 L313.827,180.296 L317.207,180.296 C319.607,180.296 321.767,178.676 321.767,176.676 M319.707,176.676 C319.707,177.616 319.707,179.776 316.527,179.776 L313.767,179.776 L313.767,174.376 C313.767,173.716 313.807,173.576 314.747,173.576 L316.527,173.576 C319.707,173.576 319.707,175.696 319.707,176.676 Z" style="stroke:none;fill-rule:nonzero;fill:#000000;fill-opacity:1;"/>
        </g>
        <g id="Shape11">
            <desc shapeID="11" type="2" basicInfo-basicType="0" basicInfo-roundedRectRadius="12" basicInfo-polygonSides="6" basicInfo-starPoints="5" bounding="rect(-37,-44.5,74,89)" text="P&#10;" font-familyName="Latin Modern Math" font-pixelSize="20" font-bold="0" font-underline="0" font-alignment="1" strokeStyle="0" markerStart="0" markerEnd="0" shadowEnabled="0" shadowOffsetX="0" shadowOffsetY="2" shadowBlur="4" shadowOpacity="160" blurEnabled="0" blurRadius="4" transform="matrix(1,0,0,1,292.694,82.6752)" pers-center="0,0" pers-size="0,0" pers-start="0,0" pers-end="0,0" locked="0" mesh="" flag=""/>
            <path id="shapePath11" d="M298.377,46.6258 C298.377,44.6658 296.397,42.9058 293.657,42.9058 L286.597,42.9058 L286.597,43.5258 L287.077,43.5258 C288.617,43.5258 288.657,43.7458 288.657,44.4658 L288.657,55.0058 C288.657,55.7258 288.617,55.9458 287.077,55.9458 L286.597,55.9458 L286.597,56.5658 C287.297,56.5058 288.777,56.5058 289.537,56.5058 C290.297,56.5058 291.797,56.5058 292.497,56.5658 L292.497,55.9458 L292.017,55.9458 C290.477,55.9458 290.437,55.7258 290.437,55.0058 L290.437,50.2458 L293.817,50.2458 C296.217,50.2458 298.377,48.6258 298.377,46.6258 M296.317,46.6258 C296.317,47.5658 296.317,49.7258 293.137,49.7258 L290.377,49.7258 L290.377,44.3258 C290.377,43.6658 290.417,43.5258 291.357,43.5258 L293.137,43.5258 C296.317,43.5258 296.317,45.6458 296.317,46.6258 Z" style="stroke:none;fill-rule:nonzero;fill:#000000;fill-opacity:1;"/>
        </g>
        <g id="Shape12">
            <desc shapeID="12" type="2" basicInfo-basicType="0" basicInfo-roundedRectRadius="12" basicInfo-polygonSides="6" basicInfo-starPoints="5" bounding="rect(-37,-44.5,74,89)" text="P&#10;" font-familyName="Latin Modern Math" font-pixelSize="20" font-bold="0" font-underline="0" font-alignment="1" strokeStyle="0" markerStart="0" markerEnd="0" shadowEnabled="0" shadowOffsetX="0" shadowOffsetY="2" shadowBlur="4" shadowOpacity="160" blurEnabled="0" blurRadius="4" transform="matrix(1,0,0,1,149.364,59.0658)" pers-center="0,0" pers-size="0,0" pers-start="0,0" pers-end="0,0" locked="0" mesh="" flag=""/>
            <path id="shapePath12" d="M155.047,23.0164 C155.047,21.0564 153.067,19.2964 150.327,19.2964 L143.267,19.2964 L143.267,19.9164 L143.747,19.9164 C145.287,19.9164 145.327,20.1364 145.327,20.8564 L145.327,31.3964 C145.327,32.1164 145.287,32.3364 143.747,32.3364 L143.267,32.3364 L143.267,32.9564 C143.967,32.8964 145.447,32.8964 146.207,32.8964 C146.967,32.8964 148.467,32.8964 149.167,32.9564 L149.167,32.3364 L148.687,32.3364 C147.147,32.3364 147.107,32.1164 147.107,31.3964 L147.107,26.6364 L150.487,26.6364 C152.887,26.6364 155.047,25.0164 155.047,23.0164 M152.987,23.0164 C152.987,23.9564 152.987,26.1164 149.807,26.1164 L147.047,26.1164 L147.047,20.7164 C147.047,20.0564 147.087,19.9164 148.027,19.9164 L149.807,19.9164 C152.987,19.9164 152.987,22.0364 152.987,23.0164 Z" style="stroke:none;fill-rule:nonzero;fill:#000000;fill-opacity:1;"/>
        </g>
        <g id="Shape13">
            <desc shapeID="13" type="2" basicInfo-basicType="0" basicInfo-roundedRectRadius="12" basicInfo-polygonSides="6" basicInfo-starPoints="5" bounding="rect(-7,-9,14,18)" text="0" font-familyName="Latin Modern Math" font-pixelSize="10" font-bold="0" font-underline="0" font-alignment="1" strokeStyle="0" markerStart="0" markerEnd="0" shadowEnabled="0" shadowOffsetX="0" shadowOffsetY="2" shadowBlur="4" shadowOpacity="160" blurEnabled="0" blurRadius="4" transform="matrix(1,0,0,1,86.1703,177.429)" pers-center="0,0" pers-size="0,0" pers-start="0,0" pers-end="0,0" locked="0" mesh="" flag=""/>
            <path id="shapePath13" d="M88.2703,176.416 C88.2703,175.616 88.2203,174.816 87.8703,174.076 C87.4103,173.116 86.5903,172.956 86.1703,172.956 C85.5703,172.956 84.8403,173.216 84.4303,174.146 C84.1103,174.836 84.0603,175.616 84.0603,176.416 C84.0603,177.166 84.1003,178.066 84.5103,178.826 C84.9403,179.636 85.6703,179.836 86.1603,179.836 C86.7003,179.836 87.4603,179.626 87.9003,178.676 C88.2203,177.986 88.2703,177.206 88.2703,176.416 M87.4403,176.296 C87.4403,177.046 87.4403,177.726 87.3303,178.366 C87.1803,179.316 86.6103,179.616 86.1603,179.616 C85.7703,179.616 85.1803,179.366 85.0003,178.406 C84.8903,177.806 84.8903,176.886 84.8903,176.296 C84.8903,175.656 84.8903,174.996 84.9703,174.456 C85.1603,173.266 85.9103,173.176 86.1603,173.176 C86.4903,173.176 87.1503,173.356 87.3403,174.346 C87.4403,174.906 87.4403,175.666 87.4403,176.296 Z" style="stroke:none;fill-rule:nonzero;fill:#000000;fill-opacity:1;"/>
        </g>
        <g id="Shape14">
            <desc shapeID="14" type="2" basicInfo-basicType="0" basicInfo-roundedRectRadius="12" basicInfo-polygonSides="6" basicInfo-starPoints="5" bounding="rect(-4,-9,8,18)" text="3&#10;" font-familyName="Latin Modern Math" font-pixelSize="10" font-bold="0" font-underline="0" font-alignment="1" strokeStyle="0" markerStart="0" markerEnd="0" shadowEnabled="0" shadowOffsetX="0" shadowOffsetY="2" shadowBlur="4" shadowOpacity="160" blurEnabled="0" blurRadius="4" transform="matrix(1,0,0,1,324.877,191.089)" pers-center="0,0" pers-size="0,0" pers-start="0,0" pers-end="0,0" locked="0" mesh="" flag=""/>
            <path id="shapePath14" d="M326.947,191.566 C326.947,190.746 326.317,189.966 325.277,189.756 C326.097,189.486 326.677,188.786 326.677,187.996 C326.677,187.176 325.797,186.616 324.837,186.616 C323.827,186.616 323.067,187.216 323.067,187.976 C323.067,188.306 323.287,188.496 323.577,188.496 C323.887,188.496 324.087,188.276 324.087,187.986 C324.087,187.486 323.617,187.486 323.467,187.486 C323.777,186.996 324.437,186.866 324.797,186.866 C325.207,186.866 325.757,187.086 325.757,187.986 C325.757,188.106 325.737,188.686 325.477,189.126 C325.177,189.606 324.837,189.636 324.587,189.646 C324.507,189.656 324.267,189.676 324.197,189.676 C324.117,189.686 324.047,189.696 324.047,189.796 C324.047,189.906 324.117,189.906 324.287,189.906 L324.727,189.906 C325.547,189.906 325.917,190.586 325.917,191.566 C325.917,192.926 325.227,193.216 324.787,193.216 C324.357,193.216 323.607,193.046 323.257,192.456 C323.607,192.506 323.917,192.286 323.917,191.906 C323.917,191.546 323.647,191.346 323.357,191.346 C323.117,191.346 322.797,191.486 322.797,191.926 C322.797,192.836 323.727,193.496 324.817,193.496 C326.037,193.496 326.947,192.586 326.947,191.566 Z" style="stroke:none;fill-rule:nonzero;fill:#000000;fill-opacity:1;"/>
        </g>
        <g id="Shape15">
            <desc shapeID="15" type="2" basicInfo-basicType="0" basicInfo-roundedRectRadius="12" basicInfo-polygonSides="6" basicInfo-starPoints="5" bounding="rect(-7,-9,14,18)" text="1" font-familyName="Latin Modern Math" font-pixelSize="10" font-bold="0" font-underline="0" font-alignment="1" strokeStyle="0" markerStart="0" markerEnd="0" shadowEnabled="0" shadowOffsetX="0" shadowOffsetY="2" shadowBlur="4" shadowOpacity="160" blurEnabled="0" blurRadius="4" transform="matrix(1,0,0,1,155.052,37.6583)" pers-center="0,0" pers-size="0,0" pers-start="0,0" pers-end="0,0" locked="0" mesh="" flag=""/>
            <path id="shapePath15" d="M156.742,39.8458 L156.742,39.5358 L156.422,39.5358 C155.522,39.5358 155.492,39.4258 155.492,39.0558 L155.492,33.4458 C155.492,33.2058 155.492,33.1858 155.262,33.1858 C154.642,33.8258 153.762,33.8258 153.442,33.8258 L153.442,34.1358 C153.642,34.1358 154.232,34.1358 154.752,33.8758 L154.752,39.0558 C154.752,39.4158 154.722,39.5358 153.822,39.5358 L153.502,39.5358 L153.502,39.8458 C153.852,39.8158 154.722,39.8158 155.122,39.8158 C155.522,39.8158 156.392,39.8158 156.742,39.8458 Z" style="stroke:none;fill-rule:nonzero;fill:#000000;fill-opacity:1;"/>
        </g>
        <g id="Shape16">
            <desc shapeID="16" type="2" basicInfo-basicType="0" basicInfo-roundedRectRadius="12" basicInfo-polygonSides="6" basicInfo-starPoints="5" bounding="rect(-7,-9,14,18)" text="2" font-familyName="Latin Modern Math" font-pixelSize="10" font-bold="0" font-underline="0" font-alignment="1" strokeStyle="0" markerStart="0" markerEnd="0" shadowEnabled="0" shadowOffsetX="0" shadowOffsetY="2" shadowBlur="4" shadowOpacity="160" blurEnabled="0" blurRadius="4" transform="matrix(1,0,0,1,300.487,61.0383)" pers-center="0,0" pers-size="0,0" pers-start="0,0" pers-end="0,0" locked="0" mesh="" flag=""/>
            <path id="shapePath16" d="M302.477,61.4858 L302.227,61.4858 C302.177,61.7858 302.107,62.2258 302.007,62.3758 C301.937,62.4558 301.277,62.4558 301.057,62.4558 L299.257,62.4558 L300.317,61.4258 C301.877,60.0458 302.477,59.5058 302.477,58.5058 C302.477,57.3658 301.577,56.5658 300.357,56.5658 C299.227,56.5658 298.487,57.4858 298.487,58.3758 C298.487,58.9358 298.987,58.9358 299.017,58.9358 C299.187,58.9358 299.537,58.8158 299.537,58.4058 C299.537,58.1458 299.357,57.8858 299.007,57.8858 C298.927,57.8858 298.907,57.8858 298.877,57.8958 C299.107,57.2458 299.647,56.8758 300.227,56.8758 C301.137,56.8758 301.567,57.6858 301.567,58.5058 C301.567,59.3058 301.067,60.0958 300.517,60.7158 L298.597,62.8558 C298.487,62.9658 298.487,62.9858 298.487,63.2258 L302.197,63.2258 L302.477,61.4858 Z" style="stroke:none;fill-rule:nonzero;fill:#000000;fill-opacity:1;"/>
        </g>
        <g id="Shape17">
            <desc shapeID="17" type="0" basicInfo-basicType="1" basicInfo-roundedRectRadius="12" basicInfo-polygonSides="6" basicInfo-starPoints="5" bounding="rect(-3.5,-3.5,7,7)" text="" font-familyName="Helvetica" font-pixelSize="20" font-bold="0" font-underline="0" font-alignment="1" strokeStyle="0" markerStart="0" markerEnd="0" shadowEnabled="0" shadowOffsetX="0" shadowOffsetY="2" shadowBlur="4" shadowOpacity="160" blurEnabled="0" blurRadius="4" transform="matrix(1,0,0,1,456.747,162.128)" pers-center="0,0" pers-size="0,0" pers-start="0,0" pers-end="0,0" locked="0" mesh="" flag=""/>
            <path id="shapePath17" d="M453.247,158.628 L460.247,158.628 L460.247,165.628 L453.247,165.628 L453.247,158.628 Z" style="stroke:none;fill-rule:evenodd;fill:#000000;fill-opacity:1;"/>
        </g>
        <g id="Shape18">
            <desc shapeID="18" type="0" basicInfo-basicType="1" basicInfo-roundedRectRadius="12" basicInfo-polygonSides="6" basicInfo-starPoints="5" bounding="rect(-3.5,-3.5,7,7)" text="" font-familyName="Helvetica" font-pixelSize="20" font-bold="0" font-underline="0" font-alignment="1" strokeStyle="0" markerStart="0" markerEnd="0" shadowEnabled="0" shadowOffsetX="0" shadowOffsetY="2" shadowBlur="4" shadowOpacity="160" blurEnabled="0" blurRadius="4" transform="matrix(1,0,0,1,530.747,53.1283)" pers-center="0,0" pers-size="0,0" pers-start="0,0" pers-end="0,0" locked="0" mesh="" flag=""/>
            <path id="shapePath18" d="M527.247,49.6283 L534.247,49.6283 L534.247,56.6283 L527.247,56.6283 L527.247,49.6283 Z" style="stroke:none;fill-rule:evenodd;fill:#000000;fill-opacity:1;"/>
        </g>
        <g id="Shape19">
            <desc shapeID="19" type="0" basicInfo-basicType="1" basicInfo-roundedRectRadius="12" basicInfo-polygonSides="6" basicInfo-starPoints="5" bounding="rect(-3.5,-3.5,7,7)" text="" font-familyName="Helvetica" font-pixelSize="20" font-bold="0" font-underline="0" font-alignment="1" strokeStyle="0" markerStart="0" markerEnd="0" shadowEnabled="0" shadowOffsetX="0" shadowOffsetY="2" shadowBlur="4" shadowOpacity="160" blurEnabled="0" blurRadius="4" transform="matrix(1,0,0,1,662.747,69.6283)" pers-center="0,0" pers-size="0,0" pers-start="0,0" pers-end="0,0" locked="0" mesh="" flag=""/>
            <path id="shapePath19" d="M659.247,66.1283 L666.247,66.1283 L666.247,73.1283 L659.247,73.1283 L659.247,66.1283 Z" style="stroke:none;fill-rule:evenodd;fill:#000000;fill-opacity:1;"/>
        </g>
        <g id="Shape20">
            <desc shapeID="20" type="0" basicInfo-basicType="1" basicInfo-roundedRectRadius="12" basicInfo-polygonSides="6" basicInfo-starPoints="5" bounding="rect(-3.5,-3.5,7,7)" text="" font-familyName="Helvetica" font-pixelSize="20" font-bold="0" font-underline="0" font-alignment="1" strokeStyle="0" markerStart="0" markerEnd="0" shadowEnabled="0" shadowOffsetX="0" shadowOffsetY="2" shadowBlur="4" shadowOpacity="160" blurEnabled="0" blurRadius="4" transform="matrix(1,0,0,1,698.747,179.128)" pers-center="0,0" pers-size="0,0" pers-start="0,0" pers-end="0,0" locked="0" mesh="" flag=""/>
            <path id="shapePath20" d="M695.247,175.628 L702.247,175.628 L702.247,182.628 L695.247,182.628 L695.247,175.628 Z" style="stroke:none;fill-rule:evenodd;fill:#000000;fill-opacity:1;"/>
        </g>
        <g id="Shape21">
            <desc shapeID="21" type="2" basicInfo-basicType="0" basicInfo-roundedRectRadius="12" basicInfo-polygonSides="6" basicInfo-starPoints="5" bounding="rect(-37,-31.5,74,63)" text="P&#10;" font-familyName="Latin Modern Math" font-pixelSize="20" font-bold="0" font-underline="0" font-alignment="1" strokeStyle="0" markerStart="0" markerEnd="0" shadowEnabled="0" shadowOffsetX="0" shadowOffsetY="2" shadowBlur="4" shadowOpacity="160" blurEnabled="0" blurRadius="4" transform="matrix(1,0,0,1,475.247,212.128)" pers-center="0,0" pers-size="0,0" pers-start="0,0" pers-end="0,0" locked="0" mesh="" flag=""/>
            <path id="shapePath21" d="M480.93,176.079 C480.93,174.119 478.95,172.359 476.21,172.359 L469.15,172.359 L469.15,172.979 L469.63,172.979 C471.17,172.979 471.21,173.199 471.21,173.919 L471.21,184.459 C471.21,185.179 471.17,185.399 469.63,185.399 L469.15,185.399 L469.15,186.019 C469.85,185.959 471.33,185.959 472.09,185.959 C472.85,185.959 474.35,185.959 475.05,186.019 L475.05,185.399 L474.57,185.399 C473.03,185.399 472.99,185.179 472.99,184.459 L472.99,179.699 L476.37,179.699 C478.77,179.699 480.93,178.079 480.93,176.079 M478.87,176.079 C478.87,177.019 478.87,179.179 475.69,179.179 L472.93,179.179 L472.93,173.779 C472.93,173.119 472.97,172.979 473.91,172.979 L475.69,172.979 C478.87,172.979 478.87,175.099 478.87,176.079 Z" style="stroke:none;fill-rule:nonzero;fill:#000000;fill-opacity:1;"/>
        </g>
        <g id="Shape22">
            <desc shapeID="22" type="2" basicInfo-basicType="0" basicInfo-roundedRectRadius="12" basicInfo-polygonSides="6" basicInfo-starPoints="5" bounding="rect(-37,-44.5,74,89)" text="P&#10;" font-familyName="Latin Modern Math" font-pixelSize="20" font-bold="0" font-underline="0" font-alignment="1" strokeStyle="0" markerStart="0" markerEnd="0" shadowEnabled="0" shadowOffsetX="0" shadowOffsetY="2" shadowBlur="4" shadowOpacity="160" blurEnabled="0" blurRadius="4" transform="matrix(1,0,0,1,682.388,92.3577)" pers-center="0,0" pers-size="0,0" pers-start="0,0" pers-end="0,0" locked="0" mesh="" flag=""/>
            <path id="shapePath22" d="M688.072,56.3083 C688.072,54.3483 686.092,52.5883 683.352,52.5883 L676.292,52.5883 L676.292,53.2083 L676.772,53.2083 C678.312,53.2083 678.352,53.4283 678.352,54.1483 L678.352,64.6883 C678.352,65.4083 678.312,65.6283 676.772,65.6283 L676.292,65.6283 L676.292,66.2483 C676.992,66.1883 678.472,66.1883 679.232,66.1883 C679.992,66.1883 681.492,66.1883 682.192,66.2483 L682.192,65.6283 L681.712,65.6283 C680.172,65.6283 680.132,65.4083 680.132,64.6883 L680.132,59.9283 L683.512,59.9283 C685.912,59.9283 688.072,58.3083 688.072,56.3083 M686.012,56.3083 C686.012,57.2483 686.012,59.4083 682.832,59.4083 L680.072,59.4083 L680.072,54.0083 C680.072,53.3483 680.112,53.2083 681.052,53.2083 L682.832,53.2083 C686.012,53.2083 686.012,55.3283 686.012,56.3083 Z" style="stroke:none;fill-rule:nonzero;fill:#000000;fill-opacity:1;"/>
        </g>
        <g id="Shape23">
            <desc shapeID="23" type="2" basicInfo-basicType="0" basicInfo-roundedRectRadius="12" basicInfo-polygonSides="6" basicInfo-starPoints="5" bounding="rect(-37,-44.5,74,89)" text="P&#10;" font-familyName="Latin Modern Math" font-pixelSize="20" font-bold="0" font-underline="0" font-alignment="1" strokeStyle="0" markerStart="0" markerEnd="0" shadowEnabled="0" shadowOffsetX="0" shadowOffsetY="2" shadowBlur="4" shadowOpacity="160" blurEnabled="0" blurRadius="4" transform="matrix(1,0,0,1,713.84,223.106)" pers-center="0,0" pers-size="0,0" pers-start="0,0" pers-end="0,0" locked="0" mesh="" flag=""/>
            <path id="shapePath23" d="M719.523,187.056 C719.523,185.096 717.543,183.336 714.803,183.336 L707.743,183.336 L707.743,183.956 L708.223,183.956 C709.763,183.956 709.803,184.176 709.803,184.896 L709.803,195.436 C709.803,196.156 709.763,196.376 708.223,196.376 L707.743,196.376 L707.743,196.996 C708.443,196.936 709.923,196.936 710.683,196.936 C711.443,196.936 712.943,196.936 713.643,196.996 L713.643,196.376 L713.163,196.376 C711.623,196.376 711.583,196.156 711.583,195.436 L711.583,190.676 L714.963,190.676 C717.363,190.676 719.523,189.056 719.523,187.056 M717.463,187.056 C717.463,187.996 717.463,190.156 714.283,190.156 L711.523,190.156 L711.523,184.756 C711.523,184.096 711.563,183.956 712.503,183.956 L714.283,183.956 C717.463,183.956 717.463,186.076 717.463,187.056 Z" style="stroke:none;fill-rule:nonzero;fill:#000000;fill-opacity:1;"/>
        </g>
        <g id="Shape24">
            <desc shapeID="24" type="2" basicInfo-basicType="0" basicInfo-roundedRectRadius="12" basicInfo-polygonSides="6" basicInfo-starPoints="5" bounding="rect(-37,-44.5,74,89)" text="P&#10;" font-familyName="Latin Modern Math" font-pixelSize="20" font-bold="0" font-underline="0" font-alignment="1" strokeStyle="0" markerStart="0" markerEnd="0" shadowEnabled="0" shadowOffsetX="0" shadowOffsetY="2" shadowBlur="4" shadowOpacity="160" blurEnabled="0" blurRadius="4" transform="matrix(1,0,0,1,546.233,72.1283)" pers-center="0,0" pers-size="0,0" pers-start="0,0" pers-end="0,0" locked="0" mesh="" flag=""/>
            <path id="shapePath24" d="M551.917,36.079 C551.917,34.1189 549.937,32.359 547.197,32.359 L540.137,32.359 L540.137,32.979 L540.617,32.979 C542.156,32.979 542.197,33.199 542.197,33.919 L542.197,44.459 C542.197,45.179 542.156,45.3989 540.617,45.3989 L540.137,45.3989 L540.137,46.019 C540.837,45.959 542.317,45.959 543.077,45.959 C543.837,45.959 545.337,45.959 546.036,46.019 L546.036,45.3989 L545.557,45.3989 C544.017,45.3989 543.977,45.179 543.977,44.459 L543.977,39.699 L547.357,39.699 C549.757,39.699 551.917,38.079 551.917,36.079 M549.857,36.079 C549.857,37.019 549.857,39.179 546.677,39.179 L543.917,39.179 L543.917,33.7789 C543.917,33.1189 543.957,32.979 544.897,32.979 L546.677,32.979 C549.857,32.979 549.857,35.099 549.857,36.079 Z" style="stroke:none;fill-rule:nonzero;fill:#000000;fill-opacity:1;"/>
        </g>
        <g id="Shape25">
            <desc shapeID="25" type="2" basicInfo-basicType="0" basicInfo-roundedRectRadius="12" basicInfo-polygonSides="6" basicInfo-starPoints="5" bounding="rect(-7,-9,14,18)" text="0" font-familyName="Latin Modern Math" font-pixelSize="10" font-bold="0" font-underline="0" font-alignment="1" strokeStyle="0" markerStart="0" markerEnd="0" shadowEnabled="0" shadowOffsetX="0" shadowOffsetY="2" shadowBlur="4" shadowOpacity="160" blurEnabled="0" blurRadius="4" transform="matrix(1,0,0,1,483.04,190.491)" pers-center="0,0" pers-size="0,0" pers-start="0,0" pers-end="0,0" locked="0" mesh="" flag=""/>
            <path id="shapePath25" d="M485.14,189.479 C485.14,188.679 485.09,187.879 484.74,187.139 C484.28,186.179 483.46,186.019 483.04,186.019 C482.44,186.019 481.71,186.279 481.3,187.209 C480.98,187.899 480.93,188.679 480.93,189.479 C480.93,190.229 480.97,191.129 481.38,191.889 C481.81,192.699 482.54,192.899 483.03,192.899 C483.57,192.899 484.33,192.689 484.77,191.739 C485.09,191.049 485.14,190.269 485.14,189.479 M484.31,189.359 C484.31,190.109 484.31,190.789 484.2,191.429 C484.05,192.379 483.48,192.679 483.03,192.679 C482.64,192.679 482.05,192.429 481.87,191.469 C481.76,190.869 481.76,189.949 481.76,189.359 C481.76,188.719 481.76,188.059 481.84,187.519 C482.03,186.329 482.78,186.239 483.03,186.239 C483.36,186.239 484.02,186.419 484.21,187.409 C484.31,187.969 484.31,188.729 484.31,189.359 Z" style="stroke:none;fill-rule:nonzero;fill:#000000;fill-opacity:1;"/>
        </g>
        <g id="Shape26">
            <desc shapeID="26" type="2" basicInfo-basicType="0" basicInfo-roundedRectRadius="12" basicInfo-polygonSides="6" basicInfo-starPoints="5" bounding="rect(-4,-9,8,18)" text="3&#10;" font-familyName="Latin Modern Math" font-pixelSize="10" font-bold="0" font-underline="0" font-alignment="1" strokeStyle="0" markerStart="0" markerEnd="0" shadowEnabled="0" shadowOffsetX="0" shadowOffsetY="2" shadowBlur="4" shadowOpacity="160" blurEnabled="0" blurRadius="4" transform="matrix(1,0,0,1,691.182,70.7208)" pers-center="0,0" pers-size="0,0" pers-start="0,0" pers-end="0,0" locked="0" mesh="" flag=""/>
            <path id="shapePath26" d="M693.252,71.1983 C693.252,70.3783 692.622,69.5983 691.582,69.3883 C692.401,69.1183 692.982,68.4183 692.982,67.6283 C692.982,66.8083 692.102,66.2483 691.142,66.2483 C690.132,66.2483 689.372,66.8483 689.372,67.6083 C689.372,67.9383 689.591,68.1283 689.882,68.1283 C690.192,68.1283 690.392,67.9083 690.392,67.6183 C690.392,67.1183 689.922,67.1183 689.772,67.1183 C690.082,66.6283 690.742,66.4983 691.102,66.4983 C691.512,66.4983 692.062,66.7183 692.062,67.6183 C692.062,67.7383 692.042,68.3183 691.781,68.7583 C691.482,69.2383 691.142,69.2683 690.892,69.2783 C690.812,69.2883 690.572,69.3083 690.502,69.3083 C690.422,69.3183 690.352,69.3283 690.352,69.4283 C690.352,69.5383 690.422,69.5383 690.591,69.5383 L691.031,69.5383 C691.852,69.5383 692.221,70.2183 692.221,71.1983 C692.221,72.5583 691.531,72.8483 691.091,72.8483 C690.661,72.8483 689.911,72.6783 689.562,72.0883 C689.911,72.1383 690.221,71.9183 690.221,71.5383 C690.221,71.1783 689.952,70.9783 689.661,70.9783 C689.422,70.9783 689.102,71.1183 689.102,71.5583 C689.102,72.4683 690.031,73.1283 691.122,73.1283 C692.341,73.1283 693.252,72.2183 693.252,71.1983 Z" style="stroke:none;fill-rule:nonzero;fill:#000000;fill-opacity:1;"/>
        </g>
        <g id="Shape27">
            <desc shapeID="27" type="2" basicInfo-basicType="0" basicInfo-roundedRectRadius="12" basicInfo-polygonSides="6" basicInfo-starPoints="5" bounding="rect(-7,-9,14,18)" text="1" font-familyName="Latin Modern Math" font-pixelSize="10" font-bold="0" font-underline="0" font-alignment="1" strokeStyle="0" markerStart="0" markerEnd="0" shadowEnabled="0" shadowOffsetX="0" shadowOffsetY="2" shadowBlur="4" shadowOpacity="160" blurEnabled="0" blurRadius="4" transform="matrix(1,0,0,1,551.922,50.7208)" pers-center="0,0" pers-size="0,0" pers-start="0,0" pers-end="0,0" locked="0" mesh="" flag=""/>
            <path id="shapePath27" d="M553.612,52.9083 L553.612,52.5983 L553.292,52.5983 C552.391,52.5983 552.362,52.4883 552.362,52.1183 L552.362,46.5083 C552.362,46.2683 552.362,46.2483 552.132,46.2483 C551.512,46.8883 550.632,46.8883 550.312,46.8883 L550.312,47.1983 C550.512,47.1983 551.102,47.1983 551.622,46.9383 L551.622,52.1183 C551.622,52.4783 551.591,52.5983 550.692,52.5983 L550.372,52.5983 L550.372,52.9083 C550.721,52.8783 551.591,52.8783 551.992,52.8783 C552.391,52.8783 553.262,52.8783 553.612,52.9083 Z" style="stroke:none;fill-rule:nonzero;fill:#000000;fill-opacity:1;"/>
        </g>
        <g id="Shape28">
            <desc shapeID="28" type="2" basicInfo-basicType="0" basicInfo-roundedRectRadius="12" basicInfo-polygonSides="6" basicInfo-starPoints="5" bounding="rect(-7,-9,14,18)" text="2" font-familyName="Latin Modern Math" font-pixelSize="10" font-bold="0" font-underline="0" font-alignment="1" strokeStyle="0" markerStart="0" markerEnd="0" shadowEnabled="0" shadowOffsetX="0" shadowOffsetY="2" shadowBlur="4" shadowOpacity="160" blurEnabled="0" blurRadius="4" transform="matrix(1,0,0,1,721.633,201.469)" pers-center="0,0" pers-size="0,0" pers-start="0,0" pers-end="0,0" locked="0" mesh="" flag=""/>
            <path id="shapePath28" d="M723.623,201.916 L723.373,201.916 C723.323,202.216 723.253,202.656 723.153,202.806 C723.083,202.886 722.423,202.886 722.203,202.886 L720.403,202.886 L721.463,201.856 C723.023,200.476 723.623,199.936 723.623,198.936 C723.623,197.796 722.723,196.996 721.503,196.996 C720.373,196.996 719.633,197.916 719.633,198.806 C719.633,199.366 720.133,199.366 720.163,199.366 C720.333,199.366 720.683,199.246 720.683,198.836 C720.683,198.576 720.503,198.316 720.153,198.316 C720.073,198.316 720.053,198.316 720.023,198.326 C720.253,197.676 720.793,197.306 721.373,197.306 C722.283,197.306 722.713,198.116 722.713,198.936 C722.713,199.736 722.213,200.526 721.663,201.146 L719.743,203.286 C719.633,203.396 719.633,203.416 719.633,203.656 L723.343,203.656 L723.623,201.916 Z" style="stroke:none;fill-rule:nonzero;fill:#000000;fill-opacity:1;"/>
        </g>
    </g>
</svg>
