<?xml version="1.0"?>
<svg version="1.1" xmlns="http://www.w3.org/2000/svg" xmlns:xlink="http://www.w3.org/1999/xlink" width="1440" height="801">
    <desc iVinci="yes" version="4.6" gridStep="20" showGrid="no" snapToGrid="no" codePlatform="0"/>
    <g id="Layer1" name="Layer 1" opacity="1">
        <g id="Shape1">
            <desc shapeID="1" type="0" basicInfo-basicType="0" basicInfo-roundedRectRadius="12" basicInfo-polygonSides="6" basicInfo-starPoints="5" bounding="rect(-50,-50,100,100)" text="" font-familyName="" font-pixelSize="20" font-bold="0" font-underline="0" font-alignment="1" strokeStyle="0" markerStart="0" markerEnd="0" shadowEnabled="0" shadowOffsetX="0" shadowOffsetY="2" shadowBlur="4" shadowOpacity="160" blurEnabled="0" blurRadius="4" transform="matrix(1,0,0,1,50,50)" pers-center="0,0" pers-size="0,0" pers-start="0,0" pers-end="0,0" locked="0" mesh="" flag=""/>
            <path id="shapePath1" d="M0,0 L100,0 L100,100 L0,100 L0,0 Z" style="stroke:none;fill-rule:evenodd;fill:#111111;fill-opacity:1;"/>
        </g>
        <g id="Shape2">
            <desc shapeID="2" type="0" basicInfo-basicType="0" basicInfo-roundedRectRadius="12" basicInfo-polygonSides="6" basicInfo-starPoints="5" bounding="rect(-8.75628,-7.2801,17.5125,14.5602)" text="" font-familyName="" font-pixelSize="20" font-bold="0" font-underline="0" font-alignment="1" strokeStyle="0" markerStart="0" markerEnd="0" shadowEnabled="0" shadowOffsetX="0" shadowOffsetY="2" shadowBlur="4" shadowOpacity="160" blurEnabled="0" blurRadius="4" transform="matrix(1,0,0,1,307.089,404.427)" pers-center="0,0" pers-size="0,0" pers-start="0,0" pers-end="0,0" locked="0" mesh="" flag=""/>
            <path id="shapePath2" d="M309.75,397.849 C309.75,397.849 310.028,397.651 309.75,397.849 C309.471,398.048 308.869,398.478 308.08,399.042 C307.291,399.606 306.102,400.47 305.016,401.233 C303.929,401.997 302.574,402.935 301.562,403.624 C299.355,404.098 297.951,406.271 298.425,408.478 C298.899,410.685 301.072,412.089 303.279,411.615 C306.781,409.102 308.071,408.216 309.202,407.474 C310.333,406.733 311.74,405.897 312.581,405.343 C313.423,404.789 313.972,404.349 314.25,404.151 C314.529,403.952 314.25,404.151 314.25,404.151 C315.969,402.901 316.36,400.499 315.124,398.769 C313.889,397.039 311.49,396.629 309.75,397.849 Z" style="stroke:none;fill-rule:nonzero;fill:#fbff06;fill-opacity:1;"/>
        </g>
        <g id="Shape3">
            <desc shapeID="3" type="0" basicInfo-basicType="0" basicInfo-roundedRectRadius="12" basicInfo-polygonSides="6" basicInfo-starPoints="5" bounding="rect(-6.70703,-4.96594,13.4141,9.93186)" text="" font-familyName="" font-pixelSize="20" font-bold="0" font-underline="0" font-alignment="1" strokeStyle="0" markerStart="0" markerEnd="0" shadowEnabled="0" shadowOffsetX="0" shadowOffsetY="2" shadowBlur="4" shadowOpacity="160" blurEnabled="0" blurRadius="4" transform="matrix(1,0,0,1,550.77,317.941)" pers-center="0,0" pers-size="0,0" pers-start="0,0" pers-end="0,0" locked="0" mesh="" flag=""/>
            <path id="shapePath3" d="M551.547,320.773 C551.547,320.773 551.506,320.856 551.547,320.773 C551.588,320.691 551.763,320.286 551.793,320.281 C551.823,320.275 551.62,320.703 551.727,320.738 C551.835,320.773 552.338,320.475 552.441,320.491 C552.544,320.507 552.578,320.771 552.343,320.836 C552.108,320.901 551.295,320.869 551.032,320.882 C552.411,322.037 554.398,322.106 555.855,321.051 C557.311,319.995 557.864,318.085 557.196,316.415 C554.704,313.914 553.188,313.193 552.111,313.022 C551.034,312.851 549.971,313.187 549.091,313.454 C548.21,313.721 547.561,314.077 546.829,314.623 C546.097,315.17 545.096,316.3 544.7,316.734 C544.304,317.168 544.494,317.144 544.453,317.227 C544.412,317.309 544.453,317.227 544.453,317.227 C543.518,319.179 544.32,321.52 546.256,322.488 C548.193,323.456 550.547,322.693 551.547,320.773 Z" style="stroke:none;fill-rule:nonzero;fill:#fbff06;fill-opacity:1;"/>
        </g>
        <g id="Shape4">
            <desc shapeID="4" type="0" basicInfo-basicType="0" basicInfo-roundedRectRadius="12" basicInfo-polygonSides="6" basicInfo-starPoints="5" bounding="rect(-40.1187,-45.6928,80.2374,91.3856)" text="" font-familyName="" font-pixelSize="20" font-bold="0" font-underline="0" font-alignment="1" strokeStyle="0" markerStart="0" markerEnd="0" shadowEnabled="0" shadowOffsetX="0" shadowOffsetY="2" shadowBlur="4" shadowOpacity="160" blurEnabled="0" blurRadius="4" transform="matrix(1,0,0,1,633.393,347.453)" pers-center="0,0" pers-size="0,0" pers-start="0,0" pers-end="0,0" locked="0" mesh="" flag=""/>
            <path id="shapePath4" d="M597.578,309.758 C597.578,309.758 597.058,309.838 597.578,309.758 C598.099,309.678 599.115,309.323 600.7,309.278 C602.285,309.233 604.29,309.261 607.089,309.489 C609.888,309.717 613.432,310.115 617.494,310.646 C621.555,311.177 626.78,311.89 631.457,312.675 C636.133,313.459 641.245,314.165 645.553,315.351 C649.861,316.538 654.145,318.065 657.303,319.792 C660.461,321.519 662.945,323.636 664.503,325.714 C666.062,327.792 666.346,329.862 666.656,332.259 C666.966,334.655 666.623,336.987 666.363,340.092 C666.104,343.197 665.575,347.154 665.1,350.886 C664.625,354.619 663.97,358.633 663.514,362.487 C663.058,366.341 662.69,370.682 662.362,374.008 C662.033,377.335 661.758,380.164 661.543,382.445 C661.327,384.726 661.184,386.362 661.069,387.695 C660.268,389.753 661.287,392.071 663.345,392.872 C665.403,393.673 667.721,392.654 668.522,390.596 C668.402,386.803 668.392,385.198 668.474,382.96 C668.555,380.722 668.648,377.912 668.899,374.65 C669.151,371.388 669.527,367.21 669.983,363.388 C670.439,359.565 671.099,355.591 671.638,351.716 C672.176,347.841 672.978,343.83 673.213,340.139 C673.448,336.449 673.819,332.866 673.048,329.573 C672.277,326.281 670.849,323.01 668.59,320.383 C666.331,317.756 663.139,315.666 659.494,313.813 C655.848,311.96 651.222,310.48 646.714,309.266 C642.207,308.052 637.171,307.4 632.446,306.529 C627.721,305.659 622.52,304.731 618.363,304.043 C614.207,303.355 610.645,302.781 607.509,302.4 C604.372,302.02 601.391,301.788 599.544,301.761 C597.696,301.735 596.942,302.162 596.422,302.242 C595.901,302.322 596.422,302.242 596.422,302.242 C594.383,302.599 593.004,304.521 593.319,306.566 C593.633,308.612 595.526,310.03 597.578,309.758 Z" style="stroke:none;fill-rule:nonzero;fill:#fbff06;fill-opacity:1;"/>
        </g>
        <g id="Shape5">
            <desc shapeID="5" type="0" basicInfo-basicType="0" basicInfo-roundedRectRadius="12" basicInfo-polygonSides="6" basicInfo-starPoints="5" bounding="rect(-7.27835,-7.18028,14.5567,14.3605)" text="" font-familyName="" font-pixelSize="20" font-bold="0" font-underline="0" font-alignment="1" strokeStyle="0" markerStart="0" markerEnd="0" shadowEnabled="0" shadowOffsetX="0" shadowOffsetY="2" shadowBlur="4" shadowOpacity="160" blurEnabled="0" blurRadius="4" transform="matrix(1,0,0,1,711.226,343.665)" pers-center="0,0" pers-size="0,0" pers-start="0,0" pers-end="0,0" locked="0" mesh="" flag=""/>
            <path id="shapePath5" d="M717.969,340 C717.969,340 717.969,340.082 717.969,340 C717.969,339.918 717.971,339.693 717.969,339.506 C717.968,339.32 719.18,339.383 717.961,338.882 C716.742,338.381 712.328,336.288 710.655,336.5 C708.982,336.712 708.751,338.997 707.924,340.153 C707.096,341.308 706.344,342.475 705.688,343.432 C703.844,344.721 703.394,347.261 704.683,349.105 C705.973,350.95 708.513,351.399 710.357,350.11 C712.488,346.792 713.398,345.5 713.989,344.673 C714.579,343.845 716.083,343.698 715.425,342.733 C714.767,341.768 710.938,339.42 710.039,338.882 C709.14,338.344 710.032,339.32 710.031,339.506 C710.029,339.693 710.031,339.918 710.031,340 C710.031,340.082 710.031,340 710.031,340 C710.031,342.192 711.808,343.969 714,343.969 C716.192,343.969 717.969,342.192 717.969,340 Z" style="stroke:none;fill-rule:nonzero;fill:#fbff06;fill-opacity:1;"/>
        </g>
        <g id="Shape6">
            <desc shapeID="6" type="0" basicInfo-basicType="0" basicInfo-roundedRectRadius="12" basicInfo-polygonSides="6" basicInfo-starPoints="5" bounding="rect(-50,-50,100,100)" text="" font-familyName="" font-pixelSize="20" font-bold="0" font-underline="0" font-alignment="1" strokeStyle="0" markerStart="0" markerEnd="0" shadowEnabled="0" shadowOffsetX="0" shadowOffsetY="2" shadowBlur="4" shadowOpacity="160" blurEnabled="0" blurRadius="4" transform="matrix(1,0,0,1,50,50)" pers-center="0,0" pers-size="0,0" pers-start="0,0" pers-end="0,0" locked="0" mesh="" flag=""/>
            <path id="shapePath6" d="M0,0 L100,0 L100,100 L0,100 L0,0 Z" style="stroke:none;fill-rule:evenodd;fill:#59a0fa;fill-opacity:1;"/>
        </g>
        <g id="Shape7">
            <desc shapeID="7" type="0" basicInfo-basicType="0" basicInfo-roundedRectRadius="12" basicInfo-polygonSides="6" basicInfo-starPoints="5" bounding="rect(-50,-50,100,100)" text="" font-familyName="" font-pixelSize="20" font-bold="0" font-underline="0" font-alignment="1" strokeStyle="0" markerStart="0" markerEnd="0" shadowEnabled="0" shadowOffsetX="0" shadowOffsetY="2" shadowBlur="4" shadowOpacity="160" blurEnabled="0" blurRadius="4" transform="matrix(1,0,0,1,50,50)" pers-center="0,0" pers-size="0,0" pers-start="0,0" pers-end="0,0" locked="0" mesh="" flag=""/>
            <path id="shapePath7" d="M0,0 L100,0 L100,100 L0,100 L0,0 Z" style="stroke:none;fill-rule:evenodd;fill:#ffffff;fill-opacity:1;"/>
        </g>
        <g id="Shape8">
            <desc shapeID="8" type="0" basicInfo-basicType="0" basicInfo-roundedRectRadius="12" basicInfo-polygonSides="6" basicInfo-starPoints="5" bounding="rect(-367.205,-71.4315,734.41,142.863)" text="" font-familyName="" font-pixelSize="20" font-bold="0" font-underline="0" font-alignment="1" strokeStyle="0" markerStart="0" markerEnd="0" shadowEnabled="0" shadowOffsetX="0" shadowOffsetY="2" shadowBlur="4" shadowOpacity="160" blurEnabled="0" blurRadius="4" transform="matrix(1,0,0,1,511.335,358.472)" pers-center="0,0" pers-size="0,0" pers-start="0,0" pers-end="0,0" locked="0" mesh="" flag=""/>
            <path id="shapePath8" d="M149.457,429.643 C149.457,429.643 149.27,429.719 149.457,429.643 C149.645,429.568 149.855,429.503 150.584,429.193 C151.314,428.882 151.722,428.545 153.833,427.781 C155.945,427.018 158.715,425.885 163.254,424.611 C167.793,423.337 173.136,421.91 181.067,420.139 C188.998,418.368 198.067,416.392 210.84,413.985 C223.613,411.577 236.956,409.331 257.706,405.695 C278.455,402.059 304.514,397.689 335.338,392.169 C366.161,386.65 402.963,379.945 442.646,372.576 C482.33,365.208 529.718,356.211 573.44,347.96 C617.163,339.709 665.637,330.525 704.983,323.072 C744.329,315.618 780.651,308.72 809.517,303.239 C813.99,322.034 832.853,333.645 851.648,329.172 C870.444,324.698 882.054,305.835 877.581,287.04 C780.055,305.576 743.734,312.474 704.388,319.927 C665.043,327.381 616.568,336.565 572.849,344.815 C529.129,353.065 481.748,362.061 442.071,369.428 C402.395,376.795 365.604,383.499 334.789,389.017 C303.973,394.535 277.964,399.064 257.181,402.538 C236.398,406.013 222.983,407.855 210.093,409.865 C197.203,411.874 187.959,413.213 179.839,414.596 C171.719,415.979 166.158,417.138 161.371,418.161 C156.584,419.185 153.401,420.111 151.117,420.735 C148.834,421.36 148.432,421.636 147.67,421.906 C146.907,422.176 146.73,422.281 146.543,422.357 C146.355,422.432 146.543,422.357 146.543,422.357 C144.564,423.183 143.615,425.444 144.411,427.435 C145.208,429.426 147.454,430.409 149.457,429.643 Z" style="stroke:none;fill-rule:nonzero;fill:#111111;fill-opacity:1;"/>
        </g>
        <g id="Shape9">
            <desc shapeID="9" type="0" basicInfo-basicType="0" basicInfo-roundedRectRadius="12" basicInfo-polygonSides="6" basicInfo-starPoints="5" bounding="rect(-50,-50,100,100)" text="" font-familyName="" font-pixelSize="20" font-bold="0" font-underline="0" font-alignment="1" strokeStyle="0" markerStart="0" markerEnd="0" shadowEnabled="0" shadowOffsetX="0" shadowOffsetY="2" shadowBlur="4" shadowOpacity="160" blurEnabled="0" blurRadius="4" transform="matrix(1,0,0,1,50,50)" pers-center="0,0" pers-size="0,0" pers-start="0,0" pers-end="0,0" locked="0" mesh="" flag=""/>
            <path id="shapePath9" d="M0,0 L100,0 L100,100 L0,100 L0,0 Z" style="stroke:none;fill-rule:evenodd;fill:#111111;fill-opacity:1;"/>
        </g>
        <g id="Shape10">
            <desc shapeID="10" type="0" basicInfo-basicType="0" basicInfo-roundedRectRadius="12" basicInfo-polygonSides="6" basicInfo-starPoints="5" bounding="rect(-3.2335,-2.69596,6.46701,5.39191)" text="" font-familyName="" font-pixelSize="20" font-bold="0" font-underline="0" font-alignment="1" strokeStyle="0" markerStart="0" markerEnd="0" shadowEnabled="0" shadowOffsetX="0" shadowOffsetY="2" shadowBlur="4" shadowOpacity="160" blurEnabled="0" blurRadius="4" transform="matrix(1,0,0,1,944.469,311.907)" pers-center="0,0" pers-size="0,0" pers-start="0,0" pers-end="0,0" locked="0" mesh="" flag=""/>
            <path id="shapePath10" d="M942.19,312.62 C942.19,312.62 941.965,312.508 942.19,312.62 C942.414,312.733 942.922,312.988 943.537,313.294 C944.014,314.395 945.292,314.901 946.393,314.424 C947.494,313.947 948,312.669 947.523,311.568 C944.539,309.689 944.035,309.492 943.81,309.38 C943.586,309.267 943.81,309.38 943.81,309.38 C942.921,308.968 941.865,309.337 941.427,310.214 C940.989,311.09 941.327,312.156 942.19,312.62 Z" style="stroke:none;fill-rule:nonzero;fill:#fa5959;fill-opacity:1;"/>
        </g>
        <g id="Shape11">
            <desc shapeID="11" type="0" basicInfo-basicType="0" basicInfo-roundedRectRadius="12" basicInfo-polygonSides="6" basicInfo-starPoints="5" bounding="rect(-21.902,-20.603,43.8039,41.206)" text="" font-familyName="" font-pixelSize="20" font-bold="0" font-underline="0" font-alignment="1" strokeStyle="0" markerStart="0" markerEnd="0" shadowEnabled="0" shadowOffsetX="0" shadowOffsetY="2" shadowBlur="4" shadowOpacity="160" blurEnabled="0" blurRadius="4" transform="matrix(1,0,0,1,312.076,353.233)" pers-center="0,0" pers-size="0,0" pers-start="0,0" pers-end="0,0" locked="0" mesh="" flag=""/>
            <path id="shapePath11" d="M330.079,370 C330.079,370 330.079,369.895 330.079,370 C330.079,370.105 330.055,370.678 330.079,370.63 C330.103,370.583 330.28,369.862 330.224,369.715 C330.168,369.568 330.111,369.679 329.743,369.748 C329.375,369.817 328.653,370.03 328.015,370.129 C327.378,370.227 326.65,370.291 325.916,370.34 C325.182,370.389 324.355,370.46 323.612,370.423 C322.869,370.385 322.215,370.269 321.456,370.114 C320.698,369.958 319.915,369.789 319.062,369.49 C318.209,369.192 317.231,368.802 316.339,368.322 C315.447,367.843 314.555,367.251 313.71,366.614 C312.865,365.976 311.999,365.277 311.272,364.498 C310.545,363.719 309.995,362.839 309.348,361.939 C308.702,361.039 307.88,359.877 307.392,359.096 C306.904,358.316 306.797,357.805 306.419,357.256 C306.041,356.708 305.514,356.231 305.127,355.805 C304.739,355.378 304.531,355.094 304.096,354.696 C303.661,354.299 302.979,353.835 302.516,353.42 C302.054,353.005 301.662,352.584 301.324,352.206 C300.985,351.827 300.643,351.412 300.485,351.149 C300.327,350.887 300.458,350.86 300.374,350.632 C300.29,350.405 300.153,350.126 299.981,349.786 C299.809,349.446 299.674,349.305 299.343,348.592 C299.012,347.88 298.501,346.757 297.994,345.51 C297.488,344.263 296.859,342.618 296.304,341.111 C295.748,339.604 295.095,337.801 294.66,336.47 C294.225,335.139 293.765,333.619 293.692,333.125 C293.619,332.631 294.539,333.115 294.221,333.506 C293.904,333.897 292.05,334.853 291.786,335.472 C291.522,336.091 292.4,336.654 292.64,337.219 C292.54,338.291 293.328,339.242 294.401,339.341 C295.473,339.441 296.423,338.653 296.523,337.581 C295.476,335.098 295.65,334.012 294.765,333.49 C293.881,332.968 291.134,332.537 290.462,332.647 C289.79,332.757 290.471,333.362 290.735,334.15 C290.998,334.939 291.561,336.064 292.045,337.379 C292.529,338.695 293.137,340.52 293.639,342.044 C294.141,343.569 294.657,345.167 295.059,346.526 C295.46,347.885 295.794,349.388 296.048,350.201 C296.301,351.013 296.422,351.061 296.579,351.402 C296.736,351.743 296.796,351.892 296.989,352.247 C297.182,352.602 297.436,353.129 297.738,353.533 C298.041,353.937 298.382,354.231 298.804,354.671 C299.226,355.111 299.828,355.76 300.27,356.174 C300.712,356.588 301.074,356.793 301.457,357.155 C301.84,357.517 302.229,358.017 302.569,358.347 C302.91,358.676 303.125,358.712 303.501,359.132 C303.876,359.552 304.263,360.082 304.824,360.865 C305.385,361.648 306.136,362.83 306.868,363.831 C307.601,364.833 308.366,365.969 309.219,366.874 C310.073,367.779 311.022,368.531 311.991,369.259 C312.96,369.986 313.999,370.662 315.035,371.237 C316.07,371.811 317.208,372.333 318.203,372.705 C319.197,373.078 320.084,373.284 321.002,373.469 C321.921,373.655 322.843,373.771 323.714,373.819 C324.584,373.867 325.404,373.801 326.227,373.757 C327.051,373.714 327.865,373.652 328.655,373.556 C329.445,373.46 330.219,373.398 330.968,373.183 C331.717,372.968 332.655,372.692 333.147,372.267 C333.639,371.841 333.792,371.008 333.921,370.63 C334.05,370.253 333.921,370.105 333.921,370 C333.921,369.895 333.921,370 333.921,370 C333.921,368.939 333.061,368.079 332,368.079 C330.939,368.079 330.079,368.939 330.079,370 Z" style="stroke:none;fill-rule:nonzero;fill:#fa5959;fill-opacity:1;"/>
        </g>
        <g id="Shape12">
            <desc shapeID="12" type="0" basicInfo-basicType="0" basicInfo-roundedRectRadius="12" basicInfo-polygonSides="6" basicInfo-starPoints="5" bounding="rect(-8.99903,-10.8281,17.998,21.6562)" text="" font-familyName="" font-pixelSize="20" font-bold="0" font-underline="0" font-alignment="1" strokeStyle="0" markerStart="0" markerEnd="0" shadowEnabled="0" shadowOffsetX="0" shadowOffsetY="2" shadowBlur="4" shadowOpacity="160" blurEnabled="0" blurRadius="4" transform="matrix(1,0,0,1,662.062,328.486)" pers-center="0,0" pers-size="0,0" pers-start="0,0" pers-end="0,0" locked="0" mesh="" flag=""/>
            <path id="shapePath12" d="M656.376,330.376 C656.376,330.376 656.325,330.427 656.376,330.376 C656.427,330.325 656.601,330.127 656.682,330.07 C656.764,330.012 656.756,330.067 656.864,330.031 C656.973,329.996 657.204,329.89 657.333,329.857 C657.463,329.825 657.484,329.846 657.64,329.837 C657.797,329.828 657.929,329.877 658.271,329.804 C658.613,329.73 659.293,329.519 659.692,329.397 C660.091,329.275 660.288,329.267 660.665,329.07 C661.042,328.874 661.585,328.539 661.957,328.218 C662.328,327.897 662.647,327.389 662.894,327.144 C663.142,326.899 663.211,326.925 663.444,326.747 C663.677,326.569 663.95,326.427 664.293,326.078 C664.636,325.729 665.155,325.023 665.502,324.656 C665.848,324.289 666.062,324.148 666.371,323.877 C666.68,323.605 667.069,323.257 667.355,323.027 C667.64,322.796 667.83,322.765 668.086,322.492 C668.341,322.22 668.689,321.704 668.89,321.393 C669.09,321.081 669.192,320.751 669.287,320.626 C669.382,320.501 669.757,320.563 669.462,320.641 C669.166,320.719 667.889,320.952 667.514,321.091 C667.138,321.231 667.207,320.902 667.209,321.475 C667.21,322.049 667.457,323.392 667.523,324.534 C667.589,325.675 667.613,327.192 667.604,328.324 C667.595,329.457 667.491,330.261 667.469,331.327 C667.447,332.393 667.489,333.686 667.472,334.722 C667.455,335.757 667.411,336.789 667.366,337.539 C667.322,338.289 666.612,339.019 667.206,339.223 C667.8,339.426 670.331,339.071 670.932,338.758 C671.322,337.719 670.797,336.561 669.758,336.171 C668.72,335.78 667.561,336.305 667.171,337.344 C667.651,339.115 670.182,339.466 670.784,339.263 C671.387,339.06 670.689,338.328 670.662,337.578 C670.635,336.828 670.615,335.797 670.623,334.761 C670.631,333.725 670.709,332.438 670.712,331.362 C670.715,330.287 670.646,329.469 670.643,328.311 C670.639,327.152 670.672,325.658 670.69,324.411 C670.707,323.164 670.885,321.891 670.747,320.829 C670.609,319.767 670.491,318.55 669.862,318.039 C669.233,317.528 667.623,317.637 666.973,317.765 C666.322,317.893 666.195,318.518 665.96,318.808 C665.724,319.098 665.603,319.373 665.558,319.504 C665.513,319.634 665.789,319.464 665.689,319.591 C665.59,319.717 665.263,319.993 664.96,320.262 C664.657,320.531 664.243,320.866 663.873,321.206 C663.503,321.546 663.047,321.98 662.739,322.3 C662.432,322.621 662.304,322.873 662.029,323.129 C661.753,323.385 661.414,323.571 661.086,323.835 C660.758,324.099 660.307,324.476 660.061,324.713 C659.815,324.95 659.702,325.125 659.609,325.258 C659.517,325.392 659.688,325.419 659.505,325.514 C659.321,325.609 658.742,325.743 658.508,325.83 C658.273,325.916 658.359,325.989 658.098,326.031 C657.837,326.073 657.318,326.031 656.944,326.079 C656.569,326.127 656.156,326.223 655.851,326.318 C655.547,326.413 655.436,326.483 655.116,326.649 C654.795,326.816 654.179,327.155 653.93,327.318 C653.682,327.48 653.675,327.573 653.624,327.624 C653.573,327.675 653.624,327.624 653.624,327.624 C652.873,328.385 652.877,329.611 653.633,330.367 C654.389,331.123 655.615,331.127 656.376,330.376 Z" style="stroke:none;fill-rule:nonzero;fill:#fa5959;fill-opacity:1;"/>
        </g>
        <g id="Shape13">
            <desc shapeID="13" type="0" basicInfo-basicType="0" basicInfo-roundedRectRadius="12" basicInfo-polygonSides="6" basicInfo-starPoints="5" bounding="rect(-3.40992,-18.2921,6.81985,36.5842)" text="" font-familyName="" font-pixelSize="20" font-bold="0" font-underline="0" font-alignment="1" strokeStyle="0" markerStart="0" markerEnd="0" shadowEnabled="0" shadowOffsetX="0" shadowOffsetY="2" shadowBlur="4" shadowOpacity="160" blurEnabled="0" blurRadius="4" transform="matrix(1,0,0,1,596.503,319.386)" pers-center="0,0" pers-size="0,0" pers-start="0,0" pers-end="0,0" locked="0" mesh="" flag=""/>
            <path id="shapePath13" d="M593.295,303.852 C593.295,303.852 593.239,303.74 593.295,303.852 C593.352,303.965 593.513,304.29 593.632,304.526 C593.752,304.762 593.781,304.963 594.013,305.266 C594.245,305.569 594.817,306.111 595.024,306.344 C595.232,306.578 595.153,306.47 595.258,306.668 C595.363,306.865 595.515,307.112 595.654,307.53 C595.793,307.949 595.974,308.561 596.091,309.18 C596.208,309.798 596.309,310.605 596.358,311.243 C596.408,311.881 596.373,312.32 596.388,313.009 C596.402,313.698 596.425,314.433 596.444,315.377 C596.463,316.321 596.525,317.341 596.503,318.673 C596.481,320.004 596.393,321.636 596.311,323.367 C596.23,325.098 596.128,327.335 596.015,329.059 C595.901,330.783 595.744,332.38 595.632,333.71 C594.681,334.506 594.555,335.922 595.352,336.874 C596.148,337.825 597.564,337.95 598.515,337.154 C598.479,332.545 598.48,330.956 598.586,329.243 C598.692,327.531 598.922,325.344 599.103,323.59 C599.285,321.835 599.554,320.084 599.675,318.718 C599.796,317.353 599.789,316.374 599.829,315.395 C599.868,314.416 599.923,313.602 599.912,312.842 C599.901,312.083 599.833,311.584 599.763,310.838 C599.692,310.091 599.619,309.154 599.489,308.362 C599.359,307.569 599.198,306.776 598.98,306.084 C598.763,305.392 598.432,304.651 598.187,304.211 C597.941,303.771 597.637,303.552 597.507,303.445 C597.377,303.338 597.482,303.674 597.405,303.57 C597.327,303.466 597.158,303.058 597.041,302.821 C596.925,302.584 596.761,302.26 596.705,302.148 C596.648,302.035 596.705,302.148 596.705,302.148 C596.234,301.206 595.09,300.824 594.148,301.295 C593.206,301.766 592.824,302.91 593.295,303.852 Z" style="stroke:none;fill-rule:nonzero;fill:#fa5959;fill-opacity:1;"/>
        </g>
        <g id="Shape14">
            <desc shapeID="14" type="0" basicInfo-basicType="0" basicInfo-roundedRectRadius="12" basicInfo-polygonSides="6" basicInfo-starPoints="5" bounding="rect(-1.94032,-1.9403,3.88065,3.8806)" text="" font-familyName="" font-pixelSize="20" font-bold="0" font-underline="0" font-alignment="1" strokeStyle="0" markerStart="0" markerEnd="0" shadowEnabled="0" shadowOffsetX="0" shadowOffsetY="2" shadowBlur="4" shadowOpacity="160" blurEnabled="0" blurRadius="4" transform="matrix(1,0,0,1,623,309)" pers-center="0,0" pers-size="0,0" pers-start="0,0" pers-end="0,0" locked="0" mesh="" flag=""/>
            <path id="shapePath14" d="M621.628,310.372 C622.386,311.13 623.614,311.13 624.372,310.372 C625.13,309.614 625.13,308.386 624.372,307.628 C623.614,306.87 622.386,306.87 621.628,307.628 C620.87,308.386 620.87,309.614 621.628,310.372 Z" style="stroke:none;fill-rule:nonzero;fill:#fa5959;fill-opacity:1;"/>
        </g>
        <g id="Shape15">
            <desc shapeID="15" type="0" basicInfo-basicType="0" basicInfo-roundedRectRadius="12" basicInfo-polygonSides="6" basicInfo-starPoints="5" bounding="rect(-14.3412,-12.3858,28.6825,24.7716)" text="" font-familyName="" font-pixelSize="20" font-bold="0" font-underline="0" font-alignment="1" strokeStyle="0" markerStart="0" markerEnd="0" shadowEnabled="0" shadowOffsetX="0" shadowOffsetY="2" shadowBlur="4" shadowOpacity="160" blurEnabled="0" blurRadius="4" transform="matrix(1,0,0,1,635.674,319.718)" pers-center="0,0" pers-size="0,0" pers-start="0,0" pers-end="0,0" locked="0" mesh="" flag=""/>
            <path id="shapePath15" d="M622.031,310.357 C622.031,310.357 621.67,310.099 622.031,310.357 C622.392,310.615 623.429,311.363 624.197,311.904 C624.966,312.445 625.971,313.063 626.642,313.602 C627.313,314.141 627.863,314.66 628.221,315.136 C628.579,315.613 628.684,316.029 628.792,316.46 C628.899,316.89 628.869,317.266 628.863,317.719 C628.858,318.172 628.811,318.681 628.758,319.177 C628.705,319.674 628.621,320.289 628.543,320.699 C628.465,321.109 628.359,321.343 628.289,321.638 C628.219,321.932 628.193,322.207 628.123,322.467 C628.053,322.726 627.97,322.719 627.87,323.195 C627.769,323.672 627.622,324.653 627.521,325.326 C627.421,325.999 627.333,326.643 627.267,327.235 C627.201,327.827 627.157,328.371 627.126,328.879 C627.094,329.387 626.974,329.775 627.077,330.284 C627.179,330.792 627.104,331.652 627.739,331.931 C628.374,332.211 630.195,332.099 630.887,331.959 C631.578,331.819 631.644,331.278 631.887,331.089 C632.13,330.9 632.206,330.877 632.345,330.824 C632.483,330.772 632.464,330.872 632.718,330.775 C632.972,330.679 633.54,330.401 633.869,330.248 C634.199,330.095 634.5,329.931 634.693,329.858 C634.886,329.784 634.902,329.817 635.028,329.805 C635.155,329.794 635.259,329.792 635.452,329.789 C635.646,329.786 635.908,329.783 636.19,329.786 C636.472,329.79 636.728,329.864 637.144,329.809 C637.559,329.754 638.252,329.577 638.685,329.459 C639.118,329.341 639.383,329.197 639.743,329.1 C640.102,329.003 640.451,328.933 640.844,328.877 C641.237,328.822 641.638,328.793 642.099,328.765 C642.559,328.737 643.14,328.709 643.605,328.708 C644.071,328.707 644.531,328.735 644.893,328.757 C645.255,328.779 645.507,328.817 645.779,328.838 C646.051,328.86 646.515,328.885 646.526,328.887 C646.537,328.889 645.867,328.789 645.846,328.849 C645.825,328.909 645.816,329.302 646.401,329.249 C646.987,329.195 648.773,328.948 649.36,328.53 C649.947,328.112 649.819,327.279 649.922,326.74 C650.024,326.202 650.043,325.886 649.974,325.301 C649.905,324.716 649.724,323.919 649.507,323.23 C649.29,322.541 648.914,321.789 648.672,321.167 C648.431,320.545 648.209,319.949 648.058,319.498 C647.908,319.047 647.825,318.719 647.769,318.463 C647.714,318.207 647.73,318.114 647.727,317.961 C647.737,316.963 646.976,316.127 645.982,316.043 C644.987,315.959 644.097,316.656 643.939,317.641 C644.056,319.08 644.15,319.421 644.274,319.76 C644.397,320.099 644.551,320.311 644.74,320.761 C644.929,321.21 645.195,321.91 645.406,322.455 C645.617,323 645.862,323.582 646.005,324.03 C646.149,324.478 646.23,324.815 646.266,325.145 C646.302,325.476 646.194,325.866 646.221,326.011 C646.249,326.156 646.022,325.994 646.43,326.015 C646.837,326.036 648.365,326.171 648.666,326.138 C648.967,326.106 648.568,325.996 648.234,325.819 C647.9,325.643 647.05,325.202 646.662,325.078 C646.273,324.953 646.192,325.071 645.903,325.073 C645.614,325.076 645.324,325.086 644.927,325.093 C644.531,325.101 644.05,325.11 643.523,325.117 C642.996,325.124 642.319,325.107 641.764,325.135 C641.21,325.162 640.729,325.213 640.196,325.283 C639.662,325.352 638.992,325.458 638.563,325.553 C638.135,325.649 637.84,325.773 637.626,325.858 C637.411,325.943 637.511,326.038 637.274,326.064 C637.037,326.091 636.565,326.026 636.203,326.016 C635.841,326.007 635.482,325.987 635.1,326.008 C634.718,326.029 634.27,326.062 633.911,326.142 C633.552,326.221 633.211,326.369 632.947,326.485 C632.684,326.602 632.561,326.725 632.332,326.84 C632.103,326.955 631.919,327.037 631.574,327.174 C631.228,327.311 630.638,327.469 630.26,327.661 C629.882,327.853 629.51,328.162 629.304,328.327 C629.099,328.492 628.79,328.458 629.029,328.651 C629.268,328.844 630.453,329.206 630.739,329.486 C631.026,329.766 630.749,330.394 630.748,330.331 C630.747,330.269 630.726,329.552 630.733,329.11 C630.74,328.668 630.747,328.193 630.789,327.677 C630.831,327.161 630.887,326.551 630.983,326.014 C631.08,325.477 631.218,324.947 631.368,324.454 C631.517,323.961 631.78,323.412 631.879,323.056 C631.977,322.7 631.923,322.634 631.959,322.316 C631.995,321.998 632.038,321.645 632.095,321.148 C632.152,320.651 632.258,319.997 632.302,319.334 C632.345,318.672 632.431,317.936 632.357,317.174 C632.282,316.412 632.165,315.523 631.855,314.762 C631.546,314.001 631.051,313.24 630.498,312.605 C629.944,311.971 629.262,311.522 628.534,310.953 C627.807,310.383 626.896,309.742 626.135,309.191 C625.374,308.639 624.33,307.901 623.969,307.643 C623.608,307.385 623.969,307.643 623.969,307.643 C623.22,307.108 622.178,307.282 621.643,308.031 C621.108,308.78 621.282,309.822 622.031,310.357 Z" style="stroke:none;fill-rule:nonzero;fill:#fa5959;fill-opacity:1;"/>
        </g>
        <g id="Shape16">
            <desc shapeID="16" type="0" basicInfo-basicType="0" basicInfo-roundedRectRadius="12" basicInfo-polygonSides="6" basicInfo-starPoints="5" bounding="rect(-1.91699,-1.91699,3.83398,3.83398)" text="" font-familyName="" font-pixelSize="20" font-bold="0" font-underline="0" font-alignment="1" strokeStyle="0" markerStart="0" markerEnd="0" shadowEnabled="0" shadowOffsetX="0" shadowOffsetY="2" shadowBlur="4" shadowOpacity="160" blurEnabled="0" blurRadius="4" transform="matrix(1,0,0,1,644,296)" pers-center="0,0" pers-size="0,0" pers-start="0,0" pers-end="0,0" locked="0" mesh="" flag=""/>
            <path id="shapePath16" d="M642.083,296 C642.083,297.059 642.941,297.917 644,297.917 C645.059,297.917 645.917,297.059 645.917,296 C645.917,294.941 645.059,294.083 644,294.083 C642.941,294.083 642.083,294.941 642.083,296 Z" style="stroke:none;fill-rule:nonzero;fill:#fa5959;fill-opacity:1;"/>
        </g>
        <g id="Shape17">
            <desc shapeID="17" type="0" basicInfo-basicType="0" basicInfo-roundedRectRadius="12" basicInfo-polygonSides="6" basicInfo-starPoints="5" bounding="rect(-4.45007,-10.0283,8.90016,20.0566)" text="" font-familyName="" font-pixelSize="20" font-bold="0" font-underline="0" font-alignment="1" strokeStyle="0" markerStart="0" markerEnd="0" shadowEnabled="0" shadowOffsetX="0" shadowOffsetY="2" shadowBlur="4" shadowOpacity="160" blurEnabled="0" blurRadius="4" transform="matrix(1,0,0,1,641.302,293.21)" pers-center="0,0" pers-size="0,0" pers-start="0,0" pers-end="0,0" locked="0" mesh="" flag=""/>
            <path id="shapePath17" d="M645.731,296.753 C645.731,296.753 645.778,297.085 645.731,296.753 C645.683,296.421 645.566,295.541 645.446,294.76 C645.327,293.98 645.122,292.895 645.014,292.07 C644.907,291.244 644.847,290.442 644.802,289.806 C644.758,289.17 644.832,288.749 644.749,288.255 C644.666,287.761 644.431,287.205 644.304,286.842 C644.178,286.479 644.065,286.32 643.988,286.078 C643.911,285.836 643.876,285.629 643.842,285.389 C643.808,285.15 643.877,284.989 643.783,284.64 C643.69,284.292 643.981,283.489 643.283,283.297 C642.584,283.105 640.357,283.141 639.593,283.489 C638.829,283.838 638.918,284.696 638.699,285.389 C638.48,286.083 638.388,287.007 638.279,287.65 C638.17,288.294 638.098,288.771 638.048,289.251 C637.998,289.732 637.986,290.142 637.979,290.532 C637.973,290.922 638.035,291.378 638.008,291.592 C637.98,291.805 637.896,291.632 637.815,291.811 C637.734,291.989 637.616,292.342 637.521,292.662 C637.426,292.982 637.316,293.354 637.246,293.73 C637.175,294.107 637.13,294.527 637.099,294.921 C637.067,295.315 637.064,295.718 637.058,296.093 C637.052,296.468 637.057,296.815 637.063,297.173 C637.069,297.53 637.084,297.883 637.093,298.237 C637.102,298.59 637.115,298.962 637.119,299.294 C637.123,299.626 637.116,299.909 637.118,300.231 C637.121,300.554 637.129,300.896 637.132,301.228 C637.134,301.559 637.131,301.886 637.131,302.221 C637.131,302.556 636.502,303.192 637.132,303.238 C637.165,302.997 637.151,302.753 637.092,302.517 C641.508,303.195 640.88,302.558 640.88,302.218 C640.881,301.878 640.879,301.546 640.879,301.206 C640.879,300.866 640.884,300.511 640.88,300.179 C640.876,299.847 640.861,299.551 640.853,299.213 C640.845,298.874 640.839,298.494 640.833,298.148 C640.826,297.803 640.819,297.46 640.814,297.139 C640.808,296.818 640.799,296.518 640.801,296.221 C640.804,295.925 640.812,295.627 640.83,295.36 C640.848,295.094 640.871,294.862 640.91,294.62 C640.95,294.378 640.983,294.189 641.067,293.908 C641.151,293.627 641.298,293.35 641.415,292.933 C641.532,292.515 641.72,291.794 641.767,291.402 C641.815,291.01 641.718,290.875 641.701,290.581 C641.683,290.286 641.655,290.009 641.662,289.633 C641.668,289.256 641.674,288.788 641.738,288.322 C641.801,287.856 641.954,287.203 642.044,286.838 C642.135,286.474 642.639,286.439 642.278,286.136 C641.917,285.833 640.251,285.208 639.88,285.019 C639.509,284.831 640,284.8 640.052,285.006 C640.103,285.211 640.115,285.84 640.188,286.252 C640.262,286.664 640.379,287.108 640.495,287.478 C640.611,287.848 640.772,288.289 640.883,288.472 C640.995,288.656 641.078,288.289 641.163,288.579 C641.249,288.869 641.303,289.563 641.397,290.214 C641.492,290.865 641.631,291.644 641.728,292.484 C641.826,293.324 641.894,294.461 641.985,295.255 C642.075,296.049 642.222,296.915 642.269,297.247 C642.317,297.579 642.269,297.247 642.269,297.247 C642.405,298.203 643.291,298.867 644.247,298.731 C645.203,298.595 645.867,297.709 645.731,296.753 Z" style="stroke:none;fill-rule:nonzero;fill:#fa5959;fill-opacity:1;"/>
        </g>
        <g id="Shape18">
            <desc shapeID="18" type="0" basicInfo-basicType="0" basicInfo-roundedRectRadius="12" basicInfo-polygonSides="6" basicInfo-starPoints="5" bounding="rect(-2.15588,-1.90915,4.31178,3.8183)" text="" font-familyName="" font-pixelSize="20" font-bold="0" font-underline="0" font-alignment="1" strokeStyle="0" markerStart="0" markerEnd="0" shadowEnabled="0" shadowOffsetX="0" shadowOffsetY="2" shadowBlur="4" shadowOpacity="160" blurEnabled="0" blurRadius="4" transform="matrix(1,0,0,1,735.279,300.032)" pers-center="0,0" pers-size="0,0" pers-start="0,0" pers-end="0,0" locked="0" mesh="" flag=""/>
            <path id="shapePath18" d="M735,301.877 C735,301.877 734.835,301.877 735,301.877 C736.037,302.15 737.098,301.53 737.37,300.493 C737.643,299.457 737.024,298.396 735.987,298.123 C734.835,298.123 735,298.123 735,298.123 C733.963,298.123 733.123,298.963 733.123,300 C733.123,301.037 733.963,301.877 735,301.877 Z" style="stroke:none;fill-rule:nonzero;fill:#fa5959;fill-opacity:1;"/>
        </g>
        <g id="Shape19">
            <desc shapeID="19" type="0" basicInfo-basicType="0" basicInfo-roundedRectRadius="12" basicInfo-polygonSides="6" basicInfo-starPoints="5" bounding="rect(-5.50847,-12.3384,11.0169,24.6768)" text="" font-familyName="" font-pixelSize="20" font-bold="0" font-underline="0" font-alignment="1" strokeStyle="0" markerStart="0" markerEnd="0" shadowEnabled="0" shadowOffsetX="0" shadowOffsetY="2" shadowBlur="4" shadowOpacity="160" blurEnabled="0" blurRadius="4" transform="matrix(1,0,0,1,723.584,297.414)" pers-center="0,0" pers-size="0,0" pers-start="0,0" pers-end="0,0" locked="0" mesh="" flag=""/>
            <path id="shapePath19" d="M718.629,288.371 C718.629,288.371 718.572,288.314 718.629,288.371 C718.686,288.428 718.712,288.542 718.971,288.714 C719.231,288.886 719.851,289.209 720.187,289.401 C720.523,289.593 720.646,289.692 720.989,289.865 C721.331,290.037 721.879,290.255 722.243,290.436 C722.607,290.617 722.912,290.791 723.171,290.951 C723.43,291.112 723.613,291.254 723.796,291.398 C723.979,291.542 724.076,291.636 724.269,291.814 C724.463,291.993 724.761,292.265 724.957,292.469 C725.152,292.674 725.375,292.925 725.442,293.041 C725.509,293.157 725.383,293.106 725.36,293.163 C725.336,293.22 725.314,293.237 725.3,293.382 C725.285,293.526 725.287,293.768 725.274,294.031 C725.262,294.294 725.241,294.631 725.223,294.959 C725.206,295.287 725.184,295.644 725.169,295.999 C725.154,296.354 725.142,296.72 725.134,297.087 C725.126,297.454 725.125,297.845 725.121,298.201 C725.117,298.556 725.109,298.874 725.109,299.219 C725.108,299.563 725.105,299.829 725.119,300.267 C725.132,300.705 725.165,301.205 725.192,301.847 C725.219,302.489 725.261,303.31 725.282,304.118 C725.304,304.926 725.326,305.914 725.323,306.694 C724.742,307.637 725.035,308.873 725.978,309.454 C726.921,310.035 728.157,309.742 728.738,308.799 C728.674,305.91 728.694,304.922 728.714,304.112 C728.734,303.303 728.772,302.479 728.796,301.835 C728.821,301.191 728.849,300.685 728.859,300.251 C728.87,299.816 728.861,299.558 728.86,299.226 C728.859,298.893 728.85,298.591 728.851,298.256 C728.853,297.921 728.861,297.557 728.87,297.215 C728.879,296.874 728.891,296.543 728.908,296.208 C728.924,295.873 728.945,295.547 728.968,295.206 C728.991,294.864 729.027,294.526 729.047,294.16 C729.066,293.793 729.113,293.425 729.083,293.006 C729.053,292.587 729.011,292.074 728.866,291.647 C728.721,291.22 728.426,290.749 728.211,290.445 C727.997,290.142 727.832,290.078 727.58,289.825 C727.328,289.573 726.999,289.201 726.702,288.928 C726.405,288.654 726.086,288.384 725.799,288.184 C725.511,287.984 725.315,287.918 724.976,287.729 C724.637,287.539 724.103,287.219 723.766,287.046 C723.428,286.873 723.255,286.858 722.95,286.688 C722.645,286.519 722.142,286.15 721.936,286.031 C721.73,285.911 721.808,286.038 721.714,285.971 C721.62,285.904 721.428,285.686 721.371,285.629 C721.314,285.572 721.371,285.629 721.371,285.629 C720.611,284.886 719.395,284.892 718.644,285.644 C717.892,286.395 717.886,287.611 718.629,288.371 Z" style="stroke:none;fill-rule:nonzero;fill:#fa5959;fill-opacity:1;"/>
        </g>
        <g id="Shape20">
            <desc shapeID="20" type="0" basicInfo-basicType="0" basicInfo-roundedRectRadius="12" basicInfo-polygonSides="6" basicInfo-starPoints="5" bounding="rect(-13.0836,-16.1007,26.1673,32.2013)" text="" font-familyName="" font-pixelSize="20" font-bold="0" font-underline="0" font-alignment="1" strokeStyle="0" markerStart="0" markerEnd="0" shadowEnabled="0" shadowOffsetX="0" shadowOffsetY="2" shadowBlur="4" shadowOpacity="160" blurEnabled="0" blurRadius="4" transform="matrix(1,0,0,1,577.943,378.869)" pers-center="0,0" pers-size="0,0" pers-start="0,0" pers-end="0,0" locked="0" mesh="" flag=""/>
            <path id="shapePath20" d="M568.374,394.374 C568.374,394.374 568.32,394.428 568.374,394.374 C568.428,394.32 568.502,394.333 568.698,394.05 C568.894,393.766 566.386,397.055 569.55,392.674 C572.714,388.293 584.157,372.356 587.68,367.762 C591.204,363.169 591.414,364.618 590.69,365.112 C589.965,365.605 585.549,368.492 583.334,370.723 C581.118,372.955 579.197,376.227 577.395,378.499 C575.422,377.61 573.102,378.489 572.214,380.462 C571.325,382.436 572.204,384.755 574.177,385.644 C580.417,377.174 583.113,374.508 584.726,371.8 C586.338,369.093 588.051,364.075 588.333,363.238 C588.615,362.4 590.059,362.215 586.419,366.778 C582.779,371.34 569.904,386.524 566.493,390.611 C563.081,394.698 566.095,391.133 565.95,391.302 C565.806,391.472 565.68,391.572 565.626,391.626 C565.572,391.68 565.626,391.626 565.626,391.626 C564.867,392.385 564.867,393.615 565.626,394.374 C566.385,395.133 567.615,395.133 568.374,394.374 Z" style="stroke:none;fill-rule:nonzero;fill:#fa5959;fill-opacity:1;"/>
        </g>
        <g id="Shape21">
            <desc shapeID="21" type="0" basicInfo-basicType="0" basicInfo-roundedRectRadius="12" basicInfo-polygonSides="6" basicInfo-starPoints="5" bounding="rect(-1,-1,2,2)" text="" font-familyName="" font-pixelSize="20" font-bold="0" font-underline="0" font-alignment="1" strokeStyle="0" markerStart="0" markerEnd="0" shadowEnabled="0" shadowOffsetX="0" shadowOffsetY="2" shadowBlur="4" shadowOpacity="160" blurEnabled="0" blurRadius="4" transform="matrix(1,0,0,1,1,63)" pers-center="0,0" pers-size="0,0" pers-start="0,0" pers-end="0,0" locked="0" mesh="" flag=""/>
            <path id="shapePath21" d="M1,62 C0.447715,62 5.96046e-08,62.4477 5.96046e-08,63 C5.96046e-08,63.5523 0.447715,64 1,64 C1.55228,64 2,63.5523 2,63 C2,62.4477 1.55228,62 1,62 Z" style="stroke:none;fill-rule:nonzero;fill:#fa5959;fill-opacity:1;"/>
        </g>
        <g id="Shape22">
            <desc shapeID="22" type="0" basicInfo-basicType="0" basicInfo-roundedRectRadius="12" basicInfo-polygonSides="6" basicInfo-starPoints="5" bounding="rect(-50,-50,100,100)" text="" font-familyName="" font-pixelSize="20" font-bold="0" font-underline="0" font-alignment="1" strokeStyle="0" markerStart="0" markerEnd="0" shadowEnabled="0" shadowOffsetX="0" shadowOffsetY="2" shadowBlur="4" shadowOpacity="160" blurEnabled="0" blurRadius="4" transform="matrix(1,0,0,1,50,50)" pers-center="0,0" pers-size="0,0" pers-start="0,0" pers-end="0,0" locked="0" mesh="" flag=""/>
            <path id="shapePath22" d="M0,0 L100,0 L100,100 L0,100 L0,0 Z" style="stroke:none;fill-rule:evenodd;fill:#fa5959;fill-opacity:1;"/>
        </g>
    </g>
</svg>
