<!DOCTYPE svg:svg PUBLIC "-//W3C//DTD SVG 1.1//EN" "http://www.w3.org/Graphics/SVG/1.1/DTD/svg11.dtd"><svg xmlns="http://www.w3.org/2000/svg" xmlns:a="http://www.rozsival.com/2015/vector-video" width="1427" height="801" viewBox="0 0 1427 801"><a:metadata><a:length>22504.734</a:length><a:width>1427</a:width><a:height>801</a:height><a:audio><a:source a:type="audio/ogg" a:src="/recordings/8fbf1208-1d4c-4715-b4f3-47af037ade20.ogg"/><a:source a:type="audio/mp3" a:src="/recordings/8fbf1208-1d4c-4715-b4f3-47af037ade20.mp3"/></a:audio></a:metadata><g a:type="video-chunks"><g a:type="erase" a:t="0.00" a:lastErase="0"><rect fill="#111" width="100%" height="100%"/><a:init><a:s a:d="2" a:u="px" a:t="0"/><a:c a:d="#fff" a:t="0"/><a:m a:x="0" a:y="0" a:t="0"/></a:init><a:e a:t="0" a:color="#111"/><a:c a:d="#fff" a:t="0"/><a:s a:d="2" a:u="px" a:t="0"/><a:c a:d="#8cfa59" a:t="0"/><a:s a:d="10" a:u="px" a:t="0"/></g><g a:type="path" a:t="0.00" a:lastErase="0"><path fill="#8cfa59" d="M 301.02,184 L 301.02,184 C 301.02,184 301.02,183.933 301.02,184 C 301.02,184.067 300.987,183.604 301.02,184.402 C 301.053,185.201 301.147,185.873 301.22,188.793 C 301.292,191.714 301.334,195.015 301.456,201.927 C 301.579,208.839 301.718,218.504 301.953,230.264 C 302.189,242.024 302.613,257.635 302.87,272.486 C 303.128,287.336 303.427,305.463 303.499,319.365 C 303.571,333.267 303.349,344.836 303.304,355.897 C 303.258,366.958 303.292,377.397 303.226,385.73 C 303.16,394.063 303.019,400.618 302.908,405.895 C 302.798,411.172 302.659,414.456 302.564,417.393 C 302.469,420.33 302.409,422.172 302.339,423.516 C 302.268,424.861 300.523,425.06 302.141,425.46 C 303.758,425.861 310.031,427.023 312.045,425.919 C 314.059,424.816 312.859,422.44 314.226,418.838 C 315.592,415.235 317.613,410.362 320.243,404.307 C 322.874,398.252 326.294,390.56 330.011,382.508 C 333.728,374.457 338.301,364.546 342.543,355.997 C 346.785,347.448 351.366,338.908 355.464,331.214 C 359.563,323.52 363.883,315.586 367.132,309.833 C 370.38,304.079 372.767,300.296 374.957,296.692 C 377.146,293.088 379.008,289.865 380.268,288.209 C 381.528,286.552 382.802,286.419 382.519,286.755 C 382.235,287.091 378.408,287.643 378.566,290.222 C 378.725,292.801 381.815,297.791 383.471,302.23 C 385.127,306.668 385.844,310.097 388.504,316.854 C 391.163,323.611 395.893,334.261 399.429,342.77 C 402.965,351.279 406.353,360.034 409.719,367.907 C 413.086,375.781 416.304,383.007 419.628,390.012 C 422.951,397.018 426.538,404.167 429.662,409.94 C 432.786,415.712 435.807,420.721 438.37,424.647 C 440.934,428.573 442.675,431.057 445.043,433.496 C 447.41,435.936 449.479,438.526 452.575,439.282 C 455.67,440.037 460.21,439.966 463.617,438.028 C 467.024,436.091 470.103,431.9 473.015,427.657 C 475.927,423.414 478.614,417.657 481.09,412.572 C 483.566,407.488 485.813,402.104 487.868,397.15 C 489.923,392.195 491.797,387.077 493.423,382.846 C 495.048,378.616 496.438,374.8 497.619,371.768 C 498.801,368.735 499.733,365.923 500.512,364.652 C 501.291,363.382 501.73,363.467 502.294,364.146 C 502.858,364.825 501.955,366.27 503.895,368.728 C 505.836,371.185 509.719,374.512 513.937,378.891 C 518.155,383.27 523.476,389.382 529.204,395.002 C 534.932,400.622 541.194,407.204 548.306,412.611 C 555.419,418.017 562.771,423.665 571.877,427.443 C 580.983,431.221 591.314,434.413 602.944,435.279 C 614.574,436.145 628.859,434.872 641.656,432.637 C 654.452,430.402 668.049,426.241 679.723,421.871 C 691.397,417.502 701.835,412.214 711.701,406.419 C 721.568,400.624 730.881,393.527 738.922,387.1 C 746.963,380.673 754.235,373.414 759.947,367.856 C 765.658,362.298 769.705,357.721 773.193,353.751 C 776.681,349.781 778.97,346.634 780.876,344.036 C 782.782,341.437 783.777,339.694 784.631,338.162 C 785.484,336.63 785.909,336.186 785.998,334.844 C 786.086,333.502 786.364,331.227 785.163,330.109 C 783.962,328.991 780.238,328.26 778.793,328.135 C 777.348,328.01 777.072,328.987 776.491,329.357 A 4.96,4.96 0.8270391033703484 0,0 782.022,337.66 C 781.906,337.581 782.207,338.099 781.32,337.717 C 780.432,337.335 777.468,336.248 776.699,335.282 C 775.929,334.315 776.73,332.22 776.703,331.919 C 776.675,331.618 777.016,332.331 776.535,333.475 C 776.054,334.62 775.379,336.305 773.816,338.785 C 772.253,341.264 770.287,344.383 767.158,348.352 C 764.028,352.32 760.398,357.048 755.04,362.596 C 749.683,368.144 742.713,375.31 735.011,381.641 C 727.309,387.972 718.323,394.858 708.831,400.583 C 699.339,406.308 689.32,411.686 678.059,415.993 C 666.797,420.3 653.497,424.326 641.26,426.424 C 629.023,428.522 615.553,429.438 604.636,428.581 C 593.719,427.723 584.302,424.845 575.758,421.278 C 567.215,417.711 560.182,412.432 553.377,407.177 C 546.571,401.921 540.483,395.434 534.926,389.744 C 529.369,384.054 524.412,377.843 520.035,373.036 C 515.659,368.228 512.661,363.6 508.667,360.898 C 504.672,358.197 498.868,356.743 496.069,356.827 C 493.271,356.912 493,359.415 491.876,361.404 C 490.752,363.392 490.387,365.692 489.324,368.76 C 488.261,371.828 487.015,375.64 485.498,379.811 C 483.981,383.983 482.179,389.002 480.221,393.792 C 478.262,398.581 476.086,403.847 473.747,408.549 C 471.408,413.251 468.293,418.576 466.187,422.003 C 464.08,425.43 462.482,427.47 461.109,429.112 C 459.736,430.754 459.466,432.057 457.95,431.854 C 456.434,431.651 454.096,429.82 452.014,427.892 C 449.932,425.965 448.03,423.871 445.461,420.29 C 442.891,416.709 439.754,411.978 436.599,406.407 C 433.445,400.836 429.892,393.742 426.535,386.863 C 423.178,379.985 419.861,372.928 416.46,365.136 C 413.06,357.345 409.459,348.613 406.131,340.114 C 402.803,331.615 398.935,320.968 396.492,314.141 C 394.048,307.315 393.201,304.099 391.47,299.153 C 389.739,294.207 388.699,287.698 386.107,284.467 C 383.516,281.235 378.184,279.903 375.921,279.766 C 373.657,279.628 373.92,281.505 372.526,283.641 C 371.133,285.776 369.568,288.808 367.558,292.578 C 365.549,296.349 363.549,300.374 360.469,306.262 C 357.389,312.149 353.123,320.126 349.076,327.903 C 345.029,335.679 340.511,344.356 336.186,352.92 C 331.86,361.483 327.06,371.289 323.125,379.285 C 319.189,387.282 315.502,394.825 312.573,400.899 C 309.643,406.974 307.232,411.986 305.547,415.732 C 303.861,419.478 301.392,421.763 302.458,423.375 C 303.525,424.988 310.401,425.394 311.946,425.406 C 313.49,425.419 311.815,424.797 311.726,423.45 C 311.638,422.103 311.553,420.261 311.414,417.325 C 311.275,414.388 311.087,411.105 310.892,405.829 C 310.696,400.554 310.45,394.001 310.243,385.669 C 310.036,377.338 309.889,366.899 309.651,355.841 C 309.412,344.783 308.978,333.218 308.811,319.32 C 308.645,305.423 308.601,287.287 308.653,272.455 C 308.705,257.623 308.875,242.062 309.123,230.329 C 309.37,218.597 309.859,208.984 310.135,202.061 C 310.411,195.139 310.64,191.737 310.78,188.793 C 310.921,185.85 310.947,185.201 310.98,184.402 C 311.013,183.604 310.98,184.067 310.98,184 C 310.98,183.933 310.98,184 310.98,184 L 310.98,184 L 310.98,184 A 4.98,4.98 -3.141592653589793 0,0 301.02,184"/><a:init><a:s a:d="10" a:u="px" a:t="0"/><a:c a:d="#8cfa59" a:t="0"/><a:m a:x="306" a:y="184" a:t="0" a:p="1"/></a:init><a:ds a:t="0"/><a:ds a:t="0"/><a:ds a:t="0"/><a:ds a:t="0"/><a:ds a:t="0"/><a:ds a:t="0"/><a:ds a:t="0"/><a:ds a:t="0"/><a:ds a:t="0"/><a:ds a:t="0"/><a:ds a:t="0"/><a:ds a:t="0"/><a:ds a:t="0"/><a:ds a:t="0"/><a:ds a:t="0"/><a:ds a:t="0"/><a:ds a:t="0"/><a:ds a:t="0"/><a:ds a:t="0"/><a:ds a:t="0"/><a:ds a:t="0"/><a:ds a:t="0"/><a:ds a:t="0"/><a:ds a:t="0"/><a:ds a:t="0"/><a:ds a:t="0"/><a:ds a:t="0"/><a:ds a:t="0"/><a:ds a:t="0"/><a:ds a:t="0"/><a:ds a:t="0"/><a:ds a:t="0"/><a:ds a:t="0"/><a:ds a:t="0"/><a:ds a:t="0"/><a:ds a:t="0"/><a:ds a:t="0"/><a:ds a:t="0"/><a:ds a:t="0"/><a:ds a:t="0"/><a:ds a:t="0"/><a:ds a:t="0"/><a:ds a:t="0"/><a:ds a:t="0"/><a:ds a:t="0"/><a:ds a:t="0"/><a:ds a:t="0"/><a:ds a:t="0"/><a:ds a:t="0"/><a:ds a:t="0"/><a:ds a:t="0"/><a:ds a:t="0"/><a:ds a:t="0"/><a:ds a:t="0"/><a:ds a:t="0"/><a:ds a:t="0"/><a:ds a:t="0"/><a:ds a:t="0"/><a:ds a:t="0"/><a:ds a:t="0"/><a:ds a:t="0"/></g><g a:type="void" a:t="0.00" a:lastErase="0"><a:init><a:s a:d="10" a:u="px" a:t="0"/><a:c a:d="#8cfa59" a:t="0"/><a:m a:x="57" a:y="770" a:t="0"/></a:init><a:m a:x="59" a:y="770" a:t="212.39"/><a:m a:x="104" a:y="765" a:t="228.93"/><a:m a:x="185" a:y="764" a:t="245.66"/><a:m a:x="340" a:y="764" a:t="263"/><a:m a:x="502" a:y="765" a:t="280.36"/><a:m a:x="691" a:y="796" a:t="296.88"/><a:m a:x="742" a:y="799" a:t="456.44"/><a:m a:x="742" a:y="799" a:t="457.59"/><a:m a:x="720" a:y="795" a:t="475.5"/><a:m a:x="694" a:y="792" a:t="491.12"/><a:m a:x="668" a:y="792" a:t="507.56"/><a:m a:x="637" a:y="792" a:t="524.72"/><a:m a:x="610" a:y="793" a:t="541.3"/><a:m a:x="592" a:y="798" a:t="558.17"/><a:m a:x="549" a:y="800" a:t="730.72"/><a:m a:x="549" a:y="800" a:t="731.99"/><a:m a:x="544" a:y="797" a:t="747.21"/><a:m a:x="540" a:y="795" a:t="764.06"/><a:m a:x="536" a:y="792" a:t="780.78"/><a:m a:x="534" a:y="791" a:t="797.04"/><a:m a:x="533" a:y="788" a:t="814.27"/><a:m a:x="533" a:y="785" a:t="831.42"/><a:m a:x="532" a:y="780" a:t="848.57"/><a:m a:x="532" a:y="775" a:t="866.05"/><a:m a:x="532" a:y="771" a:t="882.89"/><a:m a:x="532" a:y="768" a:t="900.59"/><a:m a:x="532" a:y="767" a:t="916.5"/><a:m a:x="532" a:y="765" a:t="933.74"/><a:m a:x="532" a:y="764" a:t="950.66"/><a:m a:x="533" a:y="763" a:t="967.34"/><a:m a:x="534" a:y="762" a:t="984.45"/><a:m a:x="535" a:y="762" a:t="1001.37"/><a:m a:x="537" a:y="762" a:t="1023.24"/><a:m a:x="542" a:y="762" a:t="1039.94"/><a:m a:x="550" a:y="762" a:t="1056.32"/><a:m a:x="556" a:y="763" a:t="1071.49"/><a:m a:x="563" a:y="765" a:t="1091.22"/><a:m a:x="569" a:y="766" a:t="1106.82"/><a:m a:x="572" a:y="767" a:t="1124.78"/><a:m a:x="574" a:y="767" a:t="1138.97"/><a:m a:x="575" a:y="767" a:t="1156.23"/><a:m a:x="576" a:y="767" a:t="1182.54"/><a:m a:x="577" a:y="767" a:t="1207.23"/><a:m a:x="578" a:y="768" a:t="1223.88"/><a:m a:x="580" a:y="769" a:t="1241.26"/><a:m a:x="582" a:y="769" a:t="1257.36"/><a:m a:x="583" a:y="769" a:t="1274.56"/><a:m a:x="584" a:y="769" a:t="1292.35"/><a:m a:x="585" a:y="769" a:t="1311.29"/><a:m a:x="586" a:y="769" a:t="1328.13"/><a:m a:x="589" a:y="769" a:t="1345.65"/><a:m a:x="591" a:y="769" a:t="1361.43"/><a:m a:x="592" a:y="769" a:t="1378.95"/><a:m a:x="593" a:y="769" a:t="1395.49"/><a:m a:x="593" a:y="768" a:t="1413.23"/><a:m a:x="593" a:y="768" a:t="1582.56"/><a:s a:d="8" a:u="px" a:t="1582.97"/><a:m a:x="593" a:y="767" a:t="1767.18"/><a:m a:x="593" a:y="741" a:t="1784.22"/><a:m a:x="593" a:y="715" a:t="1801.47"/><a:m a:x="599" a:y="650" a:t="1818.19"/><a:m a:x="617" a:y="557" a:t="1835.29"/><a:m a:x="644" a:y="437" a:t="1852.77"/><a:m a:x="681" a:y="320" a:t="1870.95"/><a:m a:x="704" a:y="247" a:t="1887.63"/><a:m a:x="719" a:y="200" a:t="1906.84"/><a:m a:x="723" a:y="166" a:t="1923.44"/><a:m a:x="723" a:y="136" a:t="1941.71"/><a:m a:x="713" a:y="126" a:t="1957.35"/><a:m a:x="694" a:y="114" a:t="1974.61"/><a:m a:x="675" a:y="106" a:t="1991.29"/><a:m a:x="658" a:y="101" a:t="2008.99"/><a:m a:x="646" a:y="100" a:t="2026.01"/><a:m a:x="634" a:y="101" a:t="2041.34"/><a:m a:x="623" a:y="111" a:t="2058.63"/><a:m a:x="607" a:y="134" a:t="2075.88"/><a:m a:x="600" a:y="154" a:t="2092.29"/><a:m a:x="595" a:y="183" a:t="2110.3"/><a:m a:x="593" a:y="212" a:t="2127.92"/><a:m a:x="593" a:y="246" a:t="2145.32"/><a:m a:x="609" a:y="268" a:t="2160.89"/><a:m a:x="636" a:y="290" a:t="2178.57"/><a:m a:x="660" a:y="303" a:t="2195.8"/><a:m a:x="691" a:y="319" a:t="2211.63"/><a:m a:x="716" a:y="328" a:t="2229.31"/><a:m a:x="736" a:y="335" a:t="2246.64"/><a:m a:x="753" a:y="337" a:t="2264.8"/><a:m a:x="781" a:y="336" a:t="2280.19"/><a:m a:x="810" a:y="318" a:t="2296.9"/><a:m a:x="842" a:y="290" a:t="2315.17"/><a:m a:x="873" a:y="257" a:t="2330.84"/><a:m a:x="903" a:y="218" a:t="2347.8"/><a:m a:x="916" a:y="196" a:t="2366.01"/><a:m a:x="926" a:y="180" a:t="2382.78"/><a:m a:x="931" a:y="171" a:t="2401.15"/><a:m a:x="933" a:y="167" a:t="2418.5"/><a:m a:x="933" a:y="166" a:t="2436.52"/><a:m a:x="933" a:y="167" a:t="2528.96"/><a:m a:x="936" a:y="172" a:t="2546.51"/><a:m a:x="945" a:y="181" a:t="2563.43"/><a:m a:x="963" a:y="192" a:t="2580.02"/><a:m a:x="995" a:y="204" a:t="2597.48"/><a:m a:x="1042" a:y="217" a:t="2628.98"/><a:m a:x="1095" a:y="228" a:t="2632.37"/><a:m a:x="1124" a:y="234" a:t="2649.05"/><a:m a:x="1154" a:y="243" a:t="2665.9"/><a:m a:x="1170" a:y="250" a:t="2682.73"/><a:m a:x="1176" a:y="254" a:t="2699.83"/><a:m a:x="1181" a:y="259" a:t="2716.64"/><a:m a:x="1185" a:y="266" a:t="2734.14"/><a:m a:x="1186" a:y="276" a:t="2751.36"/><a:m a:x="1186" a:y="292" a:t="2768.14"/><a:m a:x="1184" a:y="320" a:t="2785.17"/><a:m a:x="1173" a:y="348" a:t="2801.91"/><a:m a:x="1159" a:y="366" a:t="2819.04"/><a:m a:x="1141" a:y="383" a:t="2835.58"/><a:m a:x="1115" a:y="392" a:t="2853.46"/><a:m a:x="1070" a:y="398" a:t="2870.29"/><a:m a:x="1032" a:y="398" a:t="2887.12"/><a:m a:x="988" a:y="398" a:t="2903.75"/><a:m a:x="932" a:y="398" a:t="2921.2"/><a:m a:x="843" a:y="396" a:t="2938.31"/><a:m a:x="731" a:y="396" a:t="2955.68"/><a:m a:x="638" a:y="396" a:t="2972.88"/><a:m a:x="565" a:y="407" a:t="2990.8"/><a:m a:x="530" a:y="416" a:t="3007.34"/><a:m a:x="509" a:y="425" a:t="3026.72"/><a:m a:x="489" a:y="437" a:t="3041.99"/><a:m a:x="486" a:y="445" a:t="3060.69"/><a:m a:x="486" a:y="455" a:t="3077.37"/><a:m a:x="486" a:y="478" a:t="3095.09"/><a:m a:x="493" a:y="494" a:t="3111.55"/><a:m a:x="507" a:y="516" a:t="3127.87"/><a:m a:x="528" a:y="541" a:t="3145.11"/><a:m a:x="551" a:y="558" a:t="3162.11"/><a:m a:x="580" a:y="572" a:t="3179.39"/><a:m a:x="605" a:y="579" a:t="3196.21"/><a:m a:x="638" a:y="584" a:t="3213.32"/><a:m a:x="685" a:y="586" a:t="3230.41"/><a:m a:x="730" a:y="585" a:t="3247.15"/><a:m a:x="778" a:y="566" a:t="3265.32"/><a:m a:x="828" a:y="536" a:t="3280.73"/><a:m a:x="882" a:y="493" a:t="3298.32"/><a:m a:x="920" a:y="441" a:t="3315.84"/><a:m a:x="950" a:y="383" a:t="3332.07"/><a:m a:x="977" a:y="322" a:t="3348.86"/><a:m a:x="990" a:y="288" a:t="3365.97"/><a:m a:x="997" a:y="269" a:t="3383.43"/><a:m a:x="1004" a:y="256" a:t="3400.32"/><a:m a:x="1008" a:y="250" a:t="3416.98"/><a:m a:x="1009" a:y="248" a:t="3434.8"/><a:m a:x="1011" a:y="248" a:t="3450.89"/><a:m a:x="1017" a:y="251" a:t="3467.49"/><a:m a:x="1024" a:y="276" a:t="3485.84"/><a:m a:x="1031" a:y="301" a:t="3501.74"/><a:m a:x="1037" a:y="321" a:t="3518.44"/><a:m a:x="1044" a:y="336" a:t="3536.73"/><a:m a:x="1047" a:y="342" a:t="3552.81"/><a:m a:x="1050" a:y="344" a:t="3570.62"/><a:m a:x="1051" a:y="344" a:t="3586.77"/><a:m a:x="1052" a:y="344" a:t="3603.65"/><a:m a:x="1053" a:y="344" a:t="3620.38"/><a:m a:x="1054" a:y="344" a:t="3676.83"/><a:m a:x="1054" a:y="343" a:t="3694.46"/><a:m a:x="1055" a:y="343" a:t="3712.95"/><a:m a:x="1055" a:y="342" a:t="3728.99"/><a:m a:x="1055" a:y="341" a:t="3787.85"/><a:m a:x="1055" a:y="340" a:t="3828.83"/><a:m a:x="1054" a:y="339" a:t="3845.3"/><a:m a:x="1050" a:y="335" a:t="3863.5"/><a:m a:x="1039" a:y="323" a:t="3879.85"/><a:m a:x="1011" a:y="295" a:t="3895.73"/><a:m a:x="965" a:y="260" a:t="3913.37"/><a:m a:x="896" a:y="215" a:t="3930.14"/><a:m a:x="847" a:y="190" a:t="3946.66"/><a:m a:x="810" a:y="174" a:t="3964.7"/><a:m a:x="791" a:y="168" a:t="3981.03"/><a:m a:x="782" a:y="166" a:t="3997.43"/><a:m a:x="779" a:y="166" a:t="4015.04"/><a:m a:x="786" a:y="171" a:t="4053.79"/><a:m a:x="795" a:y="177" a:t="4070.48"/><a:m a:x="810" a:y="188" a:t="4088.23"/><a:m a:x="826" a:y="196" a:t="4104.81"/><a:m a:x="834" a:y="201" a:t="4122.34"/><a:m a:x="842" a:y="207" a:t="4140.4"/><a:m a:x="847" a:y="211" a:t="4156.28"/><a:m a:x="849" a:y="220" a:t="4173.01"/><a:m a:x="850" a:y="230" a:t="4189.7"/><a:m a:x="850" a:y="238" a:t="4206.69"/><a:m a:x="849" a:y="238" a:t="4369.41"/><a:m a:x="822" a:y="255" a:t="4385.76"/><a:m a:x="790" a:y="288" a:t="4403.49"/><a:m a:x="752" a:y="326" a:t="4419.47"/><a:m a:x="671" a:y="409" a:t="4436.43"/><a:m a:x="587" a:y="491" a:t="4454.25"/><a:m a:x="543" a:y="532" a:t="4470.49"/><a:m a:x="512" a:y="555" a:t="4488.02"/><a:m a:x="483" a:y="573" a:t="4505.75"/><a:m a:x="462" a:y="583" a:t="4523.05"/><a:m a:x="444" a:y="589" a:t="4540.39"/><a:m a:x="424" a:y="598" a:t="4556.9"/><a:m a:x="405" a:y="604" a:t="4574.74"/><a:m a:x="395" a:y="606" a:t="4591.61"/><a:m a:x="383" a:y="610" a:t="4609.52"/><a:m a:x="374" a:y="612" a:t="4626.16"/><a:m a:x="367" a:y="616" a:t="4642.55"/><a:m a:x="359" a:y="625" a:t="4660.07"/><a:m a:x="345" a:y="640" a:t="4676.66"/><a:m a:x="332" a:y="655" a:t="4693.91"/><a:m a:x="317" a:y="669" a:t="4710.8"/><a:m a:x="310" a:y="675" a:t="4727.87"/><a:m a:x="305" a:y="680" a:t="4745.12"/><a:m a:x="303" a:y="682" a:t="4765.24"/><a:m a:x="302" a:y="685" a:t="4778.61"/><a:m a:x="300" a:y="693" a:t="4797.6"/><a:m a:x="298" a:y="706" a:t="4814.82"/><a:m a:x="296" a:y="716" a:t="4831.9"/><a:m a:x="293" a:y="722" a:t="4850.01"/><a:m a:x="292" a:y="725" a:t="4866.01"/><a:m a:x="292" a:y="727" a:t="4883.3"/><a:m a:x="291" a:y="727" a:t="4908.25"/><a:m a:x="290" a:y="730" a:t="4916.13"/><a:m a:x="289" a:y="732" a:t="4934.53"/><a:m a:x="287" a:y="734" a:t="4949.55"/><a:m a:x="286" a:y="735" a:t="4966.73"/><a:m a:x="285" a:y="735" a:t="4983.28"/><a:m a:x="283" a:y="736" a:t="5001.65"/><a:m a:x="281" a:y="740" a:t="5017.69"/><a:m a:x="276" a:y="742" a:t="5036.12"/><a:m a:x="273" a:y="745" a:t="5053.31"/><a:m a:x="270" a:y="746" a:t="5068.34"/><a:m a:x="269" a:y="747" a:t="5084.98"/><a:m a:x="268" a:y="748" a:t="5108.49"/><a:m a:x="268" a:y="749" a:t="5150.96"/><a:m a:x="267" a:y="750" a:t="5174.24"/><a:m a:x="266" a:y="751" a:t="5181.81"/><a:m a:x="265" a:y="752" a:t="5199.07"/><a:m a:x="264" a:y="752" a:t="5219.25"/><a:m a:x="264" a:y="753" a:t="5236.2"/><a:m a:x="263" a:y="753" a:t="5253.32"/><a:m a:x="262" a:y="755" a:t="5272.83"/><a:m a:x="261" a:y="755" a:t="5288.63"/><a:m a:x="260" a:y="756" a:t="5305.95"/><a:m a:x="259" a:y="756" a:t="5321.15"/><a:m a:x="258" a:y="756" a:t="5356.45"/><a:m a:x="258" a:y="756" a:t="5468.04"/><a:c a:d="#fa5959" a:t="5468.36"/><a:m a:x="258" a:y="753" a:t="5621.06"/><a:m a:x="285" a:y="719" a:t="5638.31"/><a:m a:x="328" a:y="679" a:t="5669.95"/><a:m a:x="384" a:y="636" a:t="5684.54"/><a:m a:x="527" a:y="537" a:t="5689.13"/><a:m a:x="612" a:y="470" a:t="5707"/><a:m a:x="713" a:y="387" a:t="5724.6"/><a:m a:x="791" a:y="310" a:t="5741"/><a:m a:x="819" a:y="277" a:t="5757.32"/><a:m a:x="838" a:y="240" a:t="5774.45"/><a:m a:x="843" a:y="213" a:t="5791.3"/><a:m a:x="843" a:y="193" a:t="5808.3"/><a:m a:x="838" a:y="178" a:t="5826.42"/><a:m a:x="832" a:y="168" a:t="5842.42"/><a:m a:x="820" a:y="154" a:t="5859.75"/><a:m a:x="815" a:y="150" a:t="5877.91"/><a:m a:x="809" a:y="144" a:t="5893.37"/><a:m a:x="801" a:y="140" a:t="5910.54"/><a:m a:x="796" a:y="138" a:t="5927.64"/><a:m a:x="785" a:y="136" a:t="5944.75"/><a:m a:x="780" a:y="136" a:t="5961.09"/><a:m a:x="777" a:y="136" a:t="5979.43"/><a:m a:x="775" a:y="135" a:t="5996.29"/><a:m a:x="775" a:y="134" a:t="6079.06"/><a:m a:x="775" a:y="132" a:t="6095.84"/><a:m a:x="775" a:y="131" a:t="6112.58"/><a:m a:x="775" a:y="129" a:t="6130.18"/><a:m a:x="775" a:y="128" a:t="6146.89"/><a:m a:x="775" a:y="126" a:t="6163.45"/><a:m a:x="775" a:y="125" a:t="6185.96"/><a:m a:x="775" a:y="125" a:t="6215.61"/></g><g a:type="path" a:t="6216.00" a:lastErase="0"><path fill="#fa5959" d="M 771.203,125 L 771.203,125 C 771.203,125 771.203,124.458 771.203,125 C 771.203,125.542 771.281,126.497 771.203,128.255 C 771.126,130.013 771.223,132.068 770.739,135.549 C 770.255,139.029 769.713,142.918 768.299,149.138 C 766.885,155.358 764.511,164.769 762.256,172.868 C 760.002,180.966 757.317,189.327 754.772,197.728 C 752.227,206.129 749.408,215.348 746.987,223.273 C 744.566,231.199 742.165,238.903 740.248,245.283 C 738.331,251.664 736.701,257.46 735.485,261.555 C 734.269,265.651 733.542,268.121 732.952,269.856 C 732.362,271.59 730.781,271.929 731.944,271.963 C 733.106,271.998 738.41,271.431 739.929,270.061 C 741.449,268.691 740.572,266.06 741.063,263.746 C 741.553,261.431 742.288,258.428 742.873,256.174 C 743.458,253.92 744.075,251.911 744.575,250.219 A 3.723,3.723 -2.8672066979673634 0,0 738.708,244.006 C 737.163,250.098 736.666,252.154 736.073,254.474 C 735.479,256.795 734.64,259.875 734.04,262.277 C 733.44,264.679 731.588,266.917 732.471,268.886 C 733.354,270.854 738.135,273.657 739.337,274.089 C 740.54,274.521 739.38,273.312 739.686,271.477 C 739.992,269.643 740.26,267.205 741.173,263.082 C 742.086,258.958 743.452,253.141 745.164,246.734 C 746.876,240.327 749.085,232.577 751.444,224.64 C 753.802,216.702 756.725,207.517 759.315,199.111 C 761.905,190.706 764.47,182.323 766.983,174.206 C 769.497,166.089 772.602,156.737 774.395,150.41 C 776.189,144.082 777.012,139.936 777.745,136.243 C 778.479,132.551 778.621,130.129 778.797,128.255 C 778.972,126.381 778.797,125.542 778.797,125 C 778.797,124.458 778.797,125 778.797,125 L 778.797,125 L 778.797,125 A 3.797,3.797 -3.141592653589793 0,0 771.203,125"/><a:init><a:s a:d="8" a:u="px" a:t="6216"/><a:c a:d="#fa5959" a:t="6216"/><a:m a:x="775" a:y="125" a:t="6216" a:p="1"/></a:init><a:ds a:t="6216.26"/><a:m a:x="775" a:y="126" a:t="6288.05"/><a:m a:x="775" a:y="138" a:t="6305.46"/><a:ds a:t="6316.54"/><a:m a:x="772" a:y="153" a:t="6321.57"/><a:ds a:t="6334.74"/><a:m a:x="763" a:y="183" a:t="6340.44"/><a:ds a:t="6350.68"/><a:m a:x="750" a:y="219" a:t="6356.73"/><a:ds a:t="6366.85"/><a:m a:x="742" a:y="245" a:t="6376.12"/><a:ds a:t="6381.61"/><a:m a:x="739" a:y="257" a:t="6391.19"/><a:ds a:t="6402.26"/><a:m a:x="737" a:y="267" a:t="6406.41"/><a:ds a:t="6416.18"/><a:m a:x="737" a:y="271" a:t="6428.63"/><a:ds a:t="6434.07"/><a:ds a:t="6450.87"/><a:m a:x="737" a:y="270" a:t="6520.77"/><a:m a:x="737" a:y="266" a:t="6538.12"/><a:ds a:t="6550.61"/><a:m a:x="739" a:y="255" a:t="6554.62"/><a:ds a:t="6567.91"/><a:m a:x="741" a:y="248" a:t="6571.91"/><a:ds a:t="6583.67"/><a:m a:x="743" a:y="243" a:t="6588.22"/><a:ds a:t="6600.49"/><a:m a:x="743" a:y="243" a:t="6604.36"/><a:m a:x="744" a:y="242" a:t="6604.86"/><a:ds a:t="6616.97"/><a:ds a:t="6634.16"/><a:ds a:t="6650.27"/><a:m a:x="744" a:y="241" a:t="6785.27"/><a:m a:x="745" a:y="232" a:t="6803.18"/><a:m a:x="752" a:y="219" a:t="6819.74"/><a:m a:x="760" a:y="201" a:t="6837.42"/><a:m a:x="763" a:y="189" a:t="6854.57"/><a:m a:x="765" a:y="176" a:t="6871.35"/><a:m a:x="767" a:y="167" a:t="6888.03"/><a:m a:x="768" a:y="161" a:t="6906.38"/><a:m a:x="768" a:y="159" a:t="6922.59"/><a:m a:x="768" a:y="155" a:t="6938.8"/><a:m a:x="769" a:y="150" a:t="6955.64"/><a:m a:x="769" a:y="148" a:t="6972.07"/><a:m a:x="769" a:y="146" a:t="6988.68"/><a:m a:x="769" a:y="145" a:t="7005.66"/><a:m a:x="769" a:y="143" a:t="7022.18"/><a:m a:x="769" a:y="142" a:t="7040.29"/><a:m a:x="769" a:y="141" a:t="7056.71"/><a:m a:x="769" a:y="140" a:t="7074.27"/><a:m a:x="770" a:y="139" a:t="7137.64"/><a:m a:x="771" a:y="138" a:t="7177.88"/><a:m a:x="771" a:y="137" a:t="7194.19"/><a:m a:x="772" a:y="135" a:t="7210.87"/><a:m a:x="774" a:y="134" a:t="7228.19"/><a:m a:x="774" a:y="133" a:t="7245.92"/><a:m a:x="775" a:y="133" a:t="7263.07"/><a:m a:x="776" a:y="133" a:t="7330.92"/><a:m a:x="776" a:y="132" a:t="7347.94"/><a:m a:x="777" a:y="132" a:t="7395"/><a:m a:x="777" a:y="132" a:t="7410.97"/></g><g a:type="path" a:t="7411.00" a:lastErase="0"><path fill="#fa5959" d="M 773.049,132 L 773.049,132 C 773.049,132 773.049,131.869 773.049,132 C 773.049,132.131 773.046,132.474 773.049,132.788 C 773.053,133.103 773.058,133.395 773.069,133.887 C 773.08,134.379 773.094,134.892 773.116,135.738 C 773.138,136.585 773.172,137.648 773.202,138.966 C 773.231,140.284 773.235,141.406 773.292,143.646 C 773.35,145.885 773.38,148.741 773.547,152.404 C 773.714,156.067 773.936,160.421 774.295,165.624 C 774.653,170.827 775.156,177.367 775.7,183.623 C 776.244,189.878 776.96,196.465 777.556,203.156 C 778.153,209.846 778.832,217.346 779.279,223.767 C 779.726,230.188 779.972,235.877 780.238,241.682 C 780.504,247.487 780.749,253.523 780.875,258.599 C 781.001,263.675 780.992,268.18 780.994,272.139 C 780.996,276.099 780.945,279.543 780.888,282.357 A 3.58,3.58 0.0026714032604486793 0,0 787.809,289.046 C 787.519,279.446 787.436,275.974 787.293,271.985 C 787.15,267.996 786.965,263.467 786.746,258.356 C 786.527,253.245 786.324,247.157 785.978,241.32 C 785.633,235.483 785.154,229.779 784.673,223.335 C 784.192,216.892 783.63,209.334 783.092,202.657 C 782.553,195.98 781.85,189.481 781.443,183.271 C 781.036,177.061 780.816,170.539 780.651,165.394 C 780.486,160.25 780.443,156.028 780.453,152.404 C 780.462,148.779 780.65,145.885 780.708,143.646 C 780.765,141.406 780.769,140.284 780.798,138.966 C 780.828,137.648 780.862,136.585 780.884,135.738 C 780.906,134.892 780.92,134.379 780.931,133.887 C 780.942,133.395 780.947,133.103 780.951,132.788 C 780.954,132.474 780.951,132.131 780.951,132 C 780.951,131.869 780.951,132 780.951,132 L 780.951,132 L 780.951,132 A 3.951,3.951 -3.141592653589793 0,0 773.049,132"/><a:init><a:s a:d="8" a:u="px" a:t="7411"/><a:c a:d="#fa5959" a:t="7411"/><a:m a:x="777" a:y="132" a:t="7411" a:p="1"/></a:init><a:ds a:t="7411.02"/><a:m a:x="777" a:y="133" a:t="7411.76"/><a:m a:x="777" a:y="134" a:t="7428.04"/><a:ds a:t="7435.8"/><a:m a:x="777" a:y="136" a:t="7446.16"/><a:ds a:t="7451.93"/><a:m a:x="777" a:y="140" a:t="7461.66"/><a:ds a:t="7467.61"/><a:m a:x="777" a:y="145" a:t="7478.54"/><a:ds a:t="7485.48"/><a:m a:x="777" a:y="153" a:t="7496.46"/><a:ds a:t="7501.72"/><a:m a:x="777" a:y="170" a:t="7513.21"/><a:ds a:t="7519.24"/><a:m a:x="779" a:y="193" a:t="7530.16"/><a:ds a:t="7535.18"/><a:m a:x="781" a:y="214" a:t="7548.01"/><a:ds a:t="7552.47"/><a:m a:x="784" a:y="234" a:t="7565.37"/><a:ds a:t="7568.62"/><a:m a:x="784" a:y="253" a:t="7582.09"/><a:ds a:t="7585.79"/><a:m a:x="784" a:y="265" a:t="7599.59"/><a:ds a:t="7601.49"/><a:m a:x="784" a:y="279" a:t="7616.17"/><a:ds a:t="7618.54"/><a:m a:x="784" a:y="286" a:t="7633.39"/><a:ds a:t="7634.78"/><a:m a:x="784" a:y="291" a:t="7651.08"/><a:ds a:t="7651.61"/><a:m a:x="784" a:y="292" a:t="7667.42"/><a:ds a:t="7668.4"/><a:m a:x="784" a:y="293" a:t="7684.27"/><a:ds a:t="7684.87"/><a:m a:x="784" a:y="292" a:t="7756.38"/><a:m a:x="784" a:y="292" a:t="7772.28"/><a:m a:x="784" a:y="291" a:t="7774.16"/><a:m a:x="784" a:y="290" a:t="7792.08"/><a:m a:x="784" a:y="289" a:t="7843.75"/><a:m a:x="782" a:y="288" a:t="7860.16"/><a:m a:x="781" a:y="286" a:t="8035.85"/><a:m a:x="769" a:y="275" a:t="8052.57"/><a:m a:x="755" a:y="265" a:t="8069.92"/><a:m a:x="738" a:y="254" a:t="8086.93"/><a:m a:x="726" a:y="244" a:t="8104.33"/><a:m a:x="717" a:y="238" a:t="8124.41"/><a:m a:x="712" a:y="234" a:t="8139.64"/><a:m a:x="710" a:y="233" a:t="8158.9"/><a:m a:x="709" a:y="232" a:t="8175.3"/><a:m a:x="707" a:y="230" a:t="8191.23"/><a:m a:x="705" a:y="228" a:t="8208.49"/><a:m a:x="705" a:y="227" a:t="8223.93"/><a:m a:x="706" a:y="227" a:t="8325.65"/><a:m a:x="707" a:y="228" a:t="8342.49"/><a:m a:x="708" a:y="228" a:t="8360.65"/><a:m a:x="708" a:y="229" a:t="8377.63"/><a:m a:x="711" a:y="230" a:t="8395.17"/><a:m a:x="711" a:y="230" a:t="8416.44"/></g><g a:type="path" a:t="8416.47" a:lastErase="0"><path fill="#fa5959" d="M 711,233.97 L 711,233.97 C 711,233.97 710.921,233.97 711,233.97 C 711.079,233.97 711.056,233.987 711.473,233.97 C 711.889,233.954 712.117,233.934 713.499,233.873 C 714.882,233.813 715.969,233.759 719.769,233.608 C 723.568,233.457 729.374,233.162 736.295,232.967 C 743.216,232.772 751.272,232.716 761.293,232.438 C 771.315,232.159 785.839,231.509 796.425,231.297 C 807.011,231.084 812.972,231.389 824.808,231.162 C 836.645,230.934 856.924,229.986 867.446,229.93 C 877.967,229.874 881.825,230.652 887.937,230.827 C 894.049,231.002 899.61,230.907 904.12,230.98 C 908.629,231.053 912.061,231.176 914.993,231.266 A 3.579,3.579 -1.571778774800031 0,0 921.707,224.36 C 912.027,224.733 908.591,224.877 904.077,225.004 C 899.562,225.131 893.991,225.101 887.878,225.388 C 881.765,225.676 877.926,226.51 867.4,226.73 C 856.874,226.95 836.559,226.55 824.721,226.709 C 812.883,226.868 806.944,227.544 796.373,227.686 C 785.802,227.828 771.306,227.671 761.293,227.562 C 751.28,227.454 743.216,227.228 736.295,227.033 C 729.374,226.838 723.568,226.543 719.769,226.392 C 715.969,226.241 714.882,226.187 713.499,226.127 C 712.117,226.066 711.889,226.046 711.473,226.03 C 711.056,226.013 711.079,226.03 711,226.03 C 710.921,226.03 711,226.03 711,226.03 L 711,226.03 L 711,226.03 A 3.97,3.97 -4.71238898038469 0,0 711,233.97"/><a:init><a:s a:d="8" a:u="px" a:t="8416.47"/><a:c a:d="#fa5959" a:t="8416.47"/><a:m a:x="711" a:y="230" a:t="8416.47" a:p="1"/></a:init><a:ds a:t="8416.49"/><a:m a:x="711" a:y="230" a:t="8424.5"/><a:m a:x="713" a:y="230" a:t="8441.26"/><a:ds a:t="8455.97"/><a:m a:x="719" a:y="230" a:t="8457.5"/><a:ds a:t="8472.36"/><a:m a:x="737" a:y="230" a:t="8476.44"/><a:ds a:t="8488.22"/><a:m a:x="771" a:y="230" a:t="8492.1"/><a:ds a:t="8506.29"/><a:m a:x="818" a:y="230" a:t="8510.23"/><a:ds a:t="8521.84"/><a:m a:x="857" a:y="228" a:t="8527.32"/><a:ds a:t="8539.21"/><a:ds a:t="8555.33"/><a:m a:x="909" a:y="228" a:t="8577.29"/><a:ds a:t="8580.23"/><a:m a:x="920" a:y="228" a:t="8583.04"/><a:ds a:t="8588.21"/><a:m a:x="921" a:y="228" a:t="8592.45"/><a:ds a:t="8604.37"/><a:ds a:t="8621.07"/><a:ds a:t="8639.98"/><a:m a:x="920" a:y="228" a:t="8686.36"/><a:ds a:t="8687.87"/><a:m a:x="920" a:y="228" a:t="8694.68"/><a:m a:x="919" a:y="228" a:t="8782.06"/><a:m a:x="918" a:y="228" a:t="8798.36"/><a:m a:x="913" a:y="228" a:t="8815.26"/><a:m a:x="906" a:y="228" a:t="8832.28"/><a:m a:x="893" a:y="228" a:t="8849.03"/><a:m a:x="881" a:y="228" a:t="8865.89"/><a:m a:x="867" a:y="225" a:t="8883.35"/><a:m a:x="854" a:y="221" a:t="8900.43"/><a:m a:x="841" a:y="214" a:t="8918.89"/><a:m a:x="829" a:y="204" a:t="8935.63"/><a:m a:x="820" a:y="190" a:t="8951.84"/><a:m a:x="814" a:y="177" a:t="8968.1"/><a:m a:x="810" a:y="163" a:t="8986.58"/><a:m a:x="810" a:y="156" a:t="9003.43"/><a:m a:x="810" a:y="146" a:t="9020.18"/><a:m a:x="810" a:y="141" a:t="9038.49"/><a:m a:x="810" a:y="138" a:t="9054.6"/><a:m a:x="811" a:y="137" a:t="9070.99"/><a:m a:x="812" a:y="136" a:t="9087.85"/><a:m a:x="812" a:y="135" a:t="9105.21"/><a:m a:x="813" a:y="135" a:t="9123.27"/><a:m a:x="814" a:y="135" a:t="9151.82"/><a:m a:x="814" a:y="136" a:t="9191.9"/><a:m a:x="814" a:y="138" a:t="9209.46"/><a:m a:x="814" a:y="141" a:t="9226.09"/><a:m a:x="814" a:y="141" a:t="9232.02"/></g><g a:type="path" a:t="9232.03" a:lastErase="0"><path fill="#fa5959" d="M 810.034,141 L 810.034,141 C 810.034,141 810.034,140.911 810.034,141 C 810.034,141.089 810.025,141.225 810.034,141.537 C 810.042,141.848 810.063,142.226 810.083,142.87 C 810.104,143.514 810.134,144.369 810.158,145.401 C 810.183,146.434 810.182,147.274 810.229,149.066 C 810.276,150.858 810.357,152.988 810.443,156.153 C 810.529,159.319 810.642,163.263 810.744,168.058 C 810.846,172.853 810.94,178.308 811.054,184.925 C 811.168,191.541 811.337,199.692 811.427,207.756 C 811.517,215.82 811.595,225.217 811.597,233.306 C 811.598,241.396 811.506,249.305 811.437,256.291 C 811.368,263.277 811.271,269.644 811.183,275.221 C 811.095,280.799 811.008,285.773 810.908,289.757 C 810.809,293.742 810.691,296.834 810.586,299.129 C 810.48,301.423 810.357,302.546 810.275,303.525 C 810.193,304.504 808.8,304.715 810.092,305.003 C 811.385,305.291 816.652,305.508 818.032,305.255 C 819.411,305.002 818.221,304.08 818.37,303.484 C 818.519,302.888 818.684,302.514 818.926,301.678 C 819.169,300.842 819.345,300.015 819.825,298.469 C 820.304,296.923 820.517,295.636 821.804,292.402 C 823.091,289.168 825.72,282.79 827.547,279.064 C 829.374,275.339 831.056,272.716 832.766,270.049 C 834.476,267.383 836.225,264.914 837.804,263.065 C 839.383,261.216 840.966,259.959 842.239,258.954 C 843.513,257.948 844.562,257.451 845.446,257.031 C 846.33,256.61 847.104,256.501 847.545,256.429 C 847.985,256.357 848.424,256.642 848.087,256.597 C 847.749,256.552 846.026,256.247 845.519,256.158 C 845.012,256.069 845.046,255.72 845.046,256.064 C 845.045,256.408 845.278,257.342 845.516,258.223 C 845.754,259.105 846.058,260.272 846.473,261.351 C 846.887,262.431 847.506,263.624 848,264.702 C 848.495,265.781 848.935,266.739 849.44,267.824 C 849.945,268.909 850.572,270.084 851.031,271.212 C 851.49,272.34 851.878,273.48 852.192,274.591 C 852.506,275.702 852.729,276.794 852.914,277.878 C 853.1,278.962 853.223,280.135 853.305,281.095 C 853.388,282.055 853.399,282.906 853.411,283.638 C 853.422,284.371 853.396,284.956 853.376,285.49 C 853.356,286.025 853.322,286.488 853.291,286.845 C 853.26,287.201 853.219,287.399 853.189,287.628 A 3.96,3.96 0.09123922492400238 0,0 861.002,288.941 C 861.06,287.947 861.082,287.595 861.095,287.123 C 861.107,286.651 861.126,286.083 861.118,285.42 C 861.11,284.757 861.1,284.028 861.046,283.145 C 860.992,282.262 860.924,281.28 860.792,280.12 C 860.659,278.961 860.503,277.518 860.252,276.189 C 860.001,274.859 859.685,273.503 859.287,272.144 C 858.889,270.785 858.359,269.278 857.866,268.036 C 857.373,266.795 856.823,265.781 856.329,264.693 C 855.835,263.605 855.328,262.435 854.903,261.509 C 854.479,260.582 854.089,259.932 853.783,259.135 C 853.476,258.339 853.263,257.576 853.062,256.731 C 852.861,255.885 852.879,255.058 852.577,254.064 C 852.276,253.069 852.137,251.639 851.253,250.766 C 850.369,249.893 848.344,249.07 847.274,248.827 C 846.204,248.583 845.833,248.967 844.833,249.306 C 843.833,249.645 842.546,250.099 841.273,250.859 C 840,251.618 838.712,252.484 837.195,253.861 C 835.678,255.238 833.886,256.955 832.171,259.121 C 830.455,261.286 828.6,263.969 826.903,266.856 C 825.206,269.743 823.965,272.591 821.991,276.442 C 820.016,280.292 816.631,286.651 815.057,289.96 C 813.483,293.269 813.126,294.738 812.548,296.295 C 811.97,297.853 811.893,298.371 811.589,299.304 C 811.285,300.236 810.915,301.257 810.724,301.889 C 810.533,302.52 809.245,302.571 810.442,303.09 C 811.64,303.609 816.694,304.93 817.908,305.003 C 819.121,305.076 817.807,304.504 817.725,303.525 C 817.643,302.546 817.52,301.423 817.414,299.129 C 817.309,296.834 817.191,293.742 817.092,289.757 C 816.992,285.773 816.905,280.799 816.817,275.221 C 816.729,269.644 816.632,263.277 816.563,256.291 C 816.494,249.305 816.402,241.396 816.403,233.306 C 816.405,225.217 816.483,215.82 816.573,207.756 C 816.663,199.692 816.832,191.541 816.946,184.925 C 817.06,178.308 817.154,172.853 817.256,168.058 C 817.358,163.263 817.471,159.319 817.557,156.153 C 817.643,152.988 817.724,150.858 817.771,149.066 C 817.818,147.274 817.817,146.434 817.842,145.401 C 817.866,144.369 817.896,143.514 817.917,142.87 C 817.937,142.226 817.958,141.848 817.966,141.537 C 817.975,141.225 817.966,141.089 817.966,141 C 817.966,140.911 817.966,141 817.966,141 L 817.966,141 L 817.966,141 A 3.966,3.966 -3.141592653589793 0,0 810.034,141"/><a:init><a:s a:d="8" a:u="px" a:t="9232.03"/><a:c a:d="#fa5959" a:t="9232.03"/><a:m a:x="814" a:y="141" a:t="9232.03" a:p="1"/></a:init><a:ds a:t="9232.05"/><a:m a:x="814" a:y="143" a:t="9244.1"/><a:ds a:t="9258.05"/><a:m a:x="814" a:y="146" a:t="9261.24"/><a:ds a:t="9274.95"/><a:m a:x="814" a:y="151" a:t="9278.02"/><a:ds a:t="9291.59"/><a:m a:x="814" a:y="157" a:t="9295.76"/><a:ds a:t="9306.92"/><a:m a:x="814" a:y="171" a:t="9313.21"/><a:ds a:t="9324.03"/><a:m a:x="814" a:y="191" a:t="9329.72"/><a:ds a:t="9341.28"/><a:m a:x="814" a:y="220" a:t="9347.09"/><a:ds a:t="9358.15"/><a:m a:x="814" a:y="248" a:t="9363.52"/><a:ds a:t="9374.29"/><a:m a:x="814" a:y="272" a:t="9380.47"/><a:ds a:t="9391.22"/><a:m a:x="814" a:y="285" a:t="9398.02"/><a:ds a:t="9407.58"/><a:m a:x="814" a:y="295" a:t="9416.01"/><a:ds a:t="9423.96"/><a:m a:x="814" a:y="301" a:t="9431.44"/><a:ds a:t="9441.12"/><a:m a:x="814" a:y="302" a:t="9448.64"/><a:ds a:t="9458.56"/><a:ds a:t="9474.28"/><a:ds a:t="9491.31"/><a:m a:x="815" a:y="302" a:t="9577.42"/><a:ds a:t="9591.34"/><a:m a:x="815" a:y="300" a:t="9594.37"/><a:ds a:t="9609.92"/><a:m a:x="817" a:y="296" a:t="9612.37"/><a:ds a:t="9625.69"/><a:m a:x="818" a:y="291" a:t="9629.54"/><a:ds a:t="9641.54"/><a:m a:x="821" a:y="285" a:t="9645.25"/><a:ds a:t="9670.15"/><a:m a:x="825" a:y="274" a:t="9675.45"/><a:m a:x="831" a:y="267" a:t="9679.47"/><a:ds a:t="9691.83"/><a:m a:x="835" a:y="262" a:t="9696.56"/><a:ds a:t="9710.64"/><a:m a:x="841" a:y="256" a:t="9712.8"/><a:ds a:t="9726.06"/><a:m a:x="846" a:y="254" a:t="9730.02"/><a:ds a:t="9742.07"/><a:m a:x="847" a:y="254" a:t="9747.34"/><a:ds a:t="9758.31"/><a:m a:x="848" a:y="254" a:t="9764.44"/><a:ds a:t="9776.18"/><a:m a:x="848" a:y="254" a:t="9785.73"/><a:ds a:t="9800.55"/><a:m a:x="848" a:y="256" a:t="9803.79"/><a:ds a:t="9808.66"/><a:m a:x="849" a:y="259" a:t="9819.97"/><a:ds a:t="9824.3"/><a:m a:x="850" a:y="262" a:t="9836.44"/><a:ds a:t="9841.3"/><a:m a:x="852" a:y="265" a:t="9853.99"/><a:ds a:t="9857.34"/><a:m a:x="854" a:y="267" a:t="9871.47"/><a:ds a:t="9874.53"/><a:m a:x="855" a:y="271" a:t="9889.28"/><a:ds a:t="9891.46"/><a:m a:x="857" a:y="275" a:t="9906.55"/><a:ds a:t="9907.47"/><a:m a:x="857" a:y="279" a:t="9923.45"/><a:ds a:t="9924.55"/><a:m a:x="857" a:y="282" a:t="9940.48"/><a:ds a:t="9941.27"/><a:m a:x="857" a:y="285" a:t="9958.1"/><a:ds a:t="9958.79"/><a:m a:x="857" a:y="286" a:t="9974.63"/><a:ds a:t="9975.41"/><a:m a:x="857" a:y="287" a:t="9991.6"/><a:ds a:t="9993.81"/><a:m a:x="857" a:y="288" a:t="10008.91"/><a:ds a:t="10009.83"/><a:ds a:t="10026.6"/><a:m a:x="857" a:y="289" a:t="10029.64"/><a:ds a:t="10043.08"/><a:m a:x="857" a:y="290" a:t="10051.44"/><a:ds a:t="10058.88"/><a:m a:x="857" a:y="289" a:t="10162.52"/><a:m a:x="857" a:y="289" a:t="10170.8"/><a:m a:x="857" a:y="288" a:t="10226.62"/><a:m a:x="857" a:y="287" a:t="10250.27"/><a:m a:x="857" a:y="286" a:t="10267.34"/><a:m a:x="857" a:y="285" a:t="10306.66"/><a:m a:x="861" a:y="283" a:t="10322.99"/><a:m a:x="867" a:y="279" a:t="10340.12"/><a:m a:x="873" a:y="274" a:t="10357.43"/><a:m a:x="878" a:y="271" a:t="10374.24"/><a:m a:x="881" a:y="268" a:t="10391.12"/><a:m a:x="882" a:y="266" a:t="10409"/><a:m a:x="884" a:y="264" a:t="10426.25"/><a:m a:x="885" a:y="260" a:t="10443.23"/><a:m a:x="886" a:y="257" a:t="10460.46"/><a:m a:x="887" a:y="254" a:t="10476.77"/><a:m a:x="888" a:y="253" a:t="10494.07"/><a:m a:x="888" a:y="252" a:t="10513.74"/><a:m a:x="888" a:y="251" a:t="10535.67"/><a:m a:x="887" a:y="251" a:t="10587.77"/><a:m a:x="887" a:y="251" a:t="10603.94"/></g><g a:type="path" a:t="10603.98" a:lastErase="0"><path fill="#fa5959" d="M 883.363,249.545 L 883.363,249.545 C 883.363,249.545 883.444,249.341 883.363,249.545 C 883.281,249.749 883.038,250.228 882.873,250.768 C 882.709,251.307 882.546,252.141 882.374,252.782 C 882.201,253.422 882.078,253.676 881.839,254.609 C 881.6,255.541 881.282,257.061 880.938,258.378 C 880.594,259.695 880.225,261.015 879.774,262.51 C 879.323,264.006 878.773,265.715 878.235,267.349 C 877.696,268.982 877.085,270.555 876.544,272.312 C 876.002,274.069 875.428,276.195 874.985,277.891 C 874.542,279.586 874.178,281.082 873.886,282.485 C 873.594,283.887 873.393,285.181 873.233,286.306 C 873.074,287.431 872.99,288.312 872.929,289.234 C 872.868,290.156 872.875,291.094 872.868,291.839 C 872.86,292.583 872.752,292.941 872.883,293.701 C 873.015,294.46 873.12,295.467 873.657,296.395 C 874.194,297.322 875.157,298.484 876.107,299.265 C 877.057,300.046 878.15,300.547 879.355,301.081 C 880.56,301.615 881.747,302.046 883.337,302.47 C 884.928,302.893 886.97,303.309 888.898,303.622 C 890.826,303.935 892.829,304.286 894.906,304.349 C 896.983,304.411 899.182,304.357 901.358,303.998 C 903.533,303.638 905.743,303.028 907.958,302.192 C 910.173,301.356 912.662,300.046 914.645,298.983 C 916.627,297.92 918.294,296.874 919.854,295.815 C 921.413,294.755 922.713,293.749 924.001,292.626 C 925.289,291.503 926.51,290.296 927.582,289.077 C 928.653,287.858 929.653,286.514 930.43,285.313 C 931.207,284.111 931.788,283.012 932.245,281.869 C 932.702,280.727 932.974,279.543 933.169,278.457 C 933.364,277.371 933.389,276.329 933.418,275.353 C 933.446,274.376 933.381,273.5 933.34,272.598 C 933.299,271.695 933.225,270.806 933.173,269.94 C 933.121,269.075 933.115,268.279 933.03,267.405 C 932.945,266.531 932.951,265.725 932.662,264.698 C 932.372,263.671 932.056,262.422 931.294,261.244 C 930.532,260.067 929.436,258.682 928.089,257.633 C 926.742,256.583 925.028,255.677 923.212,254.946 C 921.396,254.216 919.207,253.674 917.194,253.249 C 915.181,252.824 913.349,252.582 911.132,252.395 C 908.915,252.209 906.287,252.183 903.893,252.129 C 901.498,252.075 899.019,252.077 896.768,252.073 C 894.517,252.068 892.155,252.101 890.387,252.099 C 888.618,252.098 887.372,252.065 886.156,252.062 C 884.94,252.059 883.961,252.074 883.09,252.08 C 882.22,252.087 881.609,252.035 880.932,252.101 C 880.255,252.166 879.806,251.889 879.028,252.474 C 878.25,253.06 876.706,254.632 876.264,255.613 C 875.822,256.595 876.304,257.713 876.377,258.362 C 876.449,259.011 876.254,258.849 876.698,259.506 C 877.142,260.164 878.283,261.646 879.041,262.307 C 879.799,262.968 880.484,263.149 881.247,263.471 C 882.01,263.792 882.792,264.034 883.619,264.236 C 884.447,264.438 885.372,264.573 886.214,264.684 C 887.055,264.795 887.786,264.858 888.666,264.902 C 889.545,264.946 890.532,264.943 891.488,264.948 C 892.444,264.953 893.316,264.948 894.404,264.933 C 895.492,264.918 896.684,264.883 898.016,264.857 C 899.349,264.831 900.854,264.799 902.4,264.776 C 903.945,264.753 905.586,264.776 907.29,264.719 C 908.995,264.662 910.825,264.577 912.627,264.434 C 914.428,264.292 916.172,264.185 918.101,263.864 C 920.029,263.542 922.226,263.087 924.197,262.506 C 926.168,261.925 928.162,261.139 929.929,260.378 C 931.697,259.618 933.315,258.822 934.802,257.942 C 936.288,257.062 937.72,255.962 938.846,255.1 C 939.972,254.239 940.805,253.472 941.558,252.773 C 942.31,252.074 942.855,251.466 943.363,250.905 C 943.871,250.344 944.227,249.867 944.604,249.408 C 944.98,248.948 945.278,248.616 945.622,248.149 C 945.966,247.681 946.413,246.942 946.666,246.602 C 946.918,246.263 946.988,246.256 947.138,246.11 C 947.288,245.965 947.415,245.861 947.567,245.73 C 947.718,245.599 948.591,245.247 948.05,245.323 C 947.508,245.399 945.296,246.368 944.315,246.186 C 943.334,246.004 942.506,244.284 942.161,244.233 C 941.816,244.181 942.216,245.031 942.244,245.877 C 942.272,246.723 942.207,247.755 942.327,249.31 C 942.446,250.865 942.54,252.975 942.961,255.206 C 943.381,257.437 944.02,259.987 944.851,262.696 C 945.682,265.404 946.711,268.319 947.946,271.458 C 949.181,274.598 950.865,278.206 952.261,281.533 C 953.658,284.859 955.071,288.179 956.325,291.418 C 957.579,294.656 958.787,297.933 959.787,300.965 C 960.786,303.998 961.582,306.834 962.323,309.612 C 963.064,312.39 963.747,315.212 964.232,317.634 C 964.717,320.057 964.992,322.129 965.233,324.146 C 965.474,326.164 965.588,327.998 965.676,329.738 C 965.765,331.477 965.764,333.066 965.764,334.583 C 965.764,336.1 965.758,337.539 965.676,338.84 C 965.593,340.141 965.44,341.417 965.269,342.391 C 965.099,343.365 964.866,344.205 964.653,344.683 C 964.44,345.161 964.14,345.226 963.993,345.258 C 963.845,345.29 963.91,344.967 963.767,344.875 C 963.624,344.783 963.458,344.869 963.134,344.708 C 962.81,344.547 962.4,344.225 961.824,343.909 C 961.247,343.594 960.397,343.308 959.674,342.815 C 958.95,342.322 958.278,341.759 957.483,340.951 C 956.688,340.142 955.763,339.086 954.903,337.963 C 954.043,336.839 953.038,335.506 952.322,334.209 C 951.607,332.912 951.039,331.483 950.608,330.18 C 950.177,328.877 949.946,327.634 949.736,326.391 C 949.525,325.149 949.277,323.84 949.347,322.724 C 949.417,321.609 949.686,320.767 950.156,319.697 C 950.625,318.626 951.169,317.737 952.165,316.301 C 953.161,314.866 954.469,312.991 956.132,311.084 C 957.796,309.177 960.043,306.895 962.147,304.859 C 964.252,302.823 966.405,300.952 968.759,298.869 C 971.112,296.786 973.899,294.379 976.269,292.359 C 978.638,290.339 981.071,288.322 982.976,286.75 C 984.881,285.178 986.418,283.999 987.699,282.928 C 988.98,281.857 989.871,281.054 990.662,280.325 C 991.453,279.596 991.969,279.108 992.445,278.555 A 3.945,3.945 -2.6514100846134685 0,0 986.556,273.288 C 986.613,273.564 986.117,274.172 985.483,274.859 C 984.849,275.547 984.153,276.321 982.989,277.427 C 981.825,278.533 980.349,279.858 978.498,281.493 C 976.646,283.128 974.27,285.188 971.879,287.237 C 969.488,289.286 966.587,291.653 964.151,293.786 C 961.715,295.918 959.533,297.879 957.263,300.033 C 954.993,302.187 952.456,304.591 950.53,306.71 C 948.605,308.828 946.991,310.832 945.71,312.746 C 944.43,314.661 943.479,316.385 942.847,318.196 C 942.216,320.008 941.975,321.946 941.921,323.616 C 941.868,325.287 942.202,326.631 942.527,328.221 C 942.851,329.81 943.249,331.46 943.868,333.154 C 944.487,334.849 945.338,336.777 946.241,338.389 C 947.144,340 948.209,341.425 949.287,342.823 C 950.366,344.22 951.532,345.628 952.712,346.774 C 953.892,347.919 955.241,348.973 956.366,349.698 C 957.492,350.423 958.133,350.683 959.464,351.125 C 960.795,351.568 962.967,352.285 964.353,352.354 C 965.74,352.423 966.747,352.041 967.782,351.539 C 968.817,351.038 969.844,350.205 970.565,349.344 C 971.287,348.482 971.748,347.403 972.111,346.37 C 972.474,345.337 972.573,344.39 972.742,343.148 C 972.911,341.906 973.06,340.382 973.124,338.917 C 973.189,337.453 973.163,336.002 973.127,334.361 C 973.092,332.721 973.052,330.976 972.91,329.073 C 972.768,327.171 972.599,325.126 972.277,322.944 C 971.955,320.763 971.545,318.535 970.979,315.983 C 970.413,313.431 969.694,310.518 968.88,307.631 C 968.065,304.744 967.158,301.784 966.092,298.659 C 965.027,295.535 963.767,292.165 962.486,288.884 C 961.205,285.602 959.745,282.243 958.406,278.968 C 957.068,275.693 955.565,272.23 954.455,269.236 C 953.346,266.243 952.455,263.452 951.751,261.007 C 951.047,258.562 950.543,256.519 950.232,254.566 C 949.92,252.613 949.93,250.782 949.882,249.29 C 949.835,247.798 949.948,246.734 949.946,245.614 C 949.944,244.494 950.305,243.7 949.869,242.569 C 949.433,241.439 948.5,239.361 947.33,238.83 C 946.159,238.3 943.732,239.172 942.848,239.388 C 941.965,239.603 942.318,239.841 942.028,240.123 C 941.737,240.405 941.424,240.708 941.104,241.078 C 940.785,241.448 940.368,241.982 940.11,242.344 C 939.853,242.707 939.828,242.881 939.559,243.253 C 939.29,243.624 938.813,244.164 938.495,244.573 C 938.178,244.982 937.995,245.278 937.655,245.706 C 937.314,246.133 936.987,246.576 936.454,247.138 C 935.92,247.7 935.29,248.37 934.454,249.078 C 933.619,249.786 932.627,250.639 931.439,251.385 C 930.252,252.131 928.797,252.885 927.328,253.555 C 925.859,254.225 924.289,254.904 922.625,255.406 C 920.961,255.908 919.073,256.286 917.345,256.567 C 915.616,256.848 913.936,256.963 912.254,257.091 C 910.572,257.218 908.903,257.292 907.252,257.331 C 905.601,257.37 903.896,257.329 902.347,257.324 C 900.797,257.32 899.282,257.312 897.957,257.306 C 896.633,257.299 895.447,257.291 894.399,257.286 C 893.352,257.281 892.519,257.289 891.67,257.274 C 890.822,257.259 890.006,257.233 889.31,257.197 C 888.614,257.161 888.068,257.125 887.494,257.058 C 886.921,256.992 886.329,256.891 885.867,256.798 C 885.405,256.705 885.048,256.606 884.722,256.5 C 884.396,256.393 883.983,256.009 883.912,256.159 C 883.84,256.31 884.261,257.318 884.291,257.405 C 884.322,257.492 884.167,256.605 884.096,256.683 C 884.026,256.76 884.318,257.319 883.869,257.871 C 883.421,258.424 881.851,259.669 881.407,259.995 C 880.964,260.321 880.89,259.879 881.208,259.829 C 881.525,259.779 882.461,259.746 883.314,259.697 C 884.167,259.649 885.134,259.602 886.326,259.537 C 887.518,259.473 888.735,259.366 890.466,259.31 C 892.196,259.253 894.527,259.207 896.71,259.199 C 898.893,259.19 901.324,259.185 903.564,259.256 C 905.804,259.328 908.206,259.455 910.148,259.627 C 912.089,259.799 913.607,259.964 915.214,260.288 C 916.821,260.612 918.551,261.139 919.789,261.57 C 921.026,262.002 921.893,262.426 922.638,262.878 C 923.383,263.33 923.86,263.795 924.261,264.282 C 924.661,264.77 924.858,265.211 925.041,265.804 C 925.225,266.397 925.283,267.076 925.361,267.841 C 925.439,268.606 925.461,269.555 925.508,270.394 C 925.555,271.233 925.606,272.123 925.645,272.875 C 925.683,273.626 925.73,274.262 925.739,274.904 C 925.749,275.547 925.753,276.127 925.7,276.732 C 925.647,277.337 925.636,277.841 925.42,278.533 C 925.204,279.226 924.92,280.001 924.402,280.886 C 923.884,281.772 923.144,282.856 922.312,283.847 C 921.48,284.837 920.467,285.862 919.411,286.828 C 918.354,287.795 917.284,288.693 915.973,289.645 C 914.662,290.597 913.208,291.61 911.543,292.54 C 909.878,293.47 907.757,294.527 905.983,295.226 C 904.208,295.925 902.592,296.42 900.895,296.735 C 899.199,297.051 897.541,297.168 895.803,297.119 C 894.064,297.069 892.116,296.728 890.464,296.439 C 888.811,296.149 887.158,295.748 885.888,295.381 C 884.619,295.015 883.576,294.52 882.845,294.242 C 882.114,293.964 881.814,293.806 881.503,293.715 C 881.192,293.623 881.118,293.739 880.979,293.694 C 880.84,293.65 880.736,293.741 880.668,293.448 C 880.601,293.154 880.59,292.534 880.574,291.934 C 880.558,291.333 880.551,290.593 880.571,289.846 C 880.59,289.099 880.597,288.41 880.692,287.453 C 880.788,286.496 880.923,285.367 881.143,284.103 C 881.363,282.84 881.622,281.441 882.012,279.871 C 882.403,278.302 882.954,276.391 883.488,274.686 C 884.022,272.981 884.644,271.324 885.217,269.643 C 885.79,267.963 886.424,266.158 886.926,264.601 C 887.427,263.043 887.845,261.581 888.227,260.299 C 888.608,259.017 888.918,257.873 889.212,256.911 C 889.507,255.949 889.837,255.065 889.993,254.526 C 890.149,253.987 890.041,254.023 890.148,253.678 C 890.256,253.333 890.556,252.659 890.637,252.455 C 890.719,252.251 890.637,252.455 890.637,252.455 L 890.637,252.455 L 890.637,252.455 A 3.918,3.918 -2.7610862764774295 0,0 883.363,249.545"/><a:init><a:s a:d="8" a:u="px" a:t="10603.98"/><a:c a:d="#fa5959" a:t="10603.98"/><a:m a:x="887" a:y="251" a:t="10603.98" a:p="1"/></a:init><a:ds a:t="10604"/><a:m a:x="886" a:y="251" a:t="10660.46"/><a:m a:x="886" a:y="253" a:t="10680.25"/><a:m a:x="886" a:y="256" a:t="10694.81"/><a:ds a:t="10695.53"/><a:ds a:t="10711.62"/><a:m a:x="884" a:y="260" a:t="10714.63"/><a:ds a:t="10727.98"/><a:m a:x="883" a:y="266" a:t="10731.63"/><a:ds a:t="10745.63"/><a:m a:x="881" a:y="271" a:t="10748.71"/><a:ds a:t="10761.61"/><a:m a:x="879" a:y="276" a:t="10765.4"/><a:ds a:t="10780.62"/><a:m a:x="877" a:y="282" a:t="10782.53"/><a:ds a:t="10794.61"/><a:m a:x="877" a:y="286" a:t="10798.77"/><a:ds a:t="10811.7"/><a:m a:x="877" a:y="288" a:t="10816.02"/><a:ds a:t="10828.71"/><a:m a:x="877" a:y="290" a:t="10832"/><a:ds a:t="10845.5"/><a:m a:x="877" a:y="292" a:t="10848.72"/><a:ds a:t="10861.49"/><a:m a:x="877" a:y="294" a:t="10864.89"/><a:ds a:t="10879.49"/><a:m a:x="877" a:y="295" a:t="10881.97"/><a:ds a:t="10895.57"/><a:m a:x="879" a:y="297" a:t="10899.74"/><a:ds a:t="10911.33"/><a:m a:x="882" a:y="298" a:t="10916.87"/><a:ds a:t="10929.57"/><a:m a:x="886" a:y="299" a:t="10932.7"/><a:ds a:t="10945.41"/><a:m a:x="892" a:y="301" a:t="10950.2"/><a:ds a:t="10961.57"/><a:m a:x="898" a:y="301" a:t="10966.73"/><a:ds a:t="10980.9"/><a:m a:x="904" a:y="301" a:t="10983.74"/><a:ds a:t="10996.28"/><a:m a:x="910" a:y="298" a:t="11000.74"/><a:ds a:t="11012.36"/><a:m a:x="916" a:y="294" a:t="11016.66"/><a:ds a:t="11028.47"/><a:m a:x="921" a:y="290" a:t="11034.56"/><a:ds a:t="11045.89"/><a:m a:x="923" a:y="288" a:t="11051.53"/><a:ds a:t="11062.02"/><a:m a:x="926" a:y="285" a:t="11068.58"/><a:ds a:t="11077.79"/><a:m a:x="928" a:y="282" a:t="11086.26"/><a:ds a:t="11095.22"/><a:m a:x="929" a:y="279" a:t="11102"/><a:ds a:t="11112.92"/><a:m a:x="929" a:y="277" a:t="11119.35"/><a:ds a:t="11129.85"/><a:m a:x="929" a:y="274" a:t="11137.36"/><a:ds a:t="11145.47"/><a:m a:x="929" a:y="272" a:t="11152.64"/><a:ds a:t="11162.34"/><a:m a:x="929" a:y="270" a:t="11170.05"/><a:ds a:t="11179.71"/><a:m a:x="929" a:y="266" a:t="11187.52"/><a:ds a:t="11195.83"/><a:m a:x="929" a:y="264" a:t="11205.54"/><a:ds a:t="11212.19"/><a:m a:x="928" a:y="262" a:t="11221.67"/><a:ds a:t="11228.38"/><a:m a:x="925" a:y="259" a:t="11238.84"/><a:ds a:t="11244.92"/><a:m a:x="920" a:y="257" a:t="11256.57"/><a:ds a:t="11261.93"/><a:m a:x="913" a:y="256" a:t="11273.45"/><a:ds a:t="11277.78"/><a:m a:x="908" a:y="256" a:t="11290.41"/><a:ds a:t="11295.87"/><a:m a:x="901" a:y="256" a:t="11307.11"/><a:ds a:t="11311.42"/><a:m a:x="892" a:y="256" a:t="11325.33"/><a:ds a:t="11328.25"/><a:m a:x="887" a:y="256" a:t="11341.18"/><a:ds a:t="11344.97"/><a:m a:x="884" a:y="256" a:t="11358.56"/><a:ds a:t="11362.27"/><a:m a:x="883" a:y="256" a:t="11376.38"/><a:ds a:t="11377.95"/><a:m a:x="881" a:y="256" a:t="11393.77"/><a:ds a:t="11395.04"/><a:ds a:t="11414.47"/><a:m a:x="881" a:y="257" a:t="11417.36"/><a:ds a:t="11430.64"/><a:m a:x="881" a:y="258" a:t="11439"/><a:ds a:t="11445.72"/><a:m a:x="881" a:y="259" a:t="11455.9"/><a:ds a:t="11462.68"/><a:m a:x="881" a:y="260" a:t="11473.25"/><a:ds a:t="11479.61"/><a:m a:x="884" a:y="260" a:t="11490.41"/><a:ds a:t="11500.03"/><a:m a:x="886" a:y="261" a:t="11508.04"/><a:ds a:t="11512.86"/><a:m a:x="888" a:y="261" a:t="11525.75"/><a:ds a:t="11528.55"/><a:m a:x="890" a:y="261" a:t="11542.29"/><a:ds a:t="11546.13"/><a:m a:x="892" a:y="261" a:t="11558.99"/><a:ds a:t="11562.77"/><a:m a:x="896" a:y="261" a:t="11576.19"/><a:ds a:t="11579.3"/><a:m a:x="899" a:y="261" a:t="11593.53"/><a:ds a:t="11595.38"/><a:m a:x="904" a:y="261" a:t="11610.47"/><a:ds a:t="11612.58"/><a:m a:x="910" a:y="261" a:t="11627.76"/><a:ds a:t="11629.57"/><a:m a:x="915" a:y="261" a:t="11644.69"/><a:ds a:t="11645.96"/><a:m a:x="920" a:y="260" a:t="11661.14"/><a:ds a:t="11662.3"/><a:m a:x="925" a:y="259" a:t="11678.19"/><a:ds a:t="11679.8"/><a:m a:x="932" a:y="256" a:t="11694.75"/><a:ds a:t="11695.65"/><a:m a:x="935" a:y="253" a:t="11711.46"/><a:ds a:t="11712.44"/><a:m a:x="938" a:y="251" a:t="11728.31"/><a:ds a:t="11729.36"/><a:m a:x="940" a:y="248" a:t="11745.8"/><a:ds a:t="11746.69"/><a:ds a:t="11762.85"/><a:m a:x="941" a:y="247" a:t="11764.99"/><a:ds a:t="11780.02"/><a:m a:x="942" a:y="246" a:t="11783.55"/><a:ds a:t="11797.52"/><a:m a:x="944" a:y="244" a:t="11801.28"/><a:ds a:t="11814.64"/><a:m a:x="944" a:y="243" a:t="11819.28"/><a:ds a:t="11831.12"/><a:m a:x="945" a:y="243" a:t="11835.65"/><a:ds a:t="11848.05"/><a:m a:x="946" a:y="242" a:t="11851.24"/><a:ds a:t="11862.66"/><a:ds a:t="11881.67"/><a:m a:x="946" a:y="244" a:t="11960.09"/><a:ds a:t="11963.85"/><a:m a:x="946" a:y="246" a:t="11976.14"/><a:ds a:t="11979.86"/><a:m a:x="946" a:y="251" a:t="11993.15"/><a:ds a:t="11997.44"/><a:m a:x="946" a:y="257" a:t="12009.94"/><a:ds a:t="12013.23"/><a:m a:x="948" a:y="265" a:t="12026.62"/><a:ds a:t="12030.86"/><a:m a:x="953" a:y="275" a:t="12044.27"/><a:ds a:t="12046.74"/><a:m a:x="957" a:y="284" a:t="12060.97"/><a:ds a:t="12063.63"/><a:m a:x="963" a:y="296" a:t="12077.75"/><a:ds a:t="12080.49"/><a:m a:x="965" a:y="304" a:t="12094.85"/><a:ds a:t="12097.12"/><a:m a:x="967" a:y="313" a:t="12112.21"/><a:ds a:t="12113.65"/><a:m a:x="968" a:y="320" a:t="12128.47"/><a:ds a:t="12129.91"/><a:m a:x="969" a:y="326" a:t="12145.1"/><a:ds a:t="12147.2"/><a:m a:x="969" a:y="331" a:t="12162.45"/><a:ds a:t="12163.7"/><a:m a:x="969" a:y="336" a:t="12179.49"/><a:ds a:t="12180.53"/><a:m a:x="969" a:y="340" a:t="12196.19"/><a:ds a:t="12197.34"/><a:m a:x="969" a:y="344" a:t="12213.49"/><a:ds a:t="12214.65"/><a:m a:x="968" a:y="346" a:t="12232.04"/><a:ds a:t="12233.19"/><a:m a:x="967" a:y="348" a:t="12247.54"/><a:ds a:t="12248.23"/><a:m a:x="965" a:y="348" a:t="12264.46"/><a:ds a:t="12265.12"/><a:m a:x="963" a:y="348" a:t="12281.02"/><a:ds a:t="12282.48"/><a:m a:x="960" a:y="348" a:t="12297.57"/><a:ds a:t="12298.71"/><a:m a:x="955" a:y="344" a:t="12315.09"/><a:ds a:t="12316"/><a:ds a:t="12331.24"/><a:m a:x="951" a:y="339" a:t="12332.72"/><a:ds a:t="12348.77"/><a:m a:x="948" a:y="334" a:t="12353.72"/><a:ds a:t="12365.54"/><a:m a:x="946" a:y="330" a:t="12368.88"/><a:ds a:t="12382.64"/><a:m a:x="946" a:y="325" a:t="12386.11"/><a:ds a:t="12400.06"/><a:m a:x="946" a:y="321" a:t="12403.14"/><a:ds a:t="12415.95"/><a:m a:x="946" a:y="318" a:t="12421.1"/><a:ds a:t="12432.69"/><a:m a:x="950" a:y="313" a:t="12435.91"/><a:ds a:t="12449.43"/><a:m a:x="955" a:y="308" a:t="12452.36"/><a:ds a:t="12465.97"/><a:m a:x="962" a:y="300" a:t="12470.16"/><a:ds a:t="12483.35"/><a:m a:x="972" a:y="292" a:t="12486.17"/><a:ds a:t="12500.16"/><a:m a:x="978" a:y="287" a:t="12504.66"/><a:ds a:t="12515.67"/><a:m a:x="985" a:y="281" a:t="12522.28"/><a:ds a:t="12532.99"/><a:m a:x="988" a:y="278" a:t="12538.83"/><a:ds a:t="12550.07"/><a:m a:x="989" a:y="277" a:t="12555.33"/><a:ds a:t="12565.83"/><a:m a:x="989" a:y="276" a:t="12577.1"/><a:ds a:t="12581.97"/><a:ds a:t="12600.78"/><a:m a:x="989" a:y="275" a:t="12665.42"/><a:ds a:t="12666.21"/><a:m a:x="989" a:y="275" a:t="12794.22"/><a:ds a:t="12800.33"/><a:m a:x="989" a:y="274" a:t="12981.22"/><a:m a:x="989" a:y="267" a:t="12998.24"/><a:m a:x="986" a:y="256" a:t="13015.24"/><a:m a:x="983" a:y="248" a:t="13032.58"/><a:m a:x="978" a:y="239" a:t="13049.77"/><a:m a:x="975" a:y="233" a:t="13066.96"/><a:m a:x="973" a:y="230" a:t="13084.92"/><a:m a:x="971" a:y="226" a:t="13103.02"/><a:m a:x="971" a:y="223" a:t="13118.61"/><a:m a:x="970" a:y="220" a:t="13136.9"/><a:m a:x="969" a:y="219" a:t="13154.34"/><a:m a:x="969" a:y="218" a:t="13172.33"/><a:m a:x="967" a:y="218" a:t="13187.31"/><a:m a:x="967" a:y="217" a:t="13205.32"/><a:m a:x="966" a:y="217" a:t="13230.76"/><a:m a:x="966" a:y="217" a:t="13254.84"/><a:m a:x="965" a:y="217" a:t="13272.21"/><a:m a:x="964" a:y="217" a:t="13294.76"/><a:m a:x="963" a:y="217" a:t="13320.91"/><a:m a:x="961" a:y="217" a:t="13337.13"/><a:m a:x="957" a:y="217" a:t="13355.15"/><a:m a:x="953" a:y="217" a:t="13371.42"/><a:m a:x="949" a:y="217" a:t="13391.85"/><a:m a:x="948" a:y="217" a:t="13405.66"/><a:m a:x="947" a:y="217" a:t="13422.17"/><a:m a:x="947" a:y="216" a:t="13438.68"/><a:m a:x="947" a:y="216" a:t="13480.05"/></g><g a:type="path" a:t="13480.07" a:lastErase="0"><path fill="#fa5959" d="M 947,212 A 4,4 -4.71238898038469 0,0 947,220 L 947,220 A 4,4 -1.5707963267948966 0,0 947,212"/><a:init><a:s a:d="8" a:u="px" a:t="13480.07"/><a:c a:d="#fa5959" a:t="13480.07"/><a:m a:x="947" a:y="216" a:t="13480.07" a:p="1"/></a:init><a:ds a:t="13480.1"/><a:m a:x="947" a:y="216" a:t="13622.8"/><a:m a:x="947" a:y="217" a:t="13695.63"/><a:m a:x="955" a:y="223" a:t="13711.9"/><a:m a:x="976" a:y="245" a:t="13728.46"/><a:m a:x="1015" a:y="282" a:t="13745.29"/><a:m a:x="1067" a:y="337" a:t="13762.85"/><a:m a:x="1128" a:y="410" a:t="13779.37"/><a:m a:x="1189" a:y="493" a:t="13797.28"/><a:m a:x="1217" a:y="543" a:t="13814.33"/><a:m a:x="1236" a:y="581" a:t="13837.04"/><a:m a:x="1243" a:y="597" a:t="13847.54"/><a:m a:x="1238" a:y="596" a:t="14088.08"/><a:m a:x="1222" a:y="585" a:t="14107"/><a:m a:x="1183" a:y="562" a:t="14123.79"/><a:m a:x="1121" a:y="527" a:t="14141.17"/><a:m a:x="1041" a:y="487" a:t="14156.61"/><a:m a:x="980" a:y="461" a:t="14174.42"/><a:m a:x="904" a:y="437" a:t="14191.24"/><a:m a:x="871" a:y="431" a:t="14207.97"/><a:m a:x="848" a:y="426" a:t="14236.19"/><a:m a:x="840" a:y="424" a:t="14243.99"/><a:m a:x="838" a:y="423" a:t="14260.56"/><a:m a:x="838" a:y="423" a:t="14392.32"/><a:m a:x="838" a:y="422" a:t="14411.22"/><a:m a:x="838" a:y="416" a:t="14426.63"/><a:m a:x="835" a:y="409" a:t="14443.06"/><a:m a:x="831" a:y="402" a:t="14460.93"/><a:m a:x="827" a:y="395" a:t="14477.51"/><a:m a:x="823" a:y="389" a:t="14495.46"/><a:m a:x="821" a:y="386" a:t="14514.76"/><a:m a:x="821" a:y="384" a:t="14529.04"/><a:m a:x="819" a:y="382" a:t="14545.73"/><a:m a:x="818" a:y="380" a:t="14561.95"/><a:m a:x="817" a:y="379" a:t="14579.41"/><a:m a:x="816" a:y="378" a:t="14597.02"/><a:m a:x="816" a:y="378" a:t="14650.45"/></g><g a:type="path" a:t="14650.48" a:lastErase="0"><path fill="#fa5959" d="M 816,381.97 L 816,381.97 C 816,381.97 815.919,381.97 816,381.97 C 816.081,381.97 815.699,382.048 816.483,381.97 C 817.267,381.891 818.111,381.949 820.704,381.499 C 823.297,381.048 826.984,380.329 832.043,379.266 C 837.102,378.203 844.073,376.551 851.058,375.119 C 858.043,373.686 866.421,371.974 873.951,370.672 C 881.482,369.37 889.215,368.241 896.241,367.307 C 903.267,366.373 910.411,365.606 916.105,365.069 C 921.799,364.533 926.579,364.164 930.404,364.089 C 934.228,364.015 936.955,364.269 939.05,364.621 C 941.146,364.973 942.228,365.627 942.978,366.203 C 943.729,366.779 943.12,367.118 943.554,368.076 C 943.988,369.033 944.631,370.316 945.585,371.948 C 946.539,373.58 947.814,375.706 949.277,377.867 C 950.74,380.028 952.498,382.604 954.364,384.913 C 956.229,387.222 958.063,389.556 960.471,391.722 C 962.878,393.889 965.711,396.134 968.808,397.912 C 971.906,399.69 975.365,401.331 979.053,402.39 C 982.741,403.448 987.475,403.883 990.937,404.263 C 994.399,404.644 996.392,405.37 999.825,404.674 C 1003.259,403.977 1008.179,401.65 1011.539,400.083 C 1014.899,398.517 1017.425,396.994 1019.985,395.276 C 1022.545,393.559 1024.833,391.537 1026.898,389.78 C 1028.964,388.024 1030.736,386.23 1032.377,384.739 C 1034.017,383.248 1035.433,381.959 1036.741,380.834 C 1038.049,379.709 1039.13,378.681 1040.224,377.988 C 1041.318,377.296 1042.309,376.979 1043.306,376.678 C 1044.303,376.377 1045.124,376.141 1046.204,376.183 C 1047.285,376.225 1048.108,376.385 1049.788,376.929 C 1051.469,377.472 1053.363,378.267 1056.285,379.446 C 1059.206,380.625 1062.839,382.473 1067.319,384.001 C 1071.799,385.53 1077,387.192 1083.165,388.616 C 1089.33,390.039 1096.913,391.503 1104.307,392.544 C 1111.701,393.586 1120.418,394.445 1127.53,394.865 C 1134.643,395.285 1140.912,395.368 1146.983,395.063 C 1153.053,394.759 1159.392,393.677 1163.954,393.038 C 1168.516,392.399 1171.401,391.838 1174.354,391.231 A 3.541,3.541 -1.8414621581440604 0,0 1179.784,382.573 C 1170.183,385.436 1167.525,386.381 1163.194,387.179 C 1158.864,387.978 1152.821,389.027 1146.965,389.46 C 1141.11,389.894 1134.996,390.139 1128.062,389.779 C 1121.127,389.419 1112.549,388.447 1105.359,387.299 C 1098.168,386.152 1090.824,384.435 1084.919,382.894 C 1079.014,381.353 1074.266,379.717 1069.93,378.055 C 1065.593,376.393 1062.064,374.326 1058.899,372.924 C 1055.734,371.523 1053.319,370.328 1050.937,369.646 C 1048.556,368.963 1046.417,368.779 1044.61,368.828 C 1042.802,368.878 1041.622,369.359 1040.091,369.942 C 1038.561,370.525 1036.805,371.404 1035.427,372.328 C 1034.049,373.253 1033.142,374.283 1031.823,375.489 C 1030.504,376.695 1029.065,378.084 1027.512,379.566 C 1025.96,381.047 1024.346,382.743 1022.51,384.379 C 1020.675,386.015 1018.737,387.785 1016.499,389.383 C 1014.26,390.98 1011.828,392.569 1009.077,393.961 C 1006.326,395.353 1002.85,397.106 999.993,397.735 C 997.135,398.364 994.979,397.985 991.932,397.736 C 988.885,397.487 984.892,397.12 981.711,396.241 C 978.531,395.361 975.533,393.98 972.85,392.458 C 970.166,390.936 967.745,389.032 965.611,387.107 C 963.476,385.183 961.741,383.068 960.04,380.911 C 958.338,378.754 956.723,376.227 955.401,374.164 C 954.08,372.101 953.107,370.332 952.11,368.535 C 951.112,366.737 950.583,364.941 949.418,363.38 C 948.253,361.819 946.825,360.105 945.12,359.166 C 943.415,358.227 941.738,357.956 939.189,357.748 C 936.64,357.54 933.784,357.605 929.826,357.917 C 925.869,358.228 921.174,358.905 915.446,359.618 C 909.718,360.331 902.527,361.185 895.458,362.194 C 888.39,363.203 880.61,364.432 873.036,365.673 C 865.461,366.913 857.016,368.458 850.012,369.637 C 843.008,370.816 835.971,372.016 831.01,372.746 C 826.049,373.475 822.667,373.799 820.246,374.013 C 817.824,374.227 817.191,374.027 816.483,374.03 C 815.776,374.033 816.081,374.03 816,374.03 C 815.919,374.03 816,374.03 816,374.03 L 816,374.03 L 816,374.03 A 3.97,3.97 -4.71238898038469 0,0 816,381.97"/><a:init><a:s a:d="8" a:u="px" a:t="14650.48"/><a:c a:d="#fa5959" a:t="14650.48"/><a:m a:x="816" a:y="378" a:t="14650.48" a:p="1"/></a:init><a:ds a:t="14650.51"/><a:m a:x="818" a:y="378" a:t="14730.85"/><a:ds a:t="14737.29"/><a:m a:x="832" a:y="377" a:t="14747.85"/><a:ds a:t="14753.81"/><a:m a:x="859" a:y="371" a:t="14764.76"/><a:ds a:t="14770.39"/><a:m a:x="886" a:y="365" a:t="14781.93"/><a:ds a:t="14788.02"/><a:m a:x="914" a:y="361" a:t="14798.76"/><a:ds a:t="14804.3"/><a:m a:x="928" a:y="361" a:t="14815.85"/><a:ds a:t="14820.57"/><a:m a:x="937" a:y="361" a:t="14834.55"/><a:ds a:t="14837.7"/><a:m a:x="940" a:y="361" a:t="14851.71"/><a:ds a:t="14854.82"/><a:m a:x="942" a:y="364" a:t="14867.23"/><a:ds a:t="14871.56"/><a:m a:x="944" a:y="367" a:t="14884.74"/><a:ds a:t="14888.38"/><a:m a:x="946" a:y="373" a:t="14901.91"/><a:ds a:t="14904.17"/><a:m a:x="952" a:y="379" a:t="14919.14"/><a:ds a:t="14920.78"/><a:m a:x="959" a:y="386" a:t="14936.44"/><a:ds a:t="14937.92"/><a:m a:x="966" a:y="394" a:t="14953.38"/><a:ds a:t="14954.71"/><a:m a:x="973" a:y="398" a:t="14970.31"/><a:ds a:t="14971.32"/><a:m a:x="985" a:y="402" a:t="14987.36"/><a:ds a:t="14988.11"/><a:m a:x="996" a:y="402" a:t="15004.73"/><a:ds a:t="15005.37"/><a:m a:x="1008" a:y="399" a:t="15021.72"/><a:ds a:t="15022.77"/><a:ds a:t="15037.89"/><a:m a:x="1020" a:y="390" a:t="15039.98"/><a:m a:x="1025" a:y="385" a:t="15055.93"/><a:ds a:t="15056.84"/><a:ds a:t="15072.73"/><a:m a:x="1031" a:y="379" a:t="15076.45"/><a:ds a:t="15090.02"/><a:m a:x="1035" a:y="376" a:t="15094.63"/><a:ds a:t="15106.27"/><a:m a:x="1039" a:y="374" a:t="15110.26"/><a:ds a:t="15122.59"/><a:m a:x="1041" a:y="373" a:t="15126.65"/><a:ds a:t="15139.79"/><a:m a:x="1047" a:y="373" a:t="15143.12"/><a:ds a:t="15157.09"/><a:m a:x="1051" a:y="373" a:t="15160.22"/><a:ds a:t="15172.8"/><a:m a:x="1059" a:y="377" a:t="15176.01"/><a:ds a:t="15189.97"/><a:m a:x="1072" a:y="384" a:t="15194.15"/><a:ds a:t="15206.09"/><a:m a:x="1088" a:y="390" a:t="15210.36"/><a:ds a:t="15223.78"/><a:m a:x="1119" a:y="394" a:t="15227.25"/><a:ds a:t="15238.88"/><a:m a:x="1139" a:y="394" a:t="15244.59"/><a:ds a:t="15256.25"/><a:m a:x="1157" a:y="392" a:t="15260.49"/><a:ds a:t="15274.21"/><a:m a:x="1172" a:y="388" a:t="15277.15"/><a:ds a:t="15289.81"/><a:m a:x="1179" a:y="384" a:t="15294.9"/><a:ds a:t="15307.23"/><a:m a:x="1181" a:y="384" a:t="15310.98"/><a:ds a:t="15322.28"/><a:m a:x="1184" a:y="384" a:t="15327.98"/><a:ds a:t="15339.87"/><a:m a:x="1185" a:y="384" a:t="15346.25"/><a:ds a:t="15355.78"/><a:m a:x="1185" a:y="384" a:t="15451.27"/><a:m a:x="1060" a:y="384" a:t="21357.36"/><a:m a:x="1041" a:y="384" a:t="21374.55"/><a:m a:x="1015" a:y="384" a:t="21393.8"/><a:m a:x="973" a:y="384" a:t="21409.24"/><a:m a:x="807" a:y="413" a:t="21425.72"/><a:m a:x="612" a:y="450" a:t="21443.18"/><a:m a:x="386" a:y="493" a:t="21459.44"/><a:m a:x="241" a:y="517" a:t="21476.53"/><a:m a:x="130" a:y="539" a:t="21493.78"/><a:m a:x="82" a:y="551" a:t="21511.99"/><a:m a:x="40" a:y="565" a:t="21528.11"/><a:m a:x="21" a:y="574" a:t="21545"/><a:m a:x="12" a:y="583" a:t="21562.31"/><a:m a:x="9" a:y="589" a:t="21580.41"/><a:m a:x="5" a:y="599" a:t="21596.16"/><a:m a:x="1" a:y="607" a:t="21614.37"/><a:m a:x="0" a:y="613" a:t="21630.38"/><a:m a:x="0" a:y="620" a:t="21647.95"/><a:m a:x="0" a:y="627" a:t="21665.19"/><a:m a:x="0" a:y="630" a:t="21681.27"/><a:m a:x="0" a:y="633" a:t="21698.27"/><a:m a:x="0" a:y="638" a:t="21715.21"/><a:m a:x="0" a:y="643" a:t="21731.94"/><a:m a:x="0" a:y="650" a:t="21748.99"/><a:m a:x="0" a:y="657" a:t="21765.9"/><a:m a:x="3" a:y="665" a:t="21783.96"/><a:m a:x="15" a:y="675" a:t="21799.96"/><a:m a:x="30" a:y="685" a:t="21817.26"/><a:m a:x="43" a:y="697" a:t="21834.43"/><a:m a:x="55" a:y="706" a:t="21850.71"/><a:m a:x="58" a:y="711" a:t="21868.79"/><a:m a:x="62" a:y="715" a:t="21885.97"/><a:m a:x="64" a:y="718" a:t="21903.23"/><a:m a:x="65" a:y="720" a:t="21920.33"/><a:m a:x="65" a:y="724" a:t="21936.71"/><a:m a:x="65" a:y="730" a:t="21954.26"/><a:m a:x="65" a:y="735" a:t="21971.59"/><a:m a:x="63" a:y="745" a:t="21989.73"/><a:m a:x="62" a:y="750" a:t="22006.12"/><a:m a:x="62" a:y="753" a:t="22023.46"/><a:m a:x="62" a:y="754" a:t="22055.56"/><a:m a:x="62" a:y="754" a:t="22078.88"/><a:m a:x="62" a:y="755" a:t="22134.57"/><a:m a:x="61" a:y="755" a:t="22167.75"/><a:m a:x="61" a:y="757" a:t="22185.18"/><a:m a:x="60" a:y="757" a:t="22202.39"/><a:m a:x="60" a:y="757" a:t="22503.9"/></g><g a:type="void" a:t="22504.46" a:lastErase="0"><a:init><a:s a:d="8" a:u="px" a:t="22504.46"/><a:c a:d="#fa5959" a:t="22504.46"/><a:m a:x="60" a:y="757" a:t="22504.46"/></a:init></g></g></svg>