<!DOCTYPE svg:svg PUBLIC "-//W3C//DTD SVG 1.1//EN" "http://www.w3.org/Graphics/SVG/1.1/DTD/svg11.dtd"><svg xmlns="http://www.w3.org/2000/svg" xmlns:a="http://www.rozsival.com/2015/vector-video" width="1440" height="407" viewBox="0 0 1440 407"><a:metadata><a:length>13465.932</a:length><a:width>1440</a:width><a:height>407</a:height><a:audio><a:source a:type="audio/wav" a:src="./public/recordings/b1e974d8-7672-4b3c-b9d6-75f4f22d5524.wav"/></a:audio></a:metadata><g a:type="video-chunks"><g a:type="erase" a:t="0.00" a:lastErase="0"><rect fill="#111" width="100%" height="100%"/><a:init><a:s a:d="2" a:u="px" a:t="0"/><a:c a:d="#fff" a:t="0"/><a:m a:x="0" a:y="0" a:t="0"/></a:init><a:e a:t="0" a:color="#111"/><a:c a:d="#fff" a:t="0"/><a:s a:d="2" a:u="px" a:t="0"/></g><g a:type="void" a:t="0.00" a:lastErase="0"><a:init><a:s a:d="2" a:u="px" a:t="0"/><a:c a:d="#fff" a:t="0"/><a:m a:x="63" a:y="363" a:t="0"/></a:init><a:m a:x="63" a:y="357" a:t="185.51"/><a:m a:x="65" a:y="346" a:t="202.71"/><a:m a:x="73" a:y="326" a:t="220.62"/><a:m a:x="86" a:y="290" a:t="236.11"/><a:m a:x="99" a:y="255" a:t="253.26"/><a:m a:x="108" a:y="230" a:t="270.43"/><a:m a:x="117" a:y="203" a:t="289.29"/><a:m a:x="123" a:y="179" a:t="304.81"/><a:m a:x="126" a:y="164" a:t="321.53"/><a:m a:x="127" a:y="154" a:t="338.88"/><a:m a:x="127" a:y="147" a:t="355.08"/><a:m a:x="127" a:y="141" a:t="371.57"/><a:m a:x="127" a:y="138" a:t="388.95"/><a:m a:x="127" a:y="136" a:t="405.9"/><a:m a:x="127" a:y="133" a:t="422.74"/><a:m a:x="127" a:y="129" a:t="439.02"/><a:m a:x="127" a:y="126" a:t="455.76"/><a:m a:x="127" a:y="122" a:t="473.5"/><a:m a:x="127" a:y="119" a:t="489.86"/><a:m a:x="128" a:y="117" a:t="506.9"/><a:m a:x="128" a:y="115" a:t="524.05"/><a:m a:x="129" a:y="114" a:t="540.93"/><a:m a:x="129" a:y="113" a:t="558.4"/><a:m a:x="129" a:y="113" a:t="641.29"/></g><g a:type="path" a:t="641.63" a:lastErase="0"><path fill="#fff" d="M 128.185,113 L 128.185,113 C 128.185,113 128.185,112.877 128.185,113 C 128.185,113.123 128.116,112.539 128.185,113.739 C 128.254,114.939 128.531,116.382 128.6,120.202 C 128.669,124.022 128.6,130.097 128.6,136.659 C 128.6,143.221 128.6,151.188 128.6,159.573 C 128.6,167.957 128.6,178.786 128.6,186.964 C 128.6,195.141 128.6,202.873 128.6,208.64 C 128.6,214.406 128.6,218.428 128.6,221.562 C 128.6,224.695 128.659,226.298 128.6,227.442 C 128.541,228.586 128.074,228.506 128.246,228.425 C 128.418,228.344 129.419,227.514 129.633,226.957 C 129.847,226.401 129.515,225.574 129.532,225.084 C 129.549,224.595 129.653,224.173 129.734,224.022 C 129.816,223.871 129.857,224.387 130.019,224.18 C 130.182,223.972 130.298,223.578 130.709,222.776 C 131.121,221.974 131.198,221.345 132.488,219.37 C 133.779,217.395 135.354,215.234 138.453,210.924 C 141.552,206.614 145.842,200.539 151.082,193.512 C 156.321,186.484 163.356,177.05 169.889,168.758 C 176.422,160.466 183.29,152.05 190.278,143.76 C 197.267,135.471 205.002,126.754 211.82,119.018 C 218.638,111.283 225.8,103.337 231.186,97.348 C 236.573,91.36 240.867,86.708 244.14,83.089 C 247.413,79.47 249.239,77.589 250.825,75.634 C 252.411,73.68 253.002,72.68 253.656,71.362 C 254.309,70.045 254.458,68.728 254.748,67.728 C 255.037,66.729 255.143,65.893 255.393,65.368 C 255.643,64.842 256.237,64.607 256.25,64.576 C 256.263,64.545 255.488,64.599 255.47,65.18 C 255.453,65.761 255.905,66.389 256.146,68.063 C 256.387,69.737 256.415,71.636 256.917,75.225 C 257.419,78.814 258.019,83.546 259.158,89.594 C 260.296,95.642 261.606,102.517 263.746,111.515 C 265.886,120.513 269.048,132.661 271.996,143.581 C 274.945,154.501 277.925,165.872 281.436,177.034 C 284.946,188.196 289.03,200.065 293.059,210.554 C 297.088,221.043 301.35,231.181 305.608,239.968 C 309.867,248.755 315.131,257.517 318.61,263.278 C 322.089,269.039 324.108,271.536 326.482,274.532 C 328.855,277.528 331.228,279.743 332.851,281.255 C 334.473,282.768 335.326,283.062 336.216,283.606 C 337.106,284.151 337.654,284.334 338.188,284.521 C 338.723,284.707 338.804,285.574 339.423,284.725 C 340.041,283.877 340.63,282.207 341.901,279.428 C 343.171,276.649 344.735,272.597 347.048,268.052 C 349.361,263.507 352.702,257.14 355.778,252.158 C 358.855,247.176 361.9,242.71 365.505,238.159 C 369.109,233.607 373.344,228.747 377.406,224.849 C 381.467,220.951 385.562,217.644 389.874,214.772 C 394.185,211.899 398.6,209.509 403.274,207.616 C 407.948,205.724 413.03,204.472 417.917,203.415 C 422.804,202.358 426.853,201.914 432.599,201.276 C 438.344,200.638 445.94,200.059 452.389,199.586 C 458.839,199.114 465.02,198.993 471.295,198.439 C 477.571,197.885 484.354,197.079 490.042,196.261 C 495.731,195.444 500.79,194.37 505.428,193.536 C 510.065,192.702 513.982,191.973 517.865,191.257 C 521.749,190.54 525.057,189.918 528.728,189.236 C 532.398,188.554 536.643,187.686 539.887,187.165 A 0.4,0.4 -1.6973469357060007 0,0 548.09,185.316 C 536.49,186.901 532.252,187.768 528.582,188.45 C 524.911,189.132 521.603,189.754 517.721,190.47 C 513.839,191.186 509.917,191.915 505.288,192.748 C 500.659,193.581 495.623,194.651 489.95,195.467 C 484.276,196.282 477.518,197.087 471.247,197.641 C 464.975,198.194 458.782,198.315 452.321,198.789 C 445.861,199.263 438.254,199.841 432.483,200.484 C 426.712,201.127 422.627,201.575 417.696,202.646 C 412.765,203.717 407.618,204.994 402.897,206.911 C 398.176,208.828 393.718,211.249 389.37,214.15 C 385.023,217.05 380.896,220.391 376.809,224.316 C 372.722,228.242 368.47,233.126 364.848,237.703 C 361.226,242.279 358.165,246.77 355.077,251.773 C 351.989,256.776 348.637,263.169 346.32,267.722 C 344.003,272.275 342.352,276.507 341.175,279.09 C 339.999,281.673 339.696,282.464 339.259,283.222 C 338.823,283.98 338.986,283.683 338.555,283.638 C 338.124,283.592 337.527,283.438 336.673,282.95 C 335.819,282.461 335.02,282.184 333.431,280.705 C 331.842,279.225 329.491,277.043 327.137,274.074 C 324.784,271.104 322.774,268.625 319.309,262.888 C 315.843,257.152 310.593,248.42 306.344,239.654 C 302.095,230.888 297.838,220.765 293.815,210.292 C 289.792,199.819 285.713,187.969 282.206,176.817 C 278.698,165.665 275.717,154.293 272.771,143.382 C 269.825,132.471 266.666,120.336 264.529,111.351 C 262.392,102.366 261.084,95.506 259.948,89.471 C 258.812,83.436 258.214,78.727 257.712,75.139 C 257.211,71.551 257.133,69.842 256.937,67.943 C 256.741,66.043 256.847,64.427 256.537,63.744 C 256.228,63.061 255.4,63.609 255.08,63.844 C 254.761,64.08 254.804,64.547 254.621,65.157 C 254.438,65.766 254.253,66.541 253.981,67.502 C 253.708,68.462 253.614,69.655 252.988,70.921 C 252.363,72.187 251.803,73.162 250.23,75.1 C 248.656,77.038 246.821,78.932 243.548,82.551 C 240.274,86.171 235.978,90.825 230.59,96.815 C 225.202,102.806 218.039,110.753 211.217,118.493 C 204.395,126.233 196.653,134.958 189.658,143.255 C 182.664,151.552 175.79,159.976 169.252,168.274 C 162.715,176.572 155.676,186.01 150.434,193.042 C 145.192,200.073 140.904,206.144 137.799,210.463 C 134.694,214.782 133.166,217.022 131.804,218.955 C 130.443,220.888 130.139,221.385 129.632,222.063 C 129.124,222.74 128.988,222.692 128.76,223.019 C 128.532,223.345 128.314,223.677 128.266,224.022 C 128.217,224.366 128.451,224.595 128.468,225.084 C 128.485,225.574 128.153,226.401 128.367,226.957 C 128.581,227.514 129.582,228.344 129.754,228.425 C 129.926,228.506 129.459,228.586 129.4,227.442 C 129.341,226.298 129.4,224.695 129.4,221.562 C 129.4,218.428 129.4,214.406 129.4,208.64 C 129.4,202.873 129.4,195.141 129.4,186.964 C 129.4,178.786 129.4,167.957 129.4,159.573 C 129.4,151.188 129.4,143.221 129.4,136.659 C 129.4,130.097 129.331,124.022 129.4,120.202 C 129.469,116.382 129.746,114.939 129.815,113.739 C 129.884,112.539 129.815,113.123 129.815,113 C 129.815,112.877 129.815,113 129.815,113 L 129.815,113 L 129.815,113 A 0.815,0.815 -3.141592653589793 0,0 128.185,113"/><a:init><a:s a:d="2" a:u="px" a:t="641.63"/><a:c a:d="#fff" a:t="641.63"/><a:m a:x="129" a:y="113" a:t="641.63" a:p="1"/></a:init><a:ds a:t="641.83"/><a:m a:x="129" a:y="115" a:t="762.28"/><a:ds a:t="770.96"/><a:m a:x="129" a:y="129" a:t="780.49"/><a:ds a:t="785.28"/><a:m a:x="129" a:y="156" a:t="796.03"/><a:ds a:t="801.05"/><a:m a:x="129" a:y="177" a:t="812.47"/><a:ds a:t="817.83"/><a:m a:x="129" a:y="204" a:t="830.89"/><a:ds a:t="834.94"/><a:m a:x="129" a:y="212" a:t="846.77"/><a:ds a:t="852.09"/><a:m a:x="129" a:y="221" a:t="864.24"/><a:ds a:t="867.83"/><a:m a:x="129" a:y="223" a:t="883.09"/><a:ds a:t="885.21"/><a:m a:x="129" a:y="224" a:t="898.62"/><a:ds a:t="901.6"/><a:ds a:t="919.79"/><a:ds a:t="937.26"/><a:ds a:t="952"/><a:m a:x="130" a:y="224" a:t="962.9"/><a:ds a:t="968.16"/><a:m a:x="130" a:y="223" a:t="981.02"/><a:m a:x="131" a:y="221" a:t="997.14"/><a:ds a:t="1001.44"/><a:m a:x="134" a:y="216" a:t="1013.62"/><a:ds a:t="1019.3"/><a:m a:x="146" a:y="200" a:t="1031"/><a:ds a:t="1034.88"/><a:m a:x="162" a:y="178" a:t="1046.76"/><a:ds a:t="1052.78"/><a:m a:x="185" a:y="149" a:t="1063.66"/><a:ds a:t="1069.44"/><a:m a:x="204" a:y="128" a:t="1080.61"/><a:ds a:t="1085.18"/><a:m a:x="224" a:y="106" a:t="1097.45"/><a:ds a:t="1101.71"/><a:m a:x="236" a:y="92" a:t="1114.35"/><a:ds a:t="1119.78"/><a:m a:x="244" a:y="83" a:t="1131.18"/><a:ds a:t="1136.32"/><a:m a:x="248" a:y="78" a:t="1148.18"/><a:ds a:t="1152.09"/><a:m a:x="251" a:y="72" a:t="1164.64"/><a:ds a:t="1168.35"/><a:m a:x="253" a:y="67" a:t="1181.52"/><a:ds a:t="1185.92"/><a:m a:x="255" a:y="65" a:t="1199.25"/><a:ds a:t="1201.88"/><a:m a:x="256" a:y="65" a:t="1218.68"/><a:ds a:t="1219.4"/><a:m a:x="256" a:y="66" a:t="1266.03"/><a:ds a:t="1269.19"/><a:m a:x="257" a:y="73" a:t="1282.56"/><a:ds a:t="1286.26"/><a:m a:x="258" a:y="83" a:t="1300.58"/><a:ds a:t="1302.09"/><a:m a:x="262" a:y="103" a:t="1316.41"/><a:ds a:t="1319.53"/><a:m a:x="269" a:y="131" a:t="1333.82"/><a:ds a:t="1335.55"/><a:m a:x="280" a:y="169" a:t="1350.88"/><a:ds a:t="1355.45"/><a:m a:x="288" a:y="196" a:t="1368.7"/><a:ds a:t="1369.5"/><a:m a:x="301" a:y="226" a:t="1386.14"/><a:ds a:t="1387.07"/><a:m a:x="313" a:y="250" a:t="1402.59"/><a:ds a:t="1403.89"/><a:m a:x="325" a:y="267" a:t="1419.68"/><a:ds a:t="1420.45"/><a:ds a:t="1436.98"/><a:m a:x="331" a:y="275" a:t="1438.92"/><a:m a:x="335" a:y="280" a:t="1453.27"/><a:ds a:t="1454.62"/><a:ds a:t="1470.53"/><a:m a:x="337" a:y="283" a:t="1471.66"/><a:m a:x="338" a:y="283" a:t="1491.01"/><a:ds a:t="1505.1"/><a:m a:x="339" a:y="283" a:t="1506.69"/><a:ds a:t="1520.91"/><a:m a:x="344" a:y="272" a:t="1523.1"/><a:ds a:t="1537.46"/><a:m a:x="352" a:y="256" a:t="1540.63"/><a:ds a:t="1554.44"/><a:m a:x="362" a:y="242" a:t="1557.59"/><a:ds a:t="1572.03"/><a:m a:x="373" a:y="230" a:t="1574.26"/><a:ds a:t="1587.29"/><a:m a:x="384" a:y="220" a:t="1591.32"/><a:ds a:t="1604.84"/><a:m a:x="396" a:y="213" a:t="1608.24"/><a:ds a:t="1621.59"/><a:m a:x="410" a:y="207" a:t="1624.93"/><a:ds a:t="1639.69"/><a:m a:x="426" a:y="204" a:t="1642.46"/><a:ds a:t="1655.59"/><a:m a:x="446" a:y="201" a:t="1659.42"/><a:ds a:t="1669.81"/><a:m a:x="465" a:y="199" a:t="1676.28"/><a:ds a:t="1687.54"/><a:m a:x="480" a:y="198" a:t="1693.78"/><a:ds a:t="1704.07"/><a:m a:x="497" a:y="194" a:t="1710.18"/><a:ds a:t="1721.6"/><a:m a:x="511" a:y="191" a:t="1727.32"/><a:ds a:t="1737.59"/><a:m a:x="522" a:y="190" a:t="1744.77"/><a:ds a:t="1753.95"/><a:m a:x="533" a:y="188" a:t="1762.12"/><a:ds a:t="1770.22"/><a:m a:x="544" a:y="186" a:t="1779.04"/><a:ds a:t="1788.64"/><a:m a:x="551" a:y="186" a:t="1800.03"/><a:ds a:t="1803.56"/><a:m a:x="555" a:y="186" a:t="1815.2"/><a:m a:x="555" a:y="186" a:t="1820.43"/><a:ds a:t="1821.62"/><a:m a:x="555" a:y="189" a:t="2108.94"/><a:m a:x="555" a:y="202" a:t="2126.09"/><a:m a:x="555" a:y="227" a:t="2143.1"/><a:m a:x="555" a:y="253" a:t="2159.76"/><a:m a:x="556" a:y="277" a:t="2176.63"/><a:m a:x="561" a:y="294" a:t="2194.61"/><a:m a:x="565" a:y="303" a:t="2210.83"/><a:m a:x="567" a:y="311" a:t="2228.05"/><a:m a:x="570" a:y="316" a:t="2245.48"/><a:m a:x="572" a:y="317" a:t="2261.43"/><a:m a:x="572" a:y="319" a:t="2278.42"/><a:m a:x="573" a:y="319" a:t="2295.76"/><a:m a:x="574" a:y="320" a:t="2313.04"/><a:m a:x="574" a:y="321" a:t="2330.17"/><a:m a:x="575" a:y="323" a:t="2346.95"/><a:m a:x="575" a:y="324" a:t="2364.68"/><a:m a:x="575" a:y="325" a:t="2380.86"/><a:m a:x="575" a:y="326" a:t="2400.77"/><a:m a:x="575" a:y="326" a:t="2422.08"/><a:m a:x="575" a:y="327" a:t="2439.53"/><a:m a:x="572" a:y="331" a:t="2456.44"/><a:m a:x="569" a:y="334" a:t="2473.16"/><a:m a:x="566" a:y="337" a:t="2490.28"/><a:m a:x="564" a:y="340" a:t="2506.83"/><a:m a:x="563" a:y="342" a:t="2523.95"/><a:m a:x="562" a:y="343" a:t="2540.74"/><a:m a:x="562" a:y="344" a:t="2557.48"/><a:m a:x="562" a:y="345" a:t="2574.87"/><a:m a:x="562" a:y="346" a:t="2591.46"/><a:m a:x="560" a:y="348" a:t="2608.29"/><a:m a:x="560" a:y="349" a:t="2625.41"/><a:m a:x="560" a:y="351" a:t="2641.89"/><a:m a:x="560" a:y="352" a:t="2658.89"/><a:m a:x="559" a:y="354" a:t="2675.73"/><a:m a:x="559" a:y="356" a:t="2693.39"/><a:m a:x="559" a:y="357" a:t="2710.4"/><a:m a:x="559" a:y="358" a:t="2726.22"/><a:m a:x="559" a:y="359" a:t="2743.87"/><a:m a:x="559" a:y="360" a:t="2798.13"/><a:m a:x="559" a:y="360" a:t="2967.89"/><a:s a:d="6" a:u="px" a:t="2968.5"/><a:m a:x="559" a:y="355" a:t="3142.44"/><a:m a:x="559" a:y="344" a:t="3159.46"/><a:m a:x="559" a:y="330" a:t="3177.21"/><a:m a:x="555" a:y="313" a:t="3193.17"/><a:m a:x="550" a:y="296" a:t="3210.7"/><a:m a:x="543" a:y="285" a:t="3227.75"/><a:m a:x="535" a:y="278" a:t="3244.86"/><a:m a:x="528" a:y="273" a:t="3261.55"/><a:m a:x="522" a:y="271" a:t="3277.99"/><a:m a:x="516" a:y="271" a:t="3296.35"/><a:m a:x="513" a:y="271" a:t="3312.2"/><a:m a:x="509" a:y="271" a:t="3329.01"/><a:m a:x="507" a:y="271" a:t="3345.77"/><a:m a:x="506" a:y="270" a:t="3363.05"/><a:m a:x="505" a:y="270" a:t="3380.87"/><a:m a:x="505" a:y="270" a:t="3424.68"/></g><g a:type="path" a:t="3424.90" a:lastErase="0"><path fill="#fff" d="M 507.902,270 L 507.902,270 C 507.902,270 507.902,270.196 507.902,270 C 507.902,269.804 507.947,269.761 507.902,268.823 C 507.856,267.886 507.674,265.849 507.629,264.374 C 507.585,262.9 507.653,261.683 507.634,259.979 C 507.615,258.275 507.693,257.994 507.514,254.151 C 507.336,250.307 506.706,242.466 506.564,236.919 C 506.422,231.371 506.615,225.85 506.662,220.865 C 506.709,215.88 506.838,211.905 506.845,207.011 C 506.853,202.116 506.64,195.588 506.707,191.497 C 506.774,187.406 507.129,185.138 507.247,182.465 C 507.366,179.793 507.358,177.44 507.416,175.46 C 507.474,173.48 507.527,171.767 507.594,170.586 C 507.66,169.405 507.726,168.689 507.816,168.375 C 507.905,168.06 508.019,168.601 508.132,168.7 C 508.245,168.8 508.058,169.089 508.494,168.969 C 508.93,168.85 509.852,168.355 510.75,167.984 C 511.648,167.613 512.469,167.302 513.881,166.743 C 515.294,166.183 517.471,165.19 519.226,164.628 C 520.982,164.066 522.685,163.703 524.416,163.373 C 526.148,163.043 527.866,162.823 529.616,162.65 C 531.366,162.476 532.943,162.413 534.917,162.331 C 536.89,162.249 539.345,162.041 541.456,162.157 C 543.567,162.273 545.604,162.466 547.582,163.026 C 549.56,163.585 551.603,164.582 553.325,165.514 C 555.047,166.446 556.565,167.487 557.915,168.618 C 559.266,169.748 560.065,170.798 561.43,172.295 C 562.794,173.792 564.576,175.789 566.1,177.601 C 567.624,179.413 568.7,181.13 570.574,183.168 C 572.449,185.206 575.073,187.714 577.348,189.829 C 579.623,191.944 582.007,194.071 584.223,195.858 C 586.439,197.646 588.379,199.133 590.644,200.555 C 592.909,201.977 595.112,203.215 597.812,204.389 C 600.512,205.562 603.71,206.678 606.843,207.597 C 609.977,208.516 613.194,209.323 616.613,209.904 C 620.031,210.485 623.242,210.89 627.356,211.084 C 631.469,211.277 636.409,211.466 641.293,211.064 C 646.177,210.661 651.902,209.626 656.66,208.669 C 661.418,207.711 665.317,206.876 669.842,205.321 C 674.367,203.766 679.547,201.395 683.81,199.337 C 688.073,197.279 692.008,195.209 695.42,192.972 C 698.831,190.735 701.689,188.689 704.281,185.916 C 706.873,183.143 709.058,179.82 710.972,176.333 C 712.887,172.846 714.446,168.721 715.769,164.993 C 717.092,161.265 718.107,157.448 718.908,153.965 C 719.709,150.483 720.177,147.006 720.575,144.099 C 720.973,141.193 721.153,138.671 721.299,136.527 C 721.444,134.383 721.438,132.652 721.446,131.236 C 721.454,129.82 721.397,128.874 721.348,128.033 C 721.298,127.191 721.143,126.367 721.15,126.185 C 721.156,126.003 721.486,126.588 721.387,126.941 C 721.288,127.295 720.432,128.123 720.556,128.306 C 720.68,128.489 721.596,128.108 722.13,128.04 C 722.664,127.971 723.125,127.94 723.759,127.894 C 724.393,127.848 724.85,127.817 725.934,127.763 C 727.017,127.708 728.189,127.649 730.258,127.566 C 732.327,127.483 734.482,127.41 738.347,127.266 C 742.213,127.122 746.313,126.469 753.452,126.702 C 760.59,126.934 772.308,127.6 781.178,128.661 C 790.049,129.721 796.858,130.702 806.674,133.066 C 816.491,135.43 830.577,139.748 840.078,142.845 C 849.578,145.942 856.451,148.626 863.675,151.646 C 870.899,154.667 878.017,157.961 883.423,160.968 C 888.829,163.975 892.92,167.172 896.112,169.688 C 899.304,172.204 901.16,174.347 902.577,176.062 C 903.995,177.778 904.21,178.957 904.616,179.982 C 905.022,181.006 904.952,181.621 905.013,182.21 C 905.074,182.798 904.976,183.089 904.983,183.515 C 904.989,183.941 904.953,184.268 905.053,184.765 C 905.152,185.261 905.208,185.878 905.579,186.494 C 905.949,187.11 906.535,187.923 907.276,188.459 C 908.016,188.995 908.983,189.353 910.023,189.712 C 911.064,190.071 912.313,190.315 913.517,190.614 C 914.721,190.913 915.772,191.244 917.247,191.505 C 918.722,191.765 920.416,192.191 922.367,192.176 C 924.318,192.162 926.069,192.586 928.954,191.419 C 931.84,190.252 934.658,188.963 939.679,185.174 C 944.701,181.386 950.945,175.925 959.082,168.687 C 967.219,161.45 978.091,151.607 988.5,141.748 C 998.908,131.888 1010.65,120.333 1021.531,109.53 C 1032.411,98.727 1044.493,86.445 1053.782,76.932 C 1063.072,67.419 1071.122,59.084 1077.268,52.452 C 1083.414,45.82 1087.358,40.819 1090.659,37.141 C 1093.96,33.463 1095.696,31.945 1097.074,30.384 C 1098.453,28.823 1099.208,28.892 1098.931,27.774 C 1098.654,26.657 1096.468,24.207 1095.413,23.679 C 1094.357,23.152 1093.358,24.303 1092.598,24.608 C 1091.837,24.914 1091.331,25.25 1090.848,25.511 C 1090.365,25.772 1090.14,25.726 1089.699,26.175 C 1089.257,26.624 1088.525,27.531 1088.2,28.205 C 1087.875,28.879 1087.825,29.558 1087.75,30.219 C 1087.675,30.881 1087.679,30.993 1087.748,32.176 C 1087.817,33.359 1088.03,35.063 1088.165,37.319 C 1088.3,39.576 1088.434,42.39 1088.559,45.714 C 1088.683,49.038 1088.674,52.443 1088.913,57.264 C 1089.152,62.085 1089.497,67.913 1089.991,74.641 C 1090.486,81.368 1091.009,89.175 1091.881,97.631 C 1092.752,106.087 1093.924,115.289 1095.22,125.376 C 1096.516,135.463 1098.229,147.246 1099.656,158.153 C 1101.083,169.061 1102.527,180.53 1103.782,190.822 C 1105.036,201.113 1106.21,211.093 1107.184,219.903 C 1108.158,228.714 1109.078,237.033 1109.625,243.687 C 1110.172,250.34 1110.313,255.294 1110.467,259.826 C 1110.621,264.358 1110.588,267.912 1110.548,270.88 C 1110.508,273.849 1110.386,275.814 1110.224,277.637 C 1110.063,279.461 1109.851,280.826 1109.577,281.819 C 1109.302,282.811 1108.848,283.29 1108.579,283.592 C 1108.309,283.895 1108.169,283.692 1107.959,283.633 C 1107.749,283.574 1108.046,283.309 1107.319,283.236 C 1106.592,283.163 1106.011,283.024 1103.597,283.196 C 1101.183,283.369 1097.631,283.693 1092.835,284.27 C 1088.038,284.848 1080.589,285.978 1074.82,286.663 C 1069.05,287.347 1068.393,287.432 1058.215,288.378 C 1048.038,289.323 1027.686,291.189 1013.753,292.335 C 999.819,293.481 988.666,294.445 974.614,295.254 C 960.562,296.063 944.559,296.707 929.441,297.191 C 914.324,297.674 898.859,298.18 883.909,298.155 C 868.96,298.13 853.696,297.946 839.744,297.041 C 825.792,296.136 810.976,294.153 800.198,292.724 C 789.42,291.295 781.631,290.03 775.075,288.469 C 768.519,286.909 764.063,284.893 760.862,283.359 C 757.661,281.825 756.679,280.269 755.868,279.267 C 755.056,278.265 755.797,277.613 755.994,277.347 C 756.192,277.081 756.797,277.568 757.053,277.668 C 757.31,277.767 757.37,277.873 757.532,277.944 C 757.694,278.015 758.048,278.019 758.025,278.094 C 758.002,278.17 757.405,278.19 757.395,278.397 C 757.385,278.603 757.561,278.754 757.966,279.333 C 758.372,279.913 759.072,280.875 759.827,281.876 C 760.582,282.876 761.634,284.237 762.498,285.339 C 763.361,286.441 763.906,287.433 765.007,288.488 C 766.109,289.543 767.578,290.775 769.106,291.669 C 770.634,292.562 771.504,293.649 774.173,293.849 C 776.843,294.049 779.055,294.746 785.12,292.87 C 791.186,290.995 797.307,287.949 810.568,282.596 C 823.828,277.243 843.972,268.958 864.684,260.752 C 885.395,252.546 909.598,242.528 934.835,233.359 C 960.072,224.191 989.884,214.103 1016.104,205.742 C 1042.324,197.38 1068.482,189.462 1092.155,183.19 C 1115.827,176.919 1138.692,171.982 1158.138,168.115 C 1177.585,164.248 1195.126,161.784 1208.835,159.989 C 1222.544,158.194 1232.239,157.681 1240.395,157.343 C 1248.551,157.005 1253.761,157.486 1257.771,157.962 C 1261.781,158.438 1263.58,159.772 1264.456,160.201 C 1265.332,160.629 1263.346,160.976 1263.028,160.532 C 1262.711,160.088 1262.815,158.11 1262.551,157.536 C 1262.288,156.963 1261.848,157.255 1261.448,157.09 C 1261.048,156.926 1260.412,156.718 1260.151,156.548 C 1259.891,156.378 1259.882,156.17 1259.886,156.071 C 1259.889,155.973 1260.09,155.983 1260.171,155.958 C 1260.252,155.933 1260.321,156.01 1260.372,155.922 C 1260.423,155.834 1260.436,155.655 1260.478,155.43 C 1260.519,155.205 1260.575,154.945 1260.621,154.573 C 1260.666,154.201 1260.735,153.94 1260.753,153.198 C 1260.771,152.456 1260.82,151.743 1260.727,150.121 C 1260.634,148.499 1260.458,146.607 1260.194,143.466 C 1259.93,140.325 1259.497,136.404 1259.143,131.274 C 1258.788,126.145 1258.352,119.843 1258.068,112.69 C 1257.785,105.537 1257.588,97.892 1257.441,88.358 C 1257.294,78.824 1257.244,64.973 1257.186,55.484 C 1257.128,45.995 1257.052,38.33 1257.093,31.422 C 1257.135,24.514 1257.323,18.663 1257.437,14.037 C 1257.551,9.411 1257.747,6.257 1257.778,3.667 C 1257.809,1.077 1257.823,-0.224 1257.623,-1.503 C 1257.422,-2.782 1257.649,-3.68 1256.574,-4.009 C 1255.498,-4.338 1252.497,-4.375 1251.17,-3.479 C 1249.842,-2.583 1249.487,-0.182 1248.609,1.368 C 1247.732,2.919 1247.196,3.852 1245.905,5.824 C 1244.615,7.795 1243.125,10.505 1240.866,13.199 C 1238.607,15.893 1235.274,19.247 1232.351,21.99 C 1229.428,24.732 1226.775,26.981 1223.327,29.655 C 1219.879,32.33 1215.998,35.058 1211.661,38.038 C 1207.325,41.017 1201.7,44.726 1197.308,47.534 C 1192.915,50.342 1188.463,52.911 1185.309,54.884 C 1182.155,56.857 1180.503,57.707 1178.385,59.372 C 1176.267,61.038 1173.92,63.488 1172.598,64.876 C 1171.276,66.265 1170.849,66.37 1170.453,67.7 C 1170.057,69.031 1170.098,70.635 1170.224,72.858 C 1170.349,75.082 1170.862,77.54 1171.207,81.043 C 1171.551,84.546 1171.773,88.198 1172.293,93.876 C 1172.814,99.554 1173.393,106.362 1174.328,115.113 C 1175.264,123.864 1176.509,135.646 1177.909,146.38 C 1179.309,157.114 1180.941,168.42 1182.727,179.517 C 1184.514,190.613 1186.706,202.962 1188.628,212.958 C 1190.549,222.954 1192.418,231.636 1194.256,239.493 C 1196.094,247.35 1198.332,254.926 1199.656,260.102 C 1200.98,265.277 1201.467,268.021 1202.199,270.545 C 1202.931,273.069 1203.306,274.12 1204.049,275.245 C 1204.792,276.369 1205.526,277.201 1206.658,277.292 C 1207.79,277.383 1209.894,276.314 1210.841,275.79 C 1211.788,275.267 1211.872,274.551 1212.34,274.149 C 1212.809,273.748 1213.057,273.727 1213.65,273.383 C 1214.244,273.04 1214.871,272.62 1215.901,272.088 C 1216.93,271.557 1218.194,270.929 1219.828,270.195 C 1221.462,269.461 1223.491,268.532 1225.706,267.685 C 1227.921,266.837 1230.552,265.943 1233.116,265.113 C 1235.679,264.282 1238.167,263.606 1241.087,262.703 C 1244.007,261.8 1247.798,260.54 1250.637,259.696 C 1253.476,258.852 1255.554,258.521 1258.121,257.639 C 1260.688,256.757 1263.327,255.732 1266.04,254.403 C 1268.752,253.074 1271.442,251.557 1274.394,249.665 C 1277.347,247.774 1280.68,245.571 1283.756,243.054 C 1286.832,240.538 1290.106,237.457 1292.85,234.567 C 1295.594,231.677 1298.014,229.04 1300.221,225.715 C 1302.429,222.39 1304.399,218.753 1306.097,214.616 C 1307.795,210.48 1309.231,206.203 1310.408,200.898 C 1311.585,195.592 1312.376,189.449 1313.158,182.783 C 1313.94,176.117 1314.541,167.46 1315.102,160.902 C 1315.663,154.345 1316.208,149.402 1316.522,143.44 C 1316.837,137.477 1316.783,129.838 1316.987,125.129 C 1317.191,120.42 1317.578,117.736 1317.747,115.188 C 1317.917,112.639 1318.009,111.185 1318.004,109.838 C 1318,108.49 1318.192,107.966 1317.72,107.103 C 1317.248,106.24 1316.177,104.93 1315.171,104.659 C 1314.166,104.388 1312.556,105.21 1311.688,105.477 C 1310.82,105.744 1310.725,106.028 1309.961,106.262 C 1309.197,106.496 1308.134,106.722 1307.105,106.879 C 1306.076,107.035 1305.195,107.094 1303.787,107.201 C 1302.379,107.309 1300.518,107.451 1298.658,107.525 C 1296.798,107.599 1294.929,107.605 1292.625,107.647 C 1290.321,107.688 1288.721,107.652 1284.835,107.774 C 1280.948,107.896 1276.853,108.199 1269.307,108.377 C 1261.761,108.556 1251.709,108.77 1239.56,108.843 C 1227.41,108.916 1213.323,108.822 1196.409,108.815 C 1179.495,108.807 1156.118,108.844 1138.078,108.798 C 1120.037,108.752 1105.274,109.116 1088.165,108.537 C 1071.055,107.957 1050.631,106.796 1035.418,105.322 C 1020.205,103.848 1007.729,101.873 996.885,99.693 C 986.041,97.514 977.312,94.738 970.353,92.245 C 963.395,89.751 960.069,87.441 955.131,84.735 C 950.194,82.028 946.017,79.079 940.728,76.004 C 935.439,72.93 928.916,69.281 923.396,66.29 C 917.876,63.3 912.669,60.38 907.607,58.061 C 902.545,55.741 898.357,53.994 893.024,52.373 C 887.69,50.752 881.384,49.445 875.605,48.335 C 869.825,47.225 863.592,46.403 858.346,45.714 C 853.101,45.026 849.181,44.52 844.131,44.205 C 839.081,43.89 833.348,43.905 828.046,43.825 C 822.745,43.744 816.987,43.766 812.323,43.722 C 807.659,43.678 803.856,43.581 800.063,43.563 C 796.269,43.546 792.435,43.636 789.561,43.616 C 786.687,43.597 784.946,43.419 782.818,43.446 C 780.69,43.474 778.612,43.63 776.793,43.78 C 774.975,43.931 773.539,44.118 771.908,44.351 C 770.278,44.584 768.778,44.78 767.011,45.179 C 765.244,45.579 763.379,46.014 761.305,46.748 C 759.231,47.483 757.022,48.164 754.566,49.586 C 752.11,51.009 749.549,52.883 746.569,55.282 C 743.59,57.681 740.219,60.78 736.691,63.98 C 733.163,67.181 729.111,70.994 725.402,74.485 C 721.692,77.977 717.972,81.672 714.433,84.927 C 710.895,88.183 707.641,91.323 704.168,94.019 C 700.696,96.714 697.307,99.12 693.598,101.101 C 689.89,103.081 687.237,104.504 681.918,105.902 C 676.599,107.3 670.087,108.571 661.683,109.49 C 653.278,110.408 642.395,110.897 631.492,111.414 C 620.589,111.931 607.425,112.263 596.267,112.592 C 585.109,112.922 574.886,113.176 564.544,113.389 C 554.201,113.601 542.767,113.768 534.211,113.867 C 525.655,113.966 519.336,114.037 513.209,113.985 C 507.082,113.932 501.847,113.75 497.448,113.551 C 493.05,113.351 489.737,113.119 486.818,112.787 C 483.899,112.456 481.797,112.072 479.933,111.561 C 478.069,111.05 476.766,110.325 475.634,109.722 C 474.503,109.12 473.736,108.494 473.144,107.948 C 472.553,107.401 472.356,106.933 472.087,106.445 C 471.817,105.958 471.655,105.565 471.529,105.022 C 471.403,104.48 471.425,104.007 471.332,103.191 C 471.239,102.376 471.177,101.343 470.97,100.129 C 470.763,98.915 470.37,97.22 470.089,95.909 C 469.807,94.597 469.581,93.35 469.28,92.259 C 468.979,91.168 468.849,90.457 468.281,89.362 C 467.714,88.267 466.805,86.851 465.875,85.69 C 464.945,84.529 463.621,83.29 462.701,82.397 C 461.781,81.505 461.166,80.954 460.357,80.333 C 459.548,79.711 458.656,79.163 457.848,78.668 C 457.04,78.173 456.268,77.761 455.509,77.363 C 454.75,76.965 453.949,76.581 453.294,76.281 C 452.639,75.981 452.088,75.754 451.578,75.564 C 451.069,75.374 450.829,75.187 450.238,75.138 C 449.646,75.09 448.76,74.835 448.028,75.272 C 447.295,75.71 446.222,76.976 445.844,77.764 C 445.466,78.552 445.75,79.342 445.758,80 C 445.766,80.657 445.833,80.959 445.892,81.71 C 445.951,82.461 446.057,83.505 446.111,84.506 C 446.166,85.508 446.274,86.565 446.218,87.72 C 446.163,88.876 446.029,90.05 445.778,91.439 C 445.527,92.829 445.22,94.418 444.714,96.057 C 444.207,97.697 443.696,99.145 442.74,101.278 C 441.785,103.411 440.38,106.288 438.982,108.854 C 437.583,111.421 435.983,114.101 434.349,116.675 C 432.715,119.249 430.739,121.992 429.176,124.298 C 427.614,126.605 426.165,128.723 424.973,130.515 C 423.781,132.307 422.796,133.864 422.024,135.051 C 421.252,136.238 420.712,137.124 420.34,137.638 C 419.968,138.152 418.939,137.629 419.792,138.133 C 420.645,138.637 424.183,140.433 425.458,140.663 C 426.733,140.894 426.469,139.999 427.441,139.514 C 428.413,139.029 429.665,138.35 431.288,137.752 C 432.91,137.154 434.871,136.434 437.175,135.928 C 439.479,135.422 441.966,135.05 445.112,134.716 C 448.259,134.382 451.742,134.144 456.056,133.926 C 460.371,133.709 465.525,133.486 470.999,133.409 C 476.473,133.333 483.246,133.368 488.901,133.47 C 494.556,133.572 499.8,133.759 504.93,134.021 C 510.059,134.284 515.308,134.643 519.677,135.044 C 524.046,135.446 527.845,135.998 531.144,136.43 C 534.443,136.863 537.308,137.291 539.47,137.639 C 541.632,137.988 542.922,138.34 544.117,138.521 C 545.312,138.703 545.692,139.319 546.64,138.728 C 547.589,138.137 549.355,136.353 549.807,134.975 C 550.258,133.598 549.563,132.164 549.35,130.463 C 549.136,128.761 548.8,127.281 548.524,124.767 C 548.248,122.253 547.996,119.771 547.692,115.378 C 547.387,110.984 546.854,104.18 546.695,98.407 C 546.535,92.633 546.531,86.429 546.735,80.735 C 546.938,75.041 547.441,69.396 547.914,64.244 C 548.387,59.091 548.987,53.86 549.573,49.821 C 550.159,45.781 550.885,42.547 551.431,40.005 C 551.977,37.463 552.455,35.731 552.849,34.57 C 553.244,33.409 554.201,32.966 553.797,33.039 C 553.392,33.113 551.006,34.544 550.421,35.013 C 549.837,35.481 550.215,35.299 550.29,35.85 C 550.365,36.401 550.655,37.408 550.868,38.32 C 551.082,39.233 551.385,40.442 551.57,41.326 C 551.754,42.21 551.811,42.891 551.978,43.624 C 552.145,44.356 552.402,45.136 552.57,45.721 C 552.738,46.306 552.769,46.639 552.985,47.134 C 553.201,47.629 553.4,48.21 553.865,48.69 C 554.331,49.17 554.981,49.76 555.778,50.013 C 556.575,50.267 557.495,50.18 558.649,50.212 C 559.802,50.244 560.777,50.128 562.701,50.204 C 564.626,50.279 567.118,50.415 570.195,50.665 C 573.272,50.916 577.201,51.31 581.163,51.706 C 585.125,52.102 589.659,52.582 593.967,53.042 C 598.274,53.502 603.197,54.008 607.008,54.467 C 610.819,54.926 614.07,55.444 616.834,55.795 C 619.597,56.146 621.708,56.339 623.59,56.574 C 625.472,56.808 626.97,56.98 628.128,57.203 C 629.285,57.426 630.13,57.724 630.534,57.91 C 630.937,58.097 630.737,58.41 630.55,58.323 C 630.362,58.236 629.636,57.371 629.408,57.389 C 629.18,57.406 629.278,57.835 629.181,58.426 C 629.084,59.016 628.979,60.043 628.826,60.932 C 628.673,61.82 628.477,62.638 628.263,63.759 C 628.049,64.879 627.854,66.287 627.543,67.655 C 627.231,69.023 626.802,70.456 626.392,71.965 C 625.983,73.474 625.503,74.885 625.084,76.709 C 624.666,78.533 624.219,80.66 623.879,82.91 C 623.539,85.161 623.254,87.647 623.044,90.21 C 622.835,92.773 622.721,95.565 622.624,98.288 C 622.526,101.011 622.492,103.853 622.458,106.549 C 622.424,109.245 622.424,111.93 622.42,114.463 C 622.415,116.995 622.432,119.509 622.43,121.744 C 622.428,123.98 622.421,126.054 622.409,127.874 C 622.397,129.694 622.423,131.321 622.357,132.664 C 622.29,134.006 622.132,135.041 622.01,135.93 C 621.887,136.82 621.769,137.604 621.623,137.999 C 621.478,138.393 621.235,138.313 621.137,138.298 C 621.039,138.283 621.136,138.008 621.035,137.91 C 620.935,137.812 620.946,137.751 620.535,137.709 C 620.123,137.667 619.3,137.693 618.569,137.66 C 617.837,137.627 616.849,137.569 616.146,137.51 C 615.444,137.452 614.873,137.43 614.355,137.308 C 613.837,137.187 613.549,137.013 613.037,136.78 C 612.525,136.547 611.819,136.233 611.281,135.909 C 610.742,135.586 610.282,135.212 609.806,134.838 C 609.33,134.464 608.843,134.01 608.424,133.668 A 2.899,2.899 -4.1023663021234835 0,0 603.969,137.534 C 605.267,138.361 605.931,138.972 606.593,139.456 C 607.255,139.941 608.038,140.506 608.803,140.949 C 609.568,141.391 610.337,141.774 611.185,142.113 C 612.033,142.452 613.127,142.821 613.892,142.982 C 614.657,143.144 615.03,143.033 615.774,143.08 C 616.517,143.128 617.472,143.213 618.353,143.266 C 619.234,143.318 620.118,143.461 621.061,143.396 C 622.003,143.331 623.165,143.247 624.005,142.877 C 624.845,142.506 625.569,141.863 626.1,141.175 C 626.632,140.487 626.976,139.557 627.195,138.747 C 627.414,137.936 627.353,137.336 627.413,136.311 C 627.474,135.287 627.562,134.016 627.558,132.6 C 627.554,131.184 627.445,129.63 627.389,127.814 C 627.332,125.998 627.267,123.928 627.22,121.704 C 627.173,119.48 627.13,116.979 627.109,114.47 C 627.088,111.961 627.064,109.303 627.095,106.652 C 627.125,104.002 627.173,101.208 627.293,98.567 C 627.414,95.925 627.575,93.243 627.818,90.805 C 628.06,88.366 628.373,86.05 628.749,83.934 C 629.124,81.818 629.625,79.869 630.071,78.109 C 630.517,76.348 630.974,74.935 631.425,73.371 C 631.876,71.808 632.407,70.141 632.776,68.73 C 633.146,67.318 633.382,66.051 633.641,64.904 C 633.9,63.756 634.14,62.762 634.332,61.844 C 634.525,60.927 634.655,60.225 634.797,59.399 C 634.94,58.573 635.346,57.86 635.186,56.887 C 635.026,55.914 634.413,54.292 633.837,53.563 C 633.26,52.833 632.594,52.77 631.73,52.509 C 630.865,52.249 629.943,52.135 628.647,52.002 C 627.352,51.868 625.85,51.797 623.959,51.709 C 622.067,51.62 620.055,51.643 617.3,51.471 C 614.545,51.299 611.243,51.051 607.428,50.675 C 603.614,50.298 598.706,49.727 594.412,49.211 C 590.117,48.695 585.619,48.121 581.662,47.58 C 577.705,47.038 573.786,46.41 570.668,45.963 C 567.549,45.516 564.933,45.14 562.949,44.897 C 560.965,44.654 559.565,44.549 558.763,44.505 C 557.961,44.461 558.152,44.493 558.135,44.633 C 558.118,44.774 558.604,45.226 558.659,45.348 C 558.715,45.47 558.577,45.585 558.467,45.367 C 558.357,45.148 558.165,44.513 557.998,44.037 C 557.831,43.56 557.646,43.164 557.465,42.508 C 557.285,41.852 557.121,41.002 556.916,40.099 C 556.712,39.196 556.474,38.139 556.238,37.092 C 556.002,36.044 555.941,34.976 555.501,33.814 C 555.062,32.653 554.759,30.59 553.6,30.122 C 552.441,29.654 549.499,30.422 548.547,31.005 C 547.596,31.587 548.121,32.223 547.889,33.616 C 547.657,35.009 547.468,36.723 547.156,39.363 C 546.845,42.002 546.432,45.343 546.021,49.455 C 545.611,53.566 545.081,58.821 544.692,64.032 C 544.303,69.242 543.879,74.978 543.687,80.719 C 543.495,86.46 543.605,92.659 543.539,98.476 C 543.474,104.293 543.296,111.145 543.292,115.62 C 543.288,120.096 543.401,122.755 543.514,125.328 C 543.626,127.901 543.839,129.694 543.967,131.059 C 544.095,132.424 543.848,133.18 544.282,133.519 C 544.716,133.857 546.494,133.118 546.572,133.09 C 546.65,133.062 545.85,133.353 544.752,133.35 C 543.655,133.348 542.19,133.236 539.987,133.075 C 537.785,132.914 534.886,132.643 531.537,132.384 C 528.189,132.126 524.318,131.806 519.897,131.525 C 515.476,131.244 510.169,130.874 505.011,130.697 C 499.854,130.52 494.628,130.593 488.952,130.462 C 483.275,130.332 476.471,130.026 470.953,129.914 C 465.435,129.803 460.253,129.752 455.843,129.792 C 451.433,129.832 447.829,129.92 444.493,130.154 C 441.157,130.388 438.371,130.735 435.828,131.197 C 433.285,131.659 431.087,132.34 429.237,132.927 C 427.386,133.513 425.998,134.129 424.727,134.717 C 423.456,135.304 421.622,135.342 421.611,136.452 C 421.599,137.563 424.068,140.73 424.655,141.378 C 425.242,142.026 424.84,140.953 425.131,140.339 C 425.421,139.726 425.757,138.902 426.397,137.695 C 427.037,136.488 427.894,134.913 428.97,133.097 C 430.046,131.28 431.315,129.151 432.851,126.796 C 434.386,124.441 436.491,121.602 438.182,118.966 C 439.873,116.329 441.459,113.623 442.998,110.978 C 444.536,108.332 446.291,105.377 447.413,103.094 C 448.535,100.81 449.125,99.105 449.73,97.277 C 450.334,95.449 450.717,93.738 451.041,92.124 C 451.365,90.51 451.575,88.9 451.673,87.593 C 451.771,86.287 451.638,85.327 451.628,84.285 C 451.619,83.244 451.631,82.074 451.618,81.345 C 451.605,80.615 451.582,80.19 451.55,79.908 C 451.518,79.627 451.742,79.484 451.426,79.656 C 451.109,79.827 450.113,80.761 449.652,80.939 C 449.19,81.117 448.67,80.724 448.658,80.724 C 448.646,80.723 449.211,80.835 449.578,80.937 C 449.945,81.039 450.314,81.113 450.858,81.336 C 451.402,81.559 452.181,81.947 452.841,82.277 C 453.502,82.607 454.15,82.926 454.819,83.316 C 455.489,83.706 456.181,84.147 456.86,84.615 C 457.54,85.084 458.145,85.464 458.896,86.127 C 459.647,86.79 460.665,87.722 461.366,88.592 C 462.066,89.463 462.655,90.536 463.098,91.35 C 463.542,92.165 463.732,92.549 464.027,93.478 C 464.321,94.407 464.613,95.721 464.865,96.924 C 465.117,98.127 465.374,99.507 465.537,100.695 C 465.701,101.884 465.688,102.922 465.845,104.056 C 466.002,105.19 466.136,106.492 466.479,107.501 C 466.822,108.511 467.268,109.275 467.902,110.114 C 468.536,110.953 469.293,111.798 470.284,112.534 C 471.274,113.271 472.344,113.903 473.846,114.534 C 475.348,115.165 477.157,115.908 479.296,116.319 C 481.436,116.73 483.658,116.901 486.683,117.001 C 489.709,117.102 493.025,117.009 497.449,116.922 C 501.873,116.836 507.095,116.592 513.229,116.483 C 519.362,116.373 525.687,116.382 534.249,116.267 C 542.812,116.151 554.254,116 564.604,115.788 C 574.954,115.575 585.175,115.321 596.347,114.991 C 607.52,114.661 620.691,114.314 631.641,113.809 C 642.591,113.304 653.422,112.69 662.046,111.962 C 670.67,111.233 677.766,110.722 683.384,109.441 C 689.003,108.16 691.878,106.386 695.755,104.275 C 699.633,102.163 703.134,99.578 706.648,96.773 C 710.162,93.968 713.328,90.736 716.839,87.447 C 720.35,84.157 723.993,80.456 727.714,77.035 C 731.435,73.614 735.6,69.935 739.165,66.92 C 742.73,63.904 746.232,61.085 749.102,58.943 C 751.973,56.8 754.138,55.283 756.388,54.065 C 758.638,52.847 760.689,52.262 762.602,51.634 C 764.514,51.005 766.192,50.646 767.862,50.293 C 769.533,49.939 771.079,49.764 772.623,49.512 C 774.168,49.26 775.413,48.98 777.129,48.782 C 778.846,48.584 780.836,48.475 782.921,48.323 C 785.006,48.171 786.778,48.001 789.642,47.868 C 792.506,47.735 796.327,47.651 800.104,47.524 C 803.882,47.398 807.668,47.17 812.306,47.109 C 816.945,47.048 822.686,47.038 827.937,47.158 C 833.188,47.277 838.823,47.553 843.814,47.825 C 848.806,48.098 852.706,48.213 857.885,48.793 C 863.064,49.373 869.231,50.174 874.887,51.304 C 880.543,52.434 886.598,53.996 891.821,55.574 C 897.045,57.152 901.189,58.599 906.227,60.774 C 911.265,62.95 916.574,65.635 922.051,68.625 C 927.529,71.614 933.799,75.554 939.091,78.713 C 944.384,81.872 948.704,84.941 953.807,87.581 C 958.909,90.222 962.584,92.141 969.706,94.555 C 976.828,96.97 985.611,99.874 996.539,102.068 C 1007.466,104.262 1020.003,106.239 1035.272,107.717 C 1050.541,109.196 1071.018,110.357 1088.152,110.937 C 1105.286,111.517 1120.034,111.152 1138.077,111.198 C 1156.119,111.244 1179.494,111.207 1196.407,111.215 C 1213.321,111.222 1227.408,111.147 1239.556,111.243 C 1251.705,111.339 1261.753,111.585 1269.298,111.79 C 1276.843,111.994 1280.93,112.331 1284.825,112.471 C 1288.721,112.611 1290.335,112.602 1292.671,112.629 C 1295.007,112.657 1296.902,112.646 1298.843,112.638 C 1300.784,112.629 1302.767,112.651 1304.317,112.577 C 1305.868,112.503 1306.839,112.38 1308.145,112.195 C 1309.451,112.011 1311.128,111.731 1312.153,111.47 C 1313.178,111.208 1314.11,110.837 1314.294,110.626 C 1314.478,110.416 1313.603,110.596 1313.258,110.205 C 1312.913,109.815 1312.284,108.324 1312.222,108.283 C 1312.16,108.243 1312.689,108.817 1312.885,109.963 C 1313.081,111.109 1313.208,112.646 1313.4,115.16 C 1313.591,117.673 1314.026,120.362 1314.032,125.043 C 1314.039,129.725 1313.659,137.314 1313.44,143.25 C 1313.22,149.186 1313.253,154.153 1312.714,160.658 C 1312.176,167.164 1311.174,175.765 1310.209,182.283 C 1309.244,188.802 1308.195,194.692 1306.925,199.769 C 1305.655,204.847 1304.239,208.858 1302.59,212.747 C 1300.941,216.636 1299.103,219.951 1297.03,223.101 C 1294.956,226.251 1292.75,228.89 1290.149,231.649 C 1287.548,234.407 1284.409,237.299 1281.422,239.654 C 1278.435,242.01 1275.077,244.037 1272.226,245.782 C 1269.375,247.528 1266.892,248.903 1264.315,250.128 C 1261.738,251.353 1259.251,252.229 1256.764,253.132 C 1254.277,254.035 1252.224,254.687 1249.392,255.547 C 1246.56,256.407 1242.729,257.438 1239.773,258.294 C 1236.817,259.149 1234.301,259.876 1231.653,260.68 C 1229.005,261.483 1226.208,262.327 1223.884,263.116 C 1221.56,263.904 1219.488,264.722 1217.71,265.411 C 1215.931,266.1 1214.399,266.707 1213.214,267.247 C 1212.03,267.787 1211.443,268.142 1210.604,268.649 C 1209.764,269.156 1208.769,269.817 1208.177,270.288 C 1207.585,270.758 1206.932,271.186 1207.054,271.473 C 1207.177,271.761 1208.643,271.782 1208.914,272.011 C 1209.185,272.239 1209.132,273.311 1208.681,272.844 C 1208.231,272.377 1207.318,271.437 1206.21,269.209 C 1205.102,266.981 1203.635,264.511 1202.033,259.475 C 1200.432,254.439 1198.444,246.817 1196.604,238.995 C 1194.763,231.173 1192.908,222.512 1190.991,212.541 C 1189.074,202.57 1186.885,190.243 1185.102,179.171 C 1183.319,168.099 1181.682,156.811 1180.293,146.109 C 1178.905,135.407 1177.466,123.699 1176.773,114.959 C 1176.08,106.22 1176.287,99.385 1176.133,93.672 C 1175.979,87.96 1175.941,84.161 1175.85,80.683 C 1175.76,77.206 1175.684,74.526 1175.591,72.809 C 1175.498,71.091 1175.245,71.135 1175.292,70.379 C 1175.339,69.623 1174.899,69.485 1175.875,68.273 C 1176.851,67.062 1179.245,64.83 1181.145,63.112 C 1183.045,61.393 1184.302,60.123 1187.277,57.964 C 1190.252,55.805 1194.591,52.991 1198.995,50.159 C 1203.4,47.326 1209.215,43.879 1213.704,40.968 C 1218.194,38.058 1222.368,35.395 1225.933,32.694 C 1229.498,29.994 1232.004,27.571 1235.095,24.764 C 1238.186,21.957 1241.956,18.556 1244.478,15.851 C 1247,13.146 1248.763,10.534 1250.226,8.534 C 1251.689,6.533 1252.488,5.113 1253.257,3.846 C 1254.025,2.578 1255.06,1.668 1254.836,0.926 C 1254.612,0.184 1252.304,-0.305 1251.912,-0.608 C 1251.52,-0.911 1252.219,-1.621 1252.484,-0.891 C 1252.749,-0.162 1253.191,1.281 1253.499,3.77 C 1253.808,6.258 1254.136,9.428 1254.335,14.039 C 1254.534,18.649 1254.618,24.521 1254.694,31.431 C 1254.769,38.342 1254.728,46.009 1254.786,55.503 C 1254.844,64.997 1254.976,78.85 1255.041,88.396 C 1255.106,97.941 1255.154,105.596 1255.177,112.773 C 1255.2,119.951 1255.164,126.316 1255.18,131.461 C 1255.197,136.606 1255.273,140.562 1255.277,143.642 C 1255.282,146.722 1255.254,148.448 1255.207,149.939 C 1255.159,151.429 1255.049,151.961 1254.992,152.583 C 1254.934,153.204 1254.912,153.293 1254.862,153.667 C 1254.811,154.041 1254.736,154.362 1254.687,154.828 C 1254.639,155.294 1254.525,155.851 1254.571,156.464 C 1254.618,157.077 1254.673,157.818 1254.967,158.508 C 1255.261,159.197 1255.767,160.031 1256.334,160.602 C 1256.901,161.172 1257.616,161.589 1258.369,161.928 C 1259.122,162.268 1259.787,162.505 1260.852,162.638 C 1261.918,162.772 1263.537,163.493 1264.762,162.731 C 1265.987,161.969 1268.098,159.27 1268.204,158.066 C 1268.31,156.863 1267.13,156.038 1265.399,155.507 C 1263.668,154.976 1262.02,154.972 1257.819,154.88 C 1253.618,154.787 1248.421,154.494 1240.194,154.951 C 1231.967,155.408 1222.22,155.815 1208.455,157.619 C 1194.69,159.423 1177.101,161.897 1157.604,165.775 C 1138.107,169.654 1115.184,174.607 1091.472,180.889 C 1067.761,187.172 1041.584,195.097 1015.332,203.469 C 989.08,211.842 959.22,221.947 933.962,231.124 C 908.704,240.3 884.489,250.323 863.785,258.527 C 843.082,266.73 822.91,275.344 809.743,280.342 C 796.576,285.341 790.379,287.066 784.784,288.518 C 779.188,289.97 778.248,289.22 776.168,289.054 C 774.088,288.887 773.471,288.174 772.303,287.519 C 771.136,286.864 770.09,286.012 769.163,285.123 C 768.235,284.233 767.549,283.237 766.74,282.181 C 765.93,281.125 765.037,279.852 764.308,278.789 C 763.578,277.727 763.047,276.715 762.363,275.807 C 761.679,274.898 761.044,273.909 760.203,273.339 C 759.361,272.769 758.204,272.459 757.312,272.386 C 756.421,272.314 755.705,272.497 754.856,272.905 C 754.007,273.314 752.88,273.779 752.216,274.838 C 751.553,275.897 750.703,277.84 750.876,279.26 C 751.048,280.68 751.763,282.127 753.252,283.359 C 754.741,284.591 756.239,285.405 759.81,286.651 C 763.38,287.897 767.987,289.426 774.675,290.836 C 781.363,292.246 789.103,293.676 799.938,295.11 C 810.772,296.544 825.68,298.533 839.684,299.44 C 853.687,300.348 868.983,300.53 883.96,300.555 C 898.937,300.58 914.405,300.073 929.544,299.589 C 944.683,299.104 960.726,298.458 974.793,297.647 C 988.859,296.837 999.981,295.739 1013.944,294.727 C 1027.906,293.716 1048.374,292.428 1058.569,291.579 C 1068.763,290.731 1069.364,290.15 1075.111,289.638 C 1080.858,289.126 1088.345,288.697 1093.053,288.507 C 1097.76,288.317 1100.875,288.443 1103.359,288.497 C 1105.843,288.551 1106.563,288.925 1107.957,288.831 C 1109.35,288.736 1110.762,288.455 1111.72,287.932 C 1112.678,287.409 1113.191,286.623 1113.705,285.695 C 1114.218,284.767 1114.57,283.711 1114.8,282.364 C 1115.03,281.017 1115.102,279.559 1115.084,277.613 C 1115.067,275.668 1114.914,273.699 1114.693,270.691 C 1114.472,267.682 1114.206,264.104 1113.759,259.562 C 1113.313,255.02 1112.711,250.098 1112.013,243.442 C 1111.314,236.785 1110.542,228.445 1109.567,219.625 C 1108.592,210.804 1107.418,200.82 1106.163,190.521 C 1104.907,180.222 1103.461,168.737 1102.034,157.831 C 1100.608,146.926 1098.896,135.149 1097.603,125.089 C 1096.309,115.029 1095.026,105.897 1094.275,97.471 C 1093.525,89.046 1093.313,81.241 1093.098,74.534 C 1092.883,67.827 1092.976,62.046 1092.985,57.232 C 1092.995,52.418 1093.101,48.987 1093.155,45.65 C 1093.209,42.312 1093.253,39.461 1093.311,37.206 C 1093.37,34.952 1093.477,33.128 1093.505,32.121 C 1093.532,31.114 1093.49,31.378 1093.474,31.163 C 1093.459,30.948 1093.523,30.843 1093.411,30.83 C 1093.299,30.818 1092.782,31.135 1092.805,31.09 C 1092.827,31.045 1093.227,30.758 1093.545,30.559 C 1093.864,30.361 1094.437,30.078 1094.718,29.901 C 1094.999,29.724 1095.372,30.235 1095.231,29.497 C 1095.089,28.758 1094.15,25.777 1093.87,25.469 C 1093.589,25.16 1094.411,25.986 1093.546,27.646 C 1092.681,29.305 1091.679,31.57 1088.678,35.427 C 1085.676,39.285 1081.636,44.154 1075.536,50.79 C 1069.436,57.426 1061.357,65.74 1052.076,75.244 C 1042.796,84.748 1030.721,97.023 1019.855,107.812 C 1008.989,118.601 997.257,130.145 986.879,139.978 C 976.501,149.811 965.784,159.873 957.587,166.81 C 949.391,173.746 942.565,178.322 937.698,181.595 C 932.83,184.868 930.812,185.537 928.383,186.446 C 925.954,187.355 924.764,187.075 923.124,187.049 C 921.485,187.023 919.898,186.568 918.545,186.288 C 917.193,186.008 916.072,185.674 915.009,185.371 C 913.947,185.068 912.808,184.667 912.172,184.471 C 911.536,184.275 911.383,184.199 911.194,184.196 C 911.004,184.194 911.096,184.454 911.034,184.455 C 910.971,184.456 910.883,184.447 910.819,184.203 C 910.755,183.959 910.739,183.592 910.649,182.991 C 910.559,182.391 910.563,181.574 910.278,180.6 C 909.993,179.627 909.734,178.464 908.939,177.15 C 908.144,175.836 907.338,174.439 905.506,172.716 C 903.675,170.994 901.458,169.135 897.948,166.815 C 894.438,164.495 890.019,161.7 884.447,158.798 C 878.875,155.895 871.796,152.44 864.514,149.398 C 857.231,146.355 850.323,143.658 840.751,140.542 C 831.18,137.426 816.975,133.08 807.082,130.701 C 797.189,128.323 790.331,127.517 781.394,126.27 C 772.456,125.023 760.63,123.828 753.456,123.219 C 746.282,122.61 742.223,122.77 738.351,122.617 C 734.48,122.465 732.332,122.379 730.226,122.303 C 728.12,122.226 726.89,122.175 725.715,122.161 C 724.539,122.146 723.9,122.17 723.172,122.214 C 722.443,122.258 722.044,122.343 721.345,122.426 C 720.646,122.509 719.867,122.335 718.976,122.711 C 718.086,123.086 716.578,123.936 715.999,124.681 C 715.421,125.426 715.528,126.54 715.506,127.179 C 715.484,127.818 715.737,127.831 715.869,128.516 C 716.001,129.201 716.184,130.006 716.297,131.287 C 716.41,132.568 716.553,134.177 716.546,136.201 C 716.539,138.224 716.524,140.652 716.254,143.428 C 715.984,146.205 715.623,149.528 714.926,152.86 C 714.229,156.192 713.3,159.902 712.072,163.422 C 710.844,166.942 709.299,170.766 707.558,173.979 C 705.817,177.192 703.964,180.091 701.628,182.702 C 699.291,185.312 696.732,187.407 693.536,189.64 C 690.34,191.873 686.562,194.093 682.451,196.1 C 678.34,198.108 673.255,200.158 668.871,201.682 C 664.487,203.207 660.735,204.303 656.15,205.248 C 651.564,206.193 646.074,207.083 641.356,207.353 C 636.637,207.623 631.792,207.152 627.837,206.868 C 623.883,206.585 620.872,206.23 617.629,205.654 C 614.386,205.078 611.312,204.314 608.377,203.413 C 605.443,202.511 602.522,201.362 600.021,200.246 C 597.52,199.129 595.511,198.01 593.371,196.713 C 591.231,195.415 589.323,194.13 587.182,192.462 C 585.041,190.794 582.67,188.756 580.526,186.705 C 578.381,184.654 576.108,182.192 574.313,180.158 C 572.517,178.124 571.3,176.406 569.753,174.503 C 568.205,172.599 566.549,170.417 565.029,168.736 C 563.509,167.054 562.269,165.694 560.633,164.413 C 558.997,163.131 557.278,162.089 555.213,161.047 C 553.148,160.005 550.545,158.791 548.243,158.161 C 545.94,157.531 543.668,157.418 541.395,157.268 C 539.122,157.118 536.688,157.202 534.605,157.26 C 532.522,157.318 530.798,157.419 528.897,157.618 C 526.995,157.817 525.091,158.075 523.198,158.453 C 521.304,158.831 519.409,159.351 517.536,159.886 C 515.663,160.422 513.436,161.171 511.96,161.666 C 510.483,162.16 509.709,162.47 508.677,162.852 C 507.644,163.233 506.699,163.448 505.764,163.955 C 504.828,164.461 503.661,165.154 503.065,165.891 C 502.468,166.627 502.294,167.592 502.184,168.375 C 502.075,169.157 502.34,169.405 502.406,170.586 C 502.473,171.767 502.526,173.48 502.584,175.46 C 502.642,177.44 502.634,179.793 502.753,182.465 C 502.871,185.138 503.226,187.406 503.293,191.497 C 503.36,195.588 503.147,202.116 503.155,207.011 C 503.162,211.905 503.291,215.88 503.338,220.865 C 503.385,225.85 503.578,231.371 503.436,236.919 C 503.294,242.466 502.664,250.307 502.486,254.151 C 502.307,257.994 502.385,258.275 502.366,259.979 C 502.347,261.683 502.415,262.9 502.371,264.374 C 502.326,265.849 502.144,267.886 502.098,268.823 C 502.053,269.761 502.098,269.804 502.098,270 C 502.098,270.196 502.098,270 502.098,270 L 502.098,270 L 502.098,270 A 2.902,2.902 0 0,0 507.902,270"/><a:init><a:s a:d="6" a:u="px" a:t="3424.9"/><a:c a:d="#fff" a:t="3424.9"/><a:m a:x="505" a:y="270" a:t="3424.9" a:p="1"/></a:init><a:ds a:t="3424.97"/><a:m a:x="505" a:y="266" a:t="3575.8"/><a:ds a:t="3577.68"/><a:m a:x="505" a:y="255" a:t="3592.76"/><a:ds a:t="3593.87"/><a:ds a:t="3609.03"/><a:m a:x="505" a:y="246" a:t="3610.68"/><a:ds a:t="3626.07"/><a:m a:x="505" a:y="225" a:t="3627.29"/><a:m a:x="505" a:y="205" a:t="3644.35"/><a:ds a:t="3645.16"/><a:ds a:t="3662.84"/><a:m a:x="505" a:y="188" a:t="3664.33"/><a:ds a:t="3675.03"/><a:m a:x="505" a:y="181" a:t="3678.43"/><a:ds a:t="3695.05"/><a:m a:x="505" a:y="175" a:t="3696.34"/><a:ds a:t="3708.8"/><a:m a:x="505" a:y="171" a:t="3712.78"/><a:ds a:t="3725.53"/><a:m a:x="505" a:y="170" a:t="3729.71"/><a:ds a:t="3744.08"/><a:m a:x="505" a:y="169" a:t="3746.24"/><a:ds a:t="3759.43"/><a:m a:x="507" a:y="168" a:t="3763.48"/><a:ds a:t="3776.88"/><a:m a:x="510" a:y="166" a:t="3780.61"/><a:ds a:t="3794.08"/><a:m a:x="514" a:y="164" a:t="3796.93"/><a:ds a:t="3811.33"/><a:m a:x="519" a:y="162" a:t="3813.73"/><a:ds a:t="3825.48"/><a:m a:x="525" a:y="160" a:t="3831.08"/><a:ds a:t="3844.77"/><a:m a:x="531" a:y="160" a:t="3848.55"/><a:ds a:t="3860.81"/><a:m a:x="536" a:y="160" a:t="3865.65"/><a:ds a:t="3876.45"/><a:m a:x="542" a:y="160" a:t="3882.15"/><a:ds a:t="3892.24"/><a:m a:x="550" a:y="160" a:t="3899.1"/><a:ds a:t="3909.6"/><a:m a:x="555" a:y="163" a:t="3916.35"/><a:ds a:t="3925.75"/><a:m a:x="559" a:y="168" a:t="3934.21"/><a:ds a:t="3944.24"/><a:m a:x="563" a:y="171" a:t="3950.9"/><a:ds a:t="3960.94"/><a:m a:x="567" a:y="177" a:t="3967.64"/><a:ds a:t="3976.22"/><a:m a:x="573" a:y="183" a:t="3984.53"/><a:ds a:t="3994.15"/><a:m a:x="578" a:y="189" a:t="4001.14"/><a:ds a:t="4010.13"/><a:m a:x="588" a:y="196" a:t="4018.17"/><a:ds a:t="4027.54"/><a:m a:x="594" a:y="200" a:t="4035.03"/><a:ds a:t="4043.75"/><a:m a:x="599" a:y="202" a:t="4054.63"/><a:ds a:t="4060"/><a:m a:x="607" a:y="205" a:t="4071.44"/><a:ds a:t="4076.86"/><a:m a:x="619" a:y="208" a:t="4088.31"/><a:ds a:t="4093.97"/><a:m a:x="629" a:y="209" a:t="4105.21"/><a:ds a:t="4110.48"/><a:m a:x="643" a:y="209" a:t="4121.38"/><a:ds a:t="4126.08"/><a:m a:x="658" a:y="208" a:t="4137.86"/><a:ds a:t="4143.94"/><a:m a:x="674" a:y="201" a:t="4154.39"/><a:ds a:t="4160.97"/><a:m a:x="684" a:y="197" a:t="4171.51"/><a:ds a:t="4176.41"/><a:m a:x="697" a:y="189" a:t="4188.66"/><a:ds a:t="4194.03"/><a:m a:x="704" a:y="183" a:t="4205.47"/><a:ds a:t="4210.42"/><a:m a:x="709" a:y="175" a:t="4222.5"/><a:ds a:t="4226.58"/><a:m a:x="713" a:y="162" a:t="4240.65"/><a:ds a:t="4243.35"/><a:m a:x="716" a:y="151" a:t="4256.73"/><a:ds a:t="4260.66"/><a:m a:x="718" a:y="141" a:t="4273.94"/><a:ds a:t="4276.99"/><a:m a:x="718" a:y="134" a:t="4291.56"/><a:ds a:t="4293.2"/><a:m a:x="718" a:y="132" a:t="4308.05"/><a:ds a:t="4310.22"/><a:m a:x="718" a:y="129" a:t="4324.74"/><a:ds a:t="4326.88"/><a:m a:x="718" a:y="128" a:t="4343.02"/><a:ds a:t="4344.15"/><a:m a:x="718" a:y="127" a:t="4376.96"/><a:ds a:t="4377.77"/><a:m a:x="719" a:y="127" a:t="4393.52"/><a:m a:x="720" a:y="126" a:t="4410.71"/><a:ds a:t="4411.38"/><a:m a:x="722" a:y="126" a:t="4427.26"/><a:ds a:t="4428.32"/><a:m a:x="725" a:y="125" a:t="4444.6"/><a:ds a:t="4445.62"/><a:ds a:t="4461.43"/><a:m a:x="729" a:y="125" a:t="4462.75"/><a:ds a:t="4478.6"/><a:m a:x="738" a:y="125" a:t="4479.75"/><a:ds a:t="4495.52"/><a:m a:x="752" a:y="125" a:t="4497.38"/><a:ds a:t="4512.96"/><a:m a:x="783" a:y="125" a:t="4514.18"/><a:ds a:t="4528.3"/><a:m a:x="821" a:y="133" a:t="4531.22"/><a:ds a:t="4546.89"/><a:m a:x="846" a:y="142" a:t="4549.34"/><a:ds a:t="4561.44"/><a:m a:x="874" a:y="156" a:t="4563.81"/><a:ds a:t="4580.38"/><a:m a:x="887" a:y="163" a:t="4581.93"/><a:ds a:t="4595.14"/><a:m a:x="896" a:y="169" a:t="4598.17"/><a:ds a:t="4612.66"/><a:m a:x="900" a:y="175" a:t="4615.05"/><a:ds a:t="4630.06"/><a:m a:x="903" a:y="178" a:t="4632.02"/><a:ds a:t="4646.43"/><a:m a:x="904" a:y="181" a:t="4649.77"/><a:ds a:t="4662.33"/><a:m a:x="906" a:y="183" a:t="4666.28"/><a:ds a:t="4678.32"/><a:m a:x="907" a:y="184" a:t="4683.29"/><a:ds a:t="4695.02"/><a:m a:x="908" a:y="185" a:t="4700.32"/><a:ds a:t="4711.33"/><a:m a:x="909" a:y="186" a:t="4717.78"/><a:ds a:t="4728.98"/><a:m a:x="911" a:y="187" a:t="4735.52"/><a:ds a:t="4745.84"/><a:m a:x="915" a:y="188" a:t="4752.82"/><a:ds a:t="4762.42"/><a:m a:x="919" a:y="189" a:t="4770.57"/><a:ds a:t="4779.15"/><a:m a:x="923" a:y="190" a:t="4790.56"/><a:ds a:t="4804.05"/><a:m a:x="929" a:y="190" a:t="4812.04"/><a:ds a:t="4813.6"/><a:m a:x="938" a:y="186" a:t="4823.02"/><a:ds a:t="4828.4"/><a:m a:x="956" a:y="170" a:t="4841.44"/><a:ds a:t="4845.09"/><a:m a:x="990" a:y="139" a:t="4856.7"/><a:ds a:t="4862.72"/><a:m a:x="1034" a:y="95" a:t="4873.45"/><a:ds a:t="4879.36"/><a:m a:x="1069" a:y="59" a:t="4890.53"/><a:ds a:t="4895.13"/><a:m a:x="1082" a:y="45" a:t="4906.84"/><a:ds a:t="4912.68"/><a:m a:x="1089" a:y="37" a:t="4924.55"/><a:ds a:t="4929.62"/><a:m a:x="1090" a:y="32" a:t="4941.68"/><a:ds a:t="4946.5"/><a:m a:x="1091" a:y="32" a:t="4958.61"/><a:ds a:t="4961.99"/><a:m a:x="1091" a:y="31" a:t="4974.96"/><a:ds a:t="4978.37"/><a:m a:x="1091" a:y="30" a:t="4995.4"/><a:ds a:t="4996.86"/><a:m a:x="1091" a:y="29" a:t="5012.03"/><a:ds a:t="5013.02"/><a:ds a:t="5029.42"/><a:ds a:t="5045.89"/><a:m a:x="1091" a:y="31" a:t="5092.15"/><a:ds a:t="5095.95"/><a:ds a:t="5122.66"/><a:m a:x="1091" a:y="34" a:t="5125.9"/><a:m a:x="1091" a:y="40" a:t="5127.69"/><a:ds a:t="5128.94"/><a:m a:x="1091" a:y="48" a:t="5142.84"/><a:ds a:t="5145.72"/><a:m a:x="1091" a:y="60" a:t="5158.25"/><a:ds a:t="5162.26"/><a:m a:x="1091" a:y="73" a:t="5174.93"/><a:ds a:t="5179.91"/><a:m a:x="1093" a:y="104" a:t="5192.39"/><a:ds a:t="5195.82"/><a:m a:x="1096" a:y="129" a:t="5209.62"/><a:ds a:t="5212.9"/><a:m a:x="1103" a:y="165" a:t="5226.67"/><a:ds a:t="5229.11"/><a:m a:x="1107" a:y="199" a:t="5243.91"/><a:ds a:t="5246.21"/><a:m a:x="1109" a:y="226" a:t="5260.84"/><a:ds a:t="5262.94"/><a:m a:x="1111" a:y="246" a:t="5277.24"/><a:ds a:t="5279.74"/><a:m a:x="1112" a:y="261" a:t="5295.12"/><a:ds a:t="5297.73"/><a:m a:x="1112" a:y="268" a:t="5311.44"/><a:ds a:t="5312.67"/><a:m a:x="1112" a:y="275" a:t="5328.07"/><a:ds a:t="5330.02"/><a:m a:x="1112" a:y="279" a:t="5345.24"/><a:ds a:t="5346.75"/><a:m a:x="1111" a:y="283" a:t="5362.37"/><a:ds a:t="5363.83"/><a:m a:x="1109" a:y="285" a:t="5378.98"/><a:ds a:t="5379.84"/><a:m a:x="1108" a:y="285" a:t="5396.28"/><a:ds a:t="5398.34"/><a:m a:x="1104" a:y="285" a:t="5412.3"/><a:ds a:t="5413.48"/><a:m a:x="1096" a:y="285" a:t="5428.93"/><a:ds a:t="5430.22"/><a:m a:x="1073" a:y="288" a:t="5447.01"/><a:ds a:t="5447.84"/><a:m a:x="1043" a:y="292" a:t="5463.17"/><a:ds a:t="5464.62"/><a:ds a:t="5480.49"/><a:m a:x="996" a:y="295" a:t="5481.73"/><a:m a:x="936" a:y="299" a:t="5498.32"/><a:ds a:t="5500.5"/><a:ds a:t="5514.36"/><a:m a:x="873" a:y="299" a:t="5515.67"/><a:ds a:t="5531.48"/><a:m a:x="833" a:y="299" a:t="5532.7"/><a:ds a:t="5547.84"/><a:m a:x="794" a:y="294" a:t="5549.11"/><a:ds a:t="5564.73"/><a:m a:x="781" a:y="289" a:t="5566.07"/><a:m a:x="768" a:y="285" a:t="5581.91"/><a:ds a:t="5582.84"/><a:ds a:t="5598.64"/><a:m a:x="762" a:y="280" a:t="5599.99"/><a:ds a:t="5615.9"/><a:m a:x="760" a:y="278" a:t="5617.38"/><a:ds a:t="5631.72"/><a:m a:x="759" a:y="276" a:t="5633.36"/><a:ds a:t="5648.45"/><a:ds a:t="5666.63"/><a:ds a:t="5681.73"/><a:ds a:t="5699.22"/><a:m a:x="760" a:y="278" a:t="5710.07"/><a:ds a:t="5713.87"/><a:m a:x="762" a:y="281" a:t="5725.65"/><a:ds a:t="5730.71"/><a:m a:x="765" a:y="285" a:t="5742.64"/><a:ds a:t="5747.15"/><a:m a:x="768" a:y="288" a:t="5759.69"/><a:ds a:t="5764.59"/><a:m a:x="770" a:y="290" a:t="5775.87"/><a:ds a:t="5780.6"/><a:m a:x="776" a:y="292" a:t="5793.43"/><a:ds a:t="5798.3"/><a:m a:x="781" a:y="292" a:t="5810.64"/><a:ds a:t="5814.85"/><a:m a:x="804" a:y="286" a:t="5827.43"/><a:ds a:t="5831.28"/><a:m a:x="863" a:y="258" a:t="5845.14"/><a:ds a:t="5847.41"/><a:m a:x="959" a:y="220" a:t="5861.57"/><a:ds a:t="5864.69"/><a:m a:x="1035" a:y="194" a:t="5878.55"/><a:ds a:t="5881.5"/><a:m a:x="1124" a:y="173" a:t="5895.83"/><a:ds a:t="5897.88"/><a:m a:x="1170" a:y="164" a:t="5912.86"/><a:ds a:t="5915.83"/><a:m a:x="1217" a:y="161" a:t="5930.71"/><a:ds a:t="5931.45"/><a:m a:x="1236" a:y="161" a:t="5948.67"/><a:ds a:t="5949.42"/><a:m a:x="1250" a:y="161" a:t="5964.68"/><a:ds a:t="5965.58"/><a:m a:x="1256" a:y="161" a:t="5981.39"/><a:ds a:t="5982.07"/><a:m a:x="1257" a:y="161" a:t="5998.61"/><a:ds a:t="5999.26"/><a:ds a:t="6014.85"/><a:m a:x="1258" a:y="161" a:t="6016.1"/><a:m a:x="1258" a:y="160" a:t="6032.47"/><a:ds a:t="6033.39"/><a:m a:x="1258" a:y="158" a:t="6050.09"/><a:ds a:t="6050.84"/><a:ds a:t="6066.33"/><a:m a:x="1258" a:y="157" a:t="6069.65"/><a:ds a:t="6083.4"/><a:m a:x="1258" a:y="156" a:t="6085.3"/><a:ds a:t="6101.31"/><a:m a:x="1258" a:y="155" a:t="6102.59"/><a:ds a:t="6117.33"/><a:m a:x="1258" a:y="154" a:t="6118.44"/><a:ds a:t="6135.11"/><a:m a:x="1258" a:y="153" a:t="6136.26"/><a:ds a:t="6150.72"/><a:m a:x="1258" a:y="151" a:t="6152.96"/><a:ds a:t="6166.48"/><a:m a:x="1258" a:y="145" a:t="6169.5"/><a:ds a:t="6184.08"/><a:m a:x="1257" a:y="131" a:t="6186.02"/><a:ds a:t="6200.65"/><a:m a:x="1256" a:y="109" a:t="6202.84"/><a:ds a:t="6217"/><a:m a:x="1256" a:y="80" a:t="6219.26"/><a:ds a:t="6233.01"/><a:m a:x="1256" a:y="50" a:t="6236.08"/><a:ds a:t="6249.21"/><a:m a:x="1256" a:y="21" a:t="6253.25"/><a:ds a:t="6268.06"/><a:m a:x="1256" a:y="10" a:t="6269.76"/><a:ds a:t="6283.31"/><a:m a:x="1256" a:y="4" a:t="6286.45"/><a:ds a:t="6301.17"/><a:m a:x="1255" a:y="2" a:t="6304.3"/><a:ds a:t="6316.15"/><a:m a:x="1254" a:y="2" a:t="6320.63"/><a:ds a:t="6333.55"/><a:m a:x="1253" a:y="2" a:t="6337.92"/><a:ds a:t="6350.15"/><a:m a:x="1251" a:y="3" a:t="6354.79"/><a:ds a:t="6366.73"/><a:m a:x="1248" a:y="10" a:t="6371.61"/><a:ds a:t="6384.86"/><a:m a:x="1242" a:y="16" a:t="6390.7"/><a:ds a:t="6398.97"/><a:m a:x="1235" a:y="24" a:t="6405.62"/><a:ds a:t="6417.62"/><a:m a:x="1219" a:y="35" a:t="6422.35"/><a:ds a:t="6434.5"/><a:m a:x="1210" a:y="42" a:t="6439.89"/><a:ds a:t="6449.29"/><a:m a:x="1196" a:y="49" a:t="6456.22"/><a:ds a:t="6465.98"/><a:m a:x="1184" a:y="57" a:t="6473.3"/><a:ds a:t="6485.33"/><a:m a:x="1179" a:y="61" a:t="6491.15"/><a:ds a:t="6502.22"/><a:m a:x="1177" a:y="65" a:t="6508.06"/><a:ds a:t="6516.63"/><a:m a:x="1175" a:y="68" a:t="6525.06"/><a:ds a:t="6539.73"/><a:m a:x="1175" a:y="72" a:t="6545.83"/><a:ds a:t="6550.83"/><a:m a:x="1175" a:y="80" a:t="6561.82"/><a:ds a:t="6566.16"/><a:m a:x="1175" a:y="95" a:t="6578.12"/><a:ds a:t="6583.33"/><a:m a:x="1175" a:y="114" a:t="6595.34"/><a:ds a:t="6600.85"/><a:m a:x="1178" a:y="151" a:t="6611.65"/><a:ds a:t="6617"/><a:m a:x="1186" a:y="193" a:t="6627.95"/><a:ds a:t="6634.18"/><a:m a:x="1192" a:y="225" a:t="6645.09"/><a:ds a:t="6649.87"/><a:m a:x="1197" a:y="245" a:t="6662.29"/><a:ds a:t="6667.29"/><a:m a:x="1202" a:y="262" a:t="6678.53"/><a:ds a:t="6683.22"/><a:m a:x="1205" a:y="268" a:t="6695.72"/><a:ds a:t="6701.45"/><a:m a:x="1206" a:y="269" a:t="6712.54"/><a:ds a:t="6716.56"/><a:m a:x="1207" a:y="270" a:t="6729.87"/><a:ds a:t="6733.18"/><a:m a:x="1208" a:y="270" a:t="6747.83"/><a:ds a:t="6751.21"/><a:m a:x="1210" a:y="270" a:t="6764.54"/><a:ds a:t="6766.88"/><a:m a:x="1212" a:y="270" a:t="6782.19"/><a:ds a:t="6783.33"/><a:m a:x="1215" a:y="270" a:t="6799.69"/><a:ds a:t="6800.75"/><a:m a:x="1218" a:y="268" a:t="6815.33"/><a:ds a:t="6816.81"/><a:m a:x="1226" a:y="265" a:t="6832.24"/><a:ds a:t="6833.42"/><a:m a:x="1234" a:y="262" a:t="6849.57"/><a:ds a:t="6850.9"/><a:m a:x="1243" a:y="260" a:t="6866.19"/><a:ds a:t="6867.18"/><a:m a:x="1250" a:y="258" a:t="6883.58"/><a:ds a:t="6884.98"/><a:m a:x="1262" a:y="254" a:t="6901.15"/><a:ds a:t="6902.17"/><a:ds a:t="6917.58"/><a:m a:x="1273" a:y="248" a:t="6918.98"/><a:ds a:t="6934.94"/><a:m a:x="1284" a:y="240" a:t="6936.77"/><a:ds a:t="6950.95"/><a:m a:x="1294" a:y="232" a:t="6952.07"/><a:ds a:t="6967.82"/><a:m a:x="1300" a:y="222" a:t="6968.95"/><a:ds a:t="6984.94"/><a:m a:x="1304" a:y="214" a:t="6986.21"/><a:ds a:t="7001.5"/><a:m a:x="1308" a:y="200" a:t="7002.75"/><a:ds a:t="7018.83"/><a:m a:x="1311" a:y="183" a:t="7020.25"/><a:ds a:t="7035.89"/><a:m a:x="1313" a:y="157" a:t="7037.84"/><a:ds a:t="7052.66"/><a:m a:x="1315" a:y="133" a:t="7053.84"/><a:ds a:t="7069.86"/><a:m a:x="1315" a:y="122" a:t="7073.39"/><a:ds a:t="7084.3"/><a:m a:x="1315" a:y="114" a:t="7087.67"/><a:ds a:t="7104.42"/><a:m a:x="1315" a:y="111" a:t="7105.57"/><a:ds a:t="7118.64"/><a:m a:x="1315" a:y="110" a:t="7121.86"/><a:ds a:t="7134.52"/><a:m a:x="1314" a:y="110" a:t="7152.3"/><a:ds a:t="7169.06"/><a:m a:x="1313" a:y="110" a:t="7170.13"/><a:ds a:t="7186"/><a:m a:x="1311" a:y="110" a:t="7187.26"/><a:ds a:t="7202.79"/><a:m a:x="1308" a:y="110" a:t="7203.96"/><a:ds a:t="7220.21"/><a:m a:x="1302" a:y="110" a:t="7221.47"/><a:ds a:t="7236.97"/><a:m a:x="1298" a:y="110" a:t="7238.86"/><a:ds a:t="7251.29"/><a:m a:x="1292" a:y="110" a:t="7255.02"/><a:ds a:t="7269.5"/><a:m a:x="1285" a:y="110" a:t="7271.58"/><a:ds a:t="7287.33"/><a:m a:x="1273" a:y="110" a:t="7290.67"/><a:ds a:t="7302.61"/><a:m a:x="1239" a:y="110" a:t="7304.86"/><a:ds a:t="7318.75"/><a:m a:x="1189" a:y="110" a:t="7321.66"/><a:ds a:t="7336.44"/><a:m a:x="1127" a:y="110" a:t="7338.68"/><a:ds a:t="7352.31"/><a:m a:x="1064" a:y="110" a:t="7355.84"/><a:ds a:t="7370.23"/><a:m a:x="1028" a:y="109" a:t="7372.09"/><a:ds a:t="7385.25"/><a:m a:x="995" a:y="100" a:t="7389.79"/><a:ds a:t="7404.05"/><a:m a:x="974" a:y="91" a:t="7406.65"/><a:ds a:t="7420.93"/><a:m a:x="960" a:y="83" a:t="7424.72"/><a:ds a:t="7437.85"/><a:m a:x="946" a:y="75" a:t="7441.84"/><a:ds a:t="7452.35"/><a:m a:x="928" a:y="67" a:t="7457"/><a:ds a:t="7470.01"/><a:m a:x="907" a:y="59" a:t="7473.95"/><a:ds a:t="7488.85"/><a:m a:x="889" a:y="52" a:t="7491.32"/><a:ds a:t="7504.7"/><a:m a:x="871" a:y="49" a:t="7507.51"/><a:ds a:t="7519.69"/><a:m a:x="856" a:y="48" a:t="7524.57"/><a:ds a:t="7536.97"/><a:m a:x="841" a:y="47" a:t="7541.91"/><a:ds a:t="7554.12"/><a:m a:x="826" a:y="46" a:t="7559.17"/><a:ds a:t="7568.84"/><a:m a:x="809" a:y="46" a:t="7576"/><a:ds a:t="7585.89"/><a:m a:x="798" a:y="46" a:t="7593.25"/><a:ds a:t="7603.37"/><a:m a:x="790" a:y="46" a:t="7609.65"/><a:ds a:t="7619.43"/><a:m a:x="784" a:y="46" a:t="7626.6"/><a:ds a:t="7637.84"/><a:m a:x="779" a:y="46" a:t="7643.91"/><a:ds a:t="7653.08"/><a:m a:x="773" a:y="47" a:t="7660.97"/><a:ds a:t="7671.11"/><a:m a:x="769" a:y="48" a:t="7678.22"/><a:ds a:t="7688.05"/><a:m a:x="761" a:y="49" a:t="7697.55"/><a:ds a:t="7703.51"/><a:m a:x="754" a:y="52" a:t="7714.81"/><a:ds a:t="7719.35"/><a:m a:x="748" a:y="56" a:t="7731.56"/><a:ds a:t="7737.25"/><a:m a:x="736" a:y="68" a:t="7748.79"/><a:ds a:t="7752.53"/><a:m a:x="725" a:y="78" a:t="7763.98"/><a:ds a:t="7769.84"/><a:m a:x="713" a:y="89" a:t="7781.46"/><a:ds a:t="7787.39"/><a:m a:x="702" a:y="100" a:t="7801.02"/><a:ds a:t="7802.7"/><a:m a:x="696" a:y="103" a:t="7814.94"/><a:ds a:t="7819.84"/><a:m a:x="682" a:y="108" a:t="7831.76"/><a:ds a:t="7836.45"/><a:m a:x="667" a:y="110" a:t="7849.28"/><a:ds a:t="7852.82"/><a:m a:x="628" a:y="111" a:t="7865.54"/><a:ds a:t="7870.01"/><a:m a:x="584" a:y="113" a:t="7882.46"/><a:ds a:t="7886.71"/><a:m a:x="552" a:y="114" a:t="7900.57"/><a:ds a:t="7903.46"/><a:m a:x="531" a:y="115" a:t="7916.62"/><a:ds a:t="7919.61"/><a:m a:x="511" a:y="115" a:t="7933.88"/><a:ds a:t="7937.6"/><a:m a:x="499" a:y="115" a:t="7951.8"/><a:ds a:t="7953.25"/><a:m a:x="488" a:y="115" a:t="7967.98"/><a:ds a:t="7970.04"/><a:m a:x="482" a:y="114" a:t="7985.03"/><a:ds a:t="7986.49"/><a:m a:x="477" a:y="112" a:t="8001.85"/><a:ds a:t="8003.24"/><a:m a:x="473" a:y="109" a:t="8018.55"/><a:ds a:t="8020.27"/><a:m a:x="471" a:y="108" a:t="8036.2"/><a:ds a:t="8037.35"/><a:m a:x="470" a:y="106" a:t="8052.54"/><a:ds a:t="8053.48"/><a:m a:x="469" a:y="104" a:t="8070.54"/><a:ds a:t="8071.2"/><a:m a:x="469" a:y="100" a:t="8087.19"/><a:ds a:t="8087.87"/><a:m a:x="468" a:y="96" a:t="8103.79"/><a:ds a:t="8104.69"/><a:m a:x="466" a:y="91" a:t="8120.73"/><a:ds a:t="8121.52"/><a:ds a:t="8139.26"/><a:m a:x="464" a:y="88" a:t="8141.52"/><a:ds a:t="8154.18"/><a:m a:x="462" a:y="85" a:t="8155.47"/><a:m a:x="460" a:y="83" a:t="8171.45"/><a:ds a:t="8172.18"/><a:m a:x="457" a:y="82" a:t="8189.03"/><a:ds a:t="8190.47"/><a:ds a:t="8205.21"/><a:m a:x="454" a:y="80" a:t="8206.37"/><a:ds a:t="8222.6"/><a:m a:x="452" a:y="79" a:t="8223.74"/><a:ds a:t="8239.97"/><a:m a:x="450" a:y="78" a:t="8242.21"/><a:ds a:t="8256.29"/><a:m a:x="449" a:y="78" a:t="8259.78"/><a:ds a:t="8270.73"/><a:ds a:t="8288.86"/><a:m a:x="449" a:y="79" a:t="8362.36"/><a:ds a:t="8371.41"/><a:m a:x="449" a:y="80" a:t="8378.97"/><a:ds a:t="8388.63"/><a:m a:x="449" a:y="82" a:t="8396.16"/><a:ds a:t="8405.82"/><a:m a:x="449" a:y="84" a:t="8412.89"/><a:ds a:t="8421.71"/><a:m a:x="449" a:y="89" a:t="8429.68"/><a:ds a:t="8439.54"/><a:m a:x="449" a:y="93" a:t="8447.25"/><a:ds a:t="8454.57"/><a:m a:x="447" a:y="97" a:t="8468.24"/><a:ds a:t="8471.6"/><a:m a:x="445" a:y="103" a:t="8482.78"/><a:ds a:t="8488.74"/><a:m a:x="441" a:y="110" a:t="8500.14"/><a:ds a:t="8504.45"/><a:m a:x="434" a:y="121" a:t="8516.64"/><a:ds a:t="8521.62"/><a:m a:x="430" a:y="127" a:t="8533.34"/><a:ds a:t="8538.09"/><a:m a:x="425" a:y="133" a:t="8551.1"/><a:ds a:t="8555.23"/><a:m a:x="424" a:y="137" a:t="8566.76"/><a:ds a:t="8571.56"/><a:m a:x="423" a:y="139" a:t="8583.8"/><a:ds a:t="8588.17"/><a:m a:x="423" a:y="139" a:t="8603.38"/><a:ds a:t="8605.09"/><a:m a:x="423" a:y="138" a:t="8746.83"/><a:ds a:t="8757.18"/><a:m a:x="424" a:y="138" a:t="8763.27"/><a:m a:x="426" a:y="136" a:t="8780.28"/><a:ds a:t="8789.21"/><a:m a:x="431" a:y="135" a:t="8797.58"/><a:ds a:t="8805.36"/><a:m a:x="437" a:y="133" a:t="8814.41"/><a:ds a:t="8822.35"/><a:m a:x="445" a:y="132" a:t="8833.99"/><a:ds a:t="8840.43"/><a:m a:x="458" a:y="132" a:t="8851.89"/><a:ds a:t="8856.19"/><a:m a:x="473" a:y="132" a:t="8867.42"/><a:ds a:t="8872.58"/><a:m a:x="493" a:y="132" a:t="8884.34"/><a:ds a:t="8889.62"/><a:m a:x="511" a:y="133" a:t="8901.5"/><a:ds a:t="8906.54"/><a:m a:x="523" a:y="133" a:t="8917.71"/><a:ds a:t="8922.34"/><a:m a:x="533" a:y="135" a:t="8934.1"/><a:ds a:t="8939.67"/><a:m a:x="540" a:y="136" a:t="8951.78"/><a:ds a:t="8955.81"/><a:m a:x="543" a:y="136" a:t="8967.43"/><a:ds a:t="8973.26"/><a:m a:x="544" a:y="136" a:t="8984.78"/><a:ds a:t="8990.62"/><a:m a:x="545" a:y="136" a:t="9002.49"/><a:m a:x="545" a:y="135" a:t="9051.54"/><a:ds a:t="9056.69"/><a:m a:x="545" a:y="130" a:t="9068.19"/><a:ds a:t="9073.39"/><a:m a:x="545" a:y="124" a:t="9086.22"/><a:ds a:t="9089.91"/><a:m a:x="545" a:y="116" a:t="9102.67"/><a:ds a:t="9106.7"/><a:m a:x="545" a:y="98" a:t="9118.84"/><a:ds a:t="9122.71"/><a:m a:x="545" a:y="72" a:t="9136.1"/><a:ds a:t="9140.65"/><a:m a:x="546" a:y="60" a:t="9152.84"/><a:ds a:t="9156.96"/><a:m a:x="549" a:y="47" a:t="9169.82"/><a:ds a:t="9173.5"/><a:m a:x="550" a:y="37" a:t="9188.25"/><a:ds a:t="9190.56"/><a:m a:x="551" a:y="35" a:t="9204.45"/><a:ds a:t="9206.69"/><a:m a:x="551" a:y="34" a:t="9221.21"/><a:ds a:t="9223.08"/><a:m a:x="552" a:y="34" a:t="9316.36"/><a:ds a:t="9325.57"/><a:m a:x="553" a:y="37" a:t="9332.8"/><a:ds a:t="9341.46"/><a:m a:x="554" a:y="40" a:t="9353.04"/><a:ds a:t="9357.6"/><a:m a:x="554" a:y="42" a:t="9366.17"/><a:ds a:t="9373.89"/><a:m a:x="555" a:y="44" a:t="9385.31"/><a:ds a:t="9391.29"/><a:m a:x="555" a:y="45" a:t="9406.13"/><a:ds a:t="9407.07"/><a:m a:x="556" a:y="46" a:t="9418.57"/><a:ds a:t="9423.93"/><a:m a:x="556" a:y="47" a:t="9437.56"/><a:ds a:t="9441.1"/><a:m a:x="557" a:y="47" a:t="9454.44"/><a:ds a:t="9457.47"/><a:m a:x="558" a:y="47" a:t="9471.76"/><a:ds a:t="9473.84"/><a:m a:x="562" a:y="47" a:t="9489.24"/><a:ds a:t="9491.06"/><a:m a:x="571" a:y="48" a:t="9505.83"/><a:ds a:t="9507.82"/><a:m a:x="584" a:y="50" a:t="9522.24"/><a:ds a:t="9524.62"/><a:m a:x="599" a:y="52" a:t="9540.64"/><a:ds a:t="9542.21"/><a:m a:x="611" a:y="53" a:t="9557.19"/><a:ds a:t="9558.52"/><a:m a:x="621" a:y="54" a:t="9574.32"/><a:ds a:t="9576.76"/><a:ds a:t="9592.14"/><a:m a:x="628" a:y="54" a:t="9594.84"/><a:ds a:t="9608.24"/><a:m a:x="630" a:y="55" a:t="9609.9"/><a:ds a:t="9624.83"/><a:m a:x="631" a:y="55" a:t="9626"/><a:m a:x="631" a:y="56" a:t="9642.3"/><a:ds a:t="9643.24"/><a:m a:x="631" a:y="57" a:t="9670.39"/><a:ds a:t="9674.45"/><a:m a:x="631" a:y="59" a:t="9688.18"/><a:ds a:t="9691.86"/><a:m a:x="631" a:y="62" a:t="9703.79"/><a:ds a:t="9707.62"/><a:m a:x="631" a:y="65" a:t="9720.93"/><a:ds a:t="9724.54"/><a:m a:x="630" a:y="68" a:t="9737.75"/><a:ds a:t="9741.85"/><a:m a:x="629" a:y="74" a:t="9754.96"/><a:ds a:t="9758.1"/><a:m a:x="627" a:y="78" a:t="9771.58"/><a:ds a:t="9775.25"/><a:m a:x="626" a:y="83" a:t="9790.29"/><a:ds a:t="9792.19"/><a:m a:x="625" a:y="92" a:t="9805.68"/><a:ds a:t="9808.49"/><a:m a:x="625" a:y="100" a:t="9822.03"/><a:ds a:t="9825.07"/><a:m a:x="625" a:y="109" a:t="9839.9"/><a:ds a:t="9841.61"/><a:m a:x="625" a:y="116" a:t="9856.07"/><a:ds a:t="9858.05"/><a:m a:x="625" a:y="122" a:t="9873.11"/><a:ds a:t="9875.1"/><a:m a:x="625" a:y="129" a:t="9891.1"/><a:ds a:t="9892.2"/><a:m a:x="625" a:y="133" a:t="9907.08"/><a:ds a:t="9908.24"/><a:m a:x="625" a:y="136" a:t="9924.54"/><a:ds a:t="9925.59"/><a:m a:x="624" a:y="138" a:t="9941.87"/><a:ds a:t="9942.92"/><a:m a:x="624" a:y="139" a:t="9958.62"/><a:ds a:t="9959.28"/><a:m a:x="622" a:y="140" a:t="9974.92"/><a:ds a:t="9975.72"/><a:m a:x="621" a:y="140" a:t="9992.3"/><a:ds a:t="9993.33"/><a:m a:x="618" a:y="140" a:t="10009.32"/><a:ds a:t="10010.51"/><a:m a:x="615" a:y="140" a:t="10025.68"/><a:ds a:t="10026.67"/><a:m a:x="613" a:y="140" a:t="10042.38"/><a:ds a:t="10043.11"/><a:ds a:t="10058.89"/><a:m a:x="610" a:y="138" a:t="10060.39"/><a:ds a:t="10076.32"/><a:m a:x="608" a:y="137" a:t="10077.79"/><a:ds a:t="10093.74"/><a:m a:x="606" a:y="135" a:t="10096.75"/><a:ds a:t="10109.24"/><a:ds a:t="10128.38"/><a:m a:x="605" a:y="135" a:t="10134.41"/><a:ds a:t="10143.41"/><a:m a:x="604" a:y="135" a:t="10294.83"/><a:m a:x="604" a:y="135" a:t="10306.41"/><a:ds a:t="10309.16"/><a:m a:x="601" a:y="138" a:t="10627.05"/><a:m a:x="594" a:y="148" a:t="10643.77"/><a:m a:x="586" a:y="157" a:t="10661.31"/><a:m a:x="566" a:y="182" a:t="10677.15"/><a:m a:x="550" a:y="203" a:t="10695.65"/><a:m a:x="537" a:y="219" a:t="10711.83"/><a:m a:x="511" a:y="249" a:t="10728.7"/><a:m a:x="492" a:y="273" a:t="10746.54"/><a:m a:x="473" a:y="296" a:t="10763.2"/><a:m a:x="460" a:y="312" a:t="10780.42"/><a:m a:x="447" a:y="327" a:t="10797.5"/><a:m a:x="442" a:y="333" a:t="10813.71"/><a:m a:x="437" a:y="338" a:t="10830.61"/><a:m a:x="433" a:y="340" a:t="10847.93"/><a:m a:x="432" a:y="341" a:t="10864.61"/><a:m a:x="431" a:y="341" a:t="10881.34"/><a:m a:x="430" a:y="341" a:t="10899.36"/><a:m a:x="430" a:y="341" a:t="10916.55"/><a:m a:x="429" a:y="341" a:t="10933.51"/><a:m a:x="424" a:y="339" a:t="10951.14"/><a:m a:x="420" a:y="336" a:t="10967.68"/><a:m a:x="412" a:y="334" a:t="10984.71"/><a:m a:x="401" a:y="331" a:t="11002.11"/><a:m a:x="389" a:y="330" a:t="11019.7"/><a:m a:x="378" a:y="330" a:t="11036.66"/><a:m a:x="367" a:y="330" a:t="11053.4"/><a:m a:x="362" a:y="330" a:t="11070.48"/><a:m a:x="358" a:y="330" a:t="11091.29"/><a:m a:x="356" a:y="330" a:t="11106.1"/><a:m a:x="355" a:y="330" a:t="11123.36"/><a:m a:x="354" a:y="330" a:t="11141.84"/><a:m a:x="354" a:y="331" a:t="11157.05"/><a:m a:x="354" a:y="332" a:t="11174.53"/><a:m a:x="354" a:y="333" a:t="11192.07"/><a:m a:x="354" a:y="334" a:t="11213.02"/><a:m a:x="354" a:y="336" a:t="11230.36"/><a:m a:x="354" a:y="341" a:t="11247.51"/><a:m a:x="354" a:y="352" a:t="11264.32"/><a:m a:x="348" a:y="369" a:t="11282.19"/><a:m a:x="343" a:y="385" a:t="11299.09"/><a:m a:x="339" a:y="392" a:t="11315.41"/><a:m a:x="335" a:y="399" a:t="11332.93"/><a:m a:x="333" a:y="402" a:t="11349.72"/><a:m a:x="330" a:y="403" a:t="11365.75"/><a:m a:x="325" a:y="404" a:t="11382.59"/><a:m a:x="321" a:y="405" a:t="11414.57"/><a:m a:x="317" a:y="406" a:t="11416.81"/><a:m a:x="112" a:y="405" a:t="12410.25"/><a:m a:x="112" a:y="405" a:t="12411.3"/><a:m a:x="107" a:y="403" a:t="12427.55"/><a:m a:x="103" a:y="401" a:t="12444.73"/><a:m a:x="95" a:y="400" a:t="12461.26"/><a:m a:x="90" a:y="399" a:t="12478.68"/><a:m a:x="86" a:y="398" a:t="12495.97"/><a:m a:x="83" a:y="397" a:t="12513.04"/><a:m a:x="82" a:y="397" a:t="12529.95"/><a:m a:x="81" a:y="396" a:t="12547.65"/><a:m a:x="80" a:y="395" a:t="12565.06"/><a:m a:x="80" a:y="394" a:t="12581.91"/><a:m a:x="78" a:y="394" a:t="12599.91"/><a:m a:x="78" a:y="393" a:t="12624.72"/><a:m a:x="71" a:y="389" a:t="12737.83"/><a:m a:x="70" a:y="387" a:t="12739.2"/><a:m a:x="69" a:y="386" a:t="12757.7"/><a:m a:x="68" a:y="385" a:t="12772.36"/><a:m a:x="67" a:y="384" a:t="12789.61"/><a:m a:x="67" a:y="383" a:t="12806.52"/><a:m a:x="66" a:y="383" a:t="12823.58"/><a:m a:x="66" a:y="382" a:t="12841.94"/><a:m a:x="65" a:y="382" a:t="12858.32"/><a:m a:x="65" a:y="381" a:t="12875.1"/><a:m a:x="64" a:y="381" a:t="12894.62"/><a:m a:x="64" a:y="380" a:t="12911.8"/><a:m a:x="64" a:y="380" a:t="12946.55"/><a:m a:x="63" a:y="380" a:t="12961.63"/><a:m a:x="63" a:y="379" a:t="13048.82"/><a:m a:x="63" a:y="378" a:t="13065.28"/><a:m a:x="63" a:y="377" a:t="13082.28"/><a:m a:x="63" a:y="375" a:t="13099.34"/><a:m a:x="63" a:y="374" a:t="13116.87"/><a:m a:x="64" a:y="374" a:t="13321.41"/><a:m a:x="64" a:y="375" a:t="13339.03"/><a:m a:x="64" a:y="375" a:t="13465.19"/></g><g a:type="void" a:t="13465.73" a:lastErase="0"><a:init><a:s a:d="6" a:u="px" a:t="13465.73"/><a:c a:d="#fff" a:t="13465.73"/><a:m a:x="64" a:y="375" a:t="13465.73"/></a:init></g></g></svg>