<!DOCTYPE svg:svg PUBLIC "-//W3C//DTD SVG 1.1//EN" "http://www.w3.org/Graphics/SVG/1.1/DTD/svg11.dtd"><svg xmlns="http://www.w3.org/2000/svg" xmlns:a="http://www.rozsival.com/2015/vector-video" width="1440" height="407" viewBox="0 0 1440 407"><a:metadata><a:length>21982.011</a:length><a:width>1440</a:width><a:height>407</a:height><a:audio><a:source a:type="audio/ogg" a:src="/recordings/95ed3e1a-b3c9-425b-b0f0-33fdb70fbb2e.ogg"/><a:source a:type="audio/mp3" a:src="/recordings/95ed3e1a-b3c9-425b-b0f0-33fdb70fbb2e.mp3"/></a:audio></a:metadata><g a:type="video-chunks"><g a:type="erase" a:t="0.00" a:lastErase="0"><rect fill="#111" width="100%" height="100%"/><a:init><a:s a:d="2" a:u="px" a:t="0"/><a:c a:d="#fff" a:t="0"/><a:m a:x="0" a:y="0" a:t="0"/></a:init><a:e a:t="0" a:color="#111"/><a:c a:d="#fff" a:t="0"/><a:s a:d="2" a:u="px" a:t="0"/></g><g a:type="void" a:t="0.00" a:lastErase="0"><a:init><a:s a:d="2" a:u="px" a:t="0"/><a:c a:d="#fff" a:t="0"/><a:m a:x="56" a:y="369" a:t="0"/></a:init><a:m a:x="58" a:y="369" a:t="158.74"/><a:m a:x="63" a:y="369" a:t="175.56"/><a:m a:x="72" a:y="369" a:t="191.58"/><a:m a:x="83" a:y="369" a:t="209.2"/><a:m a:x="106" a:y="369" a:t="243.08"/><a:m a:x="117" a:y="369" a:t="259.65"/><a:m a:x="130" a:y="369" a:t="276.3"/><a:m a:x="138" a:y="369" a:t="295.39"/><a:m a:x="148" a:y="369" a:t="310.18"/><a:m a:x="155" a:y="369" a:t="327.38"/><a:m a:x="174" a:y="371" a:t="379.45"/><a:m a:x="178" a:y="373" a:t="396.56"/><a:m a:x="183" a:y="375" a:t="411.83"/><a:m a:x="188" a:y="376" a:t="433.09"/><a:m a:x="197" a:y="377" a:t="449.16"/><a:m a:x="204" a:y="377" a:t="465.25"/><a:m a:x="215" a:y="376" a:t="482.1"/><a:m a:x="221" a:y="375" a:t="500.24"/><a:m a:x="230" a:y="373" a:t="515.89"/><a:m a:x="239" a:y="372" a:t="533.64"/><a:m a:x="244" a:y="370" a:t="550.78"/><a:m a:x="247" a:y="369" a:t="566.56"/><a:m a:x="250" a:y="369" a:t="583.56"/><a:m a:x="251" a:y="369" a:t="600.46"/><a:m a:x="252" a:y="369" a:t="632.41"/><a:m a:x="252" a:y="369" a:t="714.71"/><a:m a:x="253" a:y="369" a:t="767.92"/><a:m a:x="254" a:y="369" a:t="815.86"/><a:m a:x="255" a:y="369" a:t="851.66"/><a:m a:x="256" a:y="369" a:t="882.61"/><a:m a:x="257" a:y="369" a:t="903.92"/><a:m a:x="258" a:y="369" a:t="936.48"/><a:m a:x="258" a:y="369" a:t="960.11"/><a:m a:x="258" a:y="369" a:t="1224.52"/><a:c a:d="#fa5959" a:t="1225.05"/><a:m a:x="258" a:y="366" a:t="1564.06"/><a:m a:x="258" a:y="354" a:t="1580.58"/><a:m a:x="257" a:y="330" a:t="1599.81"/><a:m a:x="255" a:y="301" a:t="1615.33"/><a:m a:x="252" a:y="265" a:t="1631.81"/><a:m a:x="249" a:y="227" a:t="1649.7"/><a:m a:x="247" a:y="193" a:t="1670.24"/><a:m a:x="245" a:y="178" a:t="1689.86"/><a:m a:x="243" a:y="165" a:t="1704.99"/><a:m a:x="241" a:y="159" a:t="1720.01"/><a:m a:x="241" a:y="157" a:t="1736.29"/><a:m a:x="240" a:y="157" a:t="1753.35"/><a:m a:x="240" a:y="156" a:t="1770.26"/><a:m a:x="239" a:y="156" a:t="1786.58"/><a:m a:x="238" a:y="156" a:t="1804.16"/><a:m a:x="237" a:y="156" a:t="1821.89"/><a:m a:x="236" a:y="156" a:t="1839.23"/><a:m a:x="232" a:y="156" a:t="1855.62"/><a:m a:x="228" a:y="156" a:t="1872.66"/><a:m a:x="224" a:y="158" a:t="1889.76"/><a:m a:x="220" a:y="159" a:t="1906.09"/><a:m a:x="215" a:y="160" a:t="1923.65"/><a:m a:x="213" a:y="160" a:t="1940.95"/><a:m a:x="211" a:y="160" a:t="1957.41"/><a:m a:x="209" a:y="157" a:t="1973.89"/><a:m a:x="205" a:y="150" a:t="1991.97"/><a:m a:x="201" a:y="141" a:t="2007.76"/><a:m a:x="197" a:y="127" a:t="2025.08"/><a:m a:x="192" a:y="113" a:t="2041.5"/><a:m a:x="189" a:y="103" a:t="2058.09"/><a:m a:x="185" a:y="93" a:t="2075.32"/><a:m a:x="182" a:y="83" a:t="2092.82"/><a:m a:x="180" a:y="78" a:t="2110.55"/><a:m a:x="179" a:y="73" a:t="2126.34"/><a:m a:x="178" a:y="72" a:t="2143.91"/><a:m a:x="178" a:y="71" a:t="2160.75"/><a:m a:x="178" a:y="73" a:t="2222.11"/><a:m a:x="178" a:y="76" a:t="2239.81"/><a:m a:x="179" a:y="82" a:t="2256.29"/><a:m a:x="179" a:y="82" a:t="2262.89"/></g><g a:type="path" a:t="2263.03" a:lastErase="0"><path fill="#fa5959" d="M 178.181,82 L 178.181,82 C 178.181,82 178.181,81.879 178.181,82 C 178.181,82.121 178.112,82.002 178.181,82.725 C 178.251,83.449 178.53,84.164 178.6,86.342 C 178.67,88.52 178.6,92.215 178.6,95.792 C 178.6,99.37 178.6,103.423 178.6,107.808 C 178.6,112.193 178.6,117.185 178.6,122.105 C 178.6,127.025 178.6,132.49 178.6,137.328 C 178.6,142.165 178.6,147.332 178.6,151.13 C 178.6,154.927 178.4,157.683 178.6,160.114 C 178.8,162.545 179.33,164.374 179.803,165.716 C 180.275,167.059 180.871,167.612 181.435,168.17 C 181.998,168.727 182.661,168.951 183.185,169.062 C 183.708,169.173 184.193,169.003 184.578,168.836 C 184.962,168.669 185.18,168.496 185.491,168.058 C 185.802,167.621 186.17,167.066 186.444,166.209 C 186.717,165.353 186.88,164.217 187.132,162.92 C 187.383,161.623 187.591,160.344 187.954,158.425 C 188.318,156.507 188.765,154.413 189.313,151.409 C 189.86,148.406 190.528,144.376 191.239,140.405 C 191.95,136.434 192.583,132.253 193.578,127.583 C 194.573,122.914 195.823,117.263 197.207,112.389 C 198.591,107.515 200.096,102.905 201.884,98.338 C 203.672,93.772 205.859,88.952 207.935,84.991 C 210.012,81.03 212.442,77.288 214.343,74.571 C 216.244,71.854 217.827,70.305 219.342,68.687 C 220.857,67.069 222.169,65.915 223.432,64.861 C 224.694,63.808 225.806,63.022 226.917,62.366 C 228.029,61.709 229.232,61.218 230.102,60.924 C 230.972,60.63 231.628,60.586 232.137,60.6 C 232.646,60.614 232.905,60.585 233.156,61.008 C 233.407,61.432 233.376,61.79 233.642,63.141 C 233.909,64.491 234.433,67.279 234.757,69.111 C 235.081,70.943 235.191,72.169 235.585,74.133 C 235.978,76.097 236.449,77.984 237.118,80.894 C 237.788,83.804 238.264,86.925 239.603,91.595 C 240.942,96.264 242.803,102.339 245.154,108.911 C 247.504,115.483 250.093,122.176 253.706,131.028 C 257.319,139.88 262.805,153.16 266.832,162.022 C 270.859,170.884 274.712,178.089 277.868,184.199 C 281.024,190.31 283.551,194.861 285.768,198.685 C 287.986,202.508 289.879,205.294 291.173,207.139 C 292.466,208.984 292.891,209.409 293.53,209.756 C 294.169,210.102 294.782,209.887 295.005,209.219 C 295.228,208.551 294.852,207.273 294.868,205.746 C 294.884,204.22 294.953,202.332 295.1,200.06 C 295.247,197.788 295.377,194.731 295.75,192.115 C 296.123,189.499 296.603,187 297.336,184.365 C 298.07,181.729 299.11,178.869 300.149,176.303 C 301.188,173.738 302.456,170.905 303.569,168.971 C 304.681,167.036 305.684,165.866 306.822,164.695 C 307.96,163.525 309.239,162.699 310.396,161.948 C 311.553,161.197 312.771,160.648 313.763,160.19 C 314.755,159.732 315.289,159.418 316.348,159.2 C 317.407,158.981 318.705,158.922 320.116,158.881 C 321.528,158.84 323.109,158.906 324.818,158.952 C 326.527,158.999 328.372,158.962 330.37,159.159 C 332.368,159.356 334.533,159.407 336.808,160.136 C 339.083,160.864 341.814,162.134 344.021,163.528 C 346.228,164.922 348.1,166.655 350.05,168.5 C 352.001,170.345 354.074,172.739 355.725,174.601 C 357.375,176.462 358.577,178.037 359.955,179.668 C 361.333,181.299 362.614,182.97 363.991,184.387 C 365.368,185.803 366.575,187.063 368.218,188.167 C 369.862,189.27 371.671,190.188 373.852,191.007 C 376.034,191.827 378.594,192.578 381.307,193.082 C 384.02,193.586 386.81,194.185 390.131,194.031 C 393.452,193.877 396.554,193.619 401.233,192.156 C 405.912,190.693 412.231,187.997 418.205,185.252 C 424.178,182.507 430.103,179.152 437.074,175.686 C 444.044,172.22 452.446,167.9 460.028,164.456 C 467.611,161.011 475.085,157.95 482.569,155.019 C 490.053,152.088 498.162,149.005 504.932,146.87 C 511.703,144.734 517.973,143.343 523.191,142.206 C 528.409,141.069 532.751,140.461 536.24,140.048 C 539.729,139.635 542.227,139.69 544.125,139.727 C 546.023,139.764 546.81,140.044 547.627,140.269 C 548.444,140.493 548.668,140.657 549.026,141.074 C 549.384,141.491 549.257,141.854 549.775,142.771 C 550.292,143.689 550.748,144.78 552.131,146.578 C 553.513,148.376 555.402,150.782 558.069,153.559 C 560.735,156.336 564.174,159.613 568.13,163.239 C 572.086,166.866 576.686,171.101 581.805,175.318 C 586.924,179.535 594.039,184.911 598.844,188.54 C 603.648,192.168 606.475,194.191 610.631,197.089 C 614.787,199.987 619.127,203.143 623.778,205.925 C 628.428,208.708 633.774,211.701 638.532,213.782 C 643.29,215.863 644.733,217.042 652.325,218.411 C 659.918,219.779 675.495,221.214 684.087,221.994 C 692.679,222.774 697.821,223.276 703.879,223.092 C 709.936,222.907 714.266,222.549 720.432,220.886 C 726.598,219.223 733.358,216.718 740.875,213.115 C 748.391,209.512 757.668,204.112 765.532,199.269 C 773.397,194.427 779.934,189.741 788.06,184.061 C 796.186,178.382 806.726,170.707 814.29,165.192 C 821.854,159.677 827.742,155.184 833.443,150.972 C 839.144,146.759 844.284,142.971 848.494,139.917 C 852.704,136.864 856.226,134.429 858.703,132.65 C 861.18,130.871 862.364,130.056 863.358,129.243 C 864.353,128.43 864.673,128.195 864.671,127.77 C 864.669,127.345 863.796,126.76 863.345,126.696 A 0.692,0.692 1.1238466363254291 0,0 862.563,128.634 C 863.613,128.007 863.903,127.064 863.817,127.12 C 863.731,127.177 863.815,127.784 862.886,128.597 C 861.956,129.411 860.717,130.219 858.239,131.999 C 855.762,133.778 852.233,136.218 848.021,139.273 C 843.809,142.328 838.666,146.118 832.966,150.33 C 827.266,154.541 821.382,159.032 813.823,164.543 C 806.264,170.054 795.726,177.727 787.612,183.398 C 779.499,189.07 772.978,193.744 765.141,198.572 C 757.304,203.4 748.059,208.781 740.59,212.367 C 733.121,215.954 726.438,218.439 720.326,220.093 C 714.215,221.748 709.948,222.109 703.923,222.293 C 697.898,222.477 692.734,221.972 684.176,221.199 C 675.619,220.426 660.124,219.006 652.58,217.652 C 645.035,216.298 643.634,215.141 638.908,213.076 C 634.182,211.011 628.858,208.034 624.224,205.261 C 619.589,202.489 615.249,199.334 611.101,196.441 C 606.952,193.549 604.128,191.528 599.334,187.908 C 594.54,184.287 587.443,178.926 582.335,174.718 C 577.226,170.511 572.628,166.276 568.685,162.663 C 564.742,159.05 561.323,155.79 558.678,153.04 C 556.033,150.29 554.165,147.934 552.814,146.162 C 551.464,144.39 551.131,143.434 550.575,142.41 C 550.02,141.386 549.951,140.507 549.48,140.019 C 549.008,139.53 548.646,139.66 547.748,139.478 C 546.85,139.296 546.032,138.964 544.093,138.928 C 542.153,138.891 539.626,138.842 536.109,139.259 C 532.593,139.676 528.235,140.287 522.993,141.431 C 517.751,142.574 511.447,143.977 504.658,146.118 C 497.869,148.26 489.757,151.345 482.26,154.281 C 474.763,157.217 467.268,160.288 459.677,163.737 C 452.086,167.186 443.674,171.51 436.712,174.972 C 429.749,178.435 423.838,181.779 417.903,184.511 C 411.967,187.244 405.713,189.913 401.099,191.367 C 396.484,192.821 393.479,193.078 390.216,193.235 C 386.953,193.393 384.189,192.801 381.521,192.311 C 378.854,191.82 376.339,191.083 374.211,190.292 C 372.083,189.502 370.353,188.641 368.751,187.57 C 367.149,186.499 365.962,185.269 364.599,183.867 C 363.235,182.464 361.951,180.79 360.569,179.155 C 359.188,177.52 357.979,175.934 356.31,174.055 C 354.642,172.177 352.55,169.757 350.558,167.882 C 348.567,166.007 346.632,164.227 344.36,162.804 C 342.089,161.381 339.254,160.085 336.928,159.345 C 334.601,158.604 332.416,158.558 330.4,158.359 C 328.383,158.161 326.556,158.198 324.83,158.152 C 323.104,158.106 321.507,158.034 320.046,158.084 C 318.584,158.134 317.17,158.22 316.061,158.453 C 314.952,158.686 314.418,159.004 313.392,159.481 C 312.366,159.958 311.108,160.527 309.907,161.315 C 308.706,162.103 307.361,162.992 306.184,164.212 C 305.007,165.432 303.975,166.661 302.843,168.633 C 301.712,170.604 300.442,173.445 299.393,176.04 C 298.345,178.635 297.293,181.536 296.553,184.205 C 295.812,186.873 295.328,189.412 294.953,192.05 C 294.577,194.687 294.448,197.748 294.301,200.028 C 294.153,202.307 294.153,204.353 294.068,205.728 C 293.984,207.103 293.783,207.698 293.793,208.28 C 293.802,208.862 294.448,209.481 294.123,209.219 C 293.799,208.957 293.122,208.528 291.847,206.708 C 290.571,204.889 288.681,202.113 286.471,198.302 C 284.26,194.491 281.734,189.941 278.584,183.843 C 275.434,177.744 271.591,170.561 267.569,161.71 C 263.547,152.86 258.061,139.58 254.452,130.74 C 250.843,121.899 248.261,115.221 245.916,108.667 C 243.571,102.112 241.718,96.072 240.382,91.414 C 239.046,86.756 238.567,83.619 237.899,80.717 C 237.231,77.815 236.767,75.962 236.374,74.003 C 235.982,72.044 235.87,70.811 235.543,68.964 C 235.216,67.117 234.777,64.477 234.412,62.922 C 234.047,61.366 233.762,60.17 233.354,59.632 C 232.945,59.094 232.556,59.599 231.959,59.693 C 231.362,59.787 230.689,59.859 229.771,60.196 C 228.853,60.533 227.599,61.035 226.451,61.715 C 225.303,62.396 224.171,63.202 222.885,64.277 C 221.598,65.353 220.269,66.524 218.732,68.169 C 217.195,69.815 215.582,71.403 213.661,74.152 C 211.74,76.901 209.296,80.672 207.206,84.661 C 205.117,88.65 202.921,93.495 201.125,98.086 C 199.329,102.676 197.818,107.311 196.429,112.203 C 195.04,117.096 193.787,122.762 192.791,127.44 C 191.795,132.117 191.162,136.298 190.451,140.267 C 189.741,144.237 189.074,148.255 188.527,151.257 C 187.98,154.26 187.53,156.369 187.167,158.281 C 186.805,160.194 186.621,161.509 186.354,162.734 C 186.086,163.959 185.88,164.929 185.561,165.631 C 185.243,166.332 184.704,166.639 184.442,166.942 C 184.18,167.245 184.135,167.273 183.99,167.447 C 183.845,167.621 183.887,167.941 183.571,167.987 C 183.256,168.032 182.594,168.127 182.096,167.72 C 181.598,167.313 181.034,166.815 180.584,165.547 C 180.135,164.279 179.597,162.517 179.4,160.114 C 179.203,157.711 179.4,154.927 179.4,151.13 C 179.4,147.332 179.4,142.165 179.4,137.328 C 179.4,132.49 179.4,127.025 179.4,122.105 C 179.4,117.185 179.4,112.193 179.4,107.808 C 179.4,103.423 179.4,99.37 179.4,95.792 C 179.4,92.215 179.33,88.52 179.4,86.342 C 179.47,84.164 179.749,83.449 179.819,82.725 C 179.888,82.002 179.819,82.121 179.819,82 C 179.819,81.879 179.819,82 179.819,82 L 179.819,82 L 179.819,82 A 0.819,0.819 -3.141592653589793 0,0 178.181,82"/><a:init><a:s a:d="2" a:u="px" a:t="2263.03"/><a:c a:d="#fa5959" a:t="2263.03"/><a:m a:x="179" a:y="82" a:t="2263.03" a:p="1"/></a:init><a:ds a:t="2263.5"/><a:m a:x="179" a:y="84" a:t="2438.61"/><a:ds a:t="2446.45"/><a:m a:x="179" a:y="91" a:t="2455.3"/><a:ds a:t="2462.12"/><a:m a:x="179" a:y="107" a:t="2474.48"/><a:ds a:t="2476.74"/><a:m a:x="179" a:y="116" a:t="2489.62"/><a:ds a:t="2493.69"/><a:m a:x="179" a:y="132" a:t="2506.69"/><a:ds a:t="2510.55"/><a:m a:x="179" a:y="145" a:t="2523.57"/><a:ds a:t="2527.14"/><a:m a:x="179" a:y="156" a:t="2541.17"/><a:ds a:t="2544.15"/><a:m a:x="179" a:y="160" a:t="2558.61"/><a:ds a:t="2560.63"/><a:m a:x="182" a:y="165" a:t="2575.8"/><a:ds a:t="2577.04"/><a:m a:x="183" a:y="166" a:t="2593.43"/><a:ds a:t="2594.85"/><a:m a:x="184" a:y="167" a:t="2611.33"/><a:ds a:t="2612.23"/><a:ds a:t="2628.57"/><a:m a:x="185" a:y="167" a:t="2630.05"/><a:ds a:t="2645.56"/><a:m a:x="185" a:y="167" a:t="2647.45"/><a:m a:x="187" a:y="164" a:t="2663.9"/><a:ds a:t="2678.78"/><a:m a:x="187" a:y="159" a:t="2681.32"/><a:ds a:t="2694.04"/><a:m a:x="188" a:y="155" a:t="2698.36"/><a:ds a:t="2711.04"/><a:m a:x="190" a:y="146" a:t="2716.26"/><a:ds a:t="2729.54"/><a:m a:x="192" a:y="133" a:t="2732.75"/><a:ds a:t="2746.65"/><a:m a:x="195" a:y="118" a:t="2750.8"/><a:ds a:t="2762.6"/><a:m a:x="200" a:y="102" a:t="2767.44"/><a:ds a:t="2779.91"/><a:m a:x="206" a:y="89" a:t="2784.13"/><a:ds a:t="2794.33"/><a:m a:x="211" a:y="81" a:t="2800.75"/><a:ds a:t="2812.58"/><a:m a:x="217" a:y="73" a:t="2818.11"/><a:ds a:t="2829.47"/><a:m a:x="221" a:y="69" a:t="2835.04"/><a:ds a:t="2846.55"/><a:m a:x="224" a:y="65" a:t="2851.92"/><a:ds a:t="2862.29"/><a:m a:x="228" a:y="62" a:t="2872"/><a:ds a:t="2879.31"/><a:m a:x="231" a:y="61" a:t="2888.83"/><a:ds a:t="2896.21"/><a:m a:x="232" a:y="61" a:t="2905.09"/><a:ds a:t="2912.68"/><a:m a:x="233" a:y="61" a:t="2929.18"/><a:ds a:t="2930.78"/><a:m a:x="234" a:y="67" a:t="2945.31"/><a:ds a:t="2947.05"/><a:m a:x="236" a:y="75" a:t="2962.52"/><a:ds a:t="2963.89"/><a:ds a:t="2980.67"/><a:m a:x="239" a:y="86" a:t="2982.7"/><a:ds a:t="2997.84"/><a:m a:x="242" a:y="100" a:t="2999.71"/><a:ds a:t="3013.96"/><a:m a:x="252" a:y="126" a:t="3015.87"/><a:ds a:t="3030.99"/><a:m a:x="263" a:y="151" a:t="3032.65"/><a:ds a:t="3045.06"/><a:m a:x="274" a:y="176" a:t="3049.67"/><a:ds a:t="3064.38"/><a:m a:x="283" a:y="189" a:t="3065.61"/><a:ds a:t="3080.13"/><a:m a:x="288" a:y="200" a:t="3082.25"/><a:ds a:t="3096.34"/><a:m a:x="291" a:y="204" a:t="3099.1"/><a:ds a:t="3113.7"/><a:m a:x="292" a:y="205" a:t="3116.18"/><a:ds a:t="3129.97"/><a:m a:x="293" a:y="205" a:t="3138.87"/><a:ds a:t="3146.22"/><a:m a:x="294" a:y="202" a:t="3155.58"/><a:ds a:t="3163.51"/><a:m a:x="295" a:y="194" a:t="3172.89"/><a:ds a:t="3179.84"/><a:m a:x="296" a:y="187" a:t="3190.43"/><a:ds a:t="3196.66"/><a:m a:x="299" a:y="179" a:t="3206.4"/><a:ds a:t="3211.88"/><a:m a:x="302" a:y="173" a:t="3222.91"/><a:ds a:t="3229.69"/><a:m a:x="305" a:y="167" a:t="3239.81"/><a:ds a:t="3247.62"/><a:m a:x="309" a:y="164" a:t="3256.63"/><a:ds a:t="3265.1"/><a:m a:x="312" a:y="162" a:t="3272.54"/><a:ds a:t="3280.27"/><a:m a:x="315" a:y="160" a:t="3290.74"/><a:ds a:t="3296.45"/><a:m a:x="317" a:y="159" a:t="3305.93"/><a:ds a:t="3312.47"/><a:m a:x="323" a:y="159" a:t="3322.99"/><a:ds a:t="3329.98"/><a:m a:x="328" a:y="159" a:t="3340.41"/><a:ds a:t="3346.28"/><a:m a:x="334" a:y="159" a:t="3358.5"/><a:ds a:t="3362.85"/><a:m a:x="341" a:y="161" a:t="3374"/><a:ds a:t="3379.99"/><a:m a:x="348" a:y="167" a:t="3391.2"/><a:ds a:t="3396.87"/><a:m a:x="353" a:y="173" a:t="3408.1"/><a:ds a:t="3412.71"/><a:m a:x="358" a:y="178" a:t="3424.64"/><a:ds a:t="3430.22"/><a:m a:x="361" a:y="181" a:t="3441.57"/><a:ds a:t="3446.51"/><a:m a:x="366" a:y="186" a:t="3459.7"/><a:ds a:t="3463.61"/><a:m a:x="371" a:y="189" a:t="3475.38"/><a:ds a:t="3479.94"/><a:m a:x="378" a:y="191" a:t="3491.99"/><a:ds a:t="3497.34"/><a:m a:x="387" a:y="193" a:t="3509.95"/><a:ds a:t="3513.07"/><a:m a:x="396" a:y="193" a:t="3525.92"/><a:ds a:t="3529.75"/><a:m a:x="409" a:y="188" a:t="3543.53"/><a:ds a:t="3548.19"/><a:m a:x="431" a:y="177" a:t="3560.3"/><a:ds a:t="3563.49"/><a:m a:x="450" a:y="167" a:t="3576.41"/><a:ds a:t="3579.74"/><a:m a:x="473" a:y="158" a:t="3593.15"/><a:ds a:t="3596.98"/><a:m a:x="495" a:y="151" a:t="3610.44"/><a:ds a:t="3613.19"/><a:m a:x="515" a:y="144" a:t="3627.61"/><a:ds a:t="3630.42"/><a:m a:x="528" a:y="143" a:t="3643.91"/><a:ds a:t="3646.89"/><a:m a:x="538" a:y="141" a:t="3660.66"/><a:ds a:t="3663.25"/><a:m a:x="543" a:y="141" a:t="3678.74"/><a:ds a:t="3679.7"/><a:m a:x="545" a:y="141" a:t="3694.81"/><a:ds a:t="3696.75"/><a:m a:x="548" a:y="141" a:t="3712.02"/><a:ds a:t="3713.48"/><a:m a:x="550" a:y="145" a:t="3729.64"/><a:ds a:t="3730.7"/><a:m a:x="555" a:y="150" a:t="3746.07"/><a:ds a:t="3747.87"/><a:m a:x="565" a:y="160" a:t="3763.19"/><a:ds a:t="3764.27"/><a:m a:x="576" a:y="169" a:t="3781.04"/><a:ds a:t="3781.81"/><a:m a:x="592" a:y="183" a:t="3798.14"/><a:ds a:t="3799.16"/><a:m a:x="611" a:y="196" a:t="3814.82"/><a:ds a:t="3815.85"/><a:ds a:t="3831.95"/><a:m a:x="630" a:y="209" a:t="3833.34"/><a:ds a:t="3849.6"/><a:m a:x="647" a:y="216" a:t="3850.81"/><a:ds a:t="3868.76"/><a:m a:x="664" a:y="219" a:t="3869.93"/><a:ds a:t="3880.82"/><a:m a:x="681" a:y="221" a:t="3883.65"/><a:m a:x="706" a:y="221" a:t="3900.59"/><a:ds a:t="3901.77"/><a:ds a:t="3915.73"/><a:m a:x="726" a:y="216" a:t="3917.82"/><a:ds a:t="3932.03"/><a:m a:x="753" a:y="204" a:t="3933.83"/><a:ds a:t="3949.28"/><a:m a:x="780" a:y="187" a:t="3951.36"/><a:ds a:t="3966.66"/><a:m a:x="807" a:y="168" a:t="3969.49"/><a:ds a:t="3980.65"/><a:m a:x="825" a:y="156" a:t="3985.25"/><a:ds a:t="3999.11"/><a:m a:x="840" a:y="145" a:t="4002.14"/><a:ds a:t="4014.22"/><a:m a:x="852" a:y="137" a:t="4018.91"/><a:ds a:t="4030.73"/><a:m a:x="858" a:y="133" a:t="4035.91"/><a:ds a:t="4048.09"/><a:m a:x="860" a:y="131" a:t="4055.09"/><a:ds a:t="4064.39"/><a:m a:x="861" a:y="129" a:t="4070.62"/><a:ds a:t="4082.85"/><a:ds a:t="4101.03"/><a:m a:x="861" a:y="129" a:t="4113.32"/><a:ds a:t="4114.17"/><a:m a:x="861" a:y="129" a:t="4130.04"/><a:ds a:t="4131.17"/><a:m a:x="858" a:y="129" a:t="4492.5"/><a:m a:x="830" a:y="129" a:t="4509.84"/><a:m a:x="805" a:y="129" a:t="4526.73"/><a:m a:x="783" a:y="131" a:t="4543.63"/><a:m a:x="739" a:y="139" a:t="4560.94"/><a:m a:x="716" a:y="147" a:t="4576.24"/><a:m a:x="691" a:y="158" a:t="4593.55"/><a:m a:x="671" a:y="168" a:t="4613.11"/><a:m a:x="663" a:y="175" a:t="4628.22"/><a:m a:x="658" a:y="180" a:t="4644.7"/><a:m a:x="655" a:y="183" a:t="4661.24"/><a:m a:x="653" a:y="184" a:t="4677.89"/><a:m a:x="648" a:y="188" a:t="4694.82"/><a:m a:x="644" a:y="192" a:t="4712.68"/><a:m a:x="642" a:y="195" a:t="4730.65"/><a:m a:x="638" a:y="199" a:t="4746.63"/><a:m a:x="635" a:y="203" a:t="4764.47"/><a:m a:x="634" a:y="205" a:t="4780.64"/><a:m a:x="632" a:y="208" a:t="4797.24"/><a:m a:x="630" a:y="210" a:t="4814.99"/><a:m a:x="628" a:y="213" a:t="4831.34"/><a:m a:x="625" a:y="217" a:t="4848.01"/><a:m a:x="622" a:y="220" a:t="4865.71"/><a:m a:x="619" a:y="223" a:t="4883.27"/><a:m a:x="616" a:y="225" a:t="4900.34"/><a:m a:x="614" a:y="227" a:t="4917.08"/><a:m a:x="611" a:y="228" a:t="4934.02"/><a:m a:x="608" a:y="229" a:t="4951.07"/><a:m a:x="605" a:y="230" a:t="4967.4"/><a:m a:x="601" a:y="231" a:t="4983.95"/><a:m a:x="597" a:y="231" a:t="5000.82"/><a:m a:x="593" a:y="231" a:t="5018.09"/><a:m a:x="590" a:y="231" a:t="5037.89"/><a:m a:x="586" a:y="231" a:t="5053.47"/><a:m a:x="583" a:y="229" a:t="5070.77"/><a:m a:x="580" a:y="227" a:t="5086.94"/><a:m a:x="578" a:y="225" a:t="5104.07"/><a:m a:x="577" a:y="223" a:t="5121.21"/><a:m a:x="575" a:y="221" a:t="5138.83"/><a:m a:x="575" a:y="219" a:t="5155.24"/><a:m a:x="574" a:y="217" a:t="5172.51"/><a:m a:x="573" a:y="217" a:t="5189.45"/><a:m a:x="573" a:y="218" a:t="5236.76"/><a:m a:x="573" a:y="218" a:t="5247"/></g><g a:type="path" a:t="5247.45" a:lastErase="0"><path fill="#fa5959" d="M 573,218.913 L 573,218.913 C 573,218.913 572.942,218.913 573,218.913 C 573.058,218.913 572.661,218.742 573.347,218.913 C 574.033,219.084 574.879,218.951 577.114,219.938 C 579.35,220.925 583.184,223.093 586.762,224.834 C 590.34,226.575 594.154,228.43 598.582,230.385 C 603.01,232.34 608.208,234.699 613.332,236.564 C 618.455,238.428 624.095,240.152 629.323,241.573 C 634.551,242.994 639.259,244.12 644.7,245.09 C 650.14,246.06 655.124,246.789 661.964,247.394 C 668.803,247.999 676.462,248.233 685.737,248.72 C 695.013,249.207 705.095,249.873 717.617,250.315 C 730.138,250.758 746.574,251.127 760.868,251.376 C 775.162,251.626 789.932,251.739 803.381,251.814 C 816.831,251.888 829.719,252.274 841.565,251.823 C 853.411,251.372 865.278,250.538 874.455,249.107 C 883.632,247.676 891.52,244.981 896.628,243.238 C 901.737,241.495 903.226,240.316 905.106,238.651 C 906.986,236.986 906.944,235.432 907.908,233.247 C 908.873,231.063 910.09,227.723 910.892,225.545 A 0.4,0.4 -2.8134346053411905 0,0 911.964,219.917 C 909.351,227.417 908.097,230.772 907.194,232.887 C 906.29,235.003 906.52,236.352 904.725,237.948 C 902.929,239.544 901.479,240.738 896.423,242.465 C 891.368,244.192 883.532,246.883 874.389,248.309 C 865.246,249.736 853.399,250.573 841.565,251.023 C 829.732,251.474 816.836,251.088 803.389,251.014 C 789.943,250.939 775.176,250.826 760.887,250.577 C 746.598,250.327 730.174,249.959 717.657,249.516 C 705.139,249.074 695.046,248.407 685.782,247.921 C 676.517,247.435 668.887,247.203 662.069,246.601 C 655.252,245.999 650.296,245.275 644.878,244.31 C 639.46,243.345 634.769,242.224 629.562,240.81 C 624.356,239.396 618.747,237.684 613.641,235.826 C 608.534,233.967 603.341,231.611 598.922,229.661 C 594.502,227.71 590.709,225.865 587.124,224.121 C 583.539,222.376 579.708,220.367 577.412,219.195 C 575.115,218.023 574.082,217.438 573.347,217.087 C 572.612,216.735 573.058,217.087 573,217.087 C 572.942,217.087 573,217.087 573,217.087 L 573,217.087 L 573,217.087 A 0.913,0.913 -4.71238898038469 0,0 573,218.913"/><a:init><a:s a:d="2" a:u="px" a:t="5247.45"/><a:c a:d="#fa5959" a:t="5247.45"/><a:m a:x="573" a:y="218" a:t="5247.45" a:p="1"/></a:init><a:ds a:t="5247.53"/><a:m a:x="574" a:y="218" a:t="5413.1"/><a:ds a:t="5420.12"/><a:m a:x="583" a:y="222" a:t="5430.27"/><a:ds a:t="5434.92"/><a:m a:x="597" a:y="230" a:t="5449.2"/><a:ds a:t="5451.96"/><a:m a:x="608" a:y="234" a:t="5463.49"/><a:ds a:t="5467.94"/><a:m a:x="624" a:y="240" a:t="5480.86"/><a:ds a:t="5484.59"/><a:m a:x="637" a:y="242" a:t="5497.98"/><a:ds a:t="5502.05"/><a:m a:x="652" a:y="245" a:t="5515.59"/><a:ds a:t="5518.44"/><a:m a:x="673" a:y="247" a:t="5533.1"/><a:ds a:t="5534.98"/><a:m a:x="704" a:y="248" a:t="5549.86"/><a:ds a:t="5551.66"/><a:m a:x="742" a:y="251" a:t="5566.93"/><a:ds a:t="5568.44"/><a:m a:x="795" a:y="251" a:t="5586.47"/><a:ds a:t="5587.21"/><a:m a:x="823" a:y="251" a:t="5600.88"/><a:ds a:t="5602.18"/><a:m a:x="856" a:y="251" a:t="5618.27"/><a:ds a:t="5619.05"/><a:m a:x="881" a:y="245" a:t="5635.98"/><a:ds a:t="5636.66"/><a:m a:x="896" a:y="237" a:t="5653"/><a:ds a:t="5653.78"/><a:ds a:t="5669.1"/><a:m a:x="903" a:y="230" a:t="5670.43"/><a:ds a:t="5686.15"/><a:m a:x="909" a:y="224" a:t="5687.22"/><a:m a:x="912" a:y="220" a:t="5703.49"/><a:ds a:t="5704.46"/><a:ds a:t="5721.28"/><a:m a:x="913" a:y="218" a:t="5722.66"/><a:ds a:t="5737.79"/><a:m a:x="914" a:y="217" a:t="5740.15"/><a:m a:x="914" a:y="217" a:t="5773.17"/><a:m a:x="911" a:y="217" a:t="5994.66"/><a:m a:x="900" a:y="217" a:t="6013.55"/><a:m a:x="890" a:y="220" a:t="6031.15"/><a:m a:x="875" a:y="227" a:t="6046.2"/><a:m a:x="850" a:y="240" a:t="6063.67"/><a:m a:x="830" a:y="252" a:t="6082.08"/><a:m a:x="813" a:y="264" a:t="6099.51"/><a:m a:x="794" a:y="279" a:t="6114.33"/><a:m a:x="777" a:y="292" a:t="6131.89"/><a:m a:x="765" a:y="303" a:t="6147.99"/><a:m a:x="753" a:y="312" a:t="6164.7"/><a:m a:x="747" a:y="316" a:t="6182.35"/><a:m a:x="742" a:y="319" a:t="6199.76"/><a:m a:x="738" a:y="321" a:t="6215.98"/><a:m a:x="736" a:y="322" a:t="6232.89"/><a:m a:x="736" a:y="323" a:t="6250.88"/><a:m a:x="734" a:y="324" a:t="6266.82"/><a:m a:x="733" a:y="325" a:t="6285.6"/><a:m a:x="731" a:y="326" a:t="6301.03"/><a:m a:x="729" a:y="327" a:t="6318.12"/><a:m a:x="728" a:y="327" a:t="6335.09"/><a:m a:x="727" a:y="328" a:t="6352.06"/><a:m a:x="724" a:y="329" a:t="6370.63"/><a:m a:x="721" a:y="332" a:t="6387.33"/><a:m a:x="718" a:y="335" a:t="6404.37"/><a:m a:x="714" a:y="338" a:t="6423.7"/><a:m a:x="711" a:y="340" a:t="6437.91"/><a:m a:x="708" a:y="343" a:t="6455.51"/><a:m a:x="707" a:y="344" a:t="6474.4"/><a:m a:x="706" a:y="346" a:t="6490.54"/><a:m a:x="705" a:y="347" a:t="6507.79"/><a:m a:x="704" a:y="348" a:t="6524.44"/><a:m a:x="703" a:y="348" a:t="6540.51"/><a:m a:x="702" a:y="349" a:t="6557.94"/><a:m a:x="701" a:y="349" a:t="6574.39"/><a:m a:x="700" a:y="351" a:t="6591.59"/><a:m a:x="699" a:y="352" a:t="6610.3"/><a:m a:x="697" a:y="353" a:t="6625.04"/><a:m a:x="696" a:y="354" a:t="6643.01"/><a:m a:x="695" a:y="355" a:t="6660.45"/><a:m a:x="694" a:y="356" a:t="6677.15"/><a:m a:x="693" a:y="357" a:t="6696.04"/><a:m a:x="692" a:y="359" a:t="6710.74"/><a:m a:x="690" a:y="359" a:t="6727.47"/><a:m a:x="689" a:y="360" a:t="6743.76"/><a:m a:x="688" a:y="360" a:t="6762"/><a:m a:x="688" a:y="360" a:t="6934.52"/><a:s a:d="80" a:u="px" a:t="6934.98"/><a:m a:x="682" a:y="360" a:t="7156.73"/><a:m a:x="651" a:y="365" a:t="7172.71"/><a:m a:x="627" a:y="374" a:t="7189.94"/><a:m a:x="607" a:y="378" a:t="7207.97"/><a:m a:x="593" a:y="381" a:t="7224.25"/><a:m a:x="571" a:y="382" a:t="7243.03"/><a:m a:x="555" a:y="382" a:t="7261.46"/><a:m a:x="538" a:y="380" a:t="7276.67"/><a:m a:x="520" a:y="373" a:t="7292.97"/><a:m a:x="504" a:y="367" a:t="7310.17"/><a:m a:x="487" a:y="362" a:t="7327.88"/><a:m a:x="472" a:y="361" a:t="7344.52"/><a:m a:x="465" a:y="359" a:t="7361.59"/><a:m a:x="456" a:y="358" a:t="7378.14"/><a:m a:x="450" a:y="357" a:t="7396.04"/><a:m a:x="446" a:y="356" a:t="7412.57"/><a:m a:x="442" a:y="355" a:t="7430.27"/><a:m a:x="439" a:y="354" a:t="7448.55"/><a:m a:x="434" a:y="352" a:t="7463.2"/><a:m a:x="429" a:y="347" a:t="7480.25"/><a:m a:x="422" a:y="343" a:t="7496.93"/><a:m a:x="417" a:y="342" a:t="7514.41"/><a:m a:x="410" a:y="340" a:t="7534.06"/><a:m a:x="406" a:y="339" a:t="7551.81"/><a:m a:x="403" a:y="339" a:t="7567.86"/><a:m a:x="399" a:y="339" a:t="7585.24"/><a:m a:x="395" a:y="339" a:t="7601.32"/><a:m a:x="391" a:y="339" a:t="7618.19"/><a:m a:x="387" a:y="340" a:t="7635.21"/><a:m a:x="383" a:y="343" a:t="7651.49"/><a:m a:x="379" a:y="344" a:t="7668.74"/><a:m a:x="377" a:y="344" a:t="7686.04"/><a:m a:x="374" a:y="344" a:t="7702.76"/><a:m a:x="371" a:y="345" a:t="7719.93"/><a:m a:x="368" a:y="345" a:t="7736.18"/><a:m a:x="366" a:y="346" a:t="7753.09"/><a:m a:x="364" a:y="347" a:t="7771.5"/><a:m a:x="363" a:y="348" a:t="7788.46"/><a:m a:x="362" a:y="349" a:t="7805.13"/><a:m a:x="362" a:y="350" a:t="7821.65"/><a:m a:x="362" a:y="351" a:t="7839.35"/><a:m a:x="361" a:y="352" a:t="7856.39"/><a:m a:x="360" a:y="353" a:t="7872.59"/><a:m a:x="360" a:y="354" a:t="7890"/><a:m a:x="359" a:y="355" a:t="7908.46"/><a:m a:x="359" a:y="356" a:t="7923.37"/><a:m a:x="358" a:y="356" a:t="7941.73"/><a:m a:x="357" a:y="358" a:t="7958.8"/><a:m a:x="356" a:y="359" a:t="7977.26"/><a:m a:x="355" a:y="359" a:t="8001.55"/><a:m a:x="355" a:y="360" a:t="8016.66"/><a:m a:x="355" a:y="361" a:t="8032.45"/><a:m a:x="355" a:y="361" a:t="8170.59"/><a:c a:d="#fbff06" a:t="8171.04"/><a:m a:x="357" a:y="360" a:t="8336.48"/><a:m a:x="367" a:y="350" a:t="8352.8"/><a:m a:x="384" a:y="337" a:t="8370.7"/><a:m a:x="410" a:y="319" a:t="8386.24"/><a:m a:x="435" a:y="302" a:t="8403.44"/><a:m a:x="451" a:y="294" a:t="8421.8"/><a:m a:x="470" a:y="284" a:t="8436.94"/><a:m a:x="484" a:y="280" a:t="8453.82"/><a:m a:x="497" a:y="277" a:t="8471.17"/><a:m a:x="506" a:y="276" a:t="8487.12"/><a:m a:x="511" a:y="276" a:t="8504.61"/><a:m a:x="514" a:y="276" a:t="8521.24"/><a:m a:x="516" a:y="276" a:t="8537.94"/><a:m a:x="518" a:y="276" a:t="8554.76"/><a:m a:x="519" a:y="276" a:t="8572.14"/><a:m a:x="520" a:y="276" a:t="8599.52"/><a:m a:x="520" a:y="276" a:t="8679.47"/></g><g a:type="path" a:t="8679.51" a:lastErase="0"><path fill="#fbff06" d="M 559.99,276 L 559.99,276 C 559.99,276 559.99,276.268 559.99,276 C 559.99,275.732 559.991,275.135 559.99,274.394 C 559.989,273.654 559.986,272.867 559.982,271.557 C 559.979,270.247 559.972,268.362 559.969,266.534 C 559.965,264.706 559.966,262.871 559.963,260.588 C 559.96,258.305 559.955,255.638 559.952,252.837 C 559.948,250.035 559.945,246.812 559.943,243.778 C 559.942,240.743 559.944,237.856 559.943,234.632 C 559.942,231.407 559.938,227.908 559.936,224.43 C 559.935,220.953 559.914,217.176 559.933,213.767 C 559.953,210.357 559.965,206.842 560.054,203.976 C 560.143,201.11 560.282,198.9 560.466,196.571 C 560.651,194.243 560.873,191.98 561.159,190.004 C 561.445,188.027 561.792,186.267 562.182,184.712 C 562.572,183.156 563.019,181.885 563.501,180.673 C 563.983,179.461 564.559,178.303 565.075,177.438 C 565.59,176.572 565.93,176.3 566.594,175.478 C 567.258,174.656 568.117,173.538 569.062,172.508 C 570.006,171.478 571.089,170.39 572.259,169.298 C 573.43,168.206 574.803,166.967 576.085,165.956 C 577.367,164.946 578.547,164.148 579.951,163.235 C 581.355,162.321 582.959,161.346 584.51,160.474 C 586.062,159.603 587.593,158.812 589.258,158.005 C 590.924,157.198 592.766,156.366 594.502,155.63 C 596.238,154.895 598.039,154.19 599.674,153.591 C 601.309,152.992 603.003,152.422 604.312,152.037 C 605.62,151.651 606.746,151.411 607.525,151.279 C 608.304,151.147 608.812,151.192 608.987,151.246 C 609.162,151.299 609.013,151.502 608.573,151.6 C 608.133,151.698 607.67,151.954 606.347,151.834 C 605.024,151.713 602.557,151.466 600.634,150.879 C 598.711,150.291 596.234,149.041 594.812,148.31 C 593.39,147.58 592.665,146.833 592.101,146.494 C 591.538,146.154 591.387,145.962 591.43,146.273 C 591.473,146.583 591.853,147.246 592.357,148.358 C 592.861,149.47 593.66,151.155 594.456,152.944 C 595.251,154.733 596.175,156.844 597.129,159.092 C 598.083,161.341 599.101,163.79 600.181,166.435 C 601.261,169.079 602.449,172.039 603.611,174.961 C 604.772,177.883 605.913,180.824 607.151,183.968 C 608.388,187.112 609.691,190.443 611.036,193.828 C 612.381,197.213 613.758,200.688 615.222,204.278 C 616.685,207.869 618.215,211.615 619.816,215.37 C 621.416,219.126 622.975,222.766 624.822,226.811 C 626.67,230.856 628.975,235.689 630.903,239.639 C 632.831,243.59 634.547,247.02 636.391,250.516 C 638.235,254.011 639.923,257.088 641.966,260.612 C 644.01,264.137 646.578,268.343 648.654,271.664 C 650.73,274.984 652.429,277.642 654.424,280.536 C 656.419,283.431 658.416,286.197 660.624,289.033 C 662.832,291.869 665.518,295.064 667.672,297.551 C 669.826,300.038 671.415,301.808 673.549,303.955 C 675.682,306.101 677.919,308.318 680.472,310.429 C 683.025,312.54 685.198,314.554 688.867,316.621 C 692.536,318.688 697.029,321.451 702.486,322.83 C 707.943,324.21 715.015,325.573 721.61,324.899 C 728.205,324.225 736.263,321.559 742.055,318.787 C 747.847,316.016 752.067,312.197 756.36,308.272 C 760.652,304.346 764.48,299.45 767.809,295.235 C 771.139,291.02 773.453,287.595 776.339,282.98 C 779.225,278.365 782.243,273.047 785.124,267.545 C 788.005,262.043 790.81,256.166 793.623,249.969 C 796.435,243.773 799.347,236.851 801.999,230.367 C 804.65,223.882 807.109,217.49 809.533,211.062 C 811.956,204.634 814.372,197.924 816.539,191.797 C 818.706,185.67 820.671,179.851 822.536,174.298 C 824.4,168.745 826.094,163.513 827.727,158.48 C 829.361,153.447 830.915,148.54 832.337,144.1 C 833.76,139.66 835.072,135.471 836.264,131.84 C 837.455,128.208 838.491,125.113 839.485,122.313 C 840.478,119.513 841.38,117.152 842.223,115.04 C 843.066,112.928 843.85,111.144 844.543,109.641 C 845.235,108.138 845.86,106.965 846.376,106.022 C 846.892,105.079 847.399,104.304 847.637,103.985 C 847.876,103.666 848.032,103.72 847.806,104.108 C 847.581,104.496 847.49,105.108 846.287,106.314 C 845.083,107.521 844.673,109.503 840.587,111.347 C 836.502,113.19 828.576,117.42 821.773,117.378 C 814.969,117.335 804.626,113.204 799.765,111.093 C 794.905,108.983 793.646,105.424 792.609,104.714 C 791.572,104.003 792.797,105.236 793.542,106.83 C 794.286,108.425 795.808,111.559 797.077,114.281 C 798.346,117.003 799.429,119.465 801.156,123.163 C 802.884,126.86 805.267,131.88 807.442,136.467 C 809.617,141.054 811.832,145.785 814.205,150.687 C 816.577,155.588 819.117,160.767 821.677,165.878 C 824.238,170.989 826.855,176.16 829.567,181.352 C 832.279,186.544 835.158,191.985 837.95,197.029 C 840.743,202.073 843.449,206.804 846.323,211.613 C 849.197,216.422 852.415,221.574 855.193,225.883 C 857.97,230.192 860.242,233.589 862.988,237.468 C 865.735,241.346 868.87,245.549 871.673,249.155 C 874.476,252.762 877.16,256.013 879.804,259.109 C 882.448,262.205 884.921,264.967 887.536,267.734 C 890.151,270.502 892.419,273.013 895.492,275.714 C 898.566,278.416 900.804,281.225 905.979,283.943 C 911.154,286.661 917.91,291.471 926.541,292.023 C 935.173,292.574 949.181,290.668 957.768,287.253 C 966.355,283.838 972.384,277.025 978.064,271.533 C 983.744,266.041 987.591,260.035 991.851,254.299 C 996.11,248.563 999.78,242.916 1003.622,237.118 C 1007.465,231.319 1011.429,225.004 1014.906,219.51 C 1018.382,214.016 1021.317,209.267 1024.481,204.151 C 1027.646,199.034 1030.996,193.532 1033.893,188.812 C 1036.79,184.091 1039.385,179.816 1041.862,175.83 C 1044.338,171.843 1046.801,167.731 1048.752,164.893 C 1050.704,162.055 1052.575,159.731 1053.569,158.8 C 1054.563,157.87 1055.294,158.437 1054.718,159.309 C 1054.141,160.182 1051.167,162.824 1050.11,164.037 C 1049.053,165.249 1047.063,165.523 1048.374,166.586 C 1049.686,167.649 1053.476,168.555 1057.978,170.416 C 1062.48,172.278 1069.093,174.956 1075.389,177.755 C 1081.684,180.555 1088.515,183.772 1095.749,187.213 C 1102.984,190.653 1111.219,194.689 1118.795,198.399 C 1126.371,202.11 1134.009,205.923 1141.207,209.475 C 1148.404,213.028 1155.101,216.399 1161.981,219.716 C 1168.861,223.034 1175.654,226.479 1182.485,229.383 C 1189.316,232.287 1195.641,235.011 1202.968,237.142 C 1210.295,239.273 1218.562,241.19 1226.447,242.17 C 1234.332,243.149 1242.704,243.325 1250.277,243.02 C 1257.85,242.715 1265.022,241.641 1271.887,240.341 C 1278.753,239.041 1285.412,237.108 1291.469,235.222 C 1297.527,233.335 1303.068,231.131 1308.233,229.022 C 1313.398,226.912 1318.095,224.671 1322.459,222.566 C 1326.823,220.46 1330.605,218.45 1334.418,216.388 C 1338.231,214.325 1342.059,212.108 1345.337,210.192 C 1348.615,208.277 1351.546,206.47 1354.085,204.894 C 1356.625,203.318 1358.487,202.114 1360.576,200.735 C 1362.665,199.357 1364.86,197.843 1366.617,196.625 C 1368.374,195.407 1369.813,194.372 1371.117,193.427 C 1372.421,192.483 1373.374,191.77 1374.441,190.957 C 1375.508,190.143 1376.615,189.266 1377.517,188.546 C 1378.419,187.826 1379.152,187.222 1379.853,186.637 C 1380.553,186.052 1381.135,185.552 1381.723,185.037 C 1382.31,184.522 1382.854,184.03 1383.377,183.546 A 39.995,39.995 -2.341518741286983 0,0 1329.138,124.745 C 1329.406,124.519 1329.421,124.519 1329.35,124.588 C 1329.278,124.658 1329.173,124.762 1328.942,124.961 C 1328.712,125.161 1328.383,125.445 1327.967,125.785 C 1327.552,126.125 1327.013,126.562 1326.45,127.001 C 1325.886,127.441 1325.41,127.815 1324.587,128.423 C 1323.764,129.031 1322.74,129.784 1321.511,130.648 C 1320.281,131.512 1318.711,132.602 1317.211,133.607 C 1315.711,134.613 1314.417,135.476 1312.508,136.68 C 1310.599,137.883 1308.261,139.344 1305.755,140.83 C 1303.25,142.315 1300.268,144.049 1297.475,145.591 C 1294.681,147.132 1291.941,148.604 1288.994,150.078 C 1286.048,151.553 1282.952,153.059 1279.798,154.435 C 1276.644,155.811 1273.317,157.177 1270.071,158.334 C 1266.825,159.492 1263.502,160.563 1260.321,161.379 C 1257.139,162.195 1254.15,162.831 1250.984,163.233 C 1247.818,163.634 1244.714,163.937 1241.326,163.787 C 1237.938,163.636 1234.802,163.421 1230.655,162.332 C 1226.507,161.242 1222.018,159.605 1216.44,157.249 C 1210.862,154.894 1203.843,151.404 1197.185,148.2 C 1190.526,144.997 1183.752,141.605 1176.489,138.028 C 1169.226,134.451 1161.48,130.592 1153.605,126.736 C 1145.731,122.88 1137.209,118.672 1129.242,114.894 C 1121.275,111.116 1113.75,107.514 1105.805,104.067 C 1097.859,100.621 1089.904,97.045 1081.57,94.216 C 1073.236,91.388 1064.696,88.26 1055.801,87.095 C 1046.906,85.93 1036.814,85.491 1028.198,87.228 C 1019.583,88.964 1010.493,93.616 1004.108,97.513 C 997.724,101.409 993.715,106.457 989.891,110.606 C 986.066,114.756 983.844,118.486 981.162,122.41 C 978.481,126.334 976.345,130.036 973.801,134.149 C 971.256,138.262 968.739,142.445 965.895,147.088 C 963.052,151.731 959.765,157.106 956.74,162.008 C 953.714,166.911 950.914,171.473 947.741,176.505 C 944.568,181.537 940.885,187.353 937.701,192.202 C 934.517,197.05 931.143,201.964 928.639,205.597 C 926.134,209.23 922.901,212.7 922.673,214 C 922.445,215.299 923.567,213.353 927.271,213.393 C 930.975,213.433 940.594,213.238 944.898,214.239 C 949.201,215.24 951.95,218.608 953.091,219.4 C 954.232,220.192 952.797,219.865 951.746,218.992 C 950.695,218.119 948.505,215.942 946.786,214.162 C 945.067,212.383 943.293,210.449 941.433,208.315 C 939.573,206.181 937.685,203.966 935.626,201.358 C 933.567,198.75 931.199,195.619 929.08,192.667 C 926.96,189.716 925.179,187.133 922.91,183.649 C 920.641,180.165 917.902,175.808 915.467,171.763 C 913.031,167.718 910.766,163.822 908.296,159.378 C 905.826,154.934 903.149,149.887 900.647,145.101 C 898.145,140.315 895.675,135.44 893.282,130.664 C 890.889,125.887 888.559,121.139 886.29,116.443 C 884.021,111.747 881.761,106.924 879.668,102.486 C 877.575,98.049 875.478,93.571 873.734,89.817 C 871.99,86.063 870.786,83.338 869.204,79.961 C 867.622,76.584 865.845,72.703 864.243,69.556 C 862.64,66.409 862.42,64.877 859.589,61.077 C 856.759,57.277 853.676,50.703 847.261,46.758 C 840.845,42.813 829.257,37.953 821.097,37.405 C 812.938,36.857 803.741,41.192 798.303,43.47 C 792.866,45.749 791.085,48.687 788.472,51.077 C 785.858,53.467 784.348,55.575 782.625,57.812 C 780.902,60.049 779.487,62.286 778.132,64.499 C 776.777,66.711 775.701,68.727 774.493,71.087 C 773.286,73.446 772.08,75.973 770.889,78.656 C 769.699,81.339 768.535,84.148 767.35,87.184 C 766.165,90.22 764.969,93.475 763.778,96.871 C 762.588,100.268 761.449,103.743 760.205,107.562 C 758.962,111.38 757.704,115.432 756.318,119.781 C 754.932,124.13 753.435,128.867 751.889,133.655 C 750.342,138.444 748.758,143.36 747.039,148.513 C 745.32,153.667 743.546,158.969 741.574,164.573 C 739.602,170.178 737.364,176.383 735.205,182.139 C 733.047,187.895 730.878,193.553 728.624,199.109 C 726.369,204.665 723.866,210.571 721.678,215.473 C 719.489,220.376 717.408,224.729 715.492,228.525 C 713.575,232.321 711.684,235.65 710.179,238.248 C 708.673,240.846 707.555,242.444 706.458,244.111 C 705.361,245.778 703.354,247.848 703.597,248.249 C 703.839,248.649 705.412,247.053 707.913,246.513 C 710.414,245.974 715.09,244.861 718.602,245.01 C 722.114,245.16 726.443,246.486 728.985,247.408 C 731.527,248.33 732.989,249.904 733.855,250.543 C 734.721,251.182 734.49,251.424 734.181,251.242 C 733.872,251.061 732.881,250.291 732.001,249.455 C 731.121,248.62 730.092,247.555 728.9,246.23 C 727.707,244.905 726.124,243.085 724.847,241.505 C 723.57,239.925 722.561,238.63 721.239,236.748 C 719.916,234.866 718.489,232.707 716.911,230.212 C 715.333,227.718 713.318,224.42 711.768,221.783 C 710.218,219.145 709.071,217.12 707.613,214.389 C 706.156,211.658 704.633,208.669 703.024,205.396 C 701.414,202.123 699.53,198.181 697.958,194.75 C 696.387,191.32 695.027,188.174 693.595,184.815 C 692.162,181.457 690.737,177.971 689.363,174.598 C 687.99,171.225 686.666,167.884 685.354,164.577 C 684.042,161.27 682.763,157.986 681.492,154.753 C 680.221,151.52 678.988,148.346 677.73,145.178 C 676.472,142.011 675.179,138.771 673.945,135.75 C 672.711,132.73 671.543,129.9 670.326,127.055 C 669.109,124.211 667.985,121.584 666.644,118.683 C 665.302,115.782 663.872,112.652 662.279,109.65 C 660.685,106.648 659.064,103.652 657.081,100.672 C 655.098,97.692 652.964,94.638 650.38,91.77 C 647.795,88.901 645.086,86.049 641.574,83.462 C 638.061,80.874 633.504,78.068 629.304,76.244 C 625.104,74.42 620.28,73.274 616.374,72.517 C 612.469,71.761 609.272,71.728 605.873,71.705 C 602.473,71.682 599.176,71.977 595.978,72.379 C 592.781,72.782 589.678,73.422 586.689,74.119 C 583.699,74.817 580.892,75.657 578.043,76.564 C 575.195,77.471 572.503,78.445 569.597,79.563 C 566.692,80.682 563.704,81.897 560.61,83.277 C 557.516,84.657 554.234,86.19 551.033,87.845 C 547.833,89.5 544.671,91.223 541.406,93.208 C 538.141,95.192 534.726,97.384 531.444,99.752 C 528.163,102.121 524.795,104.751 521.715,107.418 C 518.635,110.086 515.845,112.737 512.964,115.758 C 510.082,118.779 507.074,122.157 504.425,125.546 C 501.777,128.935 499.319,132.411 497.072,136.093 C 494.824,139.775 492.704,143.755 490.941,147.638 C 489.177,151.52 487.739,155.474 486.491,159.387 C 485.242,163.301 484.258,167.319 483.45,171.121 C 482.643,174.922 482.11,178.626 481.648,182.196 C 481.186,185.766 480.923,189.067 480.68,192.54 C 480.437,196.013 480.29,199.495 480.188,203.033 C 480.086,206.571 480.087,210.2 480.067,213.767 C 480.046,217.333 480.065,220.953 480.064,224.43 C 480.062,227.908 480.058,231.407 480.057,234.632 C 480.056,237.856 480.058,240.743 480.057,243.778 C 480.055,246.812 480.052,250.035 480.048,252.837 C 480.045,255.638 480.04,258.305 480.037,260.588 C 480.034,262.871 480.035,264.706 480.031,266.534 C 480.028,268.362 480.021,270.247 480.018,271.557 C 480.014,272.867 480.011,273.654 480.01,274.394 C 480.009,275.135 480.01,275.732 480.01,276 C 480.01,276.268 480.01,276 480.01,276 L 480.01,276 L 480.01,276 A 39.99,39.99 0 0,0 559.99,276"/><a:init><a:s a:d="80" a:u="px" a:t="8679.51"/><a:c a:d="#fbff06" a:t="8679.51"/><a:m a:x="520" a:y="276" a:t="8679.51" a:p="1"/></a:init><a:ds a:t="8679.53"/><a:m a:x="520" a:y="275" a:t="8847.62"/><a:m a:x="520" a:y="271" a:t="8864.05"/><a:m a:x="520" a:y="253" a:t="8883.51"/><a:ds a:t="8894.99"/><a:m a:x="520" a:y="242" a:t="8898.31"/><a:ds a:t="8911.09"/><a:m a:x="520" a:y="224" a:t="8915.09"/><a:ds a:t="8930.19"/><a:m a:x="520" a:y="208" a:t="8932.38"/><a:ds a:t="8944.63"/><a:m a:x="520" a:y="196" a:t="8949.5"/><a:ds a:t="8962.05"/><a:m a:x="520" a:y="180" a:t="8968.47"/><a:ds a:t="8979.47"/><a:m a:x="520" a:y="170" a:t="8984.24"/><a:ds a:t="8994.12"/><a:m a:x="520" a:y="161" a:t="9001.62"/><a:ds a:t="9013.15"/><a:m a:x="520" a:y="156" a:t="9018.57"/><a:ds a:t="9028.9"/><a:m a:x="522" a:y="151" a:t="9038.87"/><a:ds a:t="9045.88"/><a:m a:x="527" a:y="146" a:t="9055.28"/><a:ds a:t="9069.45"/><a:m a:x="530" a:y="142" a:t="9073.11"/><a:ds a:t="9077.49"/><a:m a:x="536" a:y="138" a:t="9089.9"/><a:ds a:t="9094.74"/><a:m a:x="544" a:y="132" a:t="9105.11"/><a:ds a:t="9111.91"/><a:m a:x="553" a:y="125" a:t="9121.67"/><a:ds a:t="9128.65"/><a:m a:x="565" a:y="119" a:t="9140.16"/><a:ds a:t="9144.43"/><a:m a:x="573" a:y="114" a:t="9156.27"/><a:ds a:t="9162.3"/><a:m a:x="583" a:y="111" a:t="9172.23"/><a:ds a:t="9179.36"/><a:m a:x="590" a:y="109" a:t="9189.66"/><a:ds a:t="9195.22"/><a:m a:x="600" a:y="108" a:t="9209.98"/><a:ds a:t="9211.75"/><a:m a:x="607" a:y="107" a:t="9224.18"/><a:ds a:t="9229.14"/><a:m a:x="614" a:y="106" a:t="9241.59"/><a:ds a:t="9244.79"/><a:m a:x="618" a:y="106" a:t="9258.3"/><a:ds a:t="9262.03"/><a:m a:x="622" a:y="106" a:t="9275.17"/><a:ds a:t="9278.64"/><a:m a:x="624" a:y="107" a:t="9292.65"/><a:ds a:t="9295.14"/><a:m a:x="626" a:y="110" a:t="9309.59"/><a:ds a:t="9311.57"/><a:m a:x="627" a:y="114" a:t="9326.19"/><a:ds a:t="9328.28"/><a:m a:x="628" a:y="118" a:t="9343.87"/><a:ds a:t="9345.08"/><a:m a:x="629" a:y="122" a:t="9360.59"/><a:ds a:t="9361.41"/><a:m a:x="630" a:y="130" a:t="9377.31"/><a:ds a:t="9378.27"/><a:m a:x="632" a:y="138" a:t="9394.9"/><a:ds a:t="9396.06"/><a:m a:x="637" a:y="147" a:t="9411.2"/><a:ds a:t="9412.14"/><a:m a:x="641" a:y="159" a:t="9428.49"/><a:ds a:t="9429.24"/><a:m a:x="645" a:y="172" a:t="9444.9"/><a:ds a:t="9445.62"/><a:m a:x="650" a:y="186" a:t="9461.96"/><a:ds a:t="9462.86"/><a:ds a:t="9479.03"/><a:m a:x="655" a:y="198" a:t="9480.91"/><a:ds a:t="9496.49"/><a:m a:x="660" a:y="211" a:t="9497.59"/><a:ds a:t="9514.25"/><a:m a:x="665" a:y="224" a:t="9515.53"/><a:ds a:t="9531.84"/><a:m a:x="671" a:y="237" a:t="9532.99"/><a:ds a:t="9548.31"/><a:m a:x="678" a:y="252" a:t="9550.57"/><a:ds a:t="9564.96"/><a:m a:x="685" a:y="265" a:t="9566.67"/><a:ds a:t="9581.2"/><a:m a:x="693" a:y="277" a:t="9583.06"/><a:ds a:t="9597.85"/><a:m a:x="701" a:y="286" a:t="9600.52"/><a:ds a:t="9615.59"/><a:m a:x="705" a:y="290" a:t="9617.74"/><a:ds a:t="9630.24"/><a:m a:x="710" a:y="292" a:t="9634.12"/><a:ds a:t="9645.57"/><a:m a:x="714" a:y="295" a:t="9651.32"/><a:ds a:t="9664.86"/><a:m a:x="717" a:y="296" a:t="9668.6"/><a:ds a:t="9679.69"/><a:m a:x="722" a:y="296" a:t="9685.75"/><a:ds a:t="9695.88"/><a:m a:x="725" a:y="296" a:t="9703.11"/><a:ds a:t="9714.92"/><a:m a:x="727" a:y="296" a:t="9720.2"/><a:ds a:t="9729.55"/><a:m a:x="730" a:y="294" a:t="9756.54"/><a:ds a:t="9757.57"/><a:m a:x="733" a:y="288" a:t="9759.96"/><a:ds a:t="9762.9"/><a:m a:x="739" a:y="280" a:t="9773.08"/><a:ds a:t="9781.17"/><a:m a:x="745" a:y="267" a:t="9790.12"/><a:ds a:t="9797.44"/><a:m a:x="756" a:y="249" a:t="9807.08"/><a:ds a:t="9815.33"/><a:m a:x="768" a:y="225" a:t="9824.99"/><a:ds a:t="9829.51"/><a:m a:x="781" a:y="201" a:t="9841.65"/><a:ds a:t="9849.17"/><a:m a:x="789" a:y="173" a:t="9857.7"/><a:ds a:t="9863.18"/><a:m a:x="797" a:y="146" a:t="9875.59"/><a:ds a:t="9880.42"/><a:m a:x="802" a:y="119" a:t="9891.63"/><a:ds a:t="9896.76"/><a:m a:x="806" a:y="100" a:t="9907.48"/><a:ds a:t="9914.29"/><a:m a:x="808" a:y="88" a:t="9923.97"/><a:ds a:t="9930.63"/><a:m a:x="810" a:y="80" a:t="9941.23"/><a:ds a:t="9947.81"/><a:m a:x="811" a:y="73" a:t="9957.86"/><a:ds a:t="9964.04"/><a:m a:x="812" a:y="71" a:t="9974.79"/><a:ds a:t="9980.34"/><a:m a:x="813" a:y="70" a:t="9991.52"/><a:ds a:t="9997.48"/><a:m a:x="814" a:y="70" a:t="10009.2"/><a:ds a:t="10014.24"/><a:m a:x="817" a:y="70" a:t="10026.7"/><a:ds a:t="10030.48"/><a:m a:x="820" a:y="70" a:t="10043.88"/><a:ds a:t="10047.25"/><a:m a:x="822" a:y="70" a:t="10060.72"/><a:ds a:t="10064.11"/><a:m a:x="824" a:y="70" a:t="10077.98"/><a:ds a:t="10080.46"/><a:m a:x="825" a:y="71" a:t="10094.89"/><a:ds a:t="10096.9"/><a:m a:x="827" a:y="73" a:t="10111.76"/><a:ds a:t="10113.57"/><a:m a:x="828" a:y="76" a:t="10129.32"/><a:ds a:t="10130.25"/><a:m a:x="830" a:y="80" a:t="10146.23"/><a:ds a:t="10147.29"/><a:m a:x="832" a:y="90" a:t="10162.89"/><a:ds a:t="10163.92"/><a:m a:x="836" a:y="103" a:t="10179.73"/><a:ds a:t="10181.04"/><a:m a:x="846" a:y="130" a:t="10197.01"/><a:ds a:t="10197.98"/><a:ds a:t="10213.97"/><a:m a:x="853" a:y="146" a:t="10215.3"/><a:m a:x="867" a:y="174" a:t="10232"/><a:ds a:t="10232.62"/><a:ds a:t="10247.51"/><a:m a:x="878" a:y="196" a:t="10249.23"/><a:m a:x="890" a:y="216" a:t="10265.5"/><a:ds a:t="10266.38"/><a:ds a:t="10282.65"/><a:m a:x="902" a:y="234" a:t="10283.65"/><a:ds a:t="10300.13"/><a:m a:x="910" a:y="246" a:t="10301.38"/><a:ds a:t="10316.82"/><a:m a:x="918" a:y="255" a:t="10318.09"/><a:ds a:t="10333.78"/><a:m a:x="927" a:y="261" a:t="10335.09"/><a:ds a:t="10349.69"/><a:m a:x="933" a:y="265" a:t="10350.96"/><a:ds a:t="10367.56"/><a:m a:x="939" a:y="268" a:t="10369"/><a:ds a:t="10381.99"/><a:m a:x="945" a:y="271" a:t="10385.95"/><a:ds a:t="10399.73"/><a:m a:x="950" a:y="272" a:t="10403.3"/><a:ds a:t="10415.54"/><a:m a:x="952" a:y="272" a:t="10419.72"/><a:ds a:t="10431.92"/><a:m a:x="955" a:y="271" a:t="10437.18"/><a:ds a:t="10449.65"/><a:m a:x="960" a:y="257" a:t="10453.99"/><a:ds a:t="10465.58"/><a:m a:x="970" a:y="232" a:t="10470.26"/><a:ds a:t="10482.94"/><a:m a:x="989" a:y="191" a:t="10487.06"/><a:ds a:t="10499.29"/><a:m a:x="1011" a:y="147" a:t="10504.54"/><a:ds a:t="10515.17"/><a:m a:x="1027" a:y="117" a:t="10522.44"/><a:ds a:t="10532.97"/><a:m a:x="1036" a:y="102" a:t="10541.87"/><a:ds a:t="10549.51"/><a:m a:x="1041" a:y="95" a:t="10558.59"/><a:ds a:t="10566.8"/><a:m a:x="1043" a:y="94" a:t="10575.3"/><a:ds a:t="10581.81"/><a:m a:x="1044" a:y="94" a:t="10592.49"/><a:ds a:t="10599.4"/><a:m a:x="1045" a:y="94" a:t="10609.39"/><a:ds a:t="10615.45"/><a:m a:x="1047" a:y="96" a:t="10625.29"/><a:ds a:t="10632.3"/><a:m a:x="1058" a:y="106" a:t="10642.66"/><a:ds a:t="10648.52"/><a:m a:x="1080" a:y="121" a:t="10659.02"/><a:ds a:t="10665.97"/><a:m a:x="1115" a:y="145" a:t="10675.56"/><a:ds a:t="10682.15"/><a:m a:x="1162" a:y="174" a:t="10693.39"/><a:ds a:t="10698.56"/><a:m a:x="1211" a:y="204" a:t="10709.91"/><a:ds a:t="10715.53"/><a:m a:x="1238" a:y="220" a:t="10726.57"/><a:ds a:t="10732.38"/><a:m a:x="1256" a:y="228" a:t="10744.04"/><a:ds a:t="10748.48"/><a:m a:x="1271" a:y="233" a:t="10760.71"/><a:ds a:t="10765.99"/><a:m a:x="1279" a:y="235" a:t="10777.25"/><a:ds a:t="10782.56"/><a:m a:x="1284" a:y="235" a:t="10794.29"/><a:ds a:t="10799.26"/><a:m a:x="1289" a:y="231" a:t="10811.07"/><a:ds a:t="10816.64"/><a:m a:x="1304" a:y="212" a:t="10828.64"/><a:ds a:t="10832.18"/><a:m a:x="1325" a:y="189" a:t="10845.26"/><a:ds a:t="10849.11"/><a:m a:x="1338" a:y="173" a:t="10862.67"/><a:ds a:t="10866.15"/><a:m a:x="1347" a:y="163" a:t="10879.89"/><a:ds a:t="10882.28"/><a:m a:x="1354" a:y="156" a:t="10896.55"/><a:ds a:t="10899.23"/><a:m a:x="1356" a:y="153" a:t="10914.52"/><a:ds a:t="10915.82"/><a:m a:x="1357" a:y="152" a:t="10931.15"/><a:ds a:t="10932.35"/><a:m a:x="1358" a:y="152" a:t="10947.83"/><a:ds a:t="10949.12"/><a:ds a:t="10967.55"/><a:ds a:t="10984.66"/><a:ds a:t="10999.65"/><a:ds a:t="11018.83"/><a:ds a:t="11035.25"/><a:m a:x="1358" a:y="152" a:t="11044.94"/><a:ds a:t="11049.85"/><a:ds a:t="11069.13"/><a:ds a:t="11085.21"/><a:ds a:t="11100.89"/><a:ds a:t="11117.73"/><a:ds a:t="11135.02"/><a:ds a:t="11151.03"/><a:m a:x="1357" a:y="152" a:t="11181.18"/><a:m a:x="1353" a:y="152" a:t="11197.29"/><a:m a:x="1349" a:y="152" a:t="11214.55"/><a:m a:x="1347" a:y="152" a:t="11231.2"/><a:m a:x="1336" a:y="152" a:t="11247.89"/><a:m a:x="1331" a:y="154" a:t="11264.84"/><a:m a:x="1308" a:y="161" a:t="11281.4"/><a:m a:x="1272" a:y="165" a:t="11298.34"/><a:m a:x="1189" a:y="165" a:t="11315.56"/><a:m a:x="1078" a:y="165" a:t="11332.96"/><a:m a:x="815" a:y="165" a:t="11350.37"/><a:m a:x="546" a:y="152" a:t="11366.68"/><a:m a:x="339" a:y="141" a:t="11383.96"/><a:m a:x="168" a:y="135" a:t="11400.56"/><a:m a:x="19" a:y="133" a:t="11418.41"/><a:m a:x="0" a:y="133" a:t="11436.73"/><a:m a:x="0" a:y="133" a:t="11451.96"/><a:m a:x="0" a:y="133" a:t="11469.5"/><a:m a:x="0" a:y="134" a:t="11486.04"/><a:m a:x="0" a:y="135" a:t="11504.46"/><a:m a:x="1" a:y="135" a:t="11561.78"/><a:m a:x="2" a:y="135" a:t="11578.34"/><a:m a:x="3" a:y="135" a:t="11611.49"/><a:m a:x="3" a:y="134" a:t="11628.38"/><a:m a:x="3" a:y="133" a:t="11644.43"/><a:m a:x="3" a:y="131" a:t="11661.73"/><a:m a:x="4" a:y="130" a:t="11678.89"/><a:m a:x="5" a:y="128" a:t="11696.53"/><a:m a:x="6" a:y="126" a:t="11713.6"/><a:m a:x="9" a:y="122" a:t="11730.48"/><a:m a:x="13" a:y="119" a:t="11747.36"/><a:m a:x="23" a:y="115" a:t="11764.56"/><a:m a:x="35" a:y="110" a:t="11782"/><a:m a:x="50" a:y="104" a:t="11798.38"/><a:m a:x="62" a:y="102" a:t="11815.36"/><a:m a:x="74" a:y="99" a:t="11833.11"/><a:m a:x="82" a:y="98" a:t="11850.64"/><a:m a:x="85" a:y="98" a:t="11867.41"/><a:m a:x="87" a:y="98" a:t="11885.51"/><a:m a:x="87" a:y="98" a:t="11907.16"/><a:m a:x="87" a:y="99" a:t="12012.56"/><a:m a:x="87" a:y="102" a:t="12030.41"/><a:m a:x="87" a:y="108" a:t="12045.86"/><a:m a:x="87" a:y="113" a:t="12063.46"/><a:m a:x="87" a:y="122" a:t="12081.32"/><a:m a:x="87" a:y="128" a:t="12097.33"/><a:m a:x="87" a:y="136" a:t="12112.94"/><a:m a:x="87" a:y="143" a:t="12130.51"/><a:m a:x="89" a:y="152" a:t="12147.4"/><a:m a:x="89" a:y="163" a:t="12164"/><a:m a:x="89" a:y="174" a:t="12182.01"/><a:m a:x="89" a:y="183" a:t="12197.73"/><a:m a:x="89" a:y="193" a:t="12215.04"/><a:m a:x="90" a:y="199" a:t="12232.05"/><a:m a:x="91" a:y="204" a:t="12249.27"/><a:m a:x="91" a:y="204" a:t="12251.8"/></g><g a:type="path" a:t="12252.01" a:lastErase="0"><path fill="#fbff06" d="M 51.008,204 L 51.008,204 C 51.008,204 51.008,203.795 51.008,204 C 51.008,204.205 51.006,204.612 51.008,205.229 C 51.009,205.846 51.013,206.676 51.015,207.701 C 51.018,208.726 51.007,209.68 51.023,211.379 C 51.039,213.077 51.052,215.684 51.111,217.894 C 51.171,220.103 51.247,222.275 51.378,224.637 C 51.509,226.998 51.705,229.712 51.896,232.063 C 52.087,234.413 52.279,236.507 52.524,238.742 C 52.77,240.977 53.079,243.419 53.369,245.474 C 53.659,247.529 53.898,249.174 54.264,251.071 C 54.63,252.968 54.213,253.495 55.566,256.854 C 56.92,260.214 49.173,271.928 62.384,271.227 C 75.596,270.526 122.577,258.093 134.836,252.648 C 147.095,247.203 135.674,243.503 135.936,238.558 C 136.198,233.613 136.197,229.113 136.407,222.976 C 136.617,216.839 136.847,209.416 137.196,201.733 C 137.544,194.051 138.016,185.475 138.5,176.881 C 138.984,168.286 139.547,159.068 140.099,150.167 C 140.651,141.266 141.259,131.894 141.814,123.473 C 142.368,115.052 142.903,107.276 143.425,99.642 C 143.948,92.007 144.481,84.341 144.951,77.667 C 145.421,70.993 145.839,65.261 146.248,59.597 C 146.657,53.932 147.058,48.39 147.404,43.679 C 147.751,38.968 148.043,35.128 148.327,31.332 C 148.611,27.536 148.875,24.002 149.11,20.902 A 39.949,39.949 -3.066854012788479 0,0 70.062,6.766 C 69.231,18.139 68.968,21.702 68.693,25.528 C 68.419,29.353 68.146,33.222 67.809,37.966 C 67.473,42.71 67.072,48.288 66.673,53.992 C 66.274,59.696 65.877,65.466 65.416,72.188 C 64.954,78.91 64.42,86.628 63.903,94.325 C 63.386,102.022 62.867,109.86 62.314,118.37 C 61.76,126.879 61.145,136.337 60.581,145.381 C 60.017,154.426 59.441,163.765 58.932,172.638 C 58.422,181.51 57.91,190.649 57.526,198.617 C 57.142,206.585 56.855,214.545 56.63,220.448 C 56.405,226.351 56.237,231.144 56.176,234.036 C 56.115,236.927 44.355,239.309 56.264,237.796 C 68.173,236.283 114.815,225.007 127.63,224.959 C 140.446,224.911 132.241,235.345 133.157,237.511 C 134.073,239.676 133.213,238.327 133.128,237.954 C 133.043,237.581 132.821,236.422 132.646,235.273 C 132.472,234.124 132.255,232.542 132.083,231.061 C 131.911,229.579 131.756,228.028 131.615,226.386 C 131.474,224.744 131.333,222.781 131.236,221.209 C 131.138,219.638 131.073,218.596 131.03,216.958 C 130.987,215.319 130.985,212.921 130.977,211.379 C 130.969,209.836 130.982,208.726 130.985,207.701 C 130.987,206.676 130.991,205.846 130.992,205.229 C 130.994,204.612 130.992,204.205 130.992,204 C 130.992,203.795 130.992,204 130.992,204 L 130.992,204 L 130.992,204 A 39.992,39.992 -3.141592653589793 0,0 51.008,204"/><a:init><a:s a:d="80" a:u="px" a:t="12252.01"/><a:c a:d="#fbff06" a:t="12252.01"/><a:m a:x="91" a:y="204" a:t="12252.01" a:p="1"/></a:init><a:ds a:t="12252.21"/><a:m a:x="91" a:y="206" a:t="12459.52"/><a:m a:x="91" a:y="222" a:t="12476.5"/><a:ds a:t="12489.06"/><a:m a:x="91" a:y="235" a:t="12493.86"/><a:ds a:t="12505.05"/><a:m a:x="91" a:y="252" a:t="12510.44"/><a:ds a:t="12519.87"/><a:m a:x="92" a:y="260" a:t="12527.69"/><a:ds a:t="12539.8"/><a:m a:x="95" a:y="265" a:t="12547.47"/><a:ds a:t="12553.71"/><a:m a:x="96" a:y="267" a:t="12563.62"/><a:ds a:t="12573.94"/><a:m a:x="97" a:y="267" a:t="12582.55"/><a:ds a:t="12587.34"/><a:m a:x="98" a:y="265" a:t="12600.03"/><a:ds a:t="12604.87"/><a:m a:x="98" a:y="258" a:t="12614.28"/><a:ds a:t="12620.43"/><a:m a:x="98" a:y="248" a:t="12631.8"/><a:ds a:t="12636.96"/><a:m a:x="98" a:y="235" a:t="12648.57"/><a:ds a:t="12654.38"/><a:m a:x="98" a:y="189" a:t="12664.84"/><a:ds a:t="12670.4"/><a:m a:x="98" a:y="135" a:t="12681.84"/><a:ds a:t="12688.1"/><a:m a:x="99" a:y="73" a:t="12699.46"/><a:ds a:t="12704.18"/><a:m a:x="106" a:y="7" a:t="12715.96"/><a:ds a:t="12721.19"/><a:m a:x="112" a:y="-17" a:t="12734.52"/><a:m a:x="112" a:y="-17" a:t="12734.67"/><a:ds a:t="12737.13"/><a:ds a:t="12754.03"/><a:ds a:t="12771.15"/><a:ds a:t="12787.47"/><a:ds a:t="12805.02"/><a:ds a:t="12820.98"/><a:ds a:t="12838.37"/><a:ds a:t="12854.11"/><a:ds a:t="12871.23"/><a:ds a:t="12887.54"/><a:ds a:t="12904.43"/><a:m a:x="254" a:y="1" a:t="12920.24"/></g><g a:type="path" a:t="12920.27" a:lastErase="0"><path fill="#fbff06" d="M 225.722,29.278 L 225.722,29.278 C 225.722,29.278 225.554,29.11 225.722,29.278 C 225.89,29.446 226.038,29.609 226.729,30.285 C 227.419,30.96 228.717,32.218 229.865,33.333 C 231.013,34.448 232.261,35.639 233.617,36.977 C 234.972,38.315 236.33,39.663 238,41.363 C 239.669,43.062 241.602,45.02 243.635,47.172 C 245.667,49.323 247.831,51.552 250.195,54.273 C 252.559,56.994 255.138,60.178 257.82,63.497 C 260.502,66.817 263.686,70.815 266.288,74.191 C 268.891,77.567 271.073,80.511 273.435,83.752 C 275.798,86.993 278.13,90.275 280.464,93.636 C 282.798,96.996 285.335,100.74 287.437,103.913 C 289.54,107.087 291.25,109.776 293.079,112.679 C 294.909,115.581 296.75,118.579 298.413,121.33 C 300.076,124.082 301.77,126.9 303.059,129.186 C 304.348,131.472 305.543,133.735 306.147,135.048 C 306.75,136.361 306.888,137.378 306.681,137.063 C 306.473,136.748 305.268,135.571 304.901,133.16 C 304.534,130.748 304.269,125.541 304.478,122.595 C 304.687,119.65 306.407,116.423 306.156,115.488 C 305.905,114.554 304.614,116.13 302.972,116.987 C 301.33,117.844 299.189,119.143 296.304,120.629 C 293.419,122.116 289.524,124.097 285.664,125.906 C 281.803,127.716 277.905,129.453 273.142,131.488 C 268.378,133.523 261.861,136.195 257.08,138.117 C 252.299,140.038 248.755,141.382 244.456,143.017 C 240.156,144.652 235.306,146.453 231.284,147.927 C 227.263,149.4 223.603,150.696 220.327,151.859 C 217.051,153.022 214.418,153.91 211.629,154.907 C 208.84,155.903 206.087,156.897 203.595,157.838 C 201.103,158.779 199.084,159.513 196.676,160.553 C 194.269,161.592 191.578,162.809 189.148,164.077 C 186.718,165.345 184.66,166.379 182.094,168.158 C 179.528,169.937 176.823,171.297 173.754,174.749 C 170.684,178.201 165.787,181.705 163.677,188.87 C 161.567,196.035 159.005,209.017 161.095,217.739 C 163.185,226.46 171.631,235.903 176.215,241.201 C 180.8,246.499 184.429,247.155 188.604,249.525 C 192.778,251.895 196.76,253.556 201.262,255.42 C 205.764,257.283 210.522,258.998 215.615,260.706 C 220.709,262.414 226.075,264.074 231.823,265.669 C 237.572,267.264 243.597,268.825 250.107,270.277 C 256.617,271.728 263.369,273.256 270.883,274.376 C 278.397,275.495 286.582,276.661 295.193,276.994 C 303.803,277.326 312.986,277.4 322.547,276.37 C 332.108,275.341 342.264,273.629 352.558,270.817 C 362.853,268.005 373.857,264.067 384.314,259.5 C 394.772,254.933 404.979,249.53 415.305,243.414 C 425.632,237.299 435.796,230.346 446.274,222.805 C 456.752,215.265 468.128,206.264 478.171,198.173 C 488.215,190.083 497.483,182.118 506.533,174.261 C 515.584,166.404 524.425,158.394 532.473,151.029 C 540.521,143.665 547.567,137 554.821,130.074 C 562.074,123.149 569.554,115.811 575.994,109.477 C 582.434,103.143 588.221,97.346 593.463,92.072 C 598.706,86.798 603.123,82.281 607.451,77.831 C 611.779,73.382 615.764,69.219 619.431,65.377 C 623.098,61.535 626.592,57.823 629.455,54.779 C 632.318,51.736 634.47,49.427 636.609,47.118 C 638.747,44.809 640.595,42.783 642.287,40.925 C 643.978,39.067 645.477,37.398 646.757,35.971 C 648.038,34.544 648.994,33.468 649.968,32.364 C 650.942,31.26 651.831,30.237 652.602,29.348 C 653.373,28.46 653.97,27.765 654.594,27.033 C 655.218,26.302 655.832,25.571 656.347,24.958 C 656.861,24.346 657.303,23.813 657.679,23.359 C 658.055,22.904 658.309,22.595 658.603,22.232 A 39.995,39.995 -2.4700731818646378 0,0 596.82,-28.584 C 596.445,-28.105 596.329,-27.957 596.097,-27.673 C 595.866,-27.389 595.548,-27 595.175,-26.552 C 594.803,-26.105 594.341,-25.553 593.861,-24.986 C 593.381,-24.419 592.921,-23.875 592.296,-23.148 C 591.671,-22.422 590.939,-21.574 590.111,-20.628 C 589.284,-19.681 588.467,-18.745 587.332,-17.469 C 586.197,-16.193 584.843,-14.674 583.302,-12.97 C 581.762,-11.266 580.073,-9.405 578.089,-7.244 C 576.105,-5.082 574.101,-2.896 571.398,-0.001 C 568.694,2.894 565.358,6.452 561.868,10.124 C 558.379,13.797 554.585,17.773 550.463,22.033 C 546.341,26.294 542.142,30.624 537.138,35.688 C 532.134,40.751 526.582,46.354 520.44,52.414 C 514.298,58.475 507.138,65.487 500.287,72.05 C 493.436,78.613 486.853,84.883 479.333,91.792 C 471.814,98.701 463.48,106.255 455.169,113.507 C 446.859,120.758 438.359,128.088 429.47,135.3 C 420.581,142.512 410.424,150.481 401.837,156.78 C 393.249,163.079 385.493,168.417 377.945,173.093 C 370.397,177.77 363.42,181.571 356.549,184.84 C 349.679,188.109 342.868,190.73 336.721,192.706 C 330.573,194.683 325.247,195.871 319.663,196.696 C 314.08,197.522 308.799,197.759 303.217,197.658 C 297.636,197.558 291.801,196.892 286.174,196.094 C 280.547,195.296 274.649,194.002 269.455,192.869 C 264.261,191.736 259.452,190.503 255.009,189.296 C 250.567,188.09 246.339,186.772 242.799,185.631 C 239.259,184.49 236.048,183.284 233.767,182.451 C 231.487,181.618 229.672,180.635 229.114,180.633 C 228.557,180.632 228.768,179.229 230.425,182.443 C 232.081,185.657 238.222,192.959 239.055,199.918 C 239.888,206.876 237.35,218.519 235.423,224.194 C 233.495,229.868 229.442,231.925 227.488,233.964 C 225.535,236.002 224.267,236.089 223.699,236.424 C 223.132,236.759 223.682,236.234 224.082,235.973 C 224.481,235.712 224.928,235.38 226.097,234.86 C 227.266,234.341 229.079,233.626 231.093,232.857 C 233.107,232.088 235.462,231.226 238.183,230.245 C 240.904,229.264 243.922,228.227 247.42,226.971 C 250.919,225.716 254.824,224.314 259.175,222.712 C 263.525,221.109 268.803,219.167 273.526,217.357 C 278.248,215.547 282.126,214.03 287.512,211.851 C 292.898,209.672 300.137,206.744 305.844,204.285 C 311.55,201.826 316.435,199.664 321.751,197.096 C 327.067,194.527 332.509,191.87 337.739,188.874 C 342.97,185.878 348.087,182.928 353.135,179.12 C 358.182,175.313 363.333,171.755 368.022,166.029 C 372.711,160.302 378.581,151.973 381.269,144.761 C 383.956,137.549 384.218,129.001 384.148,122.757 C 384.079,116.514 382.115,111.542 380.852,107.301 C 379.588,103.06 378.085,100.459 376.569,97.312 C 375.052,94.166 373.454,91.416 371.751,88.422 C 370.048,85.428 368.287,82.534 366.351,79.348 C 364.415,76.163 362.281,72.692 360.134,69.308 C 357.987,65.924 355.912,62.713 353.47,59.046 C 351.028,55.379 348.179,51.176 345.482,47.306 C 342.785,43.435 340.06,39.607 337.286,35.823 C 334.511,32.04 331.848,28.496 328.835,24.604 C 325.821,20.712 322.533,16.556 319.205,12.47 C 315.877,8.383 311.895,3.562 308.866,0.084 C 305.837,-3.395 303.412,-5.874 301.031,-8.4 C 298.65,-10.927 296.52,-13.093 294.581,-15.073 C 292.641,-17.054 290.863,-18.823 289.393,-20.283 C 287.923,-21.743 286.779,-22.833 285.761,-23.832 C 284.743,-24.83 283.865,-25.697 283.285,-26.271 C 282.704,-26.846 282.446,-27.11 282.278,-27.278 C 282.11,-27.446 282.278,-27.278 282.278,-27.278 L 282.278,-27.278 L 282.278,-27.278 A 39.991,39.991 -3.926990816987242 0,0 225.722,29.278"/><a:init><a:s a:d="80" a:u="px" a:t="12920.27"/><a:c a:d="#fbff06" a:t="12920.27"/><a:m a:x="254" a:y="1" a:t="12920.27" a:p="1"/></a:init><a:ds a:t="12920.29"/><a:m a:x="271" a:y="18" a:t="12937.53"/><a:ds a:t="12938.82"/><a:m a:x="290" a:y="36" a:t="12954.87"/><a:ds a:t="12956.35"/><a:ds a:t="12972.07"/><a:m a:x="303" a:y="51" a:t="12973.36"/><a:ds a:t="12988.9"/><a:m a:x="318" a:y="68" a:t="12990.98"/><a:ds a:t="13006.07"/><a:m a:x="332" a:y="87" a:t="13007.65"/><a:ds a:t="13022.52"/><a:m a:x="342" a:y="105" a:t="13023.76"/><a:m a:x="347" a:y="117" a:t="13040.29"/><a:ds a:t="13041.72"/><a:ds a:t="13057.22"/><a:m a:x="351" a:y="127" a:t="13061.86"/><a:ds a:t="13072.19"/><a:m a:x="355" a:y="135" a:t="13074.78"/><a:ds a:t="13088.85"/><a:m a:x="356" a:y="139" a:t="13093.21"/><a:ds a:t="13106.7"/><a:m a:x="356" a:y="142" a:t="13109.62"/><a:ds a:t="13121.76"/><a:m a:x="356" a:y="143" a:t="13126.21"/><a:ds a:t="13139.49"/><a:m a:x="356" a:y="144" a:t="13143.05"/><a:ds a:t="13156.71"/><a:m a:x="353" a:y="147" a:t="13160.06"/><a:ds a:t="13173.16"/><a:m a:x="345" a:y="150" a:t="13177.38"/><a:ds a:t="13188.71"/><a:m a:x="332" a:y="156" a:t="13194.43"/><a:ds a:t="13205.88"/><a:m a:x="309" a:y="167" a:t="13211.78"/><a:ds a:t="13222.16"/><a:m a:x="274" a:y="181" a:t="13230.08"/><a:ds a:t="13241.25"/><a:m a:x="245" a:y="191" a:t="13245.98"/><a:ds a:t="13257.78"/><a:m a:x="216" a:y="198" a:t="13262.45"/><a:ds a:t="13273.16"/><a:m a:x="202" a:y="202" a:t="13279.93"/><a:ds a:t="13289.24"/><a:m a:x="192" a:y="204" a:t="13296.59"/><a:ds a:t="13305.42"/><a:m a:x="187" a:y="205" a:t="13313.45"/><a:ds a:t="13324.94"/><a:m a:x="186" a:y="205" a:t="13332.69"/><a:ds a:t="13339.14"/><a:ds a:t="13357.89"/><a:ds a:t="13373.82"/><a:m a:x="187" a:y="205" a:t="13383.56"/><a:ds a:t="13389.3"/><a:m a:x="189" a:y="207" a:t="13401.32"/><a:ds a:t="13406.07"/><a:m a:x="191" a:y="208" a:t="13417.63"/><a:ds a:t="13422.2"/><a:m a:x="193" a:y="212" a:t="13434.14"/><a:ds a:t="13439.66"/><a:m a:x="195" a:y="213" a:t="13450.32"/><a:ds a:t="13457.17"/><a:m a:x="200" a:y="216" a:t="13467.27"/><a:ds a:t="13472.47"/><a:m a:x="206" a:y="219" a:t="13484.51"/><a:ds a:t="13489.87"/><a:m a:x="219" a:y="223" a:t="13502.17"/><a:ds a:t="13506.34"/><a:m a:x="247" a:y="234" a:t="13519.96"/><a:ds a:t="13523.81"/><a:m a:x="268" a:y="239" a:t="13536.6"/><a:ds a:t="13539.48"/><a:m a:x="296" a:y="246" a:t="13553.74"/><a:ds a:t="13556.35"/><a:m a:x="326" a:y="251" a:t="13571.01"/><a:ds a:t="13572.86"/><a:m a:x="350" a:y="253" a:t="13587.64"/><a:ds a:t="13589.44"/><a:m a:x="376" a:y="253" a:t="13605.94"/><a:ds a:t="13607.11"/><a:m a:x="405" a:y="251" a:t="13622.11"/><a:ds a:t="13623.69"/><a:m a:x="431" a:y="233" a:t="13639.89"/><a:ds a:t="13640.92"/><a:m a:x="463" a:y="203" a:t="13656.32"/><a:ds a:t="13657.47"/><a:m a:x="494" a:y="165" a:t="13672.96"/><a:ds a:t="13674.22"/><a:m a:x="522" a:y="126" a:t="13690.42"/><a:ds a:t="13691.36"/><a:m a:x="555" a:y="83" a:t="13706.73"/><a:ds a:t="13707.99"/><a:m a:x="587" a:y="43" a:t="13723.81"/><a:ds a:t="13724.63"/><a:m a:x="606" a:y="21" a:t="13741.92"/><a:ds a:t="13742.86"/><a:m a:x="619" a:y="6" a:t="13757.94"/><a:ds a:t="13759.05"/><a:ds a:t="13775.05"/><a:m a:x="629" a:y="-5" a:t="13778.45"/><a:m a:x="629" a:y="-5" a:t="13778.74"/><a:ds a:t="13791.02"/><a:ds a:t="13810.07"/><a:ds a:t="13825.7"/><a:ds a:t="13841.82"/><a:ds a:t="13859.17"/><a:ds a:t="13876.8"/><a:ds a:t="13891.95"/><a:ds a:t="13908.98"/><a:ds a:t="13925.62"/><a:ds a:t="13940.75"/><a:ds a:t="13957.95"/><a:ds a:t="13974.4"/><a:ds a:t="13992.73"/><a:ds a:t="14009.64"/><a:m a:x="644" a:y="11" a:t="14013.17"/><a:m a:x="644" a:y="11" a:t="14014.44"/><a:ds a:t="14024.18"/><a:m a:x="644" a:y="20" a:t="14027.71"/><a:ds a:t="14042.78"/><a:ds a:t="14059.02"/><a:m a:x="649" a:y="20" a:t="14480.32"/><a:m a:x="659" a:y="20" a:t="14497.76"/><a:m a:x="680" a:y="24" a:t="14513.93"/><a:m a:x="716" a:y="28" a:t="14531.82"/><a:m a:x="759" a:y="32" a:t="14548.14"/><a:m a:x="794" a:y="33" a:t="14565.48"/><a:m a:x="836" a:y="33" a:t="14582.68"/><a:m a:x="866" a:y="33" a:t="14599.44"/><a:m a:x="885" a:y="33" a:t="14616.87"/><a:m a:x="899" a:y="30" a:t="14636.22"/><a:m a:x="908" a:y="29" a:t="14653.36"/><a:m a:x="912" a:y="28" a:t="14670.11"/><a:m a:x="914" a:y="27" a:t="14686.11"/><a:m a:x="915" a:y="27" a:t="14714.39"/><a:m a:x="915" a:y="27" a:t="14826.04"/></g><g a:type="path" a:t="14826.07" a:lastErase="0"><path fill="#fbff06" d="M 915,66.986 L 915,66.986 C 915,66.986 914.628,66.986 915,66.986 C 915.372,66.986 916.31,66.987 917.232,66.986 C 918.155,66.985 918.742,66.985 920.534,66.979 C 922.326,66.974 924.603,66.963 927.984,66.953 C 931.365,66.944 935.188,66.934 940.822,66.92 C 946.456,66.906 954.119,66.882 961.789,66.869 C 969.458,66.856 977.179,66.856 986.84,66.843 C 996.501,66.831 1009.063,66.801 1019.757,66.794 C 1030.451,66.788 1039.559,66.809 1051.003,66.805 C 1062.447,66.8 1076.114,66.772 1088.422,66.766 C 1100.729,66.761 1113.318,66.767 1124.85,66.772 C 1136.382,66.777 1148.082,66.774 1157.615,66.795 C 1167.149,66.816 1174.005,66.865 1182.051,66.899 C 1190.096,66.932 1198.489,66.96 1205.889,66.998 C 1213.288,67.037 1220.536,67.077 1226.448,67.13 C 1232.359,67.183 1236.736,67.252 1241.357,67.316 C 1245.979,67.381 1250.316,67.441 1254.175,67.519 C 1258.034,67.598 1261.376,67.693 1264.511,67.787 C 1267.647,67.88 1270.472,67.974 1272.988,68.08 C 1275.505,68.186 1277.834,68.311 1279.608,68.424 C 1281.382,68.537 1282.486,68.648 1283.632,68.758 C 1284.778,68.868 1285.804,68.988 1286.486,69.082 C 1287.168,69.176 1287.586,69.28 1287.725,69.323 C 1287.865,69.366 1288.882,69.863 1287.324,69.342 C 1285.766,68.821 1282.607,69.574 1278.376,66.197 C 1274.146,62.821 1265.068,52.932 1261.941,49.082 C 1258.813,45.233 1260.06,43.26 1259.612,43.1 C 1259.164,42.941 1259.469,45.083 1259.253,48.127 C 1259.038,51.171 1258.76,56.187 1258.319,61.365 C 1257.877,66.542 1257.281,72.789 1256.603,79.192 C 1255.925,85.594 1255.109,92.82 1254.25,99.781 C 1253.391,106.742 1252.417,114.013 1251.451,120.959 C 1250.485,127.905 1249.454,134.865 1248.452,141.457 C 1247.451,148.05 1246.504,153.96 1245.444,160.516 C 1244.385,167.073 1243.106,174.809 1242.097,180.796 C 1241.089,186.784 1240.219,191.77 1239.392,196.439 C 1238.566,201.108 1237.877,204.825 1237.136,208.808 C 1236.394,212.792 1235.601,216.949 1234.944,220.34 C 1234.287,223.731 1233.705,226.613 1233.192,229.153 C 1232.679,231.693 1232.269,233.703 1231.866,235.582 C 1231.463,237.46 1231.086,239.091 1230.775,240.423 C 1230.464,241.755 1230.192,242.882 1230.002,243.572 C 1229.813,244.262 1229.649,244.601 1229.638,244.563 C 1229.627,244.524 1229.382,244.559 1229.938,243.339 C 1230.493,242.119 1230.778,239.947 1232.97,237.241 C 1235.163,234.536 1239.057,229.709 1243.093,227.104 C 1247.129,224.5 1254.62,222.62 1257.188,221.614 C 1259.755,220.609 1259.973,221.373 1258.498,221.069 C 1257.023,220.764 1253.054,220.37 1248.336,219.785 C 1243.619,219.201 1237.228,218.373 1230.191,217.563 C 1223.154,216.753 1214.74,215.824 1206.115,214.925 C 1197.491,214.025 1188.12,213.09 1178.443,212.165 C 1168.766,211.241 1157.568,210.235 1148.056,209.378 C 1138.543,208.52 1130.039,207.774 1121.369,207.021 C 1112.7,206.267 1104.384,205.572 1096.039,204.857 C 1087.695,204.143 1079.535,203.425 1071.301,202.734 C 1063.066,202.043 1054.378,201.34 1046.633,200.712 C 1038.887,200.083 1031.729,199.501 1024.827,198.965 C 1017.925,198.428 1011.082,197.921 1005.219,197.493 C 999.356,197.065 994.561,196.727 989.648,196.396 C 984.735,196.065 980.28,195.787 975.741,195.509 C 971.203,195.231 966.519,194.974 962.418,194.728 C 958.317,194.483 954.625,194.254 951.134,194.037 C 947.644,193.82 944.368,193.613 941.474,193.429 C 938.58,193.244 936.106,193.081 933.771,192.928 C 931.436,192.775 929.277,192.633 927.464,192.512 C 925.652,192.39 924.285,192.295 922.895,192.2 C 921.504,192.105 920.273,192.021 919.121,191.941 C 917.97,191.862 916.911,191.788 915.988,191.723 C 915.065,191.658 914.239,191.599 913.582,191.551 C 912.925,191.503 914.537,191.24 912.045,191.434 C 909.554,191.628 905.884,185.249 898.633,192.715 C 891.382,200.18 871.739,225.033 868.541,236.225 C 865.342,247.417 876.734,255.082 879.441,259.868 C 882.148,264.654 883.057,263.443 884.782,264.941 C 886.507,266.44 888.025,267.567 889.789,268.858 C 891.554,270.15 893.184,271.302 895.369,272.688 C 897.554,274.075 899.89,275.555 902.899,277.177 C 905.907,278.799 909.24,280.606 913.42,282.421 C 917.6,284.235 922.161,286.186 927.981,288.066 C 933.8,289.945 940.665,291.966 948.336,293.698 C 956.007,295.431 964.195,297.149 974.008,298.459 C 983.821,299.768 995.346,300.939 1007.214,301.554 C 1019.082,302.169 1033.209,302.284 1045.215,302.146 C 1057.222,302.009 1066.59,301.612 1079.253,300.728 C 1091.916,299.843 1108.174,298.206 1121.191,296.838 C 1134.208,295.47 1144.988,294.182 1157.354,292.518 C 1169.72,290.855 1183.741,288.69 1195.388,286.856 C 1207.036,285.021 1216.743,283.367 1227.241,281.512 C 1237.74,279.657 1248.988,277.515 1258.381,275.727 C 1267.773,273.939 1275.78,272.361 1283.597,270.784 C 1291.413,269.206 1298.426,267.732 1305.279,266.261 C 1312.131,264.789 1318.692,263.323 1324.714,261.955 C 1330.736,260.587 1336.477,259.235 1341.411,258.053 C 1346.344,256.872 1350.434,255.856 1354.314,254.866 C 1358.194,253.876 1361.423,253.015 1364.69,252.113 C 1367.958,251.211 1371.047,250.327 1373.919,249.453 C 1376.79,248.578 1379.318,247.774 1381.92,246.865 C 1384.522,245.957 1386.985,245.061 1389.531,244.003 C 1392.078,242.945 1394.619,241.836 1397.198,240.518 C 1399.777,239.199 1402.274,237.889 1405.003,236.091 C 1407.732,234.292 1410.559,232.479 1413.572,229.728 C 1416.585,226.977 1420.306,223.14 1423.08,219.585 C 1425.853,216.029 1428.075,212.44 1430.212,208.394 C 1432.349,204.348 1434.289,199.538 1435.904,195.309 C 1437.519,191.079 1438.715,186.959 1439.901,183.018 C 1441.088,179.078 1442.021,175.352 1443.025,171.666 C 1444.028,167.979 1444.918,164.511 1445.921,160.897 C 1446.924,157.284 1448.001,153.452 1449.041,149.984 C 1450.08,146.516 1451.066,143.485 1452.158,140.09 C 1453.251,136.695 1454.439,133.156 1455.597,129.617 C 1456.756,126.077 1457.984,122.345 1459.109,118.853 C 1460.233,115.36 1461.316,111.976 1462.345,108.661 C 1463.373,105.346 1464.382,101.992 1465.282,98.962 C 1466.182,95.932 1466.98,93.172 1467.745,90.482 C 1468.51,87.792 1469.178,85.372 1469.874,82.821 C 1470.57,80.269 1471.324,77.414 1471.919,75.172 C 1472.513,72.929 1472.984,71.131 1473.441,69.365 C 1473.898,67.599 1474.307,65.977 1474.66,64.577 C 1475.013,63.176 1475.303,62.002 1475.559,60.962 C 1475.814,59.923 1475.996,59.171 1476.194,58.341 C 1476.391,57.511 1476.579,56.697 1476.744,55.981 C 1476.91,55.265 1477.062,54.589 1477.185,54.046 C 1477.307,53.502 1477.39,53.133 1477.481,52.718 A 39.994,39.994 -2.9328819741241268 0,0 1399.476,34.982 C 1399.302,35.817 1399.255,36.047 1399.17,36.434 C 1399.084,36.821 1398.968,37.348 1398.843,37.895 C 1398.718,38.443 1398.576,39.063 1398.422,39.721 C 1398.268,40.379 1398.132,40.968 1397.921,41.844 C 1397.711,42.719 1397.465,43.741 1397.159,44.976 C 1396.853,46.21 1396.491,47.657 1396.085,49.252 C 1395.678,50.847 1395.258,52.505 1394.721,54.547 C 1394.184,56.589 1393.484,59.215 1392.863,61.506 C 1392.242,63.796 1391.669,65.896 1390.994,68.29 C 1390.319,70.684 1389.611,73.161 1388.813,75.869 C 1388.015,78.578 1387.142,81.502 1386.203,84.541 C 1385.265,87.579 1384.262,90.737 1383.182,94.1 C 1382.102,97.464 1380.926,101.036 1379.722,104.721 C 1378.517,108.406 1377.197,112.325 1375.955,116.209 C 1374.713,120.094 1373.459,124.045 1372.268,128.03 C 1371.077,132.014 1369.861,136.343 1368.81,140.117 C 1367.759,143.891 1366.807,147.53 1365.96,150.672 C 1365.114,153.814 1364.423,156.507 1363.73,158.97 C 1363.037,161.433 1362.247,163.888 1361.802,165.449 C 1361.356,167.01 1361.087,167.832 1361.058,168.337 C 1361.028,168.842 1361.18,168.662 1361.626,168.478 C 1362.072,168.294 1363.321,167.411 1363.734,167.233 C 1364.146,167.055 1364.2,167.25 1364.101,167.412 C 1364.002,167.574 1363.673,167.876 1363.14,168.205 C 1362.608,168.533 1361.925,168.929 1360.904,169.383 C 1359.883,169.838 1358.558,170.375 1357.017,170.932 C 1355.476,171.49 1353.818,172.057 1351.656,172.727 C 1349.493,173.397 1346.82,174.175 1344.044,174.953 C 1341.269,175.731 1338.484,176.492 1335.004,177.396 C 1331.524,178.299 1327.765,179.259 1323.163,180.376 C 1318.562,181.494 1313.104,182.792 1307.395,184.101 C 1301.686,185.41 1295.45,186.812 1288.91,188.23 C 1282.369,189.649 1275.664,191.073 1268.149,192.611 C 1260.634,194.149 1252.851,195.723 1243.82,197.458 C 1234.789,199.193 1223.987,201.232 1213.963,203.021 C 1203.938,204.81 1194.695,206.438 1183.671,208.19 C 1172.647,209.942 1159.453,211.952 1147.818,213.533 C 1136.183,215.115 1125.875,216.401 1113.861,217.679 C 1101.848,218.957 1087.001,220.384 1075.738,221.203 C 1064.475,222.021 1056.518,222.417 1046.283,222.591 C 1036.047,222.764 1024.001,222.672 1014.325,222.244 C 1004.65,221.816 995.776,220.955 988.23,220.023 C 980.685,219.09 974.409,217.767 969.052,216.65 C 963.695,215.534 959.523,214.33 956.09,213.325 C 952.658,212.321 950.597,211.478 948.459,210.624 C 946.321,209.769 944.659,208.897 943.262,208.196 C 941.865,207.495 940.94,206.926 940.079,206.417 C 939.218,205.909 938.521,205.408 938.096,205.144 C 937.671,204.881 937.36,204.591 937.53,204.836 C 937.7,205.081 937.352,202.732 939.117,206.615 C 940.883,210.498 951.659,217.511 948.122,228.134 C 944.585,238.756 924.882,263.171 917.898,270.349 C 910.913,277.527 907.86,271.037 906.216,271.2 C 904.573,271.363 907.319,271.279 908.039,271.328 C 908.759,271.378 909.581,271.433 910.536,271.497 C 911.49,271.561 912.58,271.635 913.764,271.714 C 914.948,271.792 916.215,271.877 917.639,271.969 C 919.063,272.061 920.461,272.148 922.308,272.266 C 924.155,272.383 926.349,272.523 928.72,272.671 C 931.092,272.819 933.603,272.974 936.538,273.154 C 939.473,273.334 942.791,273.538 946.329,273.75 C 949.868,273.962 953.704,274.19 957.77,274.428 C 961.836,274.667 966.324,274.916 970.725,275.18 C 975.126,275.445 979.411,275.707 984.174,276.016 C 988.938,276.324 993.582,276.625 999.307,277.03 C 1005.033,277.435 1011.722,277.925 1018.526,278.443 C 1025.329,278.961 1032.466,279.523 1040.127,280.138 C 1047.789,280.753 1056.303,281.446 1064.495,282.132 C 1072.688,282.818 1080.961,283.545 1089.283,284.254 C 1097.605,284.963 1105.852,285.65 1114.428,286.385 C 1123.004,287.12 1131.398,287.824 1140.74,288.664 C 1150.082,289.503 1161.047,290.51 1170.479,291.424 C 1179.911,292.337 1189.026,293.26 1197.334,294.144 C 1205.641,295.027 1213.491,295.912 1220.322,296.722 C 1227.153,297.533 1233.073,298.341 1238.319,299.006 C 1243.565,299.671 1247.325,300.349 1251.797,300.712 C 1256.269,301.074 1259.584,302.116 1265.153,301.179 C 1270.721,300.243 1279.633,298.135 1285.21,295.092 C 1290.786,292.05 1295.471,286.546 1298.613,282.924 C 1301.754,279.301 1302.787,275.931 1304.058,273.358 C 1305.33,270.785 1305.626,269.342 1306.241,267.487 C 1306.855,265.631 1307.321,263.845 1307.747,262.227 C 1308.173,260.609 1308.393,259.559 1308.797,257.777 C 1309.201,255.996 1309.708,253.74 1310.171,251.538 C 1310.634,249.336 1311.038,247.288 1311.576,244.565 C 1312.113,241.843 1312.71,238.797 1313.397,235.204 C 1314.085,231.61 1314.926,227.224 1315.702,223.004 C 1316.477,218.784 1317.206,214.751 1318.051,209.884 C 1318.895,205.017 1319.738,199.967 1320.768,193.804 C 1321.798,187.64 1323.133,179.708 1324.23,172.901 C 1325.327,166.095 1326.309,159.883 1327.352,152.966 C 1328.395,146.048 1329.471,138.747 1330.489,131.398 C 1331.508,124.049 1332.545,116.288 1333.463,108.869 C 1334.38,101.449 1335.249,93.865 1335.994,86.881 C 1336.74,79.897 1337.416,73.069 1337.934,66.966 C 1338.453,60.862 1338.886,55.365 1339.106,50.261 C 1339.326,45.156 1339.781,41.586 1339.253,36.339 C 1338.726,31.093 1339.597,25.449 1335.942,18.784 C 1332.288,12.119 1322.468,0.916 1317.328,-3.653 C 1312.187,-8.221 1308.01,-7.617 1305.099,-8.627 C 1302.188,-9.637 1301.568,-9.411 1299.861,-9.711 C 1298.154,-10.011 1296.551,-10.222 1294.857,-10.428 C 1293.164,-10.634 1291.58,-10.788 1289.699,-10.948 C 1287.818,-11.108 1285.916,-11.25 1283.57,-11.387 C 1281.225,-11.523 1278.477,-11.655 1275.624,-11.766 C 1272.772,-11.878 1269.833,-11.965 1266.455,-12.055 C 1263.077,-12.146 1259.402,-12.237 1255.354,-12.31 C 1251.306,-12.382 1246.913,-12.441 1242.167,-12.491 C 1237.421,-12.541 1232.872,-12.576 1226.879,-12.611 C 1220.886,-12.646 1213.652,-12.672 1206.209,-12.702 C 1198.766,-12.733 1190.319,-12.779 1182.22,-12.795 C 1174.121,-12.81 1167.177,-12.799 1157.615,-12.795 C 1148.054,-12.791 1136.382,-12.777 1124.85,-12.772 C 1113.318,-12.767 1100.729,-12.761 1088.422,-12.766 C 1076.114,-12.772 1062.447,-12.8 1051.003,-12.805 C 1039.559,-12.809 1030.451,-12.788 1019.757,-12.794 C 1009.063,-12.801 996.501,-12.831 986.84,-12.843 C 977.179,-12.856 969.458,-12.856 961.789,-12.869 C 954.119,-12.882 946.456,-12.906 940.822,-12.92 C 935.188,-12.934 931.365,-12.944 927.984,-12.953 C 924.603,-12.963 922.326,-12.974 920.534,-12.979 C 918.742,-12.985 918.155,-12.985 917.232,-12.986 C 916.31,-12.987 915.372,-12.986 915,-12.986 C 914.628,-12.986 915,-12.986 915,-12.986 L 915,-12.986 L 915,-12.986 A 39.986,39.986 -4.71238898038469 0,0 915,66.986"/><a:init><a:s a:d="80" a:u="px" a:t="14826.07"/><a:c a:d="#fbff06" a:t="14826.07"/><a:m a:x="915" a:y="27" a:t="14826.07" a:p="1"/></a:init><a:ds a:t="14826.09"/><a:m a:x="917" a:y="27" a:t="14994.49"/><a:m a:x="950" a:y="27" a:t="15011.43"/><a:ds a:t="15012.23"/><a:ds a:t="15028.73"/><a:m a:x="1007" a:y="27" a:t="15030.16"/><a:ds a:t="15045.43"/><a:m a:x="1066" a:y="27" a:t="15046.79"/><a:ds a:t="15062.25"/><a:m a:x="1147" a:y="27" a:t="15063.9"/><a:ds a:t="15080.26"/><a:m a:x="1217" a:y="27" a:t="15084.46"/><a:ds a:t="15094.38"/><a:m a:x="1251" a:y="27" a:t="15097.57"/><a:ds a:t="15112.69"/><a:m a:x="1276" a:y="27" a:t="15114.65"/><a:ds a:t="15127.07"/><a:m a:x="1295" a:y="27" a:t="15130.73"/><a:ds a:t="15145.74"/><a:m a:x="1300" a:y="27" a:t="15147.63"/><a:ds a:t="15162.96"/><a:m a:x="1301" a:y="27" a:t="15165"/><a:ds a:t="15179.83"/><a:m a:x="1302" a:y="28" a:t="15182.37"/><a:ds a:t="15194.38"/><a:ds a:t="15212.48"/><a:ds a:t="15229.9"/><a:m a:x="1302" a:y="29" a:t="15234.86"/><a:ds a:t="15244.37"/><a:ds a:t="15261.69"/><a:m a:x="1302" a:y="30" a:t="15267.18"/><a:ds a:t="15278.39"/><a:ds a:t="15295.31"/><a:m a:x="1302" a:y="31" a:t="15299.32"/><a:ds a:t="15312.75"/><a:m a:x="1302" a:y="32" a:t="15323.29"/><a:ds a:t="15328.1"/><a:ds a:t="15344.75"/><a:m a:x="1302" a:y="33" a:t="15356.17"/><a:ds a:t="15361.74"/><a:m a:x="1302" a:y="34" a:t="15372.89"/><a:ds a:t="15379.15"/><a:m a:x="1301" a:y="41" a:t="15390.25"/><a:ds a:t="15394.38"/><a:m a:x="1299" a:y="65" a:t="15406.63"/><a:ds a:t="15411.7"/><a:m a:x="1296" a:y="101" a:t="15423.4"/><a:ds a:t="15429.54"/><a:m a:x="1290" a:y="151" a:t="15440.29"/><a:ds a:t="15445.66"/><a:m a:x="1285" a:y="192" a:t="15457.92"/><a:ds a:t="15461.94"/><a:m a:x="1278" a:y="231" a:t="15474.71"/><a:ds a:t="15478.34"/><a:m a:x="1274" a:y="248" a:t="15491.39"/><a:ds a:t="15495.32"/><a:m a:x="1270" a:y="257" a:t="15508.54"/><a:ds a:t="15511.74"/><a:m a:x="1268" a:y="263" a:t="15525.46"/><a:ds a:t="15528.1"/><a:m a:x="1267" a:y="265" a:t="15542.56"/><a:ds a:t="15544.76"/><a:ds a:t="15564.57"/><a:ds a:t="15579.98"/><a:m a:x="1266" a:y="265" a:t="15590.49"/><a:ds a:t="15595.93"/><a:ds a:t="15614.45"/><a:ds a:t="15630.96"/><a:ds a:t="15646.53"/><a:m a:x="1265" a:y="265" a:t="15650.91"/><a:ds a:t="15663.71"/><a:m a:x="1265" a:y="265" a:t="15676.03"/><a:ds a:t="15678.47"/><a:m a:x="1263" a:y="265" a:t="15692.88"/><a:ds a:t="15695.86"/><a:m a:x="1261" a:y="265" a:t="15710.18"/><a:ds a:t="15713.4"/><a:m a:x="1257" a:y="263" a:t="15727.5"/><a:ds a:t="15729.55"/><a:m a:x="1250" a:y="260" a:t="15744.03"/><a:ds a:t="15745.65"/><a:m a:x="1230" a:y="256" a:t="15761.35"/><a:ds a:t="15763.05"/><a:m a:x="1191" a:y="250" a:t="15778.91"/><a:ds a:t="15780.23"/><a:m a:x="1118" a:y="241" a:t="15795.34"/><a:ds a:t="15796.48"/><a:m a:x="1062" a:y="237" a:t="15811.77"/><a:ds a:t="15813.17"/><a:m a:x="1012" a:y="236" a:t="15828.86"/><a:ds a:t="15830.58"/><a:m a:x="993" a:y="236" a:t="15845.77"/><a:ds a:t="15846.91"/><a:m a:x="979" a:y="236" a:t="15863.61"/><a:ds a:t="15864.62"/><a:ds a:t="15879.49"/><a:m a:x="973" a:y="235" a:t="15882.03"/><a:ds a:t="15896.32"/><a:m a:x="963" a:y="234" a:t="15898.09"/><a:m a:x="948" a:y="232" a:t="15913.79"/><a:ds a:t="15915.6"/><a:m a:x="929" a:y="232" a:t="15931.53"/><a:ds a:t="15932.2"/><a:ds a:t="15948.26"/><a:m a:x="917" a:y="232" a:t="15950.02"/><a:ds a:t="15965.06"/><a:m a:x="910" a:y="232" a:t="15966.45"/><a:ds a:t="15979.8"/><a:m a:x="906" a:y="232" a:t="15983.48"/><a:ds a:t="15996.11"/><a:m a:x="905" a:y="232" a:t="15999.71"/><a:ds a:t="16013.9"/><a:m a:x="905" a:y="231" a:t="16016.41"/><a:ds a:t="16030.81"/><a:ds a:t="16048.08"/><a:ds a:t="16064.32"/><a:ds a:t="16081.43"/><a:ds a:t="16096.88"/><a:ds a:t="16114.04"/><a:ds a:t="16131.73"/><a:ds a:t="16149.02"/><a:m a:x="906" a:y="231" a:t="16150.72"/><a:ds a:t="16164.72"/><a:m a:x="912" a:y="236" a:t="16166.51"/><a:ds a:t="16182.1"/><a:m a:x="918" a:y="240" a:t="16183.89"/><a:ds a:t="16199.02"/><a:m a:x="924" a:y="244" a:t="16200.75"/><a:ds a:t="16214.94"/><a:m a:x="931" a:y="250" a:t="16216.86"/><a:ds a:t="16231.86"/><a:m a:x="938" a:y="253" a:t="16233.91"/><a:ds a:t="16248.84"/><a:m a:x="950" a:y="259" a:t="16250.69"/><a:ds a:t="16265.13"/><a:m a:x="967" a:y="265" a:t="16267.49"/><a:ds a:t="16282.16"/><a:m a:x="1002" a:y="276" a:t="16284.6"/><a:ds a:t="16298.86"/><a:m a:x="1046" a:y="281" a:t="16301.6"/><a:ds a:t="16314.57"/><a:m a:x="1099" a:y="281" a:t="16317.56"/><a:ds a:t="16331.98"/><a:m a:x="1165" a:y="278" a:t="16334.37"/><a:ds a:t="16348.6"/><a:m a:x="1230" a:y="261" a:t="16351.69"/><a:ds a:t="16366.1"/><a:m a:x="1287" a:y="243" a:t="16368.68"/><a:ds a:t="16383.1"/><a:m a:x="1322" a:y="230" a:t="16385.58"/><a:ds a:t="16397.41"/><a:m a:x="1354" a:y="220" a:t="16402.22"/><a:ds a:t="16415.86"/><a:m a:x="1366" a:y="216" a:t="16419.44"/><a:ds a:t="16430.87"/><a:m a:x="1375" a:y="210" a:t="16436.37"/><a:ds a:t="16448.79"/><a:m a:x="1379" a:y="208" a:t="16453.24"/><a:ds a:t="16464.14"/><a:m a:x="1382" a:y="207" a:t="16469.71"/><a:ds a:t="16482.24"/><a:m a:x="1383" a:y="207" a:t="16487.27"/><a:ds a:t="16497.71"/><a:m a:x="1384" a:y="206" a:t="16503.9"/><a:ds a:t="16514.31"/><a:m a:x="1385" a:y="205" a:t="16521.26"/><a:ds a:t="16531.99"/><a:m a:x="1387" a:y="204" a:t="16538.27"/><a:ds a:t="16549.31"/><a:m a:x="1388" a:y="203" a:t="16558.32"/><a:ds a:t="16565.01"/><a:m a:x="1389" a:y="202" a:t="16575.14"/><a:ds a:t="16581.02"/><a:m a:x="1390" a:y="201" a:t="16591.69"/><a:ds a:t="16598.75"/><a:m a:x="1393" a:y="198" a:t="16608.46"/><a:ds a:t="16614.83"/><a:m a:x="1396" a:y="195" a:t="16624.67"/><a:ds a:t="16632.1"/><a:m a:x="1400" a:y="190" a:t="16642.09"/><a:ds a:t="16648.74"/><a:m a:x="1404" a:y="184" a:t="16659.49"/><a:ds a:t="16665.26"/><a:m a:x="1407" a:y="175" a:t="16675.6"/><a:ds a:t="16682.63"/><a:m a:x="1411" a:y="155" a:t="16692.88"/><a:ds a:t="16698.81"/><a:m a:x="1413" a:y="139" a:t="16709.88"/><a:ds a:t="16714.52"/><a:m a:x="1414" a:y="118" a:t="16727.31"/><a:ds a:t="16732.31"/><a:m a:x="1416" a:y="104" a:t="16743.6"/><a:ds a:t="16748.86"/><a:m a:x="1419" a:y="93" a:t="16760.81"/><a:ds a:t="16764.5"/><a:m a:x="1425" a:y="84" a:t="16777.97"/><a:ds a:t="16781.42"/><a:m a:x="1431" a:y="74" a:t="16794.97"/><a:ds a:t="16799.01"/><a:m a:x="1437" a:y="65" a:t="16811.74"/><a:ds a:t="16814.86"/><a:m a:x="1439" a:y="57" a:t="16829.84"/><a:ds a:t="16831.83"/><a:m a:x="1439" a:y="51" a:t="16845.73"/><a:ds a:t="16848.81"/><a:m a:x="1439" a:y="47" a:t="16862.75"/><a:ds a:t="16865.1"/><a:m a:x="1439" a:y="43" a:t="16880.03"/><a:ds a:t="16882.06"/><a:m a:x="1439" a:y="42" a:t="16896.99"/><a:ds a:t="16898.04"/><a:m a:x="1439" a:y="41" a:t="16913.43"/><a:ds a:t="16914.97"/><a:ds a:t="16934.74"/><a:ds a:t="16950.55"/><a:ds a:t="16968.04"/><a:ds a:t="16983.43"/><a:m a:x="1439" a:y="41" a:t="16998.94"/><a:ds a:t="16999.71"/><a:ds a:t="17017.09"/><a:ds a:t="17034.35"/><a:ds a:t="17049.03"/><a:ds a:t="17066.05"/><a:ds a:t="17083.76"/><a:m a:x="1418" a:y="41" a:t="17283.47"/><a:m a:x="1374" a:y="43" a:t="17299.7"/><a:m a:x="1330" a:y="52" a:t="17316.38"/><a:m a:x="1277" a:y="61" a:t="17332.95"/><a:m a:x="1156" a:y="88" a:t="17350.85"/><a:m a:x="1041" a:y="120" a:t="17367.69"/><a:m a:x="930" a:y="155" a:t="17384.4"/><a:m a:x="871" a:y="179" a:t="17402.41"/><a:m a:x="812" a:y="204" a:t="17419.75"/><a:m a:x="785" a:y="217" a:t="17435.8"/><a:m a:x="774" a:y="222" a:t="17451.77"/><a:m a:x="766" a:y="226" a:t="17468.87"/><a:m a:x="764" a:y="228" a:t="17486.32"/><a:m a:x="763" a:y="229" a:t="17502.72"/><a:m a:x="763" a:y="230" a:t="17562.98"/><a:m a:x="763" a:y="233" a:t="17579.49"/><a:m a:x="763" a:y="237" a:t="17596.79"/><a:m a:x="763" a:y="243" a:t="17613.3"/><a:m a:x="762" a:y="249" a:t="17630.31"/><a:m a:x="762" a:y="256" a:t="17647.84"/><a:m a:x="762" a:y="265" a:t="17665.06"/><a:m a:x="762" a:y="276" a:t="17682.82"/><a:m a:x="762" a:y="291" a:t="17699.9"/><a:m a:x="764" a:y="307" a:t="17717.24"/><a:m a:x="766" a:y="317" a:t="17733.46"/><a:m a:x="767" a:y="326" a:t="17751.44"/><a:m a:x="768" a:y="330" a:t="17767.78"/><a:m a:x="768" a:y="332" a:t="17784.75"/><a:m a:x="768" a:y="333" a:t="17802.03"/><a:m a:x="768" a:y="336" a:t="17819.86"/><a:m a:x="765" a:y="341" a:t="17837.88"/><a:m a:x="761" a:y="345" a:t="17854.49"/><a:m a:x="756" a:y="350" a:t="17872.84"/><a:m a:x="753" a:y="352" a:t="17888.67"/><a:m a:x="751" a:y="353" a:t="17904.89"/><a:m a:x="749" a:y="355" a:t="17923.05"/><a:m a:x="748" a:y="356" a:t="17939.22"/><a:m a:x="748" a:y="357" a:t="17956.53"/><a:m a:x="748" a:y="358" a:t="17981.03"/><a:m a:x="747" a:y="358" a:t="17998.63"/><a:m a:x="747" a:y="359" a:t="18156.83"/><a:m a:x="747" a:y="359" a:t="18180.92"/><a:m a:x="748" a:y="359" a:t="18197.98"/><a:m a:x="748" a:y="360" a:t="18214.77"/><a:m a:x="749" a:y="360" a:t="18232.16"/><a:m a:x="749" a:y="361" a:t="18249.72"/><a:m a:x="749" a:y="362" a:t="18293.45"/><a:m a:x="749" a:y="362" a:t="18404.89"/><a:c a:d="#111" a:t="18405.23"/><a:m a:x="751" a:y="362" a:t="18606.11"/><a:m a:x="756" a:y="362" a:t="18623.21"/><a:m a:x="763" a:y="362" a:t="18639.75"/><a:m a:x="773" a:y="363" a:t="18655.55"/><a:m a:x="780" a:y="364" a:t="18673.87"/><a:m a:x="789" a:y="366" a:t="18689.8"/><a:m a:x="797" a:y="367" a:t="18707.3"/><a:m a:x="801" a:y="368" a:t="18724.93"/><a:m a:x="803" a:y="369" a:t="18741.09"/><a:m a:x="804" a:y="369" a:t="18757.54"/><a:m a:x="803" a:y="369" a:t="18784.12"/><a:m a:x="790" a:y="369" a:t="18800.75"/><a:m a:x="763" a:y="369" a:t="18817.33"/><a:m a:x="732" a:y="369" a:t="18834.74"/><a:m a:x="685" a:y="364" a:t="18851.31"/><a:m a:x="636" a:y="363" a:t="18867.81"/><a:m a:x="585" a:y="363" a:t="18884.8"/><a:m a:x="558" a:y="363" a:t="18901.57"/><a:m a:x="537" a:y="367" a:t="18918.36"/><a:m a:x="525" a:y="370" a:t="18935.02"/><a:m a:x="516" a:y="373" a:t="18952.05"/><a:m a:x="508" a:y="374" a:t="18970.13"/><a:m a:x="500" a:y="374" a:t="18987.07"/><a:m a:x="489" a:y="374" a:t="19003.78"/><a:m a:x="476" a:y="374" a:t="19020.23"/><a:m a:x="462" a:y="374" a:t="19038.24"/><a:m a:x="450" a:y="374" a:t="19055.15"/><a:m a:x="439" a:y="373" a:t="19073.73"/><a:m a:x="427" a:y="371" a:t="19091.66"/><a:m a:x="417" a:y="369" a:t="19107.75"/><a:m a:x="405" a:y="367" a:t="19125.45"/><a:m a:x="396" a:y="365" a:t="19141.25"/><a:m a:x="391" a:y="363" a:t="19158.13"/><a:m a:x="387" a:y="362" a:t="19175.54"/><a:m a:x="387" a:y="361" a:t="19191.36"/><a:m a:x="386" a:y="361" a:t="19209.07"/><a:m a:x="387" a:y="361" a:t="19249.06"/><a:m a:x="399" a:y="361" a:t="19265.84"/><a:m a:x="424" a:y="362" a:t="19283.5"/><a:m a:x="459" a:y="370" a:t="19300.05"/><a:m a:x="513" a:y="375" a:t="19316.42"/><a:m a:x="568" a:y="380" a:t="19333.74"/><a:m a:x="611" a:y="383" a:t="19351.01"/><a:m a:x="658" a:y="386" a:t="19366.42"/><a:m a:x="689" a:y="388" a:t="19383.28"/><a:m a:x="700" a:y="389" a:t="19400.68"/><a:m a:x="709" a:y="389" a:t="19417.22"/><a:m a:x="711" a:y="389" a:t="19434.81"/><a:m a:x="713" a:y="389" a:t="19452.24"/><a:m a:x="714" a:y="389" a:t="19469.51"/><a:m a:x="715" a:y="388" a:t="19591.92"/><a:m a:x="716" a:y="387" a:t="19608.93"/><a:m a:x="722" a:y="386" a:t="19626.01"/><a:m a:x="731" a:y="384" a:t="19642.51"/><a:m a:x="747" a:y="383" a:t="19659.55"/><a:m a:x="765" a:y="383" a:t="19676.43"/><a:m a:x="783" a:y="383" a:t="19693.06"/><a:m a:x="796" a:y="383" a:t="19709.92"/><a:m a:x="805" a:y="383" a:t="19726.53"/><a:m a:x="809" a:y="383" a:t="19744.14"/><a:m a:x="810" a:y="383" a:t="19760.28"/><a:m a:x="811" a:y="383" a:t="19834.16"/><a:m a:x="811" a:y="382" a:t="19851.17"/><a:m a:x="812" a:y="382" a:t="19867.13"/><a:m a:x="814" a:y="381" a:t="19884.33"/><a:m a:x="816" a:y="381" a:t="19901.13"/><a:m a:x="819" a:y="380" a:t="19917.47"/><a:m a:x="820" a:y="380" a:t="19935.17"/><a:m a:x="821" a:y="380" a:t="19951.57"/><a:m a:x="821" a:y="379" a:t="19969.94"/><a:m a:x="822" a:y="379" a:t="19987.06"/><a:m a:x="823" a:y="378" a:t="20003.97"/><a:m a:x="823" a:y="377" a:t="20072.21"/><a:m a:x="823" a:y="376" a:t="20112.14"/><a:m a:x="823" a:y="376" a:t="20424.8"/></g><g a:type="erase" a:t="20424.97" a:lastErase="0"><rect fill="#111" width="100%" height="100%"/><a:init><a:s a:d="80" a:u="px" a:t="20424.97"/><a:c a:d="#111" a:t="20424.97"/><a:m a:x="823" a:y="376" a:t="20424.97"/></a:init><a:e a:t="20424.97" a:color="#111"/><a:m a:x="822" a:y="376" a:t="20689.41"/><a:m a:x="808" a:y="376" a:t="20706.1"/><a:m a:x="779" a:y="375" a:t="20723.13"/><a:m a:x="732" a:y="367" a:t="20740.54"/><a:m a:x="665" a:y="359" a:t="20756.84"/><a:m a:x="576" a:y="353" a:t="20773.8"/><a:m a:x="480" a:y="351" a:t="20791.17"/><a:m a:x="416" a:y="351" a:t="20809.09"/><a:m a:x="350" a:y="351" a:t="20825.25"/><a:m a:x="311" a:y="351" a:t="20841.86"/><a:m a:x="298" a:y="351" a:t="20860.81"/><a:m a:x="278" a:y="351" a:t="20878.23"/><a:m a:x="267" a:y="351" a:t="20896.03"/><a:m a:x="254" a:y="351" a:t="20913.72"/><a:m a:x="241" a:y="351" a:t="20929.88"/><a:m a:x="233" a:y="351" a:t="20946.68"/><a:m a:x="219" a:y="351" a:t="20963.39"/><a:m a:x="205" a:y="349" a:t="20980.19"/><a:m a:x="183" a:y="345" a:t="20995.93"/><a:m a:x="161" a:y="342" a:t="21013.61"/><a:m a:x="142" a:y="337" a:t="21031.07"/><a:m a:x="131" a:y="335" a:t="21046.51"/><a:m a:x="122" a:y="333" a:t="21063.53"/><a:m a:x="116" a:y="331" a:t="21080.16"/><a:m a:x="105" a:y="331" a:t="21097.54"/><a:m a:x="90" a:y="331" a:t="21115.15"/><a:m a:x="75" a:y="331" a:t="21131.75"/><a:m a:x="62" a:y="333" a:t="21149.49"/><a:m a:x="52" a:y="334" a:t="21165.6"/><a:m a:x="47" a:y="335" a:t="21182.74"/><a:m a:x="46" a:y="335" a:t="21200"/><a:m a:x="46" a:y="336" a:t="21222.2"/><a:m a:x="46" a:y="337" a:t="21254.2"/><a:m a:x="46" a:y="338" a:t="21284.51"/><a:m a:x="46" a:y="338" a:t="21307.61"/><a:m a:x="46" a:y="340" a:t="21324.54"/><a:m a:x="46" a:y="342" a:t="21341.55"/><a:m a:x="46" a:y="344" a:t="21359.87"/><a:m a:x="46" a:y="345" a:t="21376.04"/><a:m a:x="46" a:y="346" a:t="21405.24"/><a:m a:x="45" a:y="346" a:t="21422.01"/><a:m a:x="45" a:y="346" a:t="21484.05"/><a:m a:x="45" a:y="347" a:t="21524.52"/><a:m a:x="45" a:y="348" a:t="21556.61"/><a:m a:x="45" a:y="349" a:t="21580.92"/><a:m a:x="46" a:y="350" a:t="21612.47"/><a:m a:x="46" a:y="351" a:t="21630.64"/><a:m a:x="46" a:y="352" a:t="21655.41"/><a:m a:x="47" a:y="352" a:t="21671.74"/><a:m a:x="47" a:y="353" a:t="21689.42"/><a:m a:x="48" a:y="353" a:t="21709.77"/><a:m a:x="48" a:y="354" a:t="21741.93"/><a:m a:x="49" a:y="354" a:t="21758.09"/><a:m a:x="50" a:y="355" a:t="21789.55"/><a:m a:x="50" a:y="355" a:t="21981.34"/></g><g a:type="void" a:t="21981.78" a:lastErase="8"><a:init><a:s a:d="80" a:u="px" a:t="21981.78"/><a:c a:d="#111" a:t="21981.78"/><a:m a:x="50" a:y="355" a:t="21981.78"/></a:init></g></g></svg>