<!DOCTYPE svg:svg PUBLIC "-//W3C//DTD SVG 1.1//EN" "http://www.w3.org/Graphics/SVG/1.1/DTD/svg11.dtd">
<svg xmlns="http://www.w3.org/2000/svg" xmlns:a="http://www.rozsival.com/2015/vector-video" width="1440" height="407" viewBox="0 0 1440 407">
	<a:metadata>
		<a:length>7875.026</a:length>
		<a:width>1440</a:width>
		<a:height>407</a:height>
		<a:audio>
			<a:source a:type="audio/ogg" a:src="/recordings/1a715e9b-951d-4ffa-aa31-b026aa299abe.ogg" />
			<a:source a:type="audio/mp3" a:src="/recordings/1a715e9b-951d-4ffa-aa31-b026aa299abe.mp3" /></a:audio>
	</a:metadata>
	<g a:type="video-chunks">
		<g a:type="erase" a:t="0.00" a:lastErase="0">
			<rect fill="#111" width="100%" height="100%" />
			<a:init>
				<a:s a:d="2" a:u="px" a:t="0" />
				<a:c a:d="#fff" a:t="0" />
				<a:m a:x="0" a:y="0" a:t="0" /></a:init>
			<a:e a:t="0" a:color="#111" />
			<a:c a:d="#fff" a:t="0" />
			<a:s a:d="2" a:u="px" a:t="0" />
		</g>
		<g a:type="void" a:t="0.00" a:lastErase="0">
			<a:init>
				<a:s a:d="2" a:u="px" a:t="0" />
				<a:c a:d="#fff" a:t="0" />
				<a:m a:x="63" a:y="373" a:t="0" /></a:init>
			<a:m a:x="65" a:y="373" a:t="143.29" />
			<a:m a:x="73" a:y="373" a:t="159.88" />
			<a:m a:x="81" a:y="373" a:t="176.77" />
			<a:m a:x="99" a:y="373" a:t="212.15" />
			<a:m a:x="105" a:y="373" a:t="230.9" />
			<a:m a:x="110" a:y="373" a:t="248" />
			<a:m a:x="115" a:y="373" a:t="263.31" />
			<a:m a:x="120" a:y="373" a:t="280.27" />
			<a:m a:x="127" a:y="373" a:t="301.65" />
			<a:m a:x="136" a:y="373" a:t="312.91" />
			<a:m a:x="146" a:y="373" a:t="330.13" />
			<a:m a:x="173" a:y="373" a:t="363.98" />
			<a:m a:x="184" a:y="373" a:t="380.66" />
			<a:m a:x="195" a:y="373" a:t="398.34" />
			<a:m a:x="205" a:y="373" a:t="416.46" />
			<a:m a:x="215" a:y="373" a:t="435.67" />
			<a:m a:x="226" a:y="373" a:t="450.29" />
			<a:m a:x="233" a:y="373" a:t="466.39" />
			<a:m a:x="240" a:y="373" a:t="484.02" />
			<a:m a:x="245" a:y="373" a:t="500.75" />
			<a:m a:x="249" a:y="373" a:t="517.58" />
			<a:m a:x="252" a:y="373" a:t="534.93" />
			<a:m a:x="255" a:y="373" a:t="551.63" />
			<a:m a:x="257" a:y="373" a:t="568.47" />
			<a:m a:x="258" a:y="373" a:t="586.57" />
			<a:m a:x="259" a:y="373" a:t="603.05" />
			<a:m a:x="259" a:y="372" a:t="697.56" />
			<a:m a:x="259" a:y="372" a:t="936.72" />
			<a:c a:d="#fa5959" a:t="936.9" />
			<a:m a:x="257" a:y="372" a:t="1226.77" />
			<a:m a:x="250" a:y="372" a:t="1242.86" />
			<a:m a:x="236" a:y="372" a:t="1259.91" />
			<a:m a:x="207" a:y="372" a:t="1282.33" />
			<a:m a:x="187" a:y="376" a:t="1294.55" />
			<a:m a:x="142" a:y="383" a:t="1328.6" />
			<a:m a:x="128" a:y="385" a:t="1347.58" />
			<a:m a:x="120" a:y="387" a:t="1361.46" />
			<a:m a:x="118" a:y="387" a:t="1383.52" />
			<a:m a:x="117" a:y="387" a:t="1393.76" />
			<a:m a:x="118" a:y="387" a:t="1550.97" />
			<a:m a:x="119" a:y="387" a:t="1567.76" />
			<a:m a:x="120" a:y="386" a:t="1585" />
			<a:m a:x="122" a:y="384" a:t="1602.15" />
			<a:m a:x="130" a:y="376" a:t="1635.55" />
			<a:m a:x="137" a:y="372" a:t="1652.93" />
			<a:m a:x="147" a:y="368" a:t="1670.22" />
			<a:m a:x="190" a:y="357" a:t="1704.04" />
			<a:m a:x="229" a:y="350" a:t="1721.2" />
			<a:m a:x="273" a:y="346" a:t="1737.96" />
			<a:m a:x="325" a:y="346" a:t="1755.43" />
			<a:m a:x="378" a:y="346" a:t="1772.69" />
			<a:m a:x="428" a:y="349" a:t="1789.77" />
			<a:m a:x="472" a:y="362" a:t="1806.78" />
			<a:m a:x="502" a:y="372" a:t="1823.41" />
			<a:m a:x="524" a:y="381" a:t="1840.08" />
			<a:m a:x="535" a:y="385" a:t="1856.83" />
			<a:m a:x="544" a:y="390" a:t="1876.61" />
			<a:m a:x="548" a:y="392" a:t="1892.17" />
			<a:m a:x="550" a:y="393" a:t="1909.56" />
			<a:m a:x="550" a:y="394" a:t="1926.68" />
			<a:m a:x="551" a:y="394" a:t="1942.82" />
			<a:m a:x="552" a:y="394" a:t="2039.82" />
			<a:m a:x="555" a:y="392" a:t="2056.89" />
			<a:m a:x="559" a:y="389" a:t="2073.95" />
			<a:m a:x="562" a:y="387" a:t="2098.47" />
			<a:m a:x="567" a:y="384" a:t="2112.2" />
			<a:m a:x="571" a:y="381" a:t="2128.2" />
			<a:m a:x="575" a:y="379" a:t="2144.31" />
			<a:m a:x="577" a:y="376" a:t="2160.88" />
			<a:m a:x="579" a:y="375" a:t="2178.28" />
			<a:m a:x="580" a:y="375" a:t="2195.47" />
			<a:m a:x="581" a:y="374" a:t="2211.86" />
			<a:m a:x="582" a:y="374" a:t="2229.03" />
			<a:m a:x="582" a:y="374" a:t="2529.73" />
			<a:s a:d="8" a:u="px" a:t="2529.98" />
			<a:m a:x="580" a:y="373" a:t="2763" />
			<a:m a:x="574" a:y="368" a:t="2779.54" />
			<a:m a:x="559" a:y="353" a:t="2796.29" />
			<a:m a:x="536" a:y="331" a:t="2812.44" />
			<a:m a:x="506" a:y="304" a:t="2829.28" />
			<a:m a:x="465" a:y="279" a:t="2846.89" />
			<a:m a:x="433" a:y="266" a:t="2863.39" />
			<a:m a:x="394" a:y="257" a:t="2880.2" />
			<a:m a:x="358" a:y="251" a:t="2898.83" />
			<a:m a:x="334" a:y="250" a:t="2915.2" />
			<a:m a:x="324" a:y="250" a:t="2931.32" />
			<a:m a:x="312" a:y="250" a:t="2948.47" />
			<a:m a:x="305" a:y="250" a:t="2966.5" />
			<a:m a:x="301" a:y="250" a:t="2982.11" />
			<a:m a:x="298" a:y="250" a:t="2998.95" />
			<a:m a:x="296" a:y="249" a:t="3017.42" />
			<a:m a:x="294" a:y="249" a:t="3036.42" />
			<a:m a:x="294" a:y="248" a:t="3050.98" />
			<a:m a:x="294" a:y="248" a:t="3074.99" />
			<a:m a:x="294" a:y="247" a:t="3099.38" />
			<a:m a:x="294" a:y="247" a:t="3115.48" />
		</g>
		<g a:type="path" a:t="3115.65" a:lastErase="0">
			<path fill="#fa5959" d="M 297.966,247 L 297.966,247 C 297.966,247 297.966,247.091 297.966,247 C 297.966,246.909 298.007,247.288 297.966,246.454 C 297.925,245.62 297.897,245.642 297.721,241.993 C 297.545,238.345 297.198,232.815 296.91,224.561 C 296.623,216.307 296.302,205.766 295.994,192.47 C 295.686,179.173 295.305,159.044 295.064,144.783 C 294.822,130.521 294.603,117.932 294.547,106.9 C 294.49,95.867 294.669,86.813 294.724,78.588 C 294.779,70.363 294.717,63.309 294.875,57.549 C 295.032,51.789 295.345,47.293 295.669,44.027 C 295.992,40.761 296.48,39.094 296.817,37.953 C 297.154,36.813 297.967,36.902 297.69,37.182 C 297.413,37.462 295.478,39.123 295.156,39.634 C 294.834,40.146 295.171,39.921 295.757,40.25 C 296.344,40.579 297.612,41.054 298.675,41.607 C 299.738,42.16 301.022,42.898 302.135,43.568 C 303.248,44.239 304.402,44.792 305.353,45.63 C 306.304,46.469 306.579,46.619 307.842,48.599 C 309.105,50.58 310.774,53.229 312.931,57.512 C 315.088,61.794 317.665,67.499 320.783,74.294 C 323.901,81.09 327.541,89.157 331.639,98.285 C 335.737,107.413 340.976,119.008 345.372,129.063 C 349.769,139.117 353.565,148.566 358.02,158.612 C 362.474,168.659 367.921,180.261 372.102,189.339 C 376.282,198.417 379.946,206.421 383.103,213.081 C 386.26,219.741 388.702,224.743 391.044,229.301 C 393.387,233.858 395.489,237.543 397.157,240.427 C 398.825,243.311 399.997,245.123 401.052,246.604 C 402.106,248.086 401.983,249.068 403.485,249.315 C 404.986,249.562 408.362,249.807 410.06,248.087 C 411.758,246.366 412.088,242.962 413.673,238.992 C 415.259,235.022 416.959,230.002 419.574,224.265 C 422.189,218.529 425.316,211.953 429.363,204.573 C 433.411,197.193 438.786,187.907 443.86,179.986 C 448.934,172.064 454.804,163.635 459.809,157.045 C 464.813,150.456 469.62,144.949 473.885,140.448 C 478.15,135.948 482.306,132.431 485.397,130.04 C 488.488,127.649 490.432,126.609 492.432,126.103 C 494.431,125.597 495.743,125.932 497.395,127.002 C 499.048,128.072 499.835,129.406 502.348,132.522 C 504.861,135.638 508.181,139.885 512.471,145.701 C 516.761,151.517 522.833,160.061 528.086,167.42 C 533.339,174.779 538.241,182.156 543.988,189.853 C 549.735,197.55 557.053,206.731 562.568,213.602 C 568.084,220.473 572.6,226.158 577.081,231.078 C 581.562,235.998 585.366,239.784 589.454,243.123 C 593.541,246.463 598.021,249.171 601.607,251.115 C 605.193,253.06 607.471,254.578 610.97,254.79 C 614.469,255.002 618.938,254.096 622.603,252.386 C 626.267,250.677 628.791,248.389 632.957,244.532 C 637.123,240.676 641.825,235.069 647.6,229.248 C 653.374,223.427 659.59,216.774 667.606,209.608 C 675.621,202.443 685.544,193.616 695.692,186.256 C 705.84,178.895 715.137,172.458 728.494,165.446 C 741.851,158.435 757.907,150.727 775.835,144.188 C 793.763,137.648 813.098,131.259 836.062,126.21 C 859.025,121.16 884.263,117.221 913.617,113.889 C 942.972,110.557 977.032,107.687 1012.189,106.219 C 1047.346,104.752 1087.728,104.393 1124.557,105.085 C 1161.386,105.777 1198.917,107.866 1233.163,110.37 C 1267.409,112.875 1302.795,116.78 1330.031,120.11 C 1357.267,123.44 1379.207,127.199 1396.579,130.349 C 1413.951,133.498 1425.238,136.283 1434.265,139.007 C 1443.292,141.731 1447.606,144.743 1450.741,146.691 C 1453.876,148.64 1453.093,150.503 1453.076,150.699 C 1453.059,150.895 1451.614,148.274 1450.641,147.869 C 1449.667,147.464 1448.354,148.184 1447.233,148.268 C 1446.113,148.351 1444.914,148.389 1443.916,148.369 A 3.803,3.803 -4.658766226329441 0,0 1440.843,155.743 C 1445.814,155.801 1447.044,155.824 1448.959,155.393 C 1450.874,154.962 1454.384,154.89 1455.951,153.272 C 1457.517,151.654 1458.884,147.669 1458.357,145.685 C 1457.83,143.7 1456.682,142.998 1452.786,141.366 C 1448.89,139.733 1444.267,138.251 1434.981,135.888 C 1425.694,133.525 1414.504,130.346 1397.065,127.186 C 1379.627,124.026 1357.642,120.261 1330.351,116.926 C 1303.06,113.591 1267.623,109.681 1233.319,107.174 C 1199.014,104.667 1161.421,102.576 1124.524,101.885 C 1087.628,101.194 1047.176,101.555 1011.941,103.029 C 976.706,104.503 942.58,107.376 913.115,110.729 C 883.649,114.081 858.244,118.053 835.146,123.143 C 812.047,128.234 792.583,134.669 774.523,141.269 C 756.463,147.868 740.282,155.685 726.787,162.74 C 713.291,169.795 703.928,176.331 693.549,183.6 C 683.17,190.87 672.805,199.386 664.513,206.354 C 656.221,213.323 649.727,219.907 643.796,225.41 C 637.865,230.913 632.737,235.968 628.928,239.373 C 625.119,242.778 623.559,244.346 620.943,245.841 C 618.326,247.336 615.894,248.343 613.229,248.343 C 610.564,248.342 608.249,247.424 604.955,245.838 C 601.661,244.252 597.457,241.852 593.463,238.827 C 589.47,235.802 585.584,232.327 580.994,227.69 C 576.404,223.053 571.47,217.751 565.924,211.005 C 560.378,204.26 553.385,194.919 547.718,187.217 C 542.05,179.515 537.006,172.286 531.918,164.793 C 526.83,157.299 521.35,148.467 517.19,142.258 C 513.029,136.048 510.211,131.268 506.954,127.538 C 503.697,123.808 500.694,121.087 497.648,119.878 C 494.602,118.669 491.412,119.317 488.678,120.284 C 485.945,121.251 484.389,122.874 481.245,125.68 C 478.102,128.486 474.003,132.319 469.815,137.12 C 465.627,141.921 461.071,147.725 456.117,154.487 C 451.163,161.249 445.325,169.746 440.093,177.693 C 434.861,185.639 429.062,194.804 424.725,202.165 C 420.387,209.527 416.991,216.159 414.07,221.862 C 411.149,227.565 408.76,232.954 407.2,236.385 C 405.64,239.816 404.464,241.228 404.708,242.447 C 404.953,243.667 408.306,243.689 408.668,243.701 C 409.031,243.713 407.877,243.604 406.883,242.517 C 405.89,241.43 404.498,239.828 402.707,237.18 C 400.916,234.531 398.695,230.988 396.137,226.626 C 393.58,222.265 390.795,217.487 387.362,211.012 C 383.93,204.536 379.823,196.771 375.542,187.775 C 371.261,178.778 366.125,167.069 361.676,157.034 C 357.228,147 353.137,137.669 348.852,127.567 C 344.566,117.464 339.776,105.678 335.961,96.422 C 332.146,87.166 328.828,79.034 325.962,72.029 C 323.095,65.025 320.859,59.113 318.763,54.395 C 316.667,49.678 314.955,46.245 313.388,43.725 C 311.821,41.206 310.602,40.376 309.36,39.28 C 308.118,38.184 307.17,37.912 305.935,37.149 C 304.699,36.386 302.991,35.294 301.948,34.703 C 300.905,34.111 300.599,34.061 299.677,33.6 C 298.754,33.138 297.905,31.891 296.411,31.936 C 294.917,31.982 291.839,33.004 290.715,33.873 C 289.591,34.742 289.89,35.482 289.667,37.149 C 289.444,38.816 289.403,40.461 289.376,43.874 C 289.349,47.287 289.357,51.83 289.505,57.626 C 289.653,63.423 289.967,70.435 290.263,78.655 C 290.559,86.875 291.015,95.92 291.282,106.947 C 291.549,117.974 291.743,130.565 291.864,144.819 C 291.984,159.072 292.135,179.179 292.006,192.47 C 291.877,205.76 291.377,216.307 291.09,224.561 C 290.802,232.815 290.455,238.345 290.279,241.993 C 290.103,245.642 290.075,245.62 290.034,246.454 C 289.993,247.288 290.034,246.909 290.034,247 C 290.034,247.091 290.034,247 290.034,247 L 290.034,247 L 290.034,247 A 3.966,3.966 0 0,0 297.966,247"
			/>
			<a:init>
				<a:s a:d="8" a:u="px" a:t="3115.65" />
				<a:c a:d="#fa5959" a:t="3115.65" />
				<a:m a:x="294" a:y="247" a:t="3115.65" a:p="1" /></a:init>
			<a:ds a:t="3115.87" />
			<a:m a:x="294" a:y="245" a:t="3187.65" />
			<a:ds a:t="3205.58" />
			<a:m a:x="294" a:y="226" a:t="3207.45" />
			<a:ds a:t="3218.41" />
			<a:m a:x="294" a:y="182" a:t="3221.53" />
			<a:ds a:t="3234.51" />
			<a:m a:x="294" a:y="123" a:t="3240.14" />
			<a:ds a:t="3251.03" />
			<a:m a:x="292" a:y="69" a:t="3254.24" />
			<a:ds a:t="3270.87" />
			<a:m a:x="292" a:y="62" a:t="3272.58" />
			<a:ds a:t="3285.94" />
			<a:m a:x="292" a:y="47" a:t="3288.19" />
			<a:ds a:t="3300.53" />
			<a:m a:x="292" a:y="43" a:t="3304.5" />
			<a:ds a:t="3317.92" />
			<a:m a:x="294" a:y="40" a:t="3321.69" />
			<a:ds a:t="3335.41" />
			<a:m a:x="295" a:y="40" a:t="3348.18" />
			<a:ds a:t="3350.96" />
			<a:m a:x="296" a:y="40" a:t="3366.12" />
			<a:ds a:t="3367.6" />
			<a:m a:x="299" a:y="40" a:t="3382.81" />
			<a:ds a:t="3384.54" />
			<a:m a:x="301" a:y="40" a:t="3399.72" />
			<a:ds a:t="3400.88" />
			<a:m a:x="305" a:y="40" a:t="3416.61" />
			<a:ds a:t="3417.72" />
			<a:m a:x="311" a:y="45" a:t="3434.47" />
			<a:ds a:t="3435.32" />
			<a:ds a:t="3451.03" />
			<a:m a:x="315" a:y="54" a:t="3452.49" />
			<a:ds a:t="3468.11" />
			<a:m a:x="326" a:y="79" a:t="3469.59" />
			<a:ds a:t="3485.28" />
			<a:m a:x="337" a:y="108" a:t="3487.23" />
			<a:ds a:t="3502.41" />
			<a:m a:x="352" a:y="140" a:t="3504.26" />
			<a:ds a:t="3519.01" />
			<a:m a:x="368" a:y="177" a:t="3520.54" />
			<a:ds a:t="3536.74" />
			<a:m a:x="379" a:y="202" a:t="3538.51" />
			<a:ds a:t="3553.04" />
			<a:m a:x="392" a:y="226" a:t="3555.26" />
			<a:ds a:t="3570.12" />
			<a:m a:x="398" a:y="235" a:t="3572.09" />
			<a:ds a:t="3586.55" />
			<a:m a:x="402" a:y="241" a:t="3588.77" />
			<a:ds a:t="3601.77" />
			<a:m a:x="404" a:y="243" a:t="3605.36" />
			<a:ds a:t="3619.54" />
			<a:m a:x="405" a:y="243" a:t="3622.9" />
			<a:ds a:t="3636.93" />
			<a:m a:x="406" a:y="243" a:t="3642.45" />
			<a:ds a:t="3652.82" />
			<a:m a:x="408" a:y="238" a:t="3655.29" />
			<a:ds a:t="3668.97" />
			<a:m a:x="417" a:y="218" a:t="3672.34" />
			<a:ds a:t="3687.03" />
			<a:m a:x="433" a:y="187" a:t="3690.09" />
			<a:ds a:t="3702.12" />
			<a:m a:x="449" a:y="165" a:t="3707.01" />
			<a:ds a:t="3718.28" />
			<a:m a:x="468" a:y="141" a:t="3724.56" />
			<a:ds a:t="3737.57" />
			<a:m a:x="480" a:y="129" a:t="3741.72" />
			<a:ds a:t="3753" />
			<a:m a:x="488" a:y="125" a:t="3757.86" />
			<a:ds a:t="3769.64" />
			<a:m a:x="493" a:y="125" a:t="3773.29" />
			<a:ds a:t="3787.7" />
			<a:m a:x="497" a:y="125" a:t="3790.79" />
			<a:ds a:t="3801.68" />
			<a:m a:x="504" a:y="132" a:t="3807.63" />
			<a:ds a:t="3820.51" />
			<a:m a:x="516" a:y="151" a:t="3831.89" />
			<a:ds a:t="3838.21" />
			<a:m a:x="535" a:y="177" a:t="3841.91" />
			<a:ds a:t="3852.81" />
			<a:m a:x="557" a:y="207" a:t="3858.38" />
			<a:ds a:t="3870.06" />
			<a:m a:x="571" a:y="223" a:t="3876.63" />
			<a:ds a:t="3887.18" />
			<a:m a:x="589" a:y="241" a:t="3893.18" />
			<a:ds a:t="3903.92" />
			<a:m a:x="598" a:y="247" a:t="3909.59" />
			<a:ds a:t="3920.62" />
			<a:m a:x="606" a:y="249" a:t="3925.94" />
			<a:ds a:t="3935.61" />
			<a:m a:x="614" a:y="249" a:t="3942.95" />
			<a:ds a:t="3953.8" />
			<a:m a:x="621" a:y="249" a:t="3960.26" />
			<a:ds a:t="3969.71" />
			<a:m a:x="634" a:y="237" a:t="3976.87" />
			<a:ds a:t="3987.77" />
			<a:m a:x="648" a:y="220" a:t="3994.4" />
			<a:ds a:t="4002.33" />
			<a:m a:x="672" a:y="198" a:t="4011.55" />
			<a:ds a:t="4020.16" />
			<a:m a:x="705" a:y="172" a:t="4028.14" />
			<a:ds a:t="4036.36" />
			<a:m a:x="744" a:y="150" a:t="4045.47" />
			<a:ds a:t="4053.53" />
			<a:m a:x="792" a:y="132" a:t="4062.79" />
			<a:ds a:t="4068.87" />
			<a:m a:x="855" a:y="117" a:t="4079.07" />
			<a:ds a:t="4086.51" />
			<a:m a:x="932" a:y="108" a:t="4095.75" />
			<a:ds a:t="4103.77" />
			<a:m a:x="1068" a:y="102" a:t="4116.18" />
			<a:ds a:t="4119.55" />
			<a:m a:x="1183" a:y="102" a:t="4132.34" />
			<a:ds a:t="4136.4" />
			<a:m a:x="1302" a:y="113" a:t="4153.14" />
			<a:ds a:t="4154.11" />
			<a:m a:x="1378" a:y="127" a:t="4166.18" />
			<a:ds a:t="4169.7" />
			<a:m a:x="1439" a:y="139" a:t="4183.1" />
			<a:ds a:t="4186.58" />
			<a:m a:x="1439" a:y="144" a:t="4200.42" />
			<a:ds a:t="4203.11" />
			<a:m a:x="1439" a:y="147" a:t="4217.13" />
			<a:ds a:t="4219.72" />
			<a:m a:x="1439" a:y="149" a:t="4233.12" />
			<a:ds a:t="4236.92" />
			<a:m a:x="1439" a:y="150" a:t="4250.04" />
			<a:ds a:t="4253.18" />
			<a:m a:x="1439" a:y="151" a:t="4267.44" />
			<a:ds a:t="4269.61" />
			<a:m a:x="1439" a:y="151" a:t="4277.46" />
			<a:ds a:t="4294.74" />
			<a:ds a:t="4304.21" />
			<a:ds a:t="4322.16" />
			<a:ds a:t="4339.49" />
			<a:m a:x="1413" a:y="149" a:t="4654.31" />
			<a:m a:x="1373" a:y="141" a:t="4670.45" />
			<a:m a:x="1329" a:y="135" a:t="4687.64" />
			<a:m a:x="1293" a:y="134" a:t="4704.23" />
			<a:m a:x="1264" a:y="134" a:t="4721.76" />
			<a:m a:x="1217" a:y="134" a:t="4739.77" />
			<a:m a:x="1186" a:y="134" a:t="4758.11" />
			<a:m a:x="1173" a:y="134" a:t="4773.38" />
			<a:m a:x="1165" a:y="134" a:t="4791.23" />
			<a:m a:x="1163" a:y="134" a:t="4808.38" />
			<a:m a:x="1162" a:y="134" a:t="4830.97" />
			<a:m a:x="1163" a:y="134" a:t="5265.43" />
			<a:m a:x="1163" a:y="135" a:t="6272.01" />
			<a:m a:x="1161" a:y="136" a:t="6290.33" />
			<a:m a:x="1157" a:y="139" a:t="6306.81" />
			<a:m a:x="1145" a:y="145" a:t="6322.16" />
			<a:m a:x="1104" a:y="161" a:t="6338.9" />
			<a:m a:x="1044" a:y="183" a:t="6355.46" />
			<a:m a:x="987" a:y="203" a:t="6372.56" />
			<a:m a:x="909" a:y="227" a:t="6389.9" />
			<a:m a:x="830" a:y="244" a:t="6406.78" />
			<a:m a:x="765" a:y="251" a:t="6423" />
			<a:m a:x="728" a:y="256" a:t="6440.85" />
			<a:m a:x="689" a:y="259" a:t="6456.76" />
			<a:m a:x="663" a:y="261" a:t="6474.11" />
			<a:m a:x="641" a:y="263" a:t="6491.01" />
			<a:m a:x="620" a:y="266" a:t="6509.14" />
			<a:m a:x="601" a:y="271" a:t="6525.46" />
			<a:m a:x="582" a:y="278" a:t="6542.25" />
			<a:m a:x="556" a:y="290" a:t="6560.07" />
			<a:m a:x="530" a:y="300" a:t="6577.16" />
			<a:m a:x="477" a:y="321" a:t="6593.81" />
			<a:m a:x="409" a:y="354" a:t="6612.45" />
			<a:m a:x="356" a:y="378" a:t="6627.79" />
			<a:m a:x="153" a:y="406" a:t="7031.65" />
			<a:m a:x="153" a:y="406" a:t="7036.2" />
			<a:m a:x="132" a:y="396" a:t="7048.01" />
			<a:m a:x="120" a:y="391" a:t="7060.7" />
			<a:m a:x="109" a:y="385" a:t="7080.46" />
			<a:m a:x="104" a:y="383" a:t="7097.88" />
			<a:m a:x="80" a:y="377" a:t="7293.96" />
			<a:m a:x="70" a:y="376" a:t="7311.32" />
			<a:m a:x="66" a:y="375" a:t="7327.87" />
			<a:m a:x="63" a:y="373" a:t="7344.62" />
			<a:m a:x="62" a:y="373" a:t="7362.86" />
			<a:m a:x="61" a:y="372" a:t="7380.09" />
			<a:m a:x="61" a:y="371" a:t="7459.47" />
			<a:m a:x="62" a:y="371" a:t="7608.9" />
			<a:m a:x="62" a:y="371" a:t="7697.7" />
			<a:m a:x="62" a:y="371" a:t="7874.44" />
		</g>
		<g a:type="void" a:t="7874.80" a:lastErase="0">
			<a:init>
				<a:s a:d="8" a:u="px" a:t="7874.8" />
				<a:c a:d="#fa5959" a:t="7874.8" />
				<a:m a:x="62" a:y="371" a:t="7874.8" /></a:init>
		</g>
	</g>
</svg>