<!DOCTYPE svg:svg PUBLIC "-//W3C//DTD SVG 1.1//EN" "http://www.w3.org/Graphics/SVG/1.1/DTD/svg11.dtd"><svg xmlns="http://www.w3.org/2000/svg" xmlns:a="http://www.rozsival.com/2015/vector-video" width="1440" height="801" viewBox="0 0 1440 801"><a:metadata><a:length>34460.510</a:length><a:width>1440</a:width><a:height>801</a:height><a:audio><a:source a:type="audio/ogg" a:src="/recordings/23a3fcad-8918-41fa-b87c-d31ccf80ebb6.ogg"/><a:source a:type="audio/mp3" a:src="/recordings/23a3fcad-8918-41fa-b87c-d31ccf80ebb6.mp3"/></a:audio></a:metadata><g a:type="video-chunks"><g a:type="erase" a:t="0.00" a:lastErase="0"><rect fill="#111" width="100%" height="100%"/><a:init><a:s a:d="2" a:u="px" a:t="0"/><a:c a:d="#fff" a:t="0"/><a:m a:x="0" a:y="0" a:t="0"/></a:init><a:e a:t="0" a:color="#111"/><a:c a:d="#fff" a:t="0"/><a:c a:d="2px" a:t="0"/><a:m a:x="443" a:y="39" a:t="0"/><a:m a:x="409" a:y="116" a:t="0"/><a:m a:x="392" a:y="92" a:t="0"/><a:m a:x="390" a:y="92" a:t="0"/><a:m a:x="387" a:y="97" a:t="0"/><a:m a:x="386" a:y="104" a:t="0"/><a:m a:x="386" a:y="133" a:t="0"/><a:m a:x="386" a:y="236" a:t="0"/><a:m a:x="394" a:y="397" a:t="0"/><a:m a:x="415" a:y="591" a:t="0"/><a:m a:x="434" a:y="780" a:t="0"/><a:m a:x="433" a:y="797" a:t="0"/><a:m a:x="433" a:y="797" a:t="0"/><a:m a:x="412" a:y="786" a:t="0"/><a:m a:x="384" a:y="767" a:t="0"/><a:m a:x="372" a:y="761" a:t="0"/><a:m a:x="359" a:y="753" a:t="0"/><a:m a:x="352" a:y="749" a:t="0"/><a:m a:x="348" a:y="748" a:t="0"/><a:m a:x="348" a:y="748" a:t="0"/><a:m a:x="347" a:y="748" a:t="0"/><a:m a:x="347" a:y="749" a:t="0"/><a:m a:x="347" a:y="750" a:t="0"/><a:m a:x="347" a:y="751" a:t="0"/><a:m a:x="347" a:y="752" a:t="0"/><a:m a:x="347" a:y="753" a:t="0"/><a:m a:x="346" a:y="753" a:t="0"/><a:m a:x="346" a:y="754" a:t="0"/><a:m a:x="346" a:y="755" a:t="0"/><a:m a:x="346" a:y="756" a:t="0"/><a:m a:x="346" a:y="757" a:t="0"/><a:m a:x="346" a:y="758" a:t="0"/><a:m a:x="346" a:y="759" a:t="0"/><a:m a:x="346" a:y="760" a:t="0"/><a:m a:x="346" a:y="760" a:t="0"/><a:c a:d="#59a0fa" a:t="0"/><a:m a:x="347" a:y="760" a:t="0"/><a:m a:x="352" a:y="760" a:t="0"/><a:m a:x="362" a:y="760" a:t="0"/><a:m a:x="377" a:y="760" a:t="0"/><a:m a:x="398" a:y="760" a:t="0"/><a:m a:x="420" a:y="760" a:t="0"/><a:m a:x="440" a:y="760" a:t="0"/><a:m a:x="458" a:y="760" a:t="0"/><a:m a:x="467" a:y="760" a:t="0"/><a:m a:x="477" a:y="760" a:t="0"/><a:m a:x="486" a:y="760" a:t="0"/><a:m a:x="495" a:y="760" a:t="0"/><a:m a:x="502" a:y="760" a:t="0"/><a:m a:x="508" a:y="761" a:t="0"/><a:m a:x="515" a:y="762" a:t="0"/><a:m a:x="523" a:y="763" a:t="0"/><a:m a:x="528" a:y="764" a:t="0"/><a:m a:x="532" a:y="764" a:t="0"/><a:m a:x="537" a:y="764" a:t="0"/><a:m a:x="541" a:y="765" a:t="0"/><a:m a:x="544" a:y="765" a:t="0"/><a:m a:x="546" a:y="765" a:t="0"/><a:m a:x="547" a:y="765" a:t="0"/><a:m a:x="549" a:y="765" a:t="0"/><a:m a:x="549" a:y="765" a:t="0"/><a:m a:x="550" a:y="765" a:t="0"/><a:m a:x="551" a:y="765" a:t="0"/><a:m a:x="552" a:y="765" a:t="0"/><a:m a:x="553" a:y="765" a:t="0"/><a:m a:x="554" a:y="765" a:t="0"/><a:m a:x="555" a:y="765" a:t="0"/><a:m a:x="555" a:y="765" a:t="0"/><a:s a:d="3" a:u="px" a:t="0"/><a:m a:x="554" a:y="765" a:t="0"/><a:m a:x="544" a:y="765" a:t="0"/><a:m a:x="509" a:y="765" a:t="0"/><a:m a:x="436" a:y="765" a:t="0"/><a:m a:x="343" a:y="756" a:t="0"/><a:m a:x="238" a:y="733" a:t="0"/><a:m a:x="176" a:y="715" a:t="0"/><a:m a:x="103" a:y="695" a:t="0"/><a:m a:x="70" a:y="683" a:t="0"/><a:m a:x="39" a:y="675" a:t="0"/><a:m a:x="23" a:y="672" a:t="0"/><a:m a:x="9" a:y="669" a:t="0"/><a:m a:x="0" a:y="669" a:t="0"/><a:m a:x="0" a:y="669" a:t="0"/><a:m a:x="0" a:y="669" a:t="0"/><a:m a:x="0" a:y="669" a:t="0"/><a:m a:x="0" a:y="669" a:t="0"/><a:m a:x="0" a:y="670" a:t="0"/><a:m a:x="0" a:y="671" a:t="0"/><a:m a:x="0" a:y="680" a:t="0"/><a:m a:x="9" a:y="700" a:t="0"/><a:m a:x="25" a:y="730" a:t="0"/><a:m a:x="40" a:y="750" a:t="0"/><a:m a:x="58" a:y="772" a:t="0"/><a:m a:x="65" a:y="778" a:t="0"/><a:m a:x="69" a:y="783" a:t="0"/><a:m a:x="71" a:y="784" a:t="0"/><a:m a:x="72" a:y="784" a:t="0"/><a:m a:x="71" a:y="784" a:t="0"/><a:m a:x="70" a:y="783" a:t="0"/><a:m a:x="70" a:y="782" a:t="0"/><a:m a:x="69" a:y="780" a:t="0"/><a:m a:x="68" a:y="780" a:t="0"/><a:m a:x="67" a:y="780" a:t="0"/><a:m a:x="67" a:y="779" a:t="0"/><a:m a:x="67" a:y="779" a:t="0"/></g><g a:type="void" a:t="0.00" a:lastErase="0"><a:init><a:s a:d="3" a:u="px" a:t="0"/><a:c a:d="#59a0fa" a:t="0"/><a:m a:x="67" a:y="779" a:t="0"/></a:init><a:m a:x="67" a:y="778" a:t="95.51"/><a:m a:x="70" a:y="774" a:t="112.63"/><a:m a:x="92" a:y="756" a:t="128.81"/><a:m a:x="167" a:y="694" a:t="162.78"/><a:m a:x="231" a:y="646" a:t="181.06"/><a:m a:x="296" a:y="596" a:t="199.5"/><a:m a:x="332" a:y="571" a:t="215.42"/><a:m a:x="351" a:y="562" a:t="232.71"/><a:m a:x="367" a:y="555" a:t="250.98"/><a:m a:x="374" a:y="555" a:t="266.2"/><a:m a:x="381" a:y="555" a:t="632.58"/><a:m a:x="412" a:y="560" a:t="648.25"/><a:m a:x="464" a:y="593" a:t="666.01"/><a:m a:x="534" a:y="667" a:t="682.82"/><a:m a:x="607" a:y="774" a:t="699.77"/><a:m a:x="464" a:y="149" a:t="2534.92"/><a:m a:x="792" a:y="156" a:t="2816.34"/><a:m a:x="285" a:y="360" a:t="7822.96"/><a:m a:x="215" a:y="367" a:t="8874.95"/><a:m a:x="215" a:y="367" a:t="8876.02"/><a:m a:x="227" a:y="367" a:t="8881.83"/><a:m a:x="251" a:y="358" a:t="8900.4"/><a:m a:x="269" a:y="354" a:t="8916.86"/><a:m a:x="293" a:y="349" a:t="8934.54"/><a:m a:x="304" a:y="349" a:t="8950.83"/><a:m a:x="314" a:y="349" a:t="8968.82"/><a:m a:x="321" a:y="349" a:t="8985.17"/><a:m a:x="326" a:y="352" a:t="9002.7"/><a:m a:x="328" a:y="355" a:t="9020.88"/><a:m a:x="331" a:y="359" a:t="9036.79"/><a:m a:x="333" a:y="361" a:t="9053.24"/><a:m a:x="334" a:y="363" a:t="9070.58"/><a:m a:x="334" a:y="364" a:t="9088.92"/><a:m a:x="335" a:y="365" a:t="9107.09"/><a:m a:x="335" a:y="364" a:t="9139.66"/><a:m a:x="334" a:y="360" a:t="9157.41"/><a:m a:x="329" a:y="354" a:t="9174.62"/><a:m a:x="326" a:y="349" a:t="9191.5"/><a:m a:x="324" a:y="344" a:t="9208.15"/><a:m a:x="321" a:y="341" a:t="9227.78"/><a:m a:x="316" a:y="334" a:t="9242.02"/><a:m a:x="312" a:y="326" a:t="9258.99"/><a:m a:x="310" a:y="321" a:t="9276.19"/><a:m a:x="310" a:y="321" a:t="9292.53" a:p="1"/></g><g a:type="path" a:t="9292.95" a:lastErase="0"><path fill="#59a0fa" d="M 310.931,320.069 L 310.931,320.069 C 310.931,320.069 311.061,320.198 310.931,320.069 C 310.802,319.939 310.402,319.543 310.155,319.292 C 309.907,319.041 309.905,318.698 309.446,318.564 C 308.987,318.43 307.765,315.4 307.401,318.487 C 307.038,321.573 306.023,324.808 307.267,337.082 C 308.512,349.356 311.065,370.011 314.871,392.13 C 318.676,414.25 325.238,446.197 330.099,469.799 C 334.959,493.401 340.037,515.481 344.035,533.74 C 348.034,551.998 351.458,567.45 354.092,579.349 C 356.727,591.247 358.421,598.581 359.844,605.132 C 361.267,611.682 362.053,615.546 362.63,618.65 C 363.206,621.753 362.949,623.167 363.304,623.752 C 363.659,624.336 364.68,622.891 364.761,622.156 C 364.843,621.422 364.119,620.888 363.794,619.346 C 363.469,617.803 363.032,615.417 362.812,612.9 C 362.592,610.382 362.544,606.614 362.473,604.241 C 362.403,601.868 362.462,600.712 362.39,598.664 C 362.318,596.616 362.262,595.357 362.04,591.953 C 361.817,588.548 361.369,584.471 361.056,578.237 C 360.742,572.002 360.403,563.32 360.16,554.544 C 359.918,545.768 359.612,535.706 359.603,525.579 C 359.593,515.452 359.901,502.504 360.106,493.78 C 360.311,485.057 360.488,478.402 360.831,473.238 C 361.173,468.074 361.352,464.889 362.161,462.794 C 362.97,460.699 364.87,460.731 365.682,460.669 C 366.495,460.608 366.232,461.678 367.035,462.426 C 367.837,463.173 368.803,463.731 370.498,465.154 C 372.194,466.577 374.327,468.276 377.207,470.964 C 380.086,473.651 383.822,477.423 387.776,481.279 C 391.731,485.135 396.005,489.342 400.933,494.098 C 405.86,498.854 412.439,505.319 417.339,509.816 C 422.239,514.312 426.104,517.723 430.331,521.079 C 434.558,524.435 439.047,527.615 442.702,529.954 C 446.358,532.293 449.311,533.793 452.265,535.115 C 455.219,536.438 458.18,537.312 460.426,537.887 C 462.672,538.462 464.31,538.466 465.743,538.566 C 467.177,538.667 467.829,540.632 469.026,538.491 C 470.223,536.349 471.7,532.793 472.926,525.719 C 474.151,518.644 475.295,507.881 476.379,496.046 C 477.463,484.211 478.539,467.436 479.432,454.708 C 480.326,441.981 480.92,429.599 481.739,419.682 C 482.559,409.765 483.401,401.511 484.349,395.207 C 485.297,388.903 486.098,384.473 487.425,381.859 C 488.752,379.245 489.51,378.777 492.31,379.521 C 495.111,380.266 496.418,381.964 504.226,386.326 C 512.034,390.689 525.321,398.567 539.158,405.696 C 552.996,412.825 570.226,421.403 587.253,429.102 C 604.281,436.802 624.014,445.033 641.326,451.894 C 658.639,458.755 676.588,465.241 691.127,470.266 C 705.667,475.291 718.749,479.193 728.564,482.044 C 738.378,484.896 745.197,486.358 750.016,487.376 C 754.835,488.394 756.201,488.468 757.48,488.153 C 758.758,487.838 758.395,486.222 757.687,485.483 C 756.978,484.744 754.587,484.224 753.231,483.718 A 0.865,0.865 -4.394313765150534 0,0 749.01,484.094 C 753.67,485.657 754.777,486.482 755.616,486.773 C 756.455,487.065 758.488,487.053 757.603,486.959 C 756.718,486.866 755.085,487.221 750.305,486.211 C 745.525,485.201 738.717,483.745 728.924,480.9 C 719.13,478.054 706.064,474.158 691.542,469.14 C 677.021,464.121 659.086,457.641 641.792,450.788 C 624.498,443.935 604.787,435.714 587.779,428.023 C 570.77,420.333 553.57,411.772 539.74,404.647 C 525.911,397.522 512.799,389.637 504.801,385.273 C 496.803,380.908 494.842,379.073 491.751,378.459 C 488.66,377.846 487.688,378.82 486.255,381.59 C 484.823,384.36 484.108,388.745 483.156,395.08 C 482.204,401.416 481.362,409.68 480.542,419.603 C 479.722,429.526 479.128,441.903 478.235,454.62 C 477.343,467.338 476.264,484.114 475.187,495.908 C 474.11,507.702 472.845,518.613 471.773,525.385 C 470.701,532.158 469.736,534.554 468.756,536.543 C 467.776,538.533 467.217,537.286 465.893,537.321 C 464.569,537.355 462.987,537.294 460.811,536.751 C 458.634,536.207 455.736,535.354 452.835,534.059 C 449.933,532.764 447.021,531.293 443.402,528.979 C 439.782,526.664 435.322,523.511 431.117,520.172 C 426.912,516.834 423.06,513.438 418.169,508.949 C 413.278,504.46 406.696,497.993 401.77,493.238 C 396.844,488.484 392.575,484.282 388.614,480.42 C 384.654,476.559 380.861,472.796 378.006,470.069 C 375.151,467.342 373.128,465.622 371.485,464.056 C 369.841,462.489 369.257,461.437 368.145,460.672 C 367.033,459.906 366.009,459.134 364.813,459.462 C 363.617,459.791 361.834,460.354 360.971,462.643 C 360.107,464.931 359.976,468.009 359.631,473.196 C 359.287,478.382 359.111,485.027 358.906,493.761 C 358.701,502.496 358.394,515.464 358.403,525.602 C 358.412,535.74 358.719,545.802 358.961,554.589 C 359.204,563.376 359.545,572.085 359.859,578.323 C 360.172,584.56 360.62,588.622 360.841,592.015 C 361.063,595.409 361.118,596.636 361.19,598.682 C 361.262,600.727 361.203,601.9 361.274,604.288 C 361.345,606.677 361.515,610.432 361.617,613.013 C 361.72,615.594 361.776,618.093 361.891,619.775 C 362.006,621.456 361.862,622.471 362.307,623.105 C 362.753,623.738 364.314,624.359 364.563,623.576 C 364.813,622.793 364.396,621.525 363.805,618.408 C 363.214,615.29 362.439,611.423 361.016,604.87 C 359.592,598.317 357.899,590.988 355.264,579.09 C 352.63,567.193 349.206,551.738 345.208,533.484 C 341.21,515.23 336.134,493.154 331.276,469.568 C 326.418,445.982 319.861,414.044 316.059,391.966 C 312.258,369.887 309.689,348.925 308.467,337.096 C 307.246,325.267 308.881,323.765 308.731,320.99 C 308.58,318.215 307.637,320.419 307.564,320.446 C 307.491,320.473 308.041,320.907 308.292,321.155 C 308.543,321.402 308.939,321.802 309.069,321.931 C 309.198,322.061 309.069,321.931 309.069,321.931 L 309.069,321.931 L 309.069,321.931 A 1.317,1.317 -0.7853981633974483 0,0 310.931,320.069"/><a:init><a:s a:d="3" a:u="px" a:t="9292.95"/><a:c a:d="#59a0fa" a:t="9292.95"/><a:m a:x="310" a:y="321" a:t="9292.95" a:p="1"/></a:init><a:ds a:t="9293.34"/><a:m a:x="308" a:y="319" a:t="9295.7" a:p="1"/><a:ds a:t="9308.43"/><a:ds a:t="9321.81"/><a:m a:x="308" a:y="321" a:t="9435.59" a:p="1"/><a:ds a:t="9437.99"/><a:m a:x="308" a:y="368" a:t="9452.79" a:p="1"/><a:ds a:t="9454.46"/><a:m a:x="329" a:y="469" a:t="9469.38" a:p="1"/><a:ds a:t="9470.58"/><a:m a:x="349" a:y="545" a:t="9486.19" a:p="1"/><a:ds a:t="9487.69"/><a:ds a:t="9505.26"/><a:m a:x="353" a:y="574" a:t="9515.97" a:p="1"/><a:m a:x="359" a:y="598" a:t="9520.85" a:p="1"/><a:ds a:t="9521.81"/><a:ds a:t="9538.07"/><a:m a:x="362" a:y="615" a:t="9539.91" a:p="1"/><a:ds a:t="9554.25"/><a:m a:x="362" a:y="617" a:t="9556.49" a:p="1"/><a:ds a:t="9573"/><a:m a:x="362" a:y="615" a:t="9588.16" a:p="1"/><a:ds a:t="9592.25"/><a:ds a:t="9605.16"/><a:m a:x="362" a:y="611" a:t="9607.36" a:p="1"/><a:m a:x="362" a:y="606" a:t="9622.88" a:p="1"/><a:ds a:t="9624.67"/><a:m a:x="362" a:y="597" a:t="9639.29" a:p="1"/><a:ds a:t="9643.24"/><a:ds a:t="9654.39"/><a:m a:x="361" a:y="588" a:t="9656.67" a:p="1"/><a:ds a:t="9672.87"/><a:m a:x="359" a:y="560" a:t="9675.62" a:p="1"/><a:ds a:t="9688.46"/><a:m a:x="359" a:y="526" a:t="9691.88" a:p="1"/><a:ds a:t="9704.73"/><a:m a:x="359" a:y="500" a:t="9708.05" a:p="1"/><a:ds a:t="9722.86"/><a:m a:x="359" a:y="481" a:t="9725.88" a:p="1"/><a:m a:x="361" a:y="471" a:t="9742.2" a:p="1"/><a:ds a:t="9743.53"/><a:ds a:t="9756.1"/><a:m a:x="363" a:y="468" a:t="9758.66" a:p="1"/><a:ds a:t="9772.91"/><a:m a:x="365" a:y="468" a:t="9776.19" a:p="1"/><a:m a:x="369" a:y="468" a:t="9793.32" a:p="1"/><a:ds a:t="9794.79"/><a:ds a:t="9804.95"/><a:m a:x="374" a:y="468" a:t="9810.16" a:p="1"/><a:ds a:t="9823.21"/><a:m a:x="386" a:y="478" a:t="9826.54" a:p="1"/><a:ds a:t="9842.12"/><a:m a:x="399" a:y="492" a:t="9846.02" a:p="1"/><a:ds a:t="9855.94"/><a:m a:x="413" a:y="505" a:t="9861.27" a:p="1"/><a:ds a:t="9872.07"/><a:m a:x="427" a:y="518" a:t="9878.38" a:p="1"/><a:ds a:t="9892.34"/><a:m a:x="440" a:y="527" a:t="9895.88" a:p="1"/><a:ds a:t="9905.24"/><a:m a:x="451" a:y="533" a:t="9912.77" a:p="1"/><a:ds a:t="9922.32"/><a:m a:x="456" a:y="534" a:t="9930.3" a:p="1"/><a:ds a:t="9944.28"/><a:m a:x="463" a:y="536" a:t="9946.92" a:p="1"/><a:ds a:t="9955.85"/><a:m a:x="466" a:y="536" a:t="9964.07" a:p="1"/><a:ds a:t="9972.84"/><a:m a:x="469" a:y="536" a:t="9981.35" a:p="1"/><a:ds a:t="9991.81"/><a:m a:x="475" a:y="505" a:t="9998.35" a:p="1"/><a:ds a:t="10005.11"/><a:m a:x="478" a:y="457" a:t="10015.68" a:p="1"/><a:ds a:t="10021.83"/><a:m a:x="480" a:y="420" a:t="10035.35" a:p="1"/><a:ds a:t="10041.78"/><a:m a:x="482" a:y="401" a:t="10053.94" a:p="1"/><a:ds a:t="10055.6"/><a:m a:x="486" a:y="389" a:t="10069.19" a:p="1"/><a:ds a:t="10072.86"/><a:m a:x="489" a:y="387" a:t="10085.68" a:p="1"/><a:ds a:t="10092.21"/><a:m a:x="498" a:y="389" a:t="10103.8" a:p="1"/><a:ds a:t="10105.8"/><a:m a:x="521" a:y="401" a:t="10120.77" a:p="1"/><a:ds a:t="10123.13"/><a:m a:x="584" a:y="430" a:t="10136.34" a:p="1"/><a:ds a:t="10142.72"/><a:m a:x="637" a:y="450" a:t="10154.57" a:p="1"/><a:ds a:t="10156.63"/><a:m a:x="687" a:y="467" a:t="10170.51" a:p="1"/><a:ds a:t="10173.51"/><a:m a:x="717" a:y="476" a:t="10187.67" a:p="1"/><a:ds a:t="10191.62"/><a:m a:x="740" a:y="482" a:t="10204.9" a:p="1"/><a:ds a:t="10212.4"/><a:m a:x="746" a:y="483" a:t="10222.12" a:p="1"/><a:ds a:t="10223.6"/><a:m a:x="747" a:y="483" a:t="10238.72" a:p="1"/><a:ds a:t="10241.5"/><a:ds a:t="10256.39"/><a:ds a:t="10272.8"/><a:m a:x="747" a:y="483" a:t="10287.72"/><a:ds a:t="10292.23"/><a:ds a:t="10306.58"/><a:m a:x="747" a:y="488" a:t="19008.97"/><a:m a:x="747" a:y="494" a:t="19027.46"/><a:m a:x="747" a:y="495" a:t="19043.79"/><a:m a:x="739" a:y="475" a:t="19081.44"/><a:m a:x="690" a:y="367" a:t="19098.05"/><a:m a:x="608" a:y="178" a:t="19115.13"/><a:m a:x="543" a:y="23" a:t="19131.76"/><a:m a:x="490" a:y="2" a:t="19428.79"/><a:m a:x="490" a:y="30" a:t="19430.72"/><a:m a:x="490" a:y="48" a:t="19446.47"/><a:m a:x="490" a:y="63" a:t="19462.64"/><a:m a:x="490" a:y="68" a:t="19478.74"/><a:m a:x="490" a:y="70" a:t="19493.79"/><a:m a:x="490" a:y="71" a:t="19512.68"/><a:m a:x="490" a:y="73" a:t="19529.1"/><a:m a:x="490" a:y="79" a:t="19546.34"/><a:m a:x="491" a:y="89" a:t="19564.65"/><a:m a:x="493" a:y="110" a:t="19578.89"/><a:m a:x="494" a:y="120" a:t="19597.16"/><a:m a:x="496" a:y="130" a:t="19613.11"/><a:m a:x="499" a:y="140" a:t="19630.12"/><a:m a:x="500" a:y="143" a:t="19647.08"/><a:m a:x="501" a:y="147" a:t="19663.86"/><a:m a:x="502" a:y="148" a:t="19681.71"/><a:m a:x="502" a:y="148" a:t="19690.96" a:p="1"/></g><g a:type="path" a:t="19691.31" a:lastErase="0"><path fill="#59a0fa" d="M 500.603,148 L 500.603,148 C 500.603,148 500.603,147.897 500.603,148 C 500.603,148.103 499.493,145.907 500.603,148.62 C 501.714,151.333 501.855,153.08 507.265,164.279 C 512.674,175.477 521.978,195.434 533.06,215.81 C 544.143,236.186 561.465,265.636 573.76,286.535 C 586.056,307.433 597.079,326.316 606.832,341.199 C 616.585,356.082 625.13,367.18 632.279,375.832 C 639.427,384.484 645.289,389.502 649.723,393.113 C 654.156,396.723 656.796,397.257 658.879,397.497 C 660.962,397.737 661.879,395.881 662.222,394.551 C 662.565,393.221 661.584,391.289 660.938,389.517 C 660.293,387.745 659.086,386.951 658.349,383.918 C 657.612,380.884 657.003,377.293 656.517,371.318 C 656.032,365.342 655.368,357.269 655.436,348.064 C 655.503,338.858 656.026,326.046 656.923,316.085 C 657.82,306.125 659.322,295.512 660.817,288.302 C 662.312,281.093 663.936,276.788 665.892,272.827 C 667.849,268.866 670.275,266.279 672.556,264.536 C 674.837,262.793 675.842,262.149 679.577,262.369 C 683.312,262.589 688.564,263.535 694.966,265.855 C 701.369,268.175 709.524,271.804 717.994,276.289 C 726.465,280.774 736.132,286.68 745.79,292.767 C 755.448,298.854 766.479,306.202 775.941,312.811 C 785.402,319.42 794.901,326.731 802.56,332.422 C 810.218,338.113 816.628,343.046 821.89,346.956 C 827.153,350.866 831.035,353.741 834.137,355.881 C 837.239,358.021 839.149,358.963 840.501,359.797 C 841.853,360.63 841.796,361.192 842.248,360.882 C 842.7,360.572 843.262,360.279 843.212,357.936 C 843.162,355.593 841.999,351.925 841.946,346.824 C 841.892,341.724 841.996,334.979 842.892,327.332 C 843.789,319.685 845.138,309.604 847.323,300.943 C 849.509,292.283 851.874,283.587 856.005,275.37 C 860.137,267.153 865.304,258.135 872.112,251.641 C 878.92,245.146 887.588,239.728 896.855,236.403 C 906.121,233.078 915.698,231.035 927.709,231.69 C 939.72,232.345 955.162,235.547 968.921,240.331 C 982.679,245.116 998.399,253.579 1010.261,260.397 C 1022.122,267.214 1031.608,274.652 1040.091,281.238 C 1048.574,287.823 1055.959,294.922 1061.159,299.91 C 1066.359,304.897 1068.898,308.203 1071.291,311.161 C 1073.683,314.12 1074.787,316.156 1075.514,317.662 C 1076.241,319.169 1075.583,320.051 1075.653,320.2 C 1075.722,320.35 1075.907,318.926 1075.933,318.558 A 1.253,1.253 -3.8945560167558173 0,0 1073.982,319.706 C 1076.504,321.3 1077.587,320.404 1077.692,319.688 C 1077.798,318.972 1077.438,318.562 1076.52,317.007 C 1075.602,315.452 1074.61,313.357 1072.182,310.358 C 1069.755,307.359 1067.189,304.029 1061.955,299.011 C 1056.721,293.994 1049.307,286.87 1040.778,280.254 C 1032.25,273.638 1022.72,266.166 1010.784,259.317 C 998.849,252.467 983.042,243.959 969.166,239.157 C 955.29,234.355 939.683,231.133 927.526,230.504 C 915.369,229.875 905.625,231.972 896.224,235.382 C 886.822,238.793 878.011,244.367 871.119,250.968 C 864.226,257.568 859.032,266.688 854.869,274.985 C 850.706,283.281 848.336,292.03 846.14,300.745 C 843.944,309.46 842.592,319.582 841.694,327.274 C 840.795,334.966 840.888,341.635 840.748,346.895 C 840.607,352.156 840.505,356.895 840.851,358.837 C 841.198,360.778 842.782,358.555 842.828,358.545 C 842.874,358.534 842.46,359.38 841.129,358.774 C 839.799,358.169 837.93,357.041 834.844,354.911 C 831.757,352.782 827.874,349.906 822.612,345.997 C 817.349,342.087 810.939,337.153 803.271,331.456 C 795.604,325.758 786.083,318.432 776.605,311.811 C 767.127,305.191 756.088,297.837 746.402,291.735 C 736.716,285.632 727.018,279.704 718.489,275.196 C 709.959,270.687 701.772,267.011 695.225,264.683 C 688.679,262.355 683.142,261.377 679.208,261.228 C 675.273,261.078 674.028,261.917 671.618,263.788 C 669.209,265.659 666.75,268.396 664.752,272.454 C 662.753,276.512 661.133,280.873 659.629,288.136 C 658.124,295.398 656.623,306.032 655.724,316.03 C 654.826,326.027 654.303,338.876 654.237,348.12 C 654.171,357.364 654.828,365.446 655.33,371.492 C 655.832,377.538 656.553,381.315 657.248,384.394 C 657.942,387.474 658.89,388.459 659.496,389.97 C 660.102,391.48 660.902,392.382 660.885,393.456 C 660.868,394.53 661.114,396.612 659.394,396.413 C 657.674,396.213 654.925,395.808 650.567,392.26 C 646.209,388.711 640.364,383.735 633.246,375.122 C 626.128,366.508 617.6,355.442 607.859,340.578 C 598.118,325.714 587.088,306.82 574.8,285.936 C 562.513,265.052 545.202,235.62 534.133,215.273 C 523.065,194.926 513.51,174.964 508.388,163.855 C 503.265,152.746 504.228,151.263 503.397,148.62 C 502.565,145.978 503.397,148.103 503.397,148 C 503.397,147.897 503.397,148 503.397,148 L 503.397,148 L 503.397,148 A 1.397,1.397 -3.141592653589793 0,0 500.603,148"/><a:init><a:s a:d="3" a:u="px" a:t="19691.31"/><a:c a:d="#59a0fa" a:t="19691.31"/><a:m a:x="502" a:y="148" a:t="19691.31" a:p="1"/></a:init><a:ds a:t="19691.38"/><a:m a:x="502" a:y="150" a:t="19810.37" a:p="1"/><a:ds a:t="19815.34"/><a:m a:x="519" a:y="193" a:t="19829.64" a:p="1"/><a:ds a:t="19830.95"/><a:m a:x="572" a:y="288" a:t="19846.73" a:p="1"/><a:ds a:t="19848.33"/><a:m a:x="617" a:y="353" a:t="19862.43" a:p="1"/><a:ds a:t="19864.94"/><a:ds a:t="19881.92"/><a:m a:x="628" a:y="364" a:t="19887.55" a:p="1"/><a:m a:x="644" a:y="380" a:t="19897.92" a:p="1"/><a:ds a:t="19898.48"/><a:m a:x="653" a:y="385" a:t="19914.37" a:p="1"/><a:ds a:t="19915.72"/><a:m a:x="655" a:y="385" a:t="19931.59" a:p="1"/><a:ds a:t="19932.39"/><a:ds a:t="19950.59"/><a:ds a:t="19966.84"/><a:m a:x="655" a:y="379" a:t="19970.68" a:p="1"/><a:ds a:t="19984.19"/><a:m a:x="655" a:y="353" a:t="19986.82" a:p="1"/><a:ds a:t="19998.97"/><a:m a:x="655" a:y="321" a:t="20004.57" a:p="1"/><a:ds a:t="20015.65"/><a:m a:x="660" a:y="289" a:t="20021.9" a:p="1"/><a:ds a:t="20032.93"/><a:m a:x="665" a:y="278" a:t="20038.67" a:p="1"/><a:ds a:t="20050.44"/><a:m a:x="672" a:y="270" a:t="20055.88" a:p="1"/><a:ds a:t="20065.04"/><a:m a:x="678" a:y="267" a:t="20072.27" a:p="1"/><a:ds a:t="20081.95"/><a:m a:x="685" a:y="267" a:t="20090.16" a:p="1"/><a:ds a:t="20098.41"/><a:m a:x="710" a:y="273" a:t="20106.8" a:p="1"/><a:ds a:t="20117.26"/><a:m a:x="743" a:y="291" a:t="20124.62" a:p="1"/><a:ds a:t="20133.52"/><a:m a:x="775" a:y="313" a:t="20141.97" a:p="1"/><a:ds a:t="20149.08"/><a:m a:x="795" a:y="327" a:t="20159.05" a:p="1"/><a:ds a:t="20167.14"/><a:m a:x="816" a:y="344" a:t="20176.48" a:p="1"/><a:ds a:t="20183.49"/><a:m a:x="829" a:y="352" a:t="20196.05" a:p="1"/><a:ds a:t="20199.29"/><a:m a:x="836" a:y="356" a:t="20214.11" a:p="1"/><a:ds a:t="20215.21"/><a:m a:x="838" a:y="356" a:t="20230.44" a:p="1"/><a:ds a:t="20232.42"/><a:ds a:t="20251.22"/><a:m a:x="839" a:y="355" a:t="20252.44" a:p="1"/><a:ds a:t="20265.56"/><a:m a:x="841" a:y="333" a:t="20269.07" a:p="1"/><a:ds a:t="20285.42"/><a:m a:x="845" a:y="300" a:t="20287.17" a:p="1"/><a:ds a:t="20300.44"/><a:m a:x="853" a:y="279" a:t="20303.74" a:p="1"/><a:ds a:t="20318.12"/><a:m a:x="867" a:y="256" a:t="20320.46" a:p="1"/><a:ds a:t="20333.89"/><a:m a:x="891" a:y="237" a:t="20336.5" a:p="1"/><a:ds a:t="20350.28"/><a:m a:x="923" a:y="235" a:t="20354.28" a:p="1"/><a:ds a:t="20366.93"/><a:m a:x="960" a:y="239" a:t="20371.65" a:p="1"/><a:ds a:t="20382.56"/><a:m a:x="1001" a:y="259" a:t="20387.82" a:p="1"/><a:ds a:t="20400.39"/><a:m a:x="1034" a:y="284" a:t="20404.74" a:p="1"/><a:ds a:t="20417.67"/><a:m a:x="1051" a:y="298" a:t="20421.86" a:p="1"/><a:ds a:t="20433.47"/><a:m a:x="1063" a:y="307" a:t="20439.34" a:p="1"/><a:ds a:t="20450.98"/><a:m a:x="1069" a:y="313" a:t="20456.39" a:p="1"/><a:ds a:t="20466.68"/><a:m a:x="1072" a:y="316" a:t="20472.81" a:p="1"/><a:ds a:t="20483.12"/><a:m a:x="1073" a:y="317" a:t="20491.66" a:p="1"/><a:ds a:t="20500.46"/><a:m a:x="1074" a:y="317" a:t="20507.09" a:p="1"/><a:ds a:t="20518.58"/><a:ds a:t="20535.49"/><a:m a:x="1074" a:y="318" a:t="20548.16" a:p="1"/><a:ds a:t="20549.41"/><a:m a:x="1074" a:y="318" a:t="20684.19"/><a:m a:x="1073" a:y="319" a:t="21028.9"/><a:m a:x="1072" a:y="319" a:t="21045.33"/><a:m a:x="1071" a:y="319" a:t="21069.61"/><a:m a:x="1071" a:y="321" a:t="21141.38"/><a:m a:x="1071" a:y="321" a:t="21174.11"/><a:m a:x="1071" a:y="322" a:t="21191.43"/><a:m a:x="1071" a:y="324" a:t="21208.07"/><a:m a:x="1071" a:y="325" a:t="21225.42"/><a:m a:x="1071" a:y="326" a:t="21242.66"/><a:m a:x="1070" a:y="327" a:t="21259.82"/><a:m a:x="1070" a:y="328" a:t="21276.64"/><a:m a:x="1069" a:y="329" a:t="21293.93"/><a:m a:x="1067" a:y="330" a:t="21311.34"/><a:m a:x="1065" a:y="331" a:t="21328.64"/><a:m a:x="1065" a:y="332" a:t="21346.8"/><a:m a:x="1064" a:y="332" a:t="21361.77"/><a:m a:x="1064" a:y="333" a:t="21383.63"/><a:m a:x="1064" a:y="334" a:t="21400.75"/><a:m a:x="1064" a:y="335" a:t="21461.58"/><a:m a:x="1064" a:y="337" a:t="21477.27"/><a:m a:x="1064" a:y="339" a:t="21494.66"/><a:m a:x="1064" a:y="340" a:t="21512.08"/><a:m a:x="1063" a:y="341" a:t="21530.83"/><a:m a:x="1063" a:y="341" a:t="21551.15"/><a:m a:x="1062" a:y="342" a:t="21568.07"/><a:m a:x="1061" a:y="343" a:t="21584.72"/><a:m a:x="1060" a:y="346" a:t="21601.64"/><a:m a:x="1059" a:y="348" a:t="21620.17"/><a:m a:x="1059" a:y="349" a:t="21637.22"/><a:m a:x="661" a:y="345" a:t="33254.01"/><a:m a:x="598" a:y="345" a:t="33271.06"/><a:m a:x="536" a:y="357" a:t="33288.28"/><a:m a:x="477" a:y="372" a:t="33305.51"/><a:m a:x="350" a:y="407" a:t="33322.87"/><a:m a:x="168" a:y="488" a:t="33339.02"/><a:m a:x="41" a:y="579" a:t="33356.71"/><a:m a:x="0" a:y="706" a:t="33374.4"/><a:m a:x="0" a:y="767" a:t="33391.22"/><a:m a:x="2" a:y="769" a:t="33691.15"/><a:m a:x="7" a:y="775" a:t="33708.39"/><a:m a:x="16" a:y="782" a:t="33725.26"/><a:m a:x="22" a:y="787" a:t="33741.16"/><a:m a:x="28" a:y="790" a:t="33758.83"/><a:m a:x="31" a:y="792" a:t="33775.26"/><a:m a:x="33" a:y="793" a:t="33792.62"/><a:m a:x="34" a:y="793" a:t="33809.75"/><a:m a:x="35" a:y="793" a:t="33826.62"/><a:m a:x="36" a:y="793" a:t="33851.57"/><a:m a:x="36" a:y="792" a:t="34101.13"/><a:m a:x="37" a:y="791" a:t="34118.26"/><a:m a:x="39" a:y="789" a:t="34134.77"/><a:m a:x="42" a:y="785" a:t="34151.5"/><a:m a:x="45" a:y="781" a:t="34168.52"/><a:m a:x="48" a:y="778" a:t="34187.42"/><a:m a:x="49" a:y="777" a:t="34204.25"/><a:m a:x="49" a:y="776" a:t="34220.36"/><a:m a:x="49" a:y="776" a:t="34459.74"/></g><g a:type="void" a:t="34460.27" a:lastErase="0"><a:init><a:s a:d="3" a:u="px" a:t="34460.27"/><a:c a:d="#59a0fa" a:t="34460.27"/><a:m a:x="49" a:y="776" a:t="34460.27"/></a:init><a:m a:x="52" a:y="776" a:t="34460.51"/><a:m a:x="61" a:y="777" a:t="34460.51"/><a:m a:x="73" a:y="781" a:t="34460.51"/><a:m a:x="80" a:y="783" a:t="34460.51"/><a:m a:x="90" a:y="786" a:t="34460.51"/><a:m a:x="95" a:y="789" a:t="34460.51"/><a:m a:x="99" a:y="790" a:t="34460.51"/><a:m a:x="101" a:y="790" a:t="34460.51"/><a:m a:x="103" a:y="790" a:t="34460.51"/><a:m a:x="107" a:y="790" a:t="34460.51"/><a:m a:x="111" a:y="790" a:t="34460.51"/><a:m a:x="113" a:y="790" a:t="34460.51"/><a:m a:x="115" a:y="790" a:t="34460.51"/><a:m a:x="116" a:y="790" a:t="34460.51"/><a:m a:x="117" a:y="790" a:t="34460.51"/><a:m a:x="117" a:y="789" a:t="34460.51"/><a:m a:x="118" a:y="789" a:t="34460.51"/><a:m a:x="118" a:y="788" a:t="34460.51"/><a:m a:x="118" a:y="787" a:t="34460.51"/><a:m a:x="118" a:y="786" a:t="34460.51"/><a:m a:x="119" a:y="786" a:t="34460.51"/><a:m a:x="119" a:y="785" a:t="34460.51"/><a:m a:x="119" a:y="784" a:t="34460.51"/><a:m a:x="120" a:y="784" a:t="34460.51"/><a:m a:x="120" a:y="783" a:t="34460.51"/><a:m a:x="121" a:y="783" a:t="34460.51"/><a:m a:x="121" a:y="782" a:t="34460.51"/><a:m a:x="122" a:y="782" a:t="34460.51"/><a:m a:x="122" a:y="782" a:t="34460.51"/></g></g></svg>