<!DOCTYPE svg:svg PUBLIC "-//W3C//DTD SVG 1.1//EN" "http://www.w3.org/Graphics/SVG/1.1/DTD/svg11.dtd"><svg xmlns="http://www.w3.org/2000/svg" xmlns:a="http://www.rozsival.com/2015/vector-video" width="1440" height="889" viewBox="0 0 1440 889"><a:metadata><a:length>10487.249</a:length><a:width>1440</a:width><a:height>889</a:height><a:audio><a:source a:type="audio/ogg" a:src="/recordings/fd643c8e-ce00-4f99-b66d-e775da455ce8.ogg"/><a:source a:type="audio/mp3" a:src="/recordings/fd643c8e-ce00-4f99-b66d-e775da455ce8.mp3"/></a:audio></a:metadata><g a:type="video-chunks"><g a:type="erase" a:t="0.00" a:lastErase="0"><rect fill="#111" width="100%" height="100%"/><a:init><a:s a:d="2" a:u="px" a:t="0"/><a:c a:d="#fff" a:t="0"/><a:m a:x="0" a:y="0" a:p="0" a:t="0"/></a:init><a:e a:t="0" a:color="#111"/><a:s a:d="2" a:u="px" a:t="0"/><a:c a:d="#ffffff" a:t="0"/><a:s a:d="2" a:u="px" a:t="0"/><a:c a:d="#fff" a:t="0"/><a:m a:x="0" a:y="0" a:p="0" a:t="0"/><a:m a:x="356" a:y="80" a:p="0" a:t="0"/><a:m a:x="356" a:y="81" a:p="0" a:t="0"/><a:m a:x="354" a:y="81" a:p="0" a:t="0"/><a:m a:x="352" a:y="82" a:p="0" a:t="0"/><a:m a:x="351" a:y="82" a:p="0" a:t="0"/><a:m a:x="350" a:y="82" a:p="0" a:t="0"/><a:m a:x="349" a:y="82" a:p="0" a:t="0"/><a:m a:x="340" a:y="90" a:p="0" a:t="0"/><a:m a:x="335" a:y="96" a:p="0" a:t="0"/><a:m a:x="327" a:y="108" a:p="0" a:t="0"/><a:m a:x="323" a:y="140" a:p="0" a:t="0"/><a:m a:x="323" a:y="209" a:p="0" a:t="0"/><a:m a:x="323" a:y="338" a:p="0" a:t="0"/><a:m a:x="334" a:y="525" a:p="0" a:t="0"/><a:m a:x="355" a:y="745" a:p="0" a:t="0"/><a:m a:x="224" a:y="885" a:p="0" a:t="0"/><a:m a:x="215" a:y="878" a:p="0" a:t="0"/><a:m a:x="208" a:y="872" a:p="0" a:t="0"/><a:m a:x="207" a:y="868" a:p="0" a:t="0"/><a:m a:x="207" a:y="864" a:p="0" a:t="0"/><a:m a:x="207" a:y="860" a:p="0" a:t="0"/><a:m a:x="207" a:y="856" a:p="0" a:t="0"/><a:m a:x="207" a:y="852" a:p="0" a:t="0"/><a:m a:x="207" a:y="849" a:p="0" a:t="0"/><a:m a:x="207" a:y="838" a:p="0" a:t="0"/><a:m a:x="206" a:y="827" a:p="0" a:t="0"/><a:m a:x="203" a:y="813" a:p="0" a:t="0"/><a:m a:x="203" a:y="808" a:p="0" a:t="0"/><a:m a:x="203" a:y="807" a:p="0" a:t="0"/><a:m a:x="204" a:y="807" a:p="0" a:t="0"/><a:m a:x="210" a:y="807" a:p="0" a:t="0"/><a:m a:x="223" a:y="807" a:p="0" a:t="0"/><a:m a:x="234" a:y="809" a:p="0" a:t="0"/><a:m a:x="248" a:y="816" a:p="0" a:t="0"/><a:m a:x="262" a:y="821" a:p="0" a:t="0"/><a:m a:x="270" a:y="823" a:p="0" a:t="0"/><a:m a:x="271" a:y="824" a:p="0" a:t="0"/><a:m a:x="272" a:y="824" a:p="0" a:t="0"/><a:m a:x="273" a:y="828" a:p="0" a:t="0"/><a:m a:x="274" a:y="831" a:p="0" a:t="0"/><a:m a:x="275" a:y="831" a:p="0" a:t="0"/><a:m a:x="275" a:y="832" a:p="0" a:t="0"/><a:m a:x="277" a:y="832" a:p="0" a:t="0"/><a:m a:x="282" a:y="832" a:p="0" a:t="0"/><a:m a:x="295" a:y="833" a:p="0" a:t="0"/><a:m a:x="327" a:y="838" a:p="0" a:t="0"/><a:m a:x="361" a:y="844" a:p="0" a:t="0"/><a:m a:x="387" a:y="848" a:p="0" a:t="0"/><a:m a:x="399" a:y="852" a:p="0" a:t="0"/><a:m a:x="411" a:y="854" a:p="0" a:t="0"/><a:m a:x="411" a:y="855" a:p="0" a:t="0"/><a:m a:x="412" a:y="855" a:p="0" a:t="0"/><a:m a:x="413" a:y="857" a:p="0" a:t="0"/><a:m a:x="415" a:y="859" a:p="0" a:t="0"/><a:m a:x="415" a:y="859" a:p="0" a:t="0"/><a:m a:x="415" a:y="860" a:p="0" a:t="0"/><a:m a:x="413" a:y="860" a:p="0" a:t="0"/><a:m a:x="410" a:y="860" a:p="0" a:t="0"/><a:m a:x="403" a:y="860" a:p="0" a:t="0"/><a:m a:x="401" a:y="860" a:p="0" a:t="0"/><a:m a:x="400" a:y="860" a:p="0" a:t="0"/><a:m a:x="400" a:y="860" a:p="0" a:t="0"/><a:c a:d="#fbff06" a:t="0"/><a:m a:x="400" a:y="860" a:p="0" a:t="0"/><a:m a:x="403" a:y="852" a:p="0" a:t="0"/><a:m a:x="405" a:y="837" a:p="0" a:t="0"/><a:m a:x="405" a:y="765" a:p="0" a:t="0"/><a:m a:x="405" a:y="711" a:p="0" a:t="0"/><a:m a:x="386" a:y="561" a:p="0" a:t="0"/><a:m a:x="385" a:y="503" a:p="0" a:t="0"/><a:m a:x="385" a:y="502" a:p="0" a:t="0"/><a:m a:x="390" a:y="489" a:p="0" a:t="0"/><a:m a:x="402" a:y="471" a:p="0" a:t="0"/><a:m a:x="417" a:y="445" a:p="0" a:t="0"/><a:m a:x="437" a:y="414" a:p="0" a:t="0"/><a:m a:x="458" a:y="376" a:p="0" a:t="0"/><a:m a:x="476" a:y="338" a:p="0" a:t="0"/><a:m a:x="480" a:y="317" a:p="0" a:t="0"/><a:m a:x="482" a:y="307" a:p="0" a:t="0"/><a:m a:x="483" a:y="301" a:p="0" a:t="0"/><a:m a:x="483" a:y="301" a:p="1" a:t="0"/></g><g a:type="path" a:t="0.00" a:lastErase="0"><path fill="#fbff06" d="M 482.103,301 L 482.103,301 C 482.103,301 482.103,300.931 482.103,301 C 482.103,301.069 482.472,300.066 482.103,301.413 C 481.735,302.76 481.58,304.638 479.891,309.084 C 478.203,313.529 475.441,320.086 471.97,328.087 C 468.5,336.088 463.851,346.161 459.069,357.088 C 454.286,368.015 448.232,382.087 443.276,393.649 C 438.321,405.21 433.353,416.922 429.337,426.455 C 425.321,435.988 421.579,445.045 419.182,450.847 C 416.785,456.649 415.732,459.241 414.955,461.266 C 414.178,463.291 414.187,463.102 414.521,462.995 C 414.855,462.889 416.251,461.52 416.959,460.628 C 417.667,459.737 416.895,459.105 418.77,457.646 C 420.645,456.186 421.266,455.299 428.21,451.873 C 435.154,448.446 443.255,444.283 460.434,437.087 C 477.614,429.89 502.694,420.047 531.289,408.694 C 559.883,397.34 598.921,381.794 631.999,368.966 C 665.076,356.139 704.584,341.22 729.754,331.729 C 754.924,322.238 771.064,316.301 783.018,312.021 C 794.973,307.741 799.362,306.37 801.479,306.051 C 803.595,305.733 799.03,307.326 795.715,310.11 C 792.4,312.894 787.053,316.769 781.588,322.754 C 776.123,328.739 769.423,336.576 762.925,346.02 C 756.427,355.465 749.045,367.995 742.6,379.423 C 736.156,390.85 729.658,403.875 724.259,414.586 C 718.86,425.296 713.823,436.084 710.207,443.687 C 706.591,451.291 704.123,456.759 702.564,460.207 C 701.005,463.656 700.807,463.995 700.853,464.379 C 700.898,464.764 702.062,463.58 702.835,462.517 C 703.608,461.453 704.093,459.956 705.491,457.999 C 706.888,456.042 708.171,454.067 711.219,450.775 C 714.266,447.482 718.884,442.641 723.775,438.245 C 728.667,433.85 735.236,428.599 740.57,424.403 C 745.903,420.206 751.857,415.833 755.777,413.066 C 759.698,410.299 762.357,408.203 764.093,407.803 C 765.829,407.403 765.786,407.421 766.194,410.665 C 766.601,413.908 766.311,419.285 766.536,427.264 C 766.762,435.243 767.039,446.628 767.547,458.539 C 768.056,470.45 768.624,486.012 769.587,498.73 C 770.55,511.449 771.765,525.561 773.325,534.85 C 774.885,544.139 776.361,549.975 778.949,554.461 C 781.538,558.948 785.178,561.465 788.858,561.768 C 792.537,562.07 795.716,560.65 801.026,556.278 C 806.336,551.907 813.555,543.81 820.717,535.539 C 827.879,527.268 836.955,515.589 843.997,506.651 C 851.038,497.712 857.663,488.934 862.968,481.908 C 868.273,474.883 872.65,468.21 875.827,464.497 C 879.005,460.783 880.77,460.181 882.032,459.628 C 883.294,459.075 883.249,460.366 883.398,461.177 C 883.547,461.988 883.176,463.733 882.925,464.492 C 882.674,465.252 882.076,466.74 881.891,465.736 C 881.705,464.733 882.94,463.85 881.81,458.47 C 880.68,453.089 879.859,445.685 875.111,433.455 C 870.363,421.225 863.624,403.001 853.321,385.092 C 843.017,367.183 830.277,346.255 813.289,326.001 C 796.302,305.747 773.422,281.998 751.397,263.569 C 729.373,245.141 704.008,228.446 681.141,215.431 C 658.273,202.416 634.214,192.322 614.191,185.48 C 594.168,178.637 576.372,176.219 561.001,174.378 C 545.631,172.536 531.582,173.647 521.971,174.431 C 512.359,175.214 507.51,177.626 503.331,179.079 C 499.153,180.532 497.826,182.019 496.9,183.149 C 495.975,184.279 496.958,185.333 497.776,185.858 C 498.595,186.384 500.697,186.559 501.81,186.302 C 502.922,186.046 503.843,184.978 504.454,184.318 A 0.491,0.491 -2.725368483835307 0,0 504.578,181.945 C 503.5,184.287 502.764,185.199 501.856,185.504 C 500.947,185.808 499.256,185.801 498.502,185.521 C 497.748,185.241 496.493,184.768 497.33,183.824 C 498.167,182.88 499.418,181.287 503.525,179.855 C 507.632,178.423 512.42,176.013 521.972,175.231 C 531.524,174.449 545.523,173.331 560.838,175.161 C 576.154,176.991 593.89,179.388 613.865,186.21 C 633.84,193.032 657.861,203.104 680.689,216.091 C 703.516,229.079 728.839,245.74 750.829,264.133 C 772.819,282.526 795.667,306.235 812.627,326.45 C 829.587,346.664 842.306,367.552 852.591,385.421 C 862.877,403.29 869.601,421.471 874.338,433.662 C 879.075,445.853 879.602,453.124 881.016,458.569 C 882.43,464.014 882.369,465.334 882.82,466.333 C 883.271,467.333 883.54,465.526 883.722,464.564 C 883.903,463.603 884.274,461.49 883.909,460.562 C 883.545,459.635 882.991,458.423 881.537,459 C 880.083,459.576 878.384,460.284 875.184,464.021 C 871.983,467.758 867.634,474.4 862.333,481.422 C 857.031,488.443 850.406,497.221 843.374,506.149 C 836.341,515.077 827.251,526.755 820.136,534.989 C 813.021,543.223 805.82,551.199 800.686,555.554 C 795.551,559.909 792.822,561.339 789.328,561.12 C 785.833,560.902 782.253,558.633 779.718,554.241 C 777.184,549.849 775.676,544.026 774.121,534.768 C 772.565,525.509 771.349,511.399 770.386,498.69 C 769.424,485.981 768.855,470.421 768.347,458.513 C 767.838,446.605 767.596,435.307 767.336,427.243 C 767.077,419.18 767.403,413.485 766.791,410.133 C 766.179,406.78 765.581,406.745 763.665,407.127 C 761.75,407.509 759.233,409.648 755.299,412.425 C 751.365,415.201 745.409,419.576 740.061,423.786 C 734.713,427.995 728.122,433.264 723.21,437.679 C 718.299,442.094 713.66,446.959 710.591,450.278 C 707.523,453.597 706.209,455.62 704.801,457.593 C 703.392,459.567 702.675,460.938 702.141,462.12 C 701.606,463.301 701.401,464.946 701.593,464.683 C 701.784,464.42 701.734,463.985 703.29,460.543 C 704.846,457.102 707.315,451.633 710.928,444.035 C 714.541,436.437 719.575,425.655 724.968,414.956 C 730.361,404.256 736.854,391.244 743.284,379.838 C 749.714,368.433 757.077,355.935 763.549,346.521 C 770.022,337.106 776.672,329.319 782.122,323.35 C 787.571,317.382 793.059,313.72 796.244,310.71 C 799.429,307.7 803.483,305.197 801.232,305.29 C 798.982,305.384 794.701,306.989 782.741,311.271 C 770.78,315.552 754.642,321.489 729.469,330.981 C 704.297,340.473 664.785,355.394 631.705,368.222 C 598.625,381.051 559.592,396.595 530.991,407.951 C 502.39,419.307 477.301,429.153 460.101,436.36 C 442.901,443.566 434.793,447.713 427.79,451.192 C 420.788,454.67 420.007,455.724 418.086,457.23 C 416.165,458.737 416.667,459.244 416.265,460.231 C 415.863,461.218 415.768,462.932 415.673,463.154 C 415.579,463.377 414.989,463.567 415.697,461.567 C 416.404,459.567 417.524,456.954 419.921,451.155 C 422.317,445.355 426.058,436.299 430.073,426.768 C 434.088,417.237 439.056,405.525 444.011,393.966 C 448.965,382.407 455.017,368.342 459.8,357.413 C 464.583,346.485 469.234,336.406 472.709,328.395 C 476.183,320.384 478.782,313.845 480.647,309.348 C 482.511,304.851 483.355,302.804 483.897,301.413 C 484.438,300.022 483.897,301.069 483.897,301 C 483.897,300.931 483.897,301 483.897,301 L 483.897,301 L 483.897,301 A 0.897,0.897 -3.141592653589793 0,0 482.103,301"/><a:init><a:s a:d="2" a:u="px" a:t="0"/><a:c a:d="#fbff06" a:t="0"/><a:m a:x="483" a:y="301" a:p="1" a:t="0"/></a:init><a:m a:x="483" a:y="302" a:p="1" a:t="0"/><a:ds a:t="0"/><a:m a:x="476" a:y="321" a:p="1" a:t="0"/><a:ds a:t="0"/><a:m a:x="464" a:y="347" a:p="1" a:t="0"/><a:ds a:t="0"/><a:m a:x="447" a:y="384" a:p="1" a:t="0"/><a:ds a:t="0"/><a:m a:x="434" a:y="417" a:p="1" a:t="0"/><a:ds a:t="0"/><a:m a:x="423" a:y="443" a:p="1" a:t="0"/><a:ds a:t="0"/><a:m a:x="419" a:y="453" a:p="1" a:t="0"/><a:ds a:t="0"/><a:m a:x="419" a:y="455" a:p="1" a:t="0"/><a:ds a:t="0"/><a:ds a:t="0"/><a:ds a:t="0"/><a:m a:x="420" a:y="455" a:p="1" a:t="0"/><a:ds a:t="0"/><a:m a:x="440" a:y="446" a:p="1" a:t="0"/><a:ds a:t="0"/><a:m a:x="500" a:y="420" a:p="1" a:t="0"/><a:ds a:t="0"/><a:m a:x="609" a:y="379" a:p="1" a:t="0"/><a:ds a:t="0"/><a:m a:x="708" a:y="339" a:p="1" a:t="0"/><a:ds a:t="0"/><a:m a:x="763" a:y="320" a:p="1" a:t="0"/><a:ds a:t="0"/><a:m a:x="774" a:y="316" a:p="1" a:t="0"/><a:ds a:t="0"/><a:m a:x="774" a:y="317" a:p="1" a:t="0"/><a:ds a:t="0"/><a:m a:x="770" a:y="323" a:p="1" a:t="0"/><a:ds a:t="0"/><a:m a:x="763" a:y="340" a:p="1" a:t="0"/><a:ds a:t="0"/><a:m a:x="749" a:y="369" a:p="1" a:t="0"/><a:ds a:t="0"/><a:m a:x="732" a:y="405" a:p="1" a:t="0"/><a:ds a:t="0"/><a:m a:x="718" a:y="433" a:p="1" a:t="0"/><a:ds a:t="0"/><a:m a:x="708" a:y="452" a:p="1" a:t="0"/><a:ds a:t="0"/><a:m a:x="706" a:y="455" a:p="1" a:t="0"/><a:ds a:t="0"/><a:ds a:t="0"/><a:ds a:t="0"/><a:m a:x="708" a:y="453" a:p="1" a:t="0"/><a:ds a:t="0"/><a:m a:x="717" a:y="444" a:p="1" a:t="0"/><a:ds a:t="0"/><a:m a:x="736" a:y="427" a:p="1" a:t="0"/><a:ds a:t="0"/><a:m a:x="754" a:y="415" a:p="1" a:t="0"/><a:ds a:t="0"/><a:m a:x="761" a:y="410" a:p="1" a:t="0"/><a:ds a:t="0"/><a:m a:x="761" a:y="411" a:p="1" a:t="0"/><a:ds a:t="0"/><a:m a:x="762" a:y="420" a:p="1" a:t="0"/><a:ds a:t="0"/><a:m a:x="765" a:y="450" a:p="1" a:t="0"/><a:ds a:t="0"/><a:m a:x="769" a:y="488" a:p="1" a:t="0"/><a:ds a:t="0"/><a:m a:x="772" a:y="527" a:p="1" a:t="0"/><a:ds a:t="0"/><a:m a:x="777" a:y="546" a:p="1" a:t="0"/><a:ds a:t="0"/><a:m a:x="785" a:y="551" a:p="1" a:t="0"/><a:ds a:t="0"/><a:m a:x="796" a:y="551" a:p="1" a:t="0"/><a:ds a:t="0"/><a:m a:x="812" a:y="539" a:p="1" a:t="0"/><a:ds a:t="0"/><a:m a:x="835" a:y="513" a:p="1" a:t="0"/><a:ds a:t="0"/><a:m a:x="858" a:y="485" a:p="1" a:t="0"/><a:ds a:t="0"/><a:m a:x="872" a:y="468" a:p="1" a:t="0"/><a:ds a:t="0"/><a:m a:x="875" a:y="464" a:p="1" a:t="0"/><a:ds a:t="0"/><a:m a:x="876" a:y="465" a:p="1" a:t="0"/><a:m a:x="880" a:y="468" a:p="1" a:t="0"/><a:ds a:t="0"/><a:ds a:t="0"/><a:m a:x="881" a:y="468" a:p="1" a:t="0"/><a:ds a:t="0"/><a:m a:x="881" a:y="465" a:p="1" a:t="0"/><a:ds a:t="0"/><a:m a:x="881" a:y="446" a:p="1" a:t="0"/><a:ds a:t="0"/><a:m a:x="866" a:y="405" a:p="1" a:t="0"/><a:ds a:t="0"/><a:m a:x="828" a:y="340" a:p="1" a:t="0"/><a:ds a:t="0"/><a:m a:x="770" a:y="279" a:p="1" a:t="0"/><a:ds a:t="0"/><a:m a:x="701" a:y="232" a:p="1" a:t="0"/><a:ds a:t="0"/><a:m a:x="636" a:y="205" a:p="1" a:t="0"/><a:ds a:t="0"/><a:m a:x="586" a:y="190" a:p="1" a:t="0"/><a:ds a:t="0"/><a:m a:x="543" a:y="187" a:p="1" a:t="0"/><a:ds a:t="0"/><a:m a:x="516" a:y="186" a:p="1" a:t="0"/><a:ds a:t="0"/><a:m a:x="507" a:y="186" a:p="1" a:t="0"/><a:ds a:t="0"/><a:m a:x="506" a:y="185" a:p="1" a:t="0"/><a:ds a:t="0"/><a:m a:x="506" a:y="184" a:p="1" a:t="0"/><a:ds a:t="0"/><a:m a:x="504" a:y="181" a:p="1" a:t="0"/><a:ds a:t="0"/><a:ds a:t="0"/><a:m a:x="504" a:y="181" a:p="0" a:t="0"/><a:ds a:t="0"/><a:m a:x="503" a:y="181" a:p="0" a:t="0"/><a:ds a:t="0"/><a:m a:x="502" a:y="182" a:p="0" a:t="0"/><a:m a:x="501" a:y="184" a:p="0" a:t="0"/><a:m a:x="498" a:y="192" a:p="0" a:t="0"/><a:m a:x="491" a:y="201" a:p="0" a:t="0"/><a:m a:x="481" a:y="213" a:p="0" a:t="0"/><a:m a:x="476" a:y="222" a:p="0" a:t="0"/><a:m a:x="472" a:y="235" a:p="0" a:t="0"/><a:m a:x="467" a:y="246" a:p="0" a:t="0"/><a:m a:x="462" a:y="258" a:p="0" a:t="0"/><a:m a:x="455" a:y="271" a:p="0" a:t="0"/><a:m a:x="443" a:y="290" a:p="0" a:t="0"/><a:m a:x="427" a:y="318" a:p="0" a:t="0"/><a:m a:x="403" a:y="360" a:p="0" a:t="0"/><a:m a:x="370" a:y="418" a:p="0" a:t="0"/><a:m a:x="335" a:y="486" a:p="0" a:t="0"/><a:m a:x="302" a:y="555" a:p="0" a:t="0"/><a:m a:x="277" a:y="601" a:p="0" a:t="0"/><a:m a:x="257" a:y="632" a:p="0" a:t="0"/><a:m a:x="246" a:y="650" a:p="0" a:t="0"/><a:m a:x="239" a:y="658" a:p="0" a:t="0"/><a:m a:x="236" a:y="661" a:p="0" a:t="0"/><a:m a:x="232" a:y="663" a:p="0" a:t="0"/><a:m a:x="229" a:y="668" a:p="0" a:t="0"/><a:m a:x="220" a:y="678" a:p="0" a:t="0"/><a:m a:x="207" a:y="694" a:p="0" a:t="0"/><a:m a:x="196" a:y="707" a:p="0" a:t="0"/><a:m a:x="185" a:y="719" a:p="0" a:t="0"/><a:m a:x="179" a:y="725" a:p="0" a:t="0"/><a:m a:x="173" a:y="729" a:p="0" a:t="0"/><a:m a:x="169" a:y="731" a:p="0" a:t="0"/><a:m a:x="165" a:y="733" a:p="0" a:t="0"/><a:m a:x="165" a:y="734" a:p="0" a:t="0"/><a:m a:x="164" a:y="736" a:p="0" a:t="0"/><a:m a:x="165" a:y="740" a:p="0" a:t="0"/><a:m a:x="177" a:y="751" a:p="0" a:t="0"/><a:m a:x="210" a:y="768" a:p="0" a:t="0"/><a:m a:x="260" a:y="794" a:p="0" a:t="0"/><a:m a:x="335" a:y="836" a:p="0" a:t="0"/><a:m a:x="391" a:y="875" a:p="0" a:t="0"/><a:m a:x="316" a:y="888" a:p="0" a:t="0"/><a:m a:x="316" a:y="888" a:p="0" a:t="0"/><a:m a:x="316" a:y="880" a:p="0" a:t="0"/><a:m a:x="316" a:y="871" a:p="0" a:t="0"/><a:m a:x="316" a:y="866" a:p="0" a:t="0"/><a:m a:x="316" a:y="861" a:p="0" a:t="0"/><a:m a:x="315" a:y="856" a:p="0" a:t="0"/><a:m a:x="313" a:y="848" a:p="0" a:t="0"/><a:m a:x="312" a:y="835" a:p="0" a:t="0"/><a:m a:x="312" a:y="815" a:p="0" a:t="0"/><a:m a:x="312" a:y="786" a:p="0" a:t="0"/><a:m a:x="312" a:y="769" a:p="0" a:t="0"/><a:m a:x="312" a:y="767" a:p="0" a:t="0"/><a:m a:x="311" a:y="768" a:p="0" a:t="0"/><a:m a:x="309" a:y="776" a:p="0" a:t="0"/><a:m a:x="307" a:y="787" a:p="0" a:t="0"/><a:m a:x="307" a:y="803" a:p="0" a:t="0"/><a:m a:x="307" a:y="821" a:p="0" a:t="0"/><a:m a:x="307" a:y="834" a:p="0" a:t="0"/><a:m a:x="307" a:y="842" a:p="0" a:t="0"/><a:m a:x="307" a:y="846" a:p="0" a:t="0"/><a:m a:x="307" a:y="847" a:p="0" a:t="0"/><a:m a:x="307" a:y="848" a:p="0" a:t="0"/><a:m a:x="305" a:y="849" a:p="0" a:t="0"/><a:m a:x="301" a:y="851" a:p="0" a:t="0"/><a:m a:x="296" a:y="853" a:p="0" a:t="0"/><a:m a:x="294" a:y="854" a:p="0" a:t="0"/><a:m a:x="293" a:y="855" a:p="0" a:t="0"/><a:m a:x="292" a:y="855" a:p="0" a:t="0"/><a:m a:x="289" a:y="855" a:p="0" a:t="0"/><a:m a:x="282" a:y="854" a:p="0" a:t="0"/><a:m a:x="274" a:y="851" a:p="0" a:t="0"/><a:m a:x="268" a:y="850" a:p="0" a:t="0"/><a:m a:x="265" a:y="850" a:p="0" a:t="0"/><a:m a:x="265" a:y="850" a:p="0" a:t="0"/><a:m a:x="265" a:y="850" a:p="0" a:t="0"/><a:c a:d="#fa5959" a:t="0"/><a:m a:x="265" a:y="851" a:p="0" a:t="0"/><a:m a:x="265" a:y="852" a:p="0" a:t="0"/><a:m a:x="264" a:y="852" a:p="0" a:t="0"/><a:m a:x="263" a:y="851" a:p="0" a:t="0"/><a:m a:x="255" a:y="851" a:p="0" a:t="0"/><a:m a:x="244" a:y="850" a:p="0" a:t="0"/><a:m a:x="229" a:y="850" a:p="0" a:t="0"/><a:m a:x="221" a:y="850" a:p="0" a:t="0"/><a:m a:x="213" a:y="850" a:p="0" a:t="0"/><a:m a:x="207" a:y="852" a:p="0" a:t="0"/><a:m a:x="202" a:y="853" a:p="0" a:t="0"/><a:m a:x="195" a:y="853" a:p="0" a:t="0"/><a:m a:x="183" a:y="853" a:p="0" a:t="0"/><a:m a:x="167" a:y="853" a:p="0" a:t="0"/><a:m a:x="146" a:y="852" a:p="0" a:t="0"/><a:m a:x="127" a:y="849" a:p="0" a:t="0"/><a:m a:x="116" a:y="848" a:p="0" a:t="0"/><a:m a:x="109" a:y="848" a:p="0" a:t="0"/><a:m a:x="105" a:y="848" a:p="0" a:t="0"/><a:m a:x="102" a:y="849" a:p="0" a:t="0"/><a:m a:x="92" a:y="851" a:p="0" a:t="0"/><a:m a:x="88" a:y="851" a:p="0" a:t="0"/><a:m a:x="82" a:y="851" a:p="0" a:t="0"/><a:m a:x="71" a:y="851" a:p="0" a:t="0"/><a:m a:x="63" a:y="851" a:p="0" a:t="0"/><a:m a:x="55" a:y="851" a:p="0" a:t="0"/><a:m a:x="49" a:y="851" a:p="0" a:t="0"/><a:m a:x="45" a:y="851" a:p="0" a:t="0"/><a:m a:x="43" a:y="851" a:p="0" a:t="0"/><a:m a:x="43" a:y="851" a:p="0" a:t="0"/><a:m a:x="45" a:y="851" a:p="0" a:t="152.35"/><a:m a:x="51" a:y="850" a:p="0" a:t="168.75"/><a:m a:x="59" a:y="845" a:p="0" a:t="184.26"/><a:m a:x="71" a:y="827" a:p="0" a:t="203.97"/><a:m a:x="89" a:y="795" a:p="0" a:t="221.59"/><a:m a:x="108" a:y="731" a:p="0" a:t="236.65"/><a:m a:x="115" a:y="647" a:p="0" a:t="253.22"/><a:m a:x="115" a:y="565" a:p="0" a:t="271.47"/><a:m a:x="117" a:y="505" a:p="0" a:t="289.48"/><a:m a:x="117" a:y="473" a:p="0" a:t="303.78"/><a:m a:x="117" a:y="465" a:p="0" a:t="321.71"/><a:m a:x="117" a:y="464" a:p="0" a:t="365.21"/><a:m a:x="117" a:y="457" a:p="0" a:t="385.19"/><a:m a:x="117" a:y="449" a:p="0" a:t="401.51"/><a:m a:x="117" a:y="440" a:p="0" a:t="419.36"/><a:m a:x="118" a:y="429" a:p="0" a:t="433.92"/><a:m a:x="119" a:y="423" a:p="0" a:t="452.13"/><a:m a:x="120" a:y="417" a:p="0" a:t="470.4"/><a:m a:x="124" a:y="405" a:p="0" a:t="486.14"/><a:m a:x="133" a:y="388" a:p="0" a:t="506.61"/><a:m a:x="146" a:y="365" a:p="0" a:t="520.15"/><a:m a:x="160" a:y="341" a:p="0" a:t="537.18"/><a:m a:x="169" a:y="317" a:p="0" a:t="553.35"/><a:m a:x="177" a:y="294" a:p="0" a:t="571.82"/><a:m a:x="179" a:y="282" a:p="0" a:t="587.94"/><a:m a:x="180" a:y="277" a:p="0" a:t="606.57"/><a:m a:x="180" a:y="276" a:p="0" a:t="621.48"/><a:m a:x="180" a:y="276" a:p="1" a:t="669.58"/></g><g a:type="path" a:t="672.37" a:lastErase="0"><path fill="#fa5959" d="M 179.207,276 L 179.207,276 C 179.207,276 179.207,275.862 179.207,276 C 179.207,276.138 179.142,275.267 179.207,276.828 C 179.273,278.39 179.663,281.171 179.6,285.369 C 179.537,289.567 179.084,295.136 178.828,302.015 C 178.573,308.893 178.278,317.226 178.066,326.641 C 177.855,336.055 177.606,347.532 177.558,358.5 C 177.51,369.467 177.48,381.869 177.781,392.444 C 178.081,403.019 178.516,412.582 179.36,421.949 C 180.204,431.316 181.224,440.032 182.844,448.648 C 184.464,457.265 186.607,465.928 189.081,473.648 C 191.555,481.368 195.001,489.526 197.686,494.968 C 200.372,500.409 202.977,503.769 205.192,506.299 C 207.407,508.829 209.158,509.641 210.976,510.146 C 212.794,510.652 214.583,509.855 216.101,509.331 C 217.618,508.807 218.651,507.896 220.079,507.001 C 221.507,506.106 222.474,505.457 224.666,503.96 C 226.858,502.463 228.42,501.212 233.229,498.019 C 238.039,494.826 244.653,490.769 253.523,484.801 C 262.393,478.833 273.496,471.535 286.448,462.211 C 299.4,452.887 317.843,439.042 331.234,428.855 C 344.625,418.668 357.799,408.22 366.795,401.088 C 375.791,393.957 381.441,389.089 385.209,386.066 C 388.977,383.042 389.309,382.772 389.403,382.946 C 389.497,383.121 387.271,383.389 385.772,387.112 C 384.273,390.835 382.092,397.342 380.412,405.285 C 378.731,413.228 377.118,423.537 375.69,434.773 C 374.262,446.009 373.067,460.025 371.844,472.7 C 370.62,485.375 369.295,498.72 368.351,510.824 C 367.407,522.928 366.658,536.021 366.179,545.324 C 365.7,554.627 365.567,561.831 365.477,566.642 C 365.387,571.454 365.358,572.976 365.638,574.194 C 365.919,575.413 366.882,574.683 367.157,573.952 C 367.432,573.221 367.173,571.034 367.289,569.809 C 367.406,568.584 367.611,567.446 367.856,566.599 C 368.101,565.753 368.524,564.919 368.759,564.729 C 368.993,564.539 368.613,564.626 369.264,565.459 C 369.915,566.292 370.725,567.726 372.665,569.727 C 374.605,571.727 376.988,574.676 380.904,577.461 C 384.82,580.246 389.466,583.041 396.159,586.437 C 402.853,589.833 411.363,593.808 421.065,597.836 C 430.767,601.863 441.808,606.391 454.37,610.602 C 466.932,614.813 481.751,619.415 496.437,623.1 C 511.123,626.784 526.899,629.983 542.487,632.711 C 558.075,635.439 576.467,637.686 589.965,639.468 C 603.463,641.249 615.393,642.538 623.474,643.403 C 631.556,644.268 635.781,644.461 638.452,644.657 C 641.122,644.853 640.248,644.917 639.498,644.58 C 638.748,644.243 635.815,643.084 633.954,642.634 A 0.4,0.4 -4.5785422306039365 0,0 628.223,642.669 C 635.544,643.511 637.775,643.125 638.558,643.198 C 639.341,643.271 641.017,643.958 638.518,643.86 C 636.02,643.761 631.641,643.472 623.568,642.608 C 615.494,641.744 603.564,640.456 590.078,638.676 C 576.592,636.896 558.219,634.652 542.65,631.928 C 527.081,629.204 511.331,626.012 496.665,622.333 C 481.999,618.654 467.201,614.059 454.656,609.855 C 442.112,605.651 431.08,601.126 421.398,597.108 C 411.716,593.09 403.223,589.119 396.565,585.747 C 389.907,582.376 385.328,579.628 381.451,576.878 C 377.574,574.127 375.29,571.387 373.304,569.244 C 371.317,567.101 370.428,564.835 369.531,564.021 C 368.634,563.207 368.333,563.953 367.922,564.359 C 367.512,564.766 367.306,565.566 367.068,566.46 C 366.83,567.355 366.698,568.626 366.493,569.726 C 366.289,570.826 365.852,572.318 365.843,573.059 C 365.833,573.801 366.366,575.242 366.438,574.177 C 366.511,573.112 366.187,571.469 366.276,566.669 C 366.366,561.868 366.499,554.67 366.977,545.374 C 367.456,536.079 368.204,522.995 369.148,510.897 C 370.091,498.798 371.418,485.447 372.64,472.781 C 373.862,460.115 375.057,446.111 376.48,434.9 C 377.903,423.688 379.519,413.403 381.179,405.511 C 382.84,397.619 385.152,391.416 386.443,387.548 C 387.734,383.68 389.216,382.655 388.926,382.304 C 388.636,381.954 388.473,382.42 384.703,385.446 C 380.932,388.471 375.294,393.33 366.303,400.458 C 357.312,407.586 344.141,418.031 330.756,428.213 C 317.372,438.396 298.94,452.232 285.995,461.551 C 273.05,470.871 261.957,478.162 253.086,484.13 C 244.216,490.099 237.584,494.168 232.773,497.362 C 227.963,500.556 226.408,501.802 224.224,503.294 C 222.04,504.786 221.049,505.438 219.671,506.313 C 218.293,507.188 217.334,508.016 215.958,508.544 C 214.582,509.071 213.099,509.926 211.416,509.478 C 209.733,509.031 208.023,508.325 205.859,505.857 C 203.694,503.388 201.095,500.068 198.428,494.668 C 195.761,489.268 192.322,481.142 189.857,473.455 C 187.392,465.767 185.254,457.136 183.637,448.545 C 182.021,439.953 181.002,431.257 180.159,421.906 C 179.316,412.555 178.881,403.004 178.581,392.439 C 178.28,381.873 178.31,369.475 178.358,358.512 C 178.405,347.55 178.654,336.075 178.866,326.665 C 179.078,317.255 179.372,308.934 179.628,302.052 C 179.883,295.169 180.206,289.573 180.4,285.369 C 180.594,281.165 180.727,278.39 180.793,276.828 C 180.858,275.267 180.793,276.138 180.793,276 C 180.793,275.862 180.793,276 180.793,276 L 180.793,276 L 180.793,276 A 0.793,0.793 -3.141592653589793 0,0 179.207,276"/><a:init><a:s a:d="2" a:u="px" a:t="672.37"/><a:c a:d="#fa5959" a:t="672.37"/><a:m a:x="180" a:y="276" a:p="1" a:t="672.37"/></a:init><a:m a:x="180" a:y="278" a:p="1" a:t="701.43"/><a:ds a:t="722.63"/><a:m a:x="180" a:y="296" a:p="1" a:t="722.74"/><a:ds a:t="743.91"/><a:m a:x="178" a:y="320" a:p="1" a:t="743.98"/><a:ds a:t="758.05"/><a:m a:x="178" a:y="350" a:p="1" a:t="758.1"/><a:ds a:t="772.39"/><a:m a:x="178" a:y="379" a:p="1" a:t="780.47"/><a:ds a:t="793.03"/><a:m a:x="179" a:y="408" a:p="1" a:t="793.15"/><a:ds a:t="806.23"/><a:m a:x="182" a:y="434" a:p="1" a:t="806.27"/><a:ds a:t="823.6"/><a:m a:x="187" a:y="460" a:p="1" a:t="823.65"/><a:ds a:t="841.83"/><a:m a:x="196" a:y="487" a:p="1" a:t="841.89"/><a:ds a:t="851.48"/><a:m a:x="204" a:y="500" a:p="1" a:t="858.31"/><a:ds a:t="872.16"/><a:m a:x="209" a:y="503" a:p="1" a:t="872.25"/><a:ds a:t="885.83"/><a:m a:x="212" a:y="504" a:p="1" a:t="892.14"/><a:ds a:t="902.37"/><a:m a:x="217" a:y="504" a:p="1" a:t="908.68"/><a:ds a:t="924.47"/><a:m a:x="221" a:y="504" a:p="1" a:t="924.5"/><a:ds a:t="941.1"/><a:m a:x="228" a:y="501" a:p="1" a:t="941.15"/><a:ds a:t="952.18"/><a:m a:x="241" a:y="492" a:p="1" a:t="957.94"/><a:ds a:t="968.24"/><a:m a:x="273" a:y="472" a:p="1" a:t="973.74"/><a:ds a:t="987.06"/><a:m a:x="320" a:y="438" a:p="1" a:t="992.13"/><a:ds a:t="1002.75"/><a:m a:x="360" a:y="405" a:p="1" a:t="1009.97"/><a:ds a:t="1021.68"/><a:m a:x="377" a:y="391" a:p="1" a:t="1027.17"/><a:ds a:t="1037.64"/><a:ds a:t="1052.28"/><a:m a:x="377" a:y="393" a:p="1" a:t="1058.71"/><a:ds a:t="1073.9"/><a:m a:x="377" a:y="398" a:p="1" a:t="1073.95"/><a:ds a:t="1087.4"/><a:m a:x="377" a:y="424" a:p="1" a:t="1094.12"/><a:ds a:t="1108.86"/><a:m a:x="374" a:y="463" a:p="1" a:t="1108.98"/><a:ds a:t="1120.35"/><a:m a:x="371" a:y="502" a:p="1" a:t="1126.24"/><a:ds a:t="1137.91"/><a:m a:x="367" a:y="534" a:p="1" a:t="1144.84"/><a:ds a:t="1159.18"/><a:m a:x="367" a:y="556" a:p="1" a:t="1159.33"/><a:ds a:t="1170.18"/><a:m a:x="367" a:y="564" a:p="1" a:t="1177.36"/><a:ds a:t="1186.16"/><a:m a:x="367" a:y="565" a:p="1" a:t="1192.28"/><a:ds a:t="1201.71"/><a:ds a:t="1220.79"/><a:ds a:t="1238.71"/><a:m a:x="368" a:y="565" a:p="1" a:t="1238.85"/><a:ds a:t="1252.03"/><a:m a:x="369" a:y="565" a:p="1" a:t="1258.32"/><a:ds a:t="1270.47"/><a:m a:x="370" a:y="567" a:p="1" a:t="1294.99"/><a:ds a:t="1303.25"/><a:m a:x="377" a:y="576" a:p="1" a:t="1310.96"/><a:ds a:t="1320.87"/><a:m a:x="391" a:y="585" a:p="1" a:t="1327.99"/><a:ds a:t="1337.72"/><a:m a:x="413" a:y="593" a:p="1" a:t="1344.6"/><a:ds a:t="1352.67"/><a:m a:x="442" a:y="605" a:p="1" a:t="1362.06"/><a:ds a:t="1369.05"/><a:m a:x="477" a:y="617" a:p="1" a:t="1379.09"/><a:ds a:t="1386.69"/><a:m a:x="524" a:y="628" a:p="1" a:t="1396.54"/><a:ds a:t="1402.21"/><a:m a:x="578" a:y="636" a:p="1" a:t="1412.52"/><a:ds a:t="1419"/><a:m a:x="611" a:y="639" a:p="1" a:t="1429.29"/><a:ds a:t="1435.37"/><a:m a:x="625" a:y="642" a:p="1" a:t="1446.75"/><a:ds a:t="1452.05"/><a:ds a:t="1470.67"/><a:ds a:t="1486.77"/><a:ds a:t="1501.19"/><a:m a:x="625" a:y="642" a:p="0" a:t="1518.94"/><a:ds a:t="1519.73"/><a:ds a:t="1534.95"/><a:m a:x="625" a:y="644" a:p="0" a:t="1572.61"/><a:m a:x="625" a:y="647" a:p="0" a:t="1592.07"/><a:m a:x="625" a:y="651" a:p="0" a:t="1608.61"/><a:m a:x="625" a:y="652" a:p="0" a:t="1625.5"/><a:m a:x="625" a:y="654" a:p="0" a:t="1641.93"/><a:m a:x="625" a:y="655" a:p="0" a:t="1658.14"/><a:m a:x="625" a:y="656" a:p="0" a:t="1675.51"/><a:m a:x="625" a:y="656" a:p="0" a:t="1716.94"/><a:m a:x="625" a:y="657" a:p="0" a:t="1734.4"/><a:m a:x="625" a:y="658" a:p="0" a:t="1751.66"/><a:m a:x="626" a:y="658" a:p="0" a:t="2516.63"/><a:m a:x="627" a:y="658" a:p="0" a:t="2534.75"/><a:m a:x="627" a:y="658" a:p="1" a:t="2981.59"/></g><g a:type="path" a:t="2983.52" a:lastErase="0"><path fill="#fa5959" d="M 627.787,658 L 627.787,658 C 627.787,658 627.787,658.142 627.787,658 C 627.787,657.858 627.794,657.931 627.787,657.15 C 627.781,656.368 627.309,655.622 627.751,653.312 C 628.193,651.002 628.777,647.797 630.44,643.289 C 632.102,638.781 634.677,632.595 637.724,626.262 C 640.772,619.929 643.984,613.225 648.725,605.292 C 653.465,597.36 659.793,587.582 666.166,578.668 C 672.539,569.753 680.231,559.567 686.964,551.806 C 693.696,544.045 700.469,537.573 706.563,532.101 C 712.657,526.629 718.524,522.309 723.527,518.973 C 728.531,515.636 732.971,513.62 736.582,512.081 C 740.194,510.542 742.985,510.039 745.198,509.738 C 747.411,509.438 748.564,509.973 749.861,510.278 C 751.158,510.584 752.199,511.141 752.98,511.572 C 753.76,512.003 753.29,512.336 754.544,512.865 C 755.797,513.394 752.845,512.506 760.503,514.745 C 768.16,516.985 785.995,522.007 800.49,526.302 C 814.984,530.598 830.814,535.354 847.471,540.519 C 864.129,545.684 883.731,551.982 900.434,557.293 C 917.138,562.604 933.687,568.068 947.691,572.387 C 961.694,576.706 974.085,580.408 984.456,583.207 C 994.827,586.005 1002.439,587.626 1009.915,589.179 C 1017.391,590.732 1023.648,591.689 1029.311,592.524 C 1034.973,593.358 1039.528,593.713 1043.89,594.184 C 1048.252,594.654 1051.878,595.005 1055.482,595.346 C 1059.086,595.688 1062.586,596.013 1065.516,596.232 A 0.4,0.4 -1.5139359380632933 0,0 1073.107,595.863 C 1062.662,595.217 1059.163,594.891 1055.562,594.55 C 1051.961,594.209 1048.333,593.858 1043.98,593.389 C 1039.628,592.919 1035.094,592.567 1029.447,591.735 C 1023.8,590.904 1017.559,589.95 1010.098,588.4 C 1002.637,586.851 995.042,585.235 984.682,582.439 C 974.321,579.643 961.935,575.943 947.934,571.625 C 933.933,567.307 917.381,561.842 900.676,556.53 C 883.971,551.218 864.364,544.919 847.703,539.753 C 831.042,534.587 815.204,529.829 800.712,525.534 C 786.219,521.239 768.349,516.219 760.748,513.984 C 753.148,511.748 756.354,512.647 755.11,512.122 C 753.865,511.596 754.143,511.271 753.283,510.831 C 752.422,510.392 751.331,509.794 749.948,509.483 C 748.566,509.172 747.277,508.652 744.987,508.967 C 742.697,509.282 739.867,509.811 736.209,511.373 C 732.55,512.936 728.073,514.979 723.038,518.34 C 718.002,521.701 712.113,526.041 705.996,531.537 C 699.878,537.033 693.081,543.534 686.331,551.316 C 679.581,559.098 671.883,569.295 665.497,578.229 C 659.111,587.164 652.768,596.968 648.016,604.921 C 643.265,612.874 640.047,619.587 636.989,625.947 C 633.93,632.308 631.339,638.534 629.667,643.082 C 627.994,647.631 627.53,650.895 626.954,653.239 C 626.378,655.584 626.336,656.356 626.213,657.15 C 626.089,657.943 626.213,657.858 626.213,658 C 626.213,658.142 626.213,658 626.213,658 L 626.213,658 L 626.213,658 A 0.787,0.787 0 0,0 627.787,658"/><a:init><a:s a:d="2" a:u="px" a:t="2983.52"/><a:c a:d="#fa5959" a:t="2983.52"/><a:m a:x="627" a:y="658" a:p="1" a:t="2983.52"/></a:init><a:m a:x="627" a:y="656" a:p="1" a:t="3005.54"/><a:ds a:t="3024.02"/><a:m a:x="628" a:y="647" a:p="1" a:t="3024.08"/><a:ds a:t="3037.84"/><a:m a:x="634" a:y="631" a:p="1" a:t="3044.4"/><a:ds a:t="3054.75"/><a:m a:x="645" a:y="612" a:p="1" a:t="3060.85"/><a:ds a:t="3070.27"/><a:m a:x="659" a:y="588" a:p="1" a:t="3076.77"/><a:ds a:t="3086.11"/><a:m a:x="680" a:y="561" a:p="1" a:t="3093"/><a:ds a:t="3104.94"/><a:m a:x="698" a:y="541" a:p="1" a:t="3112.59"/><a:ds a:t="3120.22"/><a:m a:x="716" a:y="528" a:p="1" a:t="3127.27"/><a:ds a:t="3137.51"/><a:m a:x="730" a:y="518" a:p="1" a:t="3144.4"/><a:ds a:t="3152.39"/><a:m a:x="740" a:y="514" a:p="1" a:t="3158.9"/><a:ds a:t="3170.17"/><a:m a:x="744" a:y="513" a:p="1" a:t="3176.68"/><a:ds a:t="3187.78"/><a:m a:x="748" a:y="513" a:p="1" a:t="3194.92"/><a:ds a:t="3203.34"/><a:m a:x="754" a:y="513" a:p="1" a:t="3210.94"/><a:ds a:t="3219.45"/><a:m a:x="768" a:y="516" a:p="1" a:t="3246.11"/><a:ds a:t="3246.98"/><a:m a:x="791" a:y="523" a:p="1" a:t="3257.14"/><a:ds a:t="3257.83"/><a:m a:x="850" a:y="540" a:p="1" a:t="3263.5"/><a:ds a:t="3270.08"/><a:m a:x="885" a:y="552" a:p="1" a:t="3280.2"/><a:ds a:t="3286.03"/><a:m a:x="924" a:y="565" a:p="1" a:t="3295.48"/><a:ds a:t="3303.14"/><a:m a:x="963" a:y="577" a:p="1" a:t="3311.76"/><a:ds a:t="3320.89"/><a:m a:x="996" a:y="585" a:p="1" a:t="3329.54"/><a:ds a:t="3337.99"/><a:m a:x="1016" a:y="588" a:p="1" a:t="3346.11"/><a:ds a:t="3351.95"/><a:m a:x="1032" a:y="591" a:p="1" a:t="3363.56"/><a:ds a:t="3368.75"/><a:m a:x="1047" a:y="593" a:p="1" a:t="3382.07"/><a:ds a:t="3386.9"/><a:m a:x="1058" a:y="595" a:p="1" a:t="3397.57"/><a:ds a:t="3401.17"/><a:m a:x="1069" a:y="596" a:p="1" a:t="3414.74"/><a:ds a:t="3418.77"/><a:m a:x="1074" a:y="596" a:p="1" a:t="3431.07"/><a:ds a:t="3436.41"/><a:m a:x="1077" a:y="596" a:p="1" a:t="3448.36"/><a:ds a:t="3452.06"/><a:m a:x="1077" a:y="596" a:p="0" a:t="3485.48"/><a:m a:x="1077" a:y="595" a:p="0" a:t="3508.68"/><a:m a:x="1077" a:y="593" a:p="0" a:t="3526.06"/><a:m a:x="1078" a:y="590" a:p="0" a:t="3544.23"/><a:m a:x="1079" a:y="586" a:p="0" a:t="3560.8"/><a:m a:x="1079" a:y="581" a:p="0" a:t="3578.48"/><a:m a:x="1079" a:y="579" a:p="0" a:t="3595.14"/><a:m a:x="1077" a:y="577" a:p="0" a:t="3614.07"/><a:m a:x="1072" a:y="574" a:p="0" a:t="3628.99"/><a:m a:x="1065" a:y="569" a:p="0" a:t="3645.92"/><a:m a:x="1056" a:y="561" a:p="0" a:t="3662.75"/><a:m a:x="1041" a:y="544" a:p="0" a:t="3679.06"/><a:m a:x="1022" a:y="519" a:p="0" a:t="3695.96"/><a:m a:x="1003" a:y="492" a:p="0" a:t="3713.01"/><a:m a:x="990" a:y="470" a:p="0" a:t="3730.17"/><a:m a:x="987" a:y="461" a:p="0" a:t="3747.74"/><a:m a:x="987" a:y="458" a:p="0" a:t="3765.4"/><a:m a:x="987" a:y="457" a:p="0" a:t="3804.47"/><a:m a:x="987" a:y="456" a:p="0" a:t="3825.31"/><a:m a:x="987" a:y="454" a:p="0" a:t="3840.05"/><a:m a:x="987" a:y="452" a:p="0" a:t="3858.9"/><a:m a:x="987" a:y="450" a:p="0" a:t="3875.53"/><a:m a:x="987" a:y="450" a:p="1" a:t="3902.78"/></g><g a:type="path" a:t="3904.01" a:lastErase="0"><path fill="#fa5959" d="M 986.087,450 L 986.087,450 C 986.087,450 986.087,449.942 986.087,450 C 986.087,450.058 986.036,450.029 986.087,450.349 C 986.138,450.669 986.308,450.634 986.393,451.922 C 986.479,453.21 986.566,454.763 986.6,458.075 C 986.634,461.388 986.6,465.407 986.6,471.797 C 986.6,478.187 986.6,487.344 986.6,496.416 C 986.6,505.487 986.804,514.954 986.6,526.226 C 986.396,537.498 985.992,551.416 985.374,564.045 C 984.756,576.674 983.745,591.083 982.893,602 C 982.041,612.917 981.05,622.514 980.262,629.547 C 979.474,636.579 978.706,641.077 978.166,644.193 C 977.625,647.309 977.094,647.882 977.018,648.242 C 976.941,648.603 977.567,647.307 977.704,646.356 A 0.4,0.4 -3.0777826659161494 0,0 977.045,642.485 C 976.809,647.461 977.409,648.82 977.787,648.46 C 978.166,648.1 978.412,647.445 978.957,644.306 C 979.503,641.166 980.27,636.665 981.059,629.623 C 981.847,622.58 982.838,612.978 983.691,602.052 C 984.544,591.127 985.556,576.709 986.174,564.071 C 986.792,551.433 987.196,537.502 987.4,526.226 C 987.604,514.95 987.4,505.487 987.4,496.416 C 987.4,487.344 987.4,478.187 987.4,471.797 C 987.4,465.407 987.366,461.388 987.4,458.075 C 987.434,454.763 987.521,453.21 987.607,451.922 C 987.692,450.634 987.862,450.669 987.913,450.349 C 987.964,450.029 987.913,450.058 987.913,450 C 987.913,449.942 987.913,450 987.913,450 L 987.913,450 L 987.913,450 A 0.913,0.913 -3.141592653589793 0,0 986.087,450"/><a:init><a:s a:d="2" a:u="px" a:t="3904.01"/><a:c a:d="#fa5959" a:t="3904.01"/><a:m a:x="987" a:y="450" a:p="1" a:t="3904.01"/></a:init><a:m a:x="987" a:y="451" a:p="1" a:t="3934.26"/><a:ds a:t="3937"/><a:m a:x="987" a:y="454" a:p="1" a:t="3953.24"/><a:m a:x="987" a:y="466" a:p="1" a:t="3968.57"/><a:ds a:t="3969.29"/><a:m a:x="987" a:y="485" a:p="1" a:t="3991.43"/><a:ds a:t="3993.15"/><a:m a:x="987" a:y="517" a:p="1" a:t="4004.69"/><a:ds a:t="4005.86"/><a:ds a:t="4023.74"/><a:m a:x="987" a:y="552" a:p="1" a:t="4023.81"/><a:ds a:t="4039.8"/><a:m a:x="984" a:y="589" a:p="1" a:t="4040.07"/><a:ds a:t="4057.54"/><a:m a:x="981" a:y="618" a:p="1" a:t="4057.58"/><a:ds a:t="4076.25"/><a:m a:x="979" a:y="635" a:p="1" a:t="4076.3"/><a:ds a:t="4093.47"/><a:m a:x="978" a:y="639" a:p="1" a:t="4093.57"/><a:ds a:t="4104.45"/><a:ds a:t="4122.31"/><a:ds a:t="4136.26"/><a:ds a:t="4152.85"/><a:ds a:t="4171"/><a:m a:x="977" a:y="639" a:p="1" a:t="4182.04"/><a:m a:x="977" a:y="639" a:p="0" a:t="4198.33"/><a:m a:x="976" a:y="639" a:p="0" a:t="4206.65"/><a:m a:x="973" a:y="641" a:p="0" a:t="4226.36"/><a:m a:x="965" a:y="641" a:p="0" a:t="4241.72"/><a:m a:x="948" a:y="641" a:p="0" a:t="4260.91"/><a:m a:x="935" a:y="642" a:p="0" a:t="4275.77"/><a:m a:x="921" a:y="644" a:p="0" a:t="4292.6"/><a:m a:x="906" a:y="646" a:p="0" a:t="4314.32"/><a:m a:x="885" a:y="648" a:p="0" a:t="4326.89"/><a:m a:x="864" a:y="652" a:p="0" a:t="4344.26"/><a:m a:x="835" a:y="655" a:p="0" a:t="4360.82"/><a:m a:x="785" a:y="661" a:p="0" a:t="4377.82"/><a:m a:x="725" a:y="665" a:p="0" a:t="4393.78"/><a:m a:x="659" a:y="672" a:p="0" a:t="4410.42"/><a:m a:x="586" a:y="685" a:p="0" a:t="4427.66"/><a:m a:x="368" a:y="693" a:p="0" a:t="4444.83"/><a:m a:x="273" a:y="697" a:p="0" a:t="4461.85"/><a:m a:x="201" a:y="705" a:p="0" a:t="4478.78"/><a:m a:x="155" a:y="718" a:p="0" a:t="4497.37"/><a:m a:x="124" a:y="734" a:p="0" a:t="4512.45"/><a:m a:x="105" a:y="742" a:p="0" a:t="4529.48"/><a:m a:x="102" a:y="744" a:p="0" a:t="4546.8"/><a:m a:x="100" a:y="745" a:p="0" a:t="4566.38"/><a:m a:x="99" a:y="746" a:p="0" a:t="4582"/><a:m a:x="98" a:y="746" a:p="0" a:t="4607.97"/><a:m a:x="90" a:y="751" a:p="0" a:t="4626.05"/><a:m a:x="73" a:y="759" a:p="0" a:t="4643.05"/><a:m a:x="52" a:y="774" a:p="0" a:t="4657.3"/><a:m a:x="33" a:y="791" a:p="0" a:t="4675.62"/><a:m a:x="19" a:y="809" a:p="0" a:t="4692.63"/><a:m a:x="13" a:y="820" a:p="0" a:t="4710.49"/><a:m a:x="10" a:y="823" a:p="0" a:t="4729.6"/><a:m a:x="8" a:y="825" a:p="0" a:t="4745.65"/><a:m a:x="7" a:y="828" a:p="0" a:t="4761.89"/><a:m a:x="5" a:y="830" a:p="0" a:t="4779.77"/><a:m a:x="5" a:y="831" a:p="0" a:t="4795.89"/><a:m a:x="4" a:y="832" a:p="0" a:t="4812.48"/><a:m a:x="4" a:y="834" a:p="0" a:t="4861.38"/><a:m a:x="6" a:y="842" a:p="0" a:t="4879.76"/><a:m a:x="12" a:y="851" a:p="0" a:t="4896.39"/><a:m a:x="20" a:y="858" a:p="0" a:t="4916.49"/><a:m a:x="25" a:y="862" a:p="0" a:t="4931.12"/><a:m a:x="35" a:y="865" a:p="0" a:t="4947.9"/><a:m a:x="53" a:y="870" a:p="0" a:t="4964.64"/><a:m a:x="66" a:y="876" a:p="0" a:t="4981.55"/><a:m a:x="83" a:y="884" a:p="0" a:t="4999.18"/><a:m a:x="124" a:y="886" a:p="0" a:t="5224.31"/><a:m a:x="127" a:y="886" a:p="0" a:t="5242.3"/><a:m a:x="129" a:y="885" a:p="0" a:t="5256.74"/><a:m a:x="130" a:y="881" a:p="0" a:t="5335.18"/><a:m a:x="129" a:y="880" a:p="0" a:t="5368.01"/><a:m a:x="129" a:y="879" a:p="0" a:t="5373.85"/><a:m a:x="128" a:y="879" a:p="0" a:t="5404.45"/><a:m a:x="128" a:y="878" a:p="0" a:t="5426.57"/><a:m a:x="128" a:y="877" a:p="0" a:t="5441.86"/><a:m a:x="128" a:y="875" a:p="0" a:t="5460.56"/><a:m a:x="124" a:y="865" a:p="0" a:t="5542.85"/><a:m a:x="111" a:y="862" a:p="0" a:t="5725.74"/><a:m a:x="103" a:y="862" a:p="0" a:t="5744.82"/><a:m a:x="85" a:y="861" a:p="0" a:t="5776.81"/><a:m a:x="82" a:y="861" a:p="0" a:t="5798.18"/><a:m a:x="80" a:y="861" a:p="0" a:t="5812.89"/><a:m a:x="79" a:y="861" a:p="0" a:t="5832.14"/><a:m a:x="77" a:y="860" a:p="0" a:t="5847.66"/><a:m a:x="74" a:y="859" a:p="0" a:t="5864.07"/><a:m a:x="69" a:y="857" a:p="0" a:t="5881.86"/><a:m a:x="61" a:y="857" a:p="0" a:t="5900.64"/><a:m a:x="58" a:y="856" a:p="0" a:t="5918.77"/><a:m a:x="57" a:y="856" a:p="0" a:t="5935.03"/><a:m a:x="58" a:y="856" a:p="0" a:t="6845.3"/><a:m a:x="60" a:y="856" a:p="0" a:t="6864.4"/><a:m a:x="60" a:y="856" a:p="0" a:t="10487.15"/><a:m a:x="62" a:y="856" a:p="0" a:t="10487.25"/><a:m a:x="69" a:y="856" a:p="0" a:t="10487.25"/><a:m a:x="73" a:y="857" a:p="0" a:t="10487.25"/><a:m a:x="76" a:y="857" a:p="0" a:t="10487.25"/><a:m a:x="77" a:y="857" a:p="0" a:t="10487.25"/><a:m a:x="81" a:y="857" a:p="0" a:t="10487.25"/><a:m a:x="84" a:y="857" a:p="0" a:t="10487.25"/><a:m a:x="91" a:y="857" a:p="0" a:t="10487.25"/><a:m a:x="99" a:y="857" a:p="0" a:t="10487.25"/><a:m a:x="109" a:y="857" a:p="0" a:t="10487.25"/><a:m a:x="121" a:y="858" a:p="0" a:t="10487.25"/><a:m a:x="125" a:y="859" a:p="0" a:t="10487.25"/><a:m a:x="128" a:y="859" a:p="0" a:t="10487.25"/><a:m a:x="130" a:y="859" a:p="0" a:t="10487.25"/><a:m a:x="131" a:y="859" a:p="0" a:t="10487.25"/><a:m a:x="133" a:y="859" a:p="0" a:t="10487.25"/><a:m a:x="134" a:y="859" a:p="0" a:t="10487.25"/><a:m a:x="134" a:y="859" a:p="0" a:t="10487.25"/></g></g></svg>